<svg width="100.000000" height="100.000000" viewBox="0 0 100 100" fill="none" xmlns="http://www.w3.org/2000/svg" xmlns:xlink="http://www.w3.org/1999/xlink">
	<desc>
			Created with Pixso.
	</desc>
	<defs/>
	<path id="Vector" d="M50 27.12C54.34 27.12 57.87 30.64 57.87 35C57.87 39.35 54.34 42.87 50 42.87C45.65 42.87 42.12 39.35 42.12 35C42.12 30.64 45.65 27.12 50 27.12ZM50 60.87C61.13 60.87 72.87 66.35 72.87 68.75L72.87 72.87L27.12 72.87L27.12 68.75C27.12 66.35 38.86 60.87 50 60.87ZM50 20C41.71 20 35 26.71 35 35C35 43.28 41.71 50 50 50C58.28 50 65 43.28 65 35C65 26.71 58.28 20 50 20ZM50 53.75C39.98 53.75 20 58.77 20 68.75L20 76.25C20 78.31 21.68 80 23.75 80L76.25 80C78.31 80 80 78.31 80 76.25L80 68.75C80 58.77 60.01 53.75 50 53.75Z" fill="#733506" fill-opacity="1.000000" fill-rule="nonzero"/>
	<path id="Vector 8" d="M50 27L54 28L57 31L58 34L57.5 38L54 42L50 43L46 42L42.5 38L42 34L43 31L46 28L50 27Z" fill="#733506" fill-opacity="1.000000" fill-rule="nonzero"/>
	<path id="Vector 8" d="M54 28L57 31L58 34L57.5 38L54 42L50 43L46 42L42.5 38L42 34L43 31L46 28L50 27L54 28Z" stroke="#733506" stroke-opacity="1.000000" stroke-width="1.000000"/>
	<path id="Vector 9" d="M27 73L27 68.5L27.5 67.5L33 64.5L39 62.5L45.5 61L55 61L62.5 62.5L67 64.5L72 67.5L73 68.5L73 73L27 73Z" fill="#733506" fill-opacity="1.000000" fill-rule="nonzero"/>
	<path id="Vector 9" d="M27 68.5L27.5 67.5L33 64.5L39 62.5L45.5 61L55 61L62.5 62.5L67 64.5L72 67.5L73 68.5L73 73L27 73L27 68.5Z" stroke="#733506" stroke-opacity="1.000000" stroke-width="1.000000"/>
</svg>
