<svg width="30.000000" height="17.000000" viewBox="0 0 30 17" fill="none" xmlns="http://www.w3.org/2000/svg" xmlns:xlink="http://www.w3.org/1999/xlink">
	<desc>
			Created with Pixso.
	</desc>
	<defs/>
	<path id="Alphabet" d="M13.49 14.53L8.03 0.93C7.57 -0.22 6.06 -0.22 5.59 0.93L0.14 14.53C-0.02 14.94 -0.05 15.4 0.07 15.83C0.18 16.26 0.43 16.61 0.75 16.82C1.07 17.02 1.45 17.05 1.79 16.91C2.13 16.77 2.42 16.46 2.58 16.06L3.56 13.59L10.06 13.59L11.05 16.05C11.13 16.25 11.24 16.43 11.37 16.58C11.51 16.73 11.67 16.84 11.84 16.91C12.01 16.98 12.19 17.01 12.36 16.99C12.54 16.98 12.72 16.91 12.88 16.82C13.55 16.39 13.83 15.37 13.49 14.53ZM4.93 10.19L6.81 5.5L8.7 10.19L4.93 10.19ZM28.63 16.99L20.45 16.99C20.2 16.99 19.95 16.9 19.73 16.74C19.52 16.57 19.34 16.34 19.23 16.05C19.12 15.77 19.07 15.46 19.09 15.14C19.12 14.83 19.21 14.53 19.36 14.27L25.9 3.39L20.45 3.39C20.09 3.39 19.74 3.22 19.49 2.9C19.23 2.58 19.09 2.15 19.09 1.69C19.09 1.24 19.23 0.81 19.49 0.49C19.74 0.17 20.09 0 20.45 0L28.63 0C28.88 0 29.13 0.08 29.35 0.25C29.56 0.42 29.74 0.65 29.85 0.94C29.96 1.22 30.01 1.53 29.99 1.85C29.97 2.16 29.87 2.46 29.72 2.71L23.18 13.59L28.63 13.59C28.99 13.59 29.34 13.77 29.6 14.09C29.85 14.41 30 14.84 30 15.29C30 15.74 29.85 16.18 29.6 16.5C29.34 16.81 28.99 16.99 28.63 16.99ZM17.72 10.19L15 10.19C14.63 10.19 14.29 10.02 14.03 9.7C13.78 9.38 13.63 8.95 13.63 8.49C13.63 8.04 13.78 7.61 14.03 7.29C14.29 6.97 14.63 6.79 15 6.79L17.72 6.79C18.08 6.79 18.43 6.97 18.69 7.29C18.94 7.61 19.09 8.04 19.09 8.49C19.09 8.95 18.94 9.38 18.69 9.7C18.43 10.02 18.08 10.19 17.72 10.19Z" fill="#733506" fill-opacity="1.000000" fill-rule="nonzero"/>
</svg>
