<svg width="30.000000" height="30.000000" viewBox="0 0 30 30" fill="none" xmlns="http://www.w3.org/2000/svg" xmlns:xlink="http://www.w3.org/1999/xlink">
	<desc>
			Created with Pixso.
	</desc>
	<defs/>
	<path id="Vector" d="M18.13 19.09L11.86 19.09C11.58 19.09 11.32 18.99 11.12 18.79C10.93 18.6 10.82 18.34 10.82 18.07L10.82 11.91C10.82 11.64 10.93 11.38 11.12 11.19C11.32 11 11.58 10.89 11.86 10.89L18.13 10.89C18.41 10.89 18.67 11 18.87 11.19C19.06 11.38 19.17 11.64 19.17 11.91L19.17 18.1C19.16 18.37 19.05 18.62 18.86 18.8C18.66 18.99 18.4 19.09 18.13 19.09ZM12.92 17.05L17.07 17.05L17.07 12.96L12.92 12.96L12.92 17.05ZM28.96 19.09L22.69 19.09C22.41 19.09 22.15 18.99 21.95 18.79C21.76 18.6 21.65 18.34 21.65 18.07L21.65 11.91C21.65 11.64 21.76 11.38 21.95 11.19C22.15 11 22.41 10.89 22.69 10.89L28.96 10.89C29.23 10.89 29.5 11 29.69 11.19C29.89 11.38 30 11.64 30 11.91L30 18.1C29.99 18.37 29.88 18.62 29.68 18.8C29.49 18.99 29.23 19.09 28.96 19.09ZM23.72 17.05L27.92 17.05L27.92 12.96L23.72 12.96L23.72 17.05ZM7.3 19.09L1.03 19.09C0.76 19.09 0.49 18.99 0.3 18.79C0.1 18.6 0 18.34 0 18.07L0 11.91C0 11.64 0.1 11.38 0.3 11.19C0.49 11 0.76 10.89 1.03 10.89L7.3 10.89C7.58 10.89 7.84 11 8.04 11.19C8.23 11.38 8.34 11.64 8.34 11.91L8.34 18.1C8.33 18.37 8.22 18.62 8.03 18.8C7.83 18.99 7.58 19.09 7.3 19.09ZM2.07 17.05L6.27 17.05L6.27 12.96L2.07 12.96L2.07 17.05ZM18.13 8.23L11.86 8.23C11.58 8.23 11.32 8.12 11.12 7.93C10.93 7.74 10.82 7.48 10.82 7.21L10.82 1.02C10.82 0.75 10.93 0.49 11.12 0.29C11.32 0.1 11.58 0 11.86 0L18.13 0C18.41 0 18.67 0.1 18.87 0.29C19.06 0.49 19.17 0.75 19.17 1.02L19.17 7.21C19.17 7.48 19.06 7.74 18.87 7.93C18.67 8.12 18.41 8.23 18.13 8.23ZM12.89 6.19L17.07 6.19L17.07 2.06L12.92 2.06L12.89 6.19ZM28.96 8.23L22.69 8.23C22.41 8.23 22.15 8.12 21.95 7.93C21.76 7.74 21.65 7.48 21.65 7.21L21.65 1.02C21.65 0.75 21.76 0.49 21.95 0.29C22.15 0.1 22.41 0 22.69 0L28.96 0C29.23 0 29.5 0.1 29.69 0.29C29.89 0.49 30 0.75 30 1.02L30 7.21C30 7.48 29.89 7.74 29.69 7.93C29.5 8.12 29.23 8.23 28.96 8.23ZM23.72 6.19L27.92 6.19L27.92 2.06L23.72 2.06L23.72 6.19ZM7.3 8.23L1.03 8.23C0.76 8.23 0.49 8.12 0.3 7.93C0.1 7.74 0 7.48 0 7.21L0 1.02C0 0.75 0.1 0.49 0.3 0.29C0.49 0.1 0.76 0 1.03 0L7.3 0C7.58 0 7.84 0.1 8.04 0.29C8.23 0.49 8.34 0.75 8.34 1.02L8.34 7.21C8.34 7.48 8.23 7.74 8.04 7.93C7.84 8.12 7.58 8.23 7.3 8.23ZM2.07 6.19L6.27 6.19L6.27 2.06L2.07 2.06L2.07 6.19ZM18.13 30L11.86 30C11.58 30 11.32 29.89 11.12 29.7C10.93 29.5 10.82 29.24 10.82 28.97L10.82 22.8C10.82 22.53 10.93 22.27 11.12 22.08C11.32 21.89 11.58 21.78 11.86 21.78L18.13 21.78C18.41 21.78 18.67 21.89 18.87 22.08C19.06 22.27 19.17 22.53 19.17 22.8L19.17 28.99C19.16 29.26 19.05 29.52 18.86 29.7C18.66 29.89 18.4 30 18.13 30ZM12.92 27.95L17.07 27.95L17.07 23.82L12.92 23.82L12.92 27.95ZM28.96 30L22.69 30C22.41 30 22.15 29.89 21.95 29.7C21.76 29.5 21.65 29.24 21.65 28.97L21.65 22.8C21.65 22.53 21.76 22.27 21.95 22.08C22.15 21.89 22.41 21.78 22.69 21.78L28.96 21.78C29.23 21.78 29.5 21.89 29.69 22.08C29.89 22.27 30 22.53 30 22.8L30 28.99C29.99 29.26 29.88 29.52 29.68 29.7C29.49 29.89 29.23 30 28.96 30ZM23.72 27.95L27.92 27.95L27.92 23.82L23.72 23.82L23.72 27.95ZM7.3 30L1.03 30C0.76 30 0.49 29.89 0.3 29.7C0.1 29.5 0 29.24 0 28.97L0 22.8C0 22.53 0.1 22.27 0.3 22.08C0.49 21.89 0.76 21.78 1.03 21.78L7.3 21.78C7.58 21.78 7.84 21.89 8.04 22.08C8.23 22.27 8.34 22.53 8.34 22.8L8.34 28.99C8.34 29.26 8.22 29.52 8.03 29.7C7.84 29.89 7.58 30 7.3 30ZM2.07 27.95L6.27 27.95L6.27 23.82L2.07 23.82L2.07 27.95Z" fill="#733506" fill-opacity="1.000000" fill-rule="nonzero"/>
</svg>
