<svg width="29.000000" height="28.000000" viewBox="0 0 29 28" fill="none" xmlns="http://www.w3.org/2000/svg" xmlns:xlink="http://www.w3.org/1999/xlink">
	<desc>
			Created with Pixso.
	</desc>
	<defs/>
	<path id="Vector" d="M27.91 8.35C27.7 7.07 27.15 5.86 26.32 4.87C25.5 3.87 24.42 3.13 23.21 2.71C22.12 2.33 20.95 2.24 19.81 2.45C19.17 1.47 18.31 0.67 17.3 0.11C16.28 -0.44 15.15 -0.73 14 -0.73C12.85 -0.73 11.72 -0.44 10.71 0.11C9.69 0.67 8.83 1.47 8.19 2.45C7.05 2.24 5.88 2.33 4.79 2.71C3.61 3.11 2.56 3.82 1.75 4.77C0.92 5.72 0.37 6.88 0.13 8.12C-0.11 9.37 -0.02 10.65 0.38 11.85C0.78 13.05 1.49 14.12 2.43 14.94C2.94 15.41 3.34 15.98 3.61 16.63C3.88 17.27 4.01 17.96 4 18.66L4 24.89C4 25.7 4.31 26.48 4.88 27.06C5.44 27.63 6.2 27.95 7 27.95L21 27.95C21.79 27.95 22.55 27.63 23.11 27.06C23.68 26.48 23.99 25.7 24 24.89L24 18.66C23.98 17.96 24.11 17.27 24.38 16.63C24.65 15.98 25.05 15.41 25.56 14.94C26.47 14.14 27.16 13.12 27.58 11.96C27.99 10.81 28.1 9.57 27.91 8.35ZM21 25.91L7 25.91C6.73 25.91 6.48 25.8 6.29 25.61C6.1 25.42 6 25.16 6 24.89L6 22.83L22 22.83L22 24.89C21.99 25.16 21.89 25.42 21.7 25.61C21.51 25.8 21.26 25.91 21 25.91ZM24.26 13.39C23.53 14.05 22.95 14.86 22.56 15.77C22.17 16.68 21.98 17.67 22 18.66L22 20.78L6 20.78L6 18.66C6.01 17.67 5.82 16.68 5.43 15.77C5.04 14.86 4.46 14.05 3.73 13.39C2.86 12.62 2.28 11.58 2.07 10.43C1.86 9.28 2.05 8.09 2.59 7.06C3.14 6.03 4.01 5.22 5.07 4.77C6.12 4.32 7.3 4.26 8.4 4.59C8.62 4.66 8.86 4.64 9.07 4.55C9.28 4.46 9.46 4.29 9.56 4.08C9.98 3.25 10.62 2.55 11.4 2.06C12.18 1.57 13.08 1.31 14 1.31C14.92 1.31 15.82 1.57 16.6 2.06C17.38 2.55 18.02 3.25 18.44 4.08C18.54 4.29 18.72 4.46 18.93 4.55C19.14 4.64 19.38 4.66 19.6 4.59C20.58 4.3 21.62 4.32 22.58 4.66C23.42 4.94 24.17 5.45 24.76 6.13C25.34 6.81 25.74 7.63 25.91 8.52C26.08 9.41 26.01 10.33 25.73 11.18C25.44 12.04 24.93 12.8 24.26 13.39L24.26 13.39Z" fill="#733506" fill-opacity="1.000000" fill-rule="nonzero"/>
	<path id="Vector" d="M14 17.71C13.73 17.71 13.48 17.6 13.29 17.41C13.1 17.22 13 16.96 13 16.68L13 9.51C13 9.24 13.1 8.98 13.29 8.79C13.48 8.6 13.73 8.49 14 8.49C14.26 8.49 14.51 8.6 14.7 8.79C14.89 8.98 15 9.24 15 9.51L15 16.68C15 16.96 14.89 17.22 14.7 17.41C14.51 17.6 14.26 17.71 14 17.71ZM18 17.71C17.93 17.71 17.86 17.7 17.8 17.69C17.67 17.66 17.54 17.61 17.43 17.53C17.33 17.46 17.23 17.36 17.16 17.25C17.09 17.14 17.04 17.01 17.01 16.88C16.99 16.75 16.99 16.61 17.01 16.48L18.01 11.36C18.08 11.1 18.23 10.87 18.45 10.73C18.67 10.59 18.93 10.53 19.18 10.59C19.44 10.64 19.66 10.79 19.81 11.01C19.96 11.23 20.02 11.5 19.98 11.76L18.98 16.88C18.93 17.11 18.81 17.32 18.63 17.47C18.45 17.63 18.23 17.71 18 17.71ZM10 17.71C9.76 17.71 9.54 17.63 9.36 17.48C9.18 17.33 9.06 17.12 9.02 16.89L8.02 11.77C7.99 11.63 7.98 11.49 8 11.36C8.03 11.22 8.08 11.09 8.15 10.98C8.22 10.86 8.32 10.76 8.42 10.68C8.54 10.61 8.66 10.55 8.79 10.53C8.92 10.5 9.06 10.5 9.19 10.53C9.32 10.56 9.45 10.61 9.56 10.69C9.67 10.77 9.76 10.87 9.83 10.98C9.91 11.1 9.95 11.23 9.98 11.36L10.98 16.49C11.03 16.75 10.97 17.03 10.83 17.25C10.68 17.48 10.45 17.63 10.19 17.69C10.13 17.7 10.06 17.71 10 17.71Z" fill="#C87E46" fill-opacity="1.000000" fill-rule="nonzero"/>
</svg>
