<svg width="35.000000" height="45.000000" viewBox="0 0 35 45" fill="none" xmlns="http://www.w3.org/2000/svg" xmlns:xlink="http://www.w3.org/1999/xlink">
	<desc>
			Created with Pixso.
	</desc>
	<defs/>
	<path id="Vector" d="M33.54 22.5C33.54 34 26.36 43.33 17.5 43.33C8.64 43.33 1.45 34 1.45 22.5C1.45 10.99 8.64 1.66 17.5 1.66C26.36 1.66 33.54 10.99 33.54 22.5Z" fill="#A1836D" fill-opacity="1.000000" fill-rule="evenodd"/>
	<path id="Vector" d="M33.54 22.5C33.54 11.52 27 2.52 18.7 1.72C23.36 7.11 22.82 16.4 17.5 22.5C12.17 28.59 11.64 37.88 16.29 43.27C16.69 43.31 17.09 43.33 17.5 43.33C26.35 43.33 33.54 34 33.54 22.5Z" fill="#6D5949" fill-opacity="1.000000" fill-rule="nonzero"/>
	<path id="Vector" d="M17.5 45C7.84 45 0 34.9 0 22.5C0 10.09 7.84 0 17.5 0C27.15 0 35 10.09 35 22.5C35 34.9 27.15 45 17.5 45ZM17.5 3.33C9.45 3.33 2.91 11.92 2.91 22.5C2.91 33.07 9.45 41.66 17.5 41.66C25.54 41.66 32.08 33.07 32.08 22.5C32.08 11.92 25.54 3.33 17.5 3.33Z" fill="#733506" fill-opacity="1.000000" fill-rule="nonzero"/>
	<path id="Vector" d="M13.32 38.36C12.98 38.36 12.65 38.22 12.39 37.97C12.13 37.72 11.95 37.38 11.89 36.99C11 31.48 12.71 25.62 16.46 21.32C19.49 17.85 20.94 12.97 20.23 8.6C20.19 8.18 20.28 7.75 20.5 7.41C20.72 7.07 21.05 6.83 21.42 6.75C21.78 6.68 22.16 6.76 22.48 6.99C22.79 7.22 23.01 7.58 23.1 8C23.99 13.51 22.29 19.37 18.53 23.67C15.5 27.14 14.05 32.02 14.76 36.39C14.83 36.82 14.74 37.27 14.52 37.64C14.3 38 13.97 38.25 13.59 38.33C13.5 38.35 13.41 38.36 13.32 38.36Z" fill="#733506" fill-opacity="1.000000" fill-rule="nonzero"/>
</svg>
