<svg width="35" height="45" viewBox="0 0 35 45" fill="none" xmlns="http://www.w3.org/2000/svg">
<path d="M17.5004 43.3323C26.3603 43.3323 33.5427 34.0054 33.5427 22.5C33.5427 10.9947 26.3603 1.66772 17.5004 1.66772C8.64041 1.66772 1.45801 10.9947 1.45801 22.5C1.45801 34.0054 8.64041 43.3323 17.5004 43.3323Z" fill="#A1836D"/>
<path d="M33.5426 22.5C33.5426 11.5237 27.0043 2.52848 18.7096 1.72339C23.3601 7.11975 22.8261 16.4025 17.5003 22.5C12.1745 28.5976 11.6404 37.8803 16.291 43.2767C16.6903 43.315 17.0934 43.3342 17.5003 43.3342C26.3599 43.3323 33.5426 34.0014 33.5426 22.5Z" fill="#6D5949"/>
<path d="M17.5 45C7.84992 45 0 34.9066 0 22.5C0 10.0934 7.84992 0 17.5 0C27.1501 0 35 10.0934 35 22.5C35 34.9066 27.1501 45 17.5 45ZM17.5 3.33354C9.45854 3.33354 2.91694 11.9262 2.91694 22.5C2.91694 33.0738 9.45854 41.6665 17.5 41.6665C25.5415 41.6665 32.0831 33.0738 32.0831 22.5C32.0831 11.9262 25.5415 3.33354 17.5 3.33354Z" fill="#733506"/>
<path d="M13.3262 38.3626C12.9857 38.3618 12.6561 38.2252 12.3944 37.9762C12.1327 37.7273 11.9553 37.3817 11.8929 36.9991C11.0018 31.4822 12.7126 25.622 16.4672 21.322C19.4994 17.8512 20.944 12.9743 20.2379 8.60559C20.1922 8.18319 20.2894 7.75678 20.5096 7.41354C20.7299 7.0703 21.0565 6.83614 21.4227 6.75892C21.789 6.68169 22.1672 6.76725 22.4801 6.99808C22.793 7.22892 23.017 7.58761 23.1062 8.00085C23.9973 13.5178 22.2946 19.3779 18.5319 23.6779C15.4997 27.1488 14.0551 32.0257 14.7612 36.3944C14.8304 36.8287 14.7463 37.2766 14.5273 37.6403C14.3083 38.0039 13.9721 38.2536 13.5924 38.3348C13.5046 38.3531 13.4155 38.3624 13.3262 38.3626Z" fill="#733506"/>
</svg>
