<svg width="139.000000" height="158.000000" viewBox="0 0 139 158" fill="none" xmlns="http://www.w3.org/2000/svg" xmlns:xlink="http://www.w3.org/1999/xlink">
	<desc>
			Created with Pixso.
	</desc>
	<defs/>
	<path id="Vector" d="M131.25 143.31C132.82 143.61 134.21 144.46 135.15 145.69C136.1 146.92 136.53 148.44 136.38 149.97C136.22 151.49 135.48 152.9 134.3 153.92C133.12 154.95 131.58 155.52 129.99 155.53L107.18 155.53C107.54 151.55 107.95 147.58 108.44 143.6C108.47 143.45 108.47 143.33 108.49 143.18L129.99 143.18C130.41 143.19 130.84 143.23 131.25 143.31Z" fill="#FFF2E8" fill-opacity="1.000000" fill-rule="nonzero"/>
	<path id="Vector" d="M131.27 129.06L131.27 143.18L131.25 143.31C130.83 143.23 130.41 143.19 129.99 143.18L108.49 143.18C109.88 131.7 111.79 120.25 114.23 108.89L119.33 111.14C122.9 112.72 125.92 115.25 128.03 118.43C130.14 121.6 131.27 125.29 131.27 129.06Z" fill="#FFF2E8" fill-opacity="1.000000" fill-rule="nonzero"/>
	<path id="Vector" d="M51.48 155.53L31.81 155.53C31.45 151.55 31.04 147.58 30.55 143.6C30.52 143.45 30.52 143.33 30.5 143.18C29.11 131.7 27.2 120.25 24.76 108.89L45.5 99.09C48.42 97.73 50.98 95.75 53 93.31L54.05 93.81L68.88 105.66L84.94 93.81L85.94 93.24C87.96 95.72 90.54 97.72 93.49 99.09L114.23 108.89C111.79 120.25 109.88 131.7 108.49 143.18C108.47 143.33 108.47 143.45 108.44 143.6C107.95 147.58 107.54 151.55 107.18 155.53L51.48 155.53ZM100.39 124.67C100.39 123.69 99.98 122.74 99.25 122.05C98.53 121.35 97.55 120.96 96.52 120.96L86.23 120.96C85.2 120.96 84.22 121.35 83.5 122.05C82.77 122.74 82.37 123.69 82.37 124.67C82.37 125.65 82.77 126.59 83.5 127.29C84.22 127.98 85.2 128.37 86.23 128.37L96.52 128.37C97.55 128.37 98.53 127.98 99.25 127.29C99.98 126.59 100.39 125.65 100.39 124.67ZM72.07 120.96C72.07 120.48 71.92 120 71.64 119.59C71.35 119.19 70.95 118.87 70.48 118.68C70.01 118.5 69.49 118.45 68.99 118.54C68.49 118.64 68.04 118.87 67.67 119.22C67.32 119.56 67.07 120 66.97 120.48C66.87 120.96 66.92 121.46 67.12 121.91C67.31 122.36 67.64 122.75 68.07 123.02C68.49 123.29 68.99 123.43 69.5 123.43C70.18 123.43 70.83 123.17 71.32 122.71C71.8 122.25 72.07 121.62 72.07 120.96ZM72.07 133.31C72.07 132.82 71.92 132.34 71.64 131.94C71.35 131.53 70.95 131.21 70.48 131.03C70.01 130.84 69.49 130.79 68.99 130.89C68.49 130.98 68.04 131.22 67.67 131.56C67.32 131.91 67.07 132.35 66.97 132.83C66.87 133.31 66.92 133.8 67.12 134.25C67.31 134.7 67.64 135.09 68.07 135.36C68.49 135.63 68.99 135.78 69.5 135.78C70.18 135.78 70.83 135.52 71.32 135.05C71.8 134.59 72.07 133.96 72.07 133.31ZM72.07 145.65C72.07 145.16 71.92 144.69 71.64 144.28C71.35 143.87 70.95 143.56 70.48 143.37C70.01 143.18 69.49 143.14 68.99 143.23C68.49 143.33 68.04 143.56 67.67 143.91C67.32 144.25 67.07 144.69 66.97 145.17C66.87 145.65 66.92 146.14 67.12 146.6C67.31 147.05 67.64 147.43 68.07 147.7C68.49 147.98 68.99 148.12 69.5 148.12C70.18 148.12 70.83 147.86 71.32 147.4C71.8 146.93 72.07 146.31 72.07 145.65Z" fill="#FFF2E8" fill-opacity="1.000000" fill-rule="nonzero"/>
	<path id="Vector" d="M97.81 46.9C99.86 46.9 101.82 47.68 103.27 49.07C104.72 50.46 105.53 52.34 105.53 54.31C105.53 56.27 104.72 58.16 103.27 59.54C101.82 60.93 99.86 61.71 97.81 61.71L95.24 61.71L95.24 46.9L97.81 46.9Z" fill="#FFD9BC" fill-opacity="1.000000" fill-rule="nonzero"/>
	<path id="Vector" d="M56.29 9.62C57.66 7.44 59.6 5.63 61.91 4.38C64.23 3.12 66.84 2.46 69.5 2.46C72.16 2.46 74.77 3.12 77.08 4.38C79.4 5.63 81.33 7.44 82.71 9.62C85.31 7.87 88.5 7.11 91.66 7.5C94.04 7.78 96.29 8.69 98.16 10.14C100.02 11.58 101.43 13.49 102.23 15.66C103.02 17.83 103.17 20.16 102.66 22.41C102.14 24.65 100.98 26.71 99.31 28.36C98.36 29.28 97.82 30.52 97.82 31.82L97.82 34.56L41.18 34.56L41.18 31.82C41.18 30.52 40.64 29.28 39.69 28.36C38.01 26.71 36.86 24.65 36.34 22.41C35.82 20.16 35.97 17.83 36.77 15.66C37.56 13.49 38.97 11.58 40.84 10.14C42.7 8.69 44.95 7.78 47.33 7.5C50.49 7.11 53.69 7.86 56.29 9.62Z" fill="#FFF2E8" fill-opacity="1.000000" fill-rule="nonzero"/>
	<path id="Vector" d="M97.82 34.56L97.82 44.43L95.24 44.43L43.76 44.43L41.18 44.43L41.18 34.56L97.82 34.56Z" fill="#F2DFD0" fill-opacity="1.000000" fill-rule="nonzero"/>
	<path id="Vector" d="M96.52 120.96C97.55 120.96 98.53 121.35 99.25 122.05C99.98 122.74 100.38 123.69 100.38 124.67C100.38 125.65 99.98 126.59 99.25 127.29C98.53 127.98 97.55 128.37 96.52 128.37L86.23 128.37C85.2 128.37 84.22 127.98 83.5 127.29C82.77 126.59 82.36 125.65 82.36 124.67C82.36 123.69 82.77 122.74 83.5 122.05C84.22 121.35 85.2 120.96 86.23 120.96L96.52 120.96Z" fill="#F8B583" fill-opacity="1.000000" fill-rule="nonzero"/>
	<path id="Vector" d="M81.8 79.02C80.65 79.76 79.49 80.5 78.35 81.27C75.76 83 72.66 83.93 69.5 83.93C66.33 83.93 63.24 83 60.64 81.27C59.51 80.5 58.33 79.76 57.17 79C54.1 77.19 51.33 74.95 48.96 72.35C44.43 67 43.75 60.95 43.75 54.31L43.75 44.43L95.24 44.43L95.24 54.31C95.24 60.95 94.62 67.02 90.04 72.35C87.62 74.92 84.85 77.17 81.8 79.02Z" fill="#FFD9BC" fill-opacity="1.000000" fill-rule="nonzero"/>
	<path id="Vector" d="M71.87 81.27C70.74 80.5 69.56 79.76 68.4 79C65.33 77.19 62.56 74.95 60.19 72.35C55.66 67 54.99 60.95 54.99 54.31L54.99 44.43L43.75 44.43L43.75 54.31C43.75 60.95 44.42 67 48.95 72.35C51.33 74.95 54.1 77.19 57.17 79C58.33 79.76 59.51 80.5 60.64 81.27C62.73 82.65 65.15 83.53 67.67 83.81C70.19 84.09 72.75 83.77 75.11 82.88C73.97 82.46 72.88 81.92 71.87 81.27Z" fill="#F5CEB0" fill-opacity="1.000000" fill-rule="nonzero"/>
	<path id="Vector" d="M85.94 93.24L84.94 93.81L83.7 94.72L68.88 105.66L54.05 93.81L52.99 93.31C55 90.87 56.36 88 56.96 84.94C56.96 84.9 56.98 84.85 56.98 84.8C57.38 82.89 57.44 80.93 57.16 79C58.32 79.76 59.5 80.5 60.64 81.27C63.24 82.99 66.33 83.91 69.49 83.91C72.66 83.91 75.75 82.99 78.35 81.27C79.48 80.5 80.64 79.76 81.8 79.02C81.56 80.89 81.62 82.78 81.98 84.62C81.98 84.67 82 84.72 82 84.8C82.57 87.88 83.92 90.78 85.94 93.24Z" fill="#FFD9BC" fill-opacity="1.000000" fill-rule="nonzero"/>
	<path id="Vector" d="M72.07 120.96C72.07 122.33 70.92 123.43 69.5 123.43C68.08 123.43 66.92 122.33 66.92 120.96C66.92 119.6 68.08 118.5 69.5 118.5C70.92 118.5 72.07 119.6 72.07 120.96Z" fill="#733506" fill-opacity="1.000000" fill-rule="evenodd"/>
	<path id="Vector" d="M72.07 133.31C72.07 134.67 70.92 135.78 69.5 135.78C68.08 135.78 66.92 134.67 66.92 133.31C66.92 131.94 68.08 130.84 69.5 130.84C70.92 130.84 72.07 131.94 72.07 133.31Z" fill="#733506" fill-opacity="1.000000" fill-rule="evenodd"/>
	<path id="Vector" d="M72.07 145.65C72.07 147.02 70.92 148.12 69.5 148.12C68.08 148.12 66.92 147.02 66.92 145.65C66.92 144.29 68.08 143.18 69.5 143.18C70.92 143.18 72.07 144.29 72.07 145.65Z" fill="#733506" fill-opacity="1.000000" fill-rule="evenodd"/>
	<path id="Vector" d="M43.75 54.31L43.75 61.71L41.18 61.71C40.16 61.71 39.16 61.52 38.22 61.15C37.29 60.78 36.43 60.23 35.72 59.54C35 58.86 34.43 58.04 34.04 57.14C33.66 56.24 33.46 55.28 33.46 54.31C33.46 53.34 33.66 52.37 34.04 51.47C34.43 50.58 35 49.76 35.72 49.07C36.43 48.38 37.29 47.84 38.22 47.47C39.16 47.09 40.16 46.9 41.18 46.9L43.75 46.9L43.75 54.31Z" fill="#FFD9BC" fill-opacity="1.000000" fill-rule="nonzero"/>
	<path id="Vector" d="M31.82 155.53L9 155.53C7.41 155.53 5.87 154.96 4.68 153.93C3.5 152.91 2.75 151.5 2.59 149.97C2.43 148.45 2.87 146.93 3.82 145.69C4.76 144.46 6.15 143.61 7.72 143.31C8.14 143.23 8.57 143.19 9 143.18L30.5 143.18C30.52 143.33 30.52 143.45 30.55 143.6C31.04 147.58 31.45 151.55 31.82 155.53Z" fill="#FFF2E8" fill-opacity="1.000000" fill-rule="nonzero"/>
	<path id="Vector" d="M30.55 143.6C30.53 143.45 30.53 143.33 30.5 143.18L22.65 143.18C22.79 144.53 22.94 145.88 23.09 147.22C23.12 147.57 23.08 147.92 22.97 148.25C22.86 148.57 22.67 148.88 22.43 149.13C22.19 149.39 21.89 149.59 21.56 149.73C21.23 149.87 20.87 149.94 20.51 149.94L2.63 149.94C2.78 151.46 3.51 152.88 4.69 153.91C5.87 154.95 7.41 155.52 9 155.53L31.81 155.53C31.45 151.55 31.04 147.58 30.55 143.6Z" fill="#F2DFD0" fill-opacity="1.000000" fill-rule="nonzero"/>
	<path id="Vector" d="M30.5 143.18L9 143.18C8.57 143.19 8.14 143.23 7.72 143.31L7.72 129.06C7.72 125.29 8.84 121.6 10.96 118.43C13.08 115.25 16.09 112.72 19.66 111.14L24.76 108.89C27.2 120.25 29.11 131.7 30.5 143.18Z" fill="#FFF2E8" fill-opacity="1.000000" fill-rule="nonzero"/>
	<path id="Vector" d="M83.7 94.72L68.88 105.66L54.05 93.81L52.99 93.31C55 90.87 56.36 88 56.96 84.94C56.96 84.9 56.98 84.85 56.98 84.8C57.38 82.89 57.44 80.93 57.16 79C58.32 79.76 59.5 80.5 60.64 81.27C62.95 82.81 65.67 83.72 68.49 83.88L68.49 84.85C68.49 87.46 69.58 89.98 71.5 91.83C73.44 93.68 76.06 94.72 78.79 94.72L83.7 94.72Z" fill="#F5CEB0" fill-opacity="1.000000" fill-rule="nonzero"/>
	<path id="Vector" d="M30.5 143.18L9 143.18C8.57 143.19 8.14 143.23 7.72 143.31L7.72 134.42L7.84 134.42C9.34 134.42 10.82 134.1 12.18 133.5C13.54 132.89 14.74 132.01 15.71 130.91C16.67 129.81 17.38 128.52 17.77 127.14C18.17 125.75 18.24 124.29 17.99 122.88L16.24 113.06C17.31 112.32 18.46 111.67 19.66 111.14L24.76 108.89C27.2 120.25 29.11 131.7 30.5 143.18ZM108.44 143.6C108.46 143.45 108.46 143.33 108.49 143.18L116.35 143.18C116.2 144.53 116.05 145.88 115.9 147.22C115.87 147.57 115.91 147.92 116.02 148.25C116.13 148.57 116.32 148.88 116.56 149.13C116.8 149.39 117.1 149.59 117.43 149.73C117.76 149.87 118.11 149.94 118.48 149.94L136.36 149.94C136.21 151.46 135.48 152.88 134.3 153.91C133.12 154.95 131.59 155.52 129.99 155.53L107.18 155.53C107.54 151.55 107.95 147.58 108.44 143.6Z" fill="#F2DFD0" fill-opacity="1.000000" fill-rule="nonzero"/>
	<path id="Vector" d="M108.49 143.18L129.99 143.18C130.42 143.19 130.85 143.23 131.27 143.31L131.27 134.42L131.15 134.42C129.65 134.42 128.17 134.1 126.81 133.5C125.45 132.89 124.25 132.01 123.28 130.91C122.32 129.81 121.61 128.52 121.22 127.14C120.82 125.75 120.75 124.29 121 122.88L122.76 113.06C121.68 112.32 120.53 111.67 119.33 111.14L114.23 108.89C111.79 120.25 109.88 131.7 108.49 143.18Z" fill="#F2DFD0" fill-opacity="1.000000" fill-rule="nonzero"/>
	<path id="Vector" d="M54.42 84.51C53.86 87.18 52.66 89.69 50.91 91.83C49.16 93.98 46.92 95.71 44.36 96.88L23.62 106.68L18.58 108.9C14.57 110.68 11.18 113.53 8.8 117.1C6.42 120.67 5.15 124.82 5.14 129.06L5.14 141.57C3.29 142.41 1.8 143.83 0.9 145.59C0.01 147.35 -0.23 149.35 0.22 151.27C0.66 153.18 1.78 154.89 3.38 156.11C4.97 157.33 6.96 158 9 158L129.99 158C132.03 158 134.02 157.34 135.61 156.11C137.21 154.89 138.33 153.18 138.77 151.27C139.22 149.36 138.98 147.36 138.09 145.6C137.19 143.83 135.7 142.42 133.85 141.58L133.85 129.06C133.84 124.82 132.57 120.67 130.19 117.1C127.81 113.53 124.41 110.68 120.4 108.89L115.37 106.67L94.62 96.87C92.01 95.68 89.74 93.9 87.98 91.7C86.22 89.5 85.04 86.93 84.52 84.2C84.3 82.93 84.22 81.64 84.3 80.35C87.17 78.56 89.77 76.4 92.02 73.93C94.43 71.1 96.11 67.76 96.9 64.18L97.81 64.18C100.32 64.19 102.75 63.31 104.63 61.72C106.52 60.13 107.73 57.93 108.03 55.54C108.34 53.15 107.73 50.73 106.3 48.75C104.88 46.76 102.75 45.34 100.32 44.76C100.35 44.66 100.37 44.54 100.38 44.43L100.38 31.82C100.39 31.17 100.66 30.55 101.14 30.09C103.15 28.11 104.54 25.64 105.17 22.94C105.79 20.25 105.61 17.44 104.66 14.83C103.7 12.23 102.01 9.93 99.77 8.2C97.52 6.47 94.82 5.37 91.96 5.04C89.05 4.7 86.1 5.16 83.45 6.36C81.76 4.37 79.63 2.77 77.22 1.67C74.81 0.57 72.17 0 69.5 0C66.82 0 64.18 0.57 61.77 1.67C59.35 2.77 57.23 4.37 55.54 6.36C52.89 5.16 49.94 4.71 47.02 5.04C44.17 5.37 41.47 6.47 39.22 8.2C36.98 9.93 35.29 12.23 34.33 14.83C33.38 17.43 33.2 20.24 33.82 22.94C34.44 25.63 35.84 28.11 37.85 30.08C38.33 30.54 38.6 31.16 38.6 31.81L38.6 44.43C38.62 44.54 38.64 44.66 38.67 44.76C36.24 45.34 34.11 46.76 32.68 48.75C31.26 50.73 30.65 53.15 30.96 55.54C31.26 57.93 32.47 60.13 34.36 61.72C36.24 63.31 38.67 64.19 41.18 64.18L42.1 64.18C42.9 67.75 44.56 71.08 46.96 73.91C49.21 76.42 51.83 78.6 54.74 80.39C54.8 81.77 54.7 83.15 54.42 84.51ZM59.52 85.22C59.62 84.68 59.69 84.15 59.76 83.62C62.67 85.43 66.06 86.39 69.53 86.38C73 86.38 76.39 85.41 79.29 83.59C79.36 84.13 79.37 84.64 79.47 85.21C79.95 87.82 80.93 90.32 82.36 92.59L68.94 102.5L56.58 92.62C58.02 90.35 59.02 87.84 59.52 85.22ZM20.74 113.38L22.88 112.44C24.78 121.67 26.34 131.13 27.58 140.71L10.29 140.71L10.29 129.06C10.3 125.77 11.28 122.54 13.13 119.76C14.98 116.99 17.62 114.77 20.74 113.38ZM5.14 149.35C5.15 148.37 5.56 147.44 6.28 146.74C7 146.05 7.98 145.66 9 145.65L28.19 145.65C28.47 148.03 28.74 150.5 28.98 153.06L9 153.06C7.98 153.06 7 152.67 6.27 151.97C5.55 151.28 5.14 150.34 5.14 149.35ZM129.99 153.06L110.01 153.06C110.25 150.5 110.52 148.03 110.8 145.65L129.99 145.65C131.01 145.65 131.99 146.04 132.72 146.74C133.44 147.43 133.85 148.37 133.85 149.35C133.85 150.34 133.44 151.28 132.72 151.97C131.99 152.67 131.01 153.06 129.99 153.06ZM128.7 129.06L128.7 140.71L111.41 140.71C112.63 131.19 114.2 121.7 116.11 112.44L118.25 113.38C121.36 114.77 124 116.98 125.85 119.76C127.71 122.54 128.69 125.77 128.7 129.06ZM92.34 101.31L111.33 110.27C111.64 110.42 109.53 119.59 109.35 120.59C107.47 131.24 105.87 142.21 104.84 153.06L54.05 153.06L54.05 138.25C54.05 137.59 53.78 136.96 53.3 136.5C52.81 136.04 52.16 135.78 51.48 135.78C50.79 135.78 50.14 136.04 49.66 136.5C49.17 136.96 48.9 137.59 48.9 138.25L48.9 153.06L34.15 153.06C32.79 138.7 30.62 124.41 27.66 110.27L46.63 101.32C49.18 100.11 51.48 98.49 53.44 96.52L64.76 105.57L53.93 113.57C52.37 114.72 51.1 116.21 50.23 117.9C49.36 119.6 48.91 121.47 48.9 123.36L48.9 128.37C48.9 129.03 49.17 129.65 49.66 130.12C50.14 130.58 50.79 130.84 51.48 130.84C52.16 130.84 52.81 130.58 53.3 130.12C53.78 129.65 54.05 129.03 54.05 128.37L54.05 123.36C54.05 122.22 54.33 121.11 54.85 120.09C55.37 119.07 56.13 118.18 57.06 117.49L85.5 96.5C87.48 98.48 89.79 100.1 92.34 101.31ZM102.96 54.31C102.96 55.62 102.42 56.87 101.45 57.8C100.49 58.73 99.17 59.25 97.81 59.25L97.81 49.37C99.17 49.37 100.49 49.89 101.45 50.82C102.42 51.74 102.96 53 102.96 54.31ZM38.83 17.66C39.28 15.66 40.36 13.84 41.94 12.46C43.51 11.08 45.5 10.2 47.61 9.94C49.4 9.74 51.21 9.98 52.86 10.65C51.94 12.75 51.47 15 51.48 17.28C51.48 17.93 51.75 18.56 52.23 19.02C52.71 19.49 53.37 19.75 54.05 19.75C54.73 19.75 55.39 19.49 55.87 19.02C56.35 18.56 56.62 17.93 56.62 17.28C56.61 15.04 57.25 12.84 58.47 10.93L58.47 10.91C59.62 9.09 61.23 7.59 63.16 6.54C65.08 5.5 67.26 4.95 69.47 4.95C71.69 4.95 73.86 5.5 75.79 6.54C77.72 7.59 79.33 9.09 80.47 10.91L80.47 10.93C81.71 12.83 82.37 15.03 82.36 17.28C82.36 17.93 82.64 18.56 83.12 19.02C83.6 19.49 84.26 19.75 84.94 19.75C85.62 19.75 86.28 19.49 86.76 19.02C87.24 18.56 87.51 17.93 87.51 17.28C87.51 15 87.04 12.75 86.12 10.65C87.78 9.98 89.58 9.74 91.37 9.94C93.27 10.17 95.07 10.91 96.56 12.06C98.05 13.22 99.18 14.75 99.81 16.48C100.44 18.22 100.55 20.09 100.14 21.89C99.72 23.68 98.79 25.33 97.45 26.64C96.04 28.02 95.24 29.88 95.24 31.82L95.24 32.09L61.77 32.09C61.09 32.09 60.43 32.35 59.95 32.81C59.47 33.28 59.2 33.9 59.2 34.56C59.2 35.21 59.47 35.84 59.95 36.3C60.43 36.77 61.09 37.03 61.77 37.03L95.24 37.03L95.24 41.96L43.75 41.96L43.75 31.82C43.75 29.88 42.95 28.01 41.54 26.63C40.34 25.47 39.47 24.04 39 22.47C38.53 20.91 38.47 19.25 38.83 17.66ZM41.18 59.25C39.81 59.25 38.5 58.73 37.54 57.8C36.57 56.87 36.03 55.62 36.03 54.31C36.03 53 36.57 51.74 37.54 50.82C38.5 49.89 39.81 49.37 41.18 49.37L41.18 59.25ZM50.96 70.8C47.1 66.25 46.33 61.12 46.33 54.31L46.33 46.9L92.66 46.9L92.66 54.31C92.66 61.16 91.89 66.31 88.05 70.79C84.75 74.08 80.99 76.92 76.88 79.24C74.71 80.68 72.14 81.45 69.5 81.45C66.86 81.45 64.29 80.68 62.12 79.24C58.01 76.94 54.25 74.1 50.96 70.8Z" fill="#733506" fill-opacity="1.000000" fill-rule="nonzero"/>
	<path id="Vector" d="M72.07 120.96C72.07 122.33 70.92 123.43 69.5 123.43C68.07 123.43 66.92 122.33 66.92 120.96C66.92 119.6 68.07 118.5 69.5 118.5C70.92 118.5 72.07 119.6 72.07 120.96Z" fill="#733506" fill-opacity="1.000000" fill-rule="evenodd"/>
	<path id="Vector" d="M72.07 133.31C72.07 134.67 70.92 135.78 69.5 135.78C68.07 135.78 66.92 134.67 66.92 133.31C66.92 131.94 68.07 130.84 69.5 130.84C70.92 130.84 72.07 131.94 72.07 133.31Z" fill="#733506" fill-opacity="1.000000" fill-rule="evenodd"/>
	<path id="Vector" d="M72.07 145.65C72.07 147.02 70.92 148.12 69.5 148.12C68.07 148.12 66.92 147.02 66.92 145.65C66.92 144.29 68.07 143.18 69.5 143.18C70.92 143.18 72.07 144.29 72.07 145.65Z" fill="#733506" fill-opacity="1.000000" fill-rule="evenodd"/>
	<path id="Vector" d="M79.79 124.67C79.79 126.3 80.47 127.87 81.68 129.03C82.88 130.19 84.52 130.84 86.23 130.84L96.52 130.84C98.23 130.84 99.87 130.19 101.08 129.03C102.28 127.87 102.96 126.3 102.96 124.67C102.96 123.03 102.28 121.46 101.08 120.3C99.87 119.15 98.23 118.5 96.52 118.5L86.23 118.5C84.52 118.5 82.88 119.15 81.68 120.3C80.47 121.46 79.79 123.03 79.79 124.67ZM86.23 123.43L96.52 123.43C96.87 123.43 97.19 123.56 97.43 123.79C97.67 124.03 97.81 124.34 97.81 124.67C97.81 124.99 97.67 125.31 97.43 125.54C97.19 125.77 96.87 125.9 96.52 125.9L86.23 125.9C85.89 125.9 85.56 125.77 85.32 125.54C85.08 125.31 84.94 124.99 84.94 124.67C84.94 124.34 85.08 124.03 85.32 123.79C85.56 123.56 85.89 123.43 86.23 123.43Z" fill="#733506" fill-opacity="1.000000" fill-rule="nonzero"/>
	<path id="Vector" d="M54.05 34.56C54.05 35.92 52.9 37.03 51.48 37.03C50.05 37.03 48.9 35.92 48.9 34.56C48.9 33.19 50.05 32.09 51.48 32.09C52.9 32.09 54.05 33.19 54.05 34.56Z" fill="#733506" fill-opacity="1.000000" fill-rule="evenodd"/>
</svg>
