<svg width="274" height="817" viewBox="0 0 274 817" fill="none" xmlns="http://www.w3.org/2000/svg">
<path fill-rule="evenodd" clip-rule="evenodd" d="M1 660.442V153.639C1 115.988 14.4084 101.621 55.0169 101.621C95.6253 101.621 95.6253 53.5661 95.6253 53.5661C95.6253 53.5661 95.6253 -0.928871 137.766 1.05276C179.907 3.0344 176.842 53.5661 176.842 53.5661C176.842 53.5661 176.842 101.621 217.068 101.621C257.293 101.621 273 127.382 273 153.639V660.442C273 706.515 257.293 719.395 217.068 719.395C176.842 719.395 176.842 765.468 176.842 765.468C176.842 765.468 179.907 816 137.766 816C95.6253 816 95.6253 765.468 95.6253 765.468C95.6253 765.468 95.6253 719.395 55.0169 719.395C14.4085 719.395 1 708.496 1 660.442ZM157.687 99.6391C157.687 70.9054 137.766 73.3824 137.766 73.3824C137.766 73.3824 117.079 70.9054 117.079 99.6391C117.079 128.373 137.766 128.373 137.766 128.373C137.766 128.373 157.687 128.373 157.687 99.6391Z" fill="#F2E3B3"/>
<path d="M1 660.442C1 612.387 1 191.29 1 153.639M1 660.442C1 708.496 14.4085 719.395 55.0169 719.395C95.6253 719.395 95.6253 765.468 95.6253 765.468C95.6253 765.468 95.6253 816 137.766 816C179.907 816 176.842 765.468 176.842 765.468C176.842 765.468 176.842 719.395 217.068 719.395C257.293 719.395 273 706.515 273 660.442M1 660.442V153.639M1 153.639C1 115.988 14.4084 101.621 55.0169 101.621C95.6253 101.621 95.6253 53.5661 95.6253 53.5661C95.6253 53.5661 95.6253 -0.928871 137.766 1.05276C179.907 3.0344 176.842 53.5661 176.842 53.5661C176.842 53.5661 176.842 101.621 217.068 101.621C257.293 101.621 273 127.382 273 153.639M273 153.639C273 179.895 273 614.369 273 660.442M273 153.639V660.442M137.766 73.3824C137.766 73.3824 157.687 70.9054 157.687 99.6391C157.687 128.373 137.766 128.373 137.766 128.373C137.766 128.373 117.079 128.373 117.079 99.6391C117.079 70.9054 137.766 73.3824 137.766 73.3824Z" stroke="black"/>
</svg>
