<svg width="273.000000" height="816.000000" viewBox="0 0 273 816" fill="none" xmlns="http://www.w3.org/2000/svg" xmlns:xlink="http://www.w3.org/1999/xlink">
	<desc>
			Created with Pixso.
	</desc>
	<defs/>
	<path d="M0 659.44L0 152.63C0 114.98 13.4 100.62 54.01 100.62C94.62 100.62 94.62 52.56 94.62 52.56C94.62 52.56 94.62 -1.93 136.76 0.05C178.9 2.03 175.84 52.56 175.84 52.56C175.84 52.56 175.84 100.62 216.06 100.62C256.29 100.62 272 126.38 272 152.63L272 659.44C272 705.51 256.29 718.39 216.06 718.39C175.84 718.39 175.84 764.46 175.84 764.46C175.84 764.46 178.9 815 136.76 815C94.62 815 94.62 764.46 94.62 764.46C94.62 764.46 94.62 718.39 54.01 718.39C13.4 718.39 0 707.49 0 659.44ZM156.68 98.63C156.68 69.9 136.76 72.38 136.76 72.38C136.76 72.38 116.07 69.9 116.07 98.63C116.07 127.37 136.76 127.37 136.76 127.37C136.76 127.37 156.68 127.37 156.68 98.63Z" fill="#F2E3B3" fill-opacity="1.000000" fill-rule="evenodd"/>
	<path d="M0 152.63C0 114.98 13.4 100.62 54.01 100.62C94.62 100.62 94.62 52.56 94.62 52.56C94.62 52.56 94.62 -1.93 136.76 0.05C178.9 2.03 175.84 52.56 175.84 52.56C175.84 52.56 175.84 100.62 216.06 100.62C256.29 100.62 272 126.38 272 152.63C272 178.89 272 613.36 272 659.44C272 705.51 256.29 718.39 216.06 718.39C175.84 718.39 175.84 764.46 175.84 764.46C175.84 764.46 178.9 815 136.76 815C94.62 815 94.62 764.46 94.62 764.46C94.62 764.46 94.62 718.39 54.01 718.39C13.4 718.39 0 707.49 0 659.44C0 611.38 0 190.29 0 152.63ZM156.68 98.63C156.68 127.37 136.76 127.37 136.76 127.37C136.76 127.37 116.07 127.37 116.07 98.63C116.07 69.9 136.76 72.38 136.76 72.38C136.76 72.38 156.68 69.9 156.68 98.63ZM0 659.44L0 152.63M272 152.63L272 659.44" stroke="#000000" stroke-opacity="1.000000" stroke-width="1.000000"/>
</svg>
