<svg width="45" height="35" viewBox="0 0 45 35" fill="none" xmlns="http://www.w3.org/2000/svg">
<path d="M37.4632 13.4148C41.7624 15.6237 44.4548 18.7705 44.4548 22.2669C44.4548 28.9516 34.6249 34.3733 22.5033 34.3733C10.3818 34.3733 0.547852 28.9533 0.547852 22.2669C0.547852 18.7705 3.2385 15.6241 7.53954 13.4148H37.4632Z" fill="#F2EEEB"/>
<path d="M34.9105 24.252L35.9507 26.9305C36.2981 27.207 36.7016 27.3765 37.1225 27.4228C37.5434 27.469 37.9676 27.3905 38.3545 27.1947C38.7414 26.999 39.0779 26.6925 39.3317 26.3047C39.5856 25.9169 39.7483 25.4609 39.8043 24.9802C39.8553 24.5426 39.816 24.0972 39.6894 23.6802C39.5628 23.2631 39.3526 22.886 39.0756 22.5792C39.0121 22.5095 38.9629 22.4244 38.9315 22.3302C38.9002 22.236 38.8876 22.1349 38.8946 22.0344C38.9016 21.9339 38.928 21.8364 38.9719 21.749C39.0158 21.6617 39.0761 21.5866 39.1485 21.5293L43.2382 18.2956C42.5011 17.1718 41.605 16.1974 40.5873 15.4128C40.1391 15.0541 39.6582 14.7094 39.1445 14.3788L39.1164 14.36C38.8869 14.2134 38.649 14.0705 38.4071 13.9297C38.3706 13.9088 38.3367 13.8879 38.2999 13.8658C38.0289 13.7103 37.7496 13.559 37.462 13.4116H34.0969L37.1104 21.7854C36.5541 21.8495 36.0333 22.1285 35.6336 22.5768C35.2338 23.025 34.9789 23.6157 34.9105 24.252ZM21.9258 28.8239C22.3491 31.7255 23.5832 32.0409 23.5832 32.0409C25.2573 32.8259 27.5938 32.6434 28.3039 32.1303C28.3039 32.1303 30.4535 30.7407 28.8592 28.2294L21.9258 28.8239Z" fill="#C6C5C4"/>
<path d="M26.7729 22.6534C32.8002 21.6754 37.2328 18.6769 37.4517 15.0977H37.4638V8.79445C37.464 8.48191 37.4319 8.17044 37.3683 7.86653C36.6546 4.42937 32.0307 1.63644 25.9838 0.850156C25.1986 0.745291 24.3854 0.676774 23.5562 0.649199C23.2097 0.630817 22.8588 0.626221 22.504 0.626221C15.4992 0.626221 9.6158 3.25454 7.98538 6.80576C7.6972 7.41676 7.54397 8.09942 7.53906 8.79403V15.0977H7.55509C7.66658 16.9305 8.87838 18.6071 10.8436 19.9382L26.7729 22.6534Z" fill="#F2A66D"/>
<path d="M37.4627 14.9531V20.2541H37.4506C37.3889 21.1004 37.121 21.9097 36.6775 22.5899L36.6699 22.6229L36.6218 22.6931L36.123 24.5205L30.248 26.9688C29.5856 27.1877 28.8872 27.3811 28.1618 27.5432L24.2364 28.0124L21.8205 28.1023H20.9322C13.57 27.682 7.80212 24.3497 7.55509 20.2541H7.53906V14.9531H37.4627Z" fill="#F2A66D"/>
<path d="M21.8226 25.3741C21.9459 24.3814 21.8745 23.3697 21.6135 22.4128C21.4141 21.8332 21.0487 21.3485 20.5773 21.0386C20.106 20.7286 19.5567 20.6116 19.0197 20.7069C17.9375 20.8922 16.8316 20.7043 15.8427 20.1672C15.7732 20.1258 15.6968 20.102 15.6186 20.0974C15.5404 20.0928 15.4623 20.1075 15.3895 20.1405C15.3167 20.1736 15.251 20.2242 15.1967 20.2889C15.1424 20.3536 15.1009 20.4309 15.075 20.5156C15.0142 20.7153 14.9293 20.905 14.852 21.0976C14.5911 21.7349 14.4276 22.4189 14.3686 23.1197C14.3922 23.5438 14.3482 23.9692 14.2385 24.3751C14.1667 24.5501 14.062 24.7045 13.9318 24.8274C13.8016 24.9502 13.6493 25.0383 13.4858 25.0854C13.2857 25.1344 13.0777 25.118 12.8853 25.0382C11.7559 24.5786 11.8652 22.5803 11.9016 21.4928C11.9493 20.2664 12.0631 19.0445 12.2423 17.8342C12.2768 17.5858 12.3043 17.3362 12.325 17.0855C12.4117 16.0457 12.768 12.9979 13.9991 12.5091C13.9991 12.5091 16.8045 10.9557 23.3685 11.1525C23.3685 11.1525 30.3336 11.4587 31.326 13.9517C31.5316 14.4906 31.6295 15.0754 31.6126 15.6633C31.5958 16.2512 31.4645 16.8273 31.2284 17.3496C30.8382 18.2871 30.2811 18.4262 29.9383 19.0964C29.4949 19.9751 28.9613 20.7897 28.349 21.5229C27.4582 22.5979 27.6768 24.6839 27.9628 26.0889C28.1217 26.8681 25.7338 26.4808 26.1444 27.1276L21.8226 25.3741Z" fill="#BC7946"/>
<path d="M37.1399 10.4861L25.066 10.052H25.058L18.6482 9.81884H18.6445L7.58278 9.4211L7.53906 9.41651V8.79483C7.54391 8.10008 7.69715 7.41727 7.98538 6.80615L20.9522 7.277L23.5551 0.64917C24.3843 0.676744 25.1975 0.745261 25.9827 0.850127L23.4276 7.36432L37.3672 7.86567L37.1399 10.4861Z" fill="#D6925F"/>
<path d="M27.0567 7.9814C26.9651 7.98129 26.8751 7.95481 26.7948 7.9044C26.7145 7.85399 26.6465 7.78126 26.5971 7.69288C26.5477 7.60451 26.5185 7.50332 26.5121 7.39861C26.5057 7.2939 26.5223 7.18902 26.5604 7.09359L28.8842 1.2863C28.9128 1.20931 28.9546 1.13968 29.0071 1.08151C29.0596 1.02335 29.1218 0.977836 29.1899 0.947659C29.2579 0.917481 29.3306 0.903253 29.4036 0.90581C29.4765 0.908368 29.5483 0.92766 29.6147 0.962551C29.681 0.997441 29.7406 1.04722 29.7899 1.10895C29.8392 1.17068 29.8772 1.24312 29.9017 1.32197C29.9262 1.40083 29.9367 1.48451 29.9325 1.56808C29.9283 1.65165 29.9096 1.73341 29.8774 1.80854L27.5536 7.61583C27.51 7.72494 27.44 7.81739 27.3519 7.88219C27.2638 7.947 27.1613 7.98143 27.0567 7.9814ZM30.5423 7.99101C30.4511 7.9909 30.3615 7.96464 30.2814 7.91462C30.2013 7.86459 30.1335 7.7924 30.084 7.70462C30.0345 7.61683 30.0049 7.51623 29.998 7.41199C29.991 7.30775 30.0069 7.20318 30.0443 7.1078L30.973 4.73516C31.0011 4.65793 31.0424 4.58793 31.0945 4.5293C31.1466 4.47067 31.2084 4.4246 31.2762 4.39381C31.3441 4.36302 31.4167 4.34812 31.4896 4.35001C31.5626 4.3519 31.6345 4.37053 31.7011 4.4048C31.7677 4.43907 31.8276 4.48829 31.8773 4.54955C31.9271 4.61081 31.9656 4.68288 31.9906 4.76149C32.0157 4.84011 32.0267 4.92367 32.0232 5.00727C32.0196 5.09086 32.0014 5.17279 31.9698 5.24821L31.0415 7.62085C30.9983 7.7312 30.9282 7.82487 30.8396 7.89055C30.751 7.95623 30.6478 7.99112 30.5423 7.99101Z" fill="#D6925F"/>
<path d="M35.8972 5.77806H35.8798L24.4395 5.36695C24.2945 5.3618 24.1573 5.29083 24.058 5.16966C23.9587 5.04849 23.9054 4.88705 23.9099 4.72084C23.9144 4.55463 23.9763 4.39728 24.082 4.2834C24.1876 4.16951 24.3284 4.10843 24.4734 4.11358L35.9136 4.52469C36.0586 4.52724 36.1967 4.5957 36.2976 4.71503C36.3985 4.83436 36.454 4.99477 36.4518 5.16098C36.4495 5.32719 36.3898 5.48558 36.2858 5.6013C36.1817 5.71703 36.0422 5.78061 35.8972 5.77806ZM17.2215 7.76674C17.1303 7.76666 17.0406 7.74041 16.9605 7.69036C16.8804 7.64032 16.8125 7.56808 16.763 7.48024C16.7134 7.39239 16.6839 7.29173 16.677 7.18743C16.6701 7.08314 16.6861 6.97852 16.7235 6.88312L19.1908 0.593276C19.2502 0.441639 19.3597 0.323283 19.4953 0.264246C19.5624 0.235013 19.6338 0.221224 19.7056 0.223664C19.7774 0.226105 19.848 0.244728 19.9135 0.27847C19.9789 0.312212 20.038 0.360413 20.0872 0.42032C20.1364 0.480226 20.1749 0.550666 20.2004 0.627616C20.2259 0.704567 20.2379 0.786521 20.2358 0.868801C20.2337 0.951081 20.2174 1.03208 20.188 1.10716L17.7203 7.397C17.6771 7.50721 17.607 7.60075 17.5186 7.66635C17.4301 7.73195 17.3269 7.76681 17.2215 7.76674ZM13.8029 7.64141C13.7117 7.64133 13.622 7.61507 13.5419 7.56502C13.4618 7.51498 13.3939 7.44274 13.3444 7.3549C13.2948 7.26705 13.2653 7.16639 13.2584 7.06209C13.2515 6.9578 13.2675 6.85318 13.3049 6.75778L15.4935 1.18111C15.5541 1.03161 15.6636 0.915499 15.7983 0.857941C15.933 0.800383 16.0821 0.80601 16.2132 0.873605C16.3443 0.941199 16.4469 1.06532 16.4988 1.21906C16.5507 1.37281 16.5476 1.5438 16.4903 1.69499L14.2999 7.27333C14.2566 7.38291 14.1867 7.47588 14.0986 7.54115C14.0105 7.60641 13.9078 7.64122 13.8029 7.64141Z" fill="#D6925F"/>
<path d="M22.0003 5.23441H21.9828L10.141 4.8091C10.0692 4.80652 9.99859 4.78776 9.93315 4.75388C9.8677 4.72001 9.80871 4.67168 9.75956 4.61166C9.66028 4.49045 9.60706 4.32898 9.6116 4.16278C9.61614 3.99657 9.67807 3.83924 9.78377 3.72539C9.88948 3.61155 10.0303 3.55052 10.1752 3.55573L22.0163 3.98062C22.088 3.98188 22.1589 3.99934 22.2248 4.032C22.2907 4.06466 22.3503 4.11188 22.4003 4.17097C22.4502 4.23005 22.4896 4.29985 22.516 4.37636C22.5425 4.45288 22.5555 4.53462 22.5544 4.61691C22.5533 4.69921 22.5381 4.78046 22.5096 4.85601C22.4811 4.93156 22.4399 4.99993 22.3884 5.05723C22.3369 5.11454 22.276 5.15964 22.2093 5.18997C22.1426 5.22029 22.0713 5.23525 21.9995 5.23399L22.0003 5.23441Z" fill="#D6925F"/>
<path d="M32.4422 29.6513C33.6578 29.6513 34.6432 28.5213 34.6432 27.1274C34.6432 25.7335 33.6578 24.6035 32.4422 24.6035C31.2266 24.6035 30.2412 25.7335 30.2412 27.1274C30.2412 28.5213 31.2266 29.6513 32.4422 29.6513Z" fill="#CE986F"/>
<path d="M34.6011 27.6366C35.0438 27.9894 35.575 28.1663 36.1136 28.1404C36.6522 28.1144 37.1685 27.8871 37.5839 27.493C37.9992 27.0989 38.2906 26.5597 38.4136 25.9579C38.5366 25.356 38.4844 24.7246 38.2651 24.1599C38.0457 23.5952 37.6712 23.1284 37.1988 22.8308C36.7263 22.5331 36.1819 22.421 35.6486 22.5115C35.1153 22.6019 34.6226 22.8901 34.2455 23.3319C33.8685 23.7737 33.6279 24.3449 33.5605 24.9582L34.6011 27.6366Z" fill="#CE986F"/>
<path d="M31.9899 29.6515C32.8839 29.6515 33.6086 28.8204 33.6086 27.7952C33.6086 26.77 32.8839 25.939 31.9899 25.939C31.0958 25.939 30.3711 26.77 30.3711 27.7952C30.3711 28.8204 31.0958 29.6515 31.9899 29.6515Z" fill="#D3A785"/>
<path d="M34.2749 27.3948C34.6004 27.6543 34.9911 27.7845 35.3873 27.7655C35.7835 27.7465 36.1633 27.5793 36.4688 27.2895C36.7743 26.9997 36.9887 26.6032 37.0793 26.1605C37.1698 25.7178 37.1315 25.2534 36.9702 24.838C36.8089 24.4227 36.5335 24.0793 36.186 23.8603C35.8385 23.6413 35.4381 23.5587 35.0459 23.6252C34.6536 23.6916 34.2911 23.9035 34.0138 24.2284C33.7364 24.5533 33.5594 24.9734 33.5098 25.4245L34.2749 27.3948Z" fill="#D3A785"/>
<path d="M27.2672 20.1154C27.8796 19.3823 28.413 18.5677 28.8561 17.6889C29.1982 17.0204 29.7564 16.8796 30.1466 15.9421C30.3827 15.4199 30.514 14.8437 30.5309 14.2558C30.5478 13.6679 30.4498 13.0831 30.2443 12.5442C29.2518 10.0496 22.2867 9.74502 22.2867 9.74502C15.7224 9.54824 12.9173 11.1016 12.9173 11.1016C11.6862 11.5904 11.3299 14.6382 11.2432 15.6781C11.2223 15.9287 11.1947 16.1783 11.1605 16.4267C10.9813 17.6371 10.8675 18.8589 10.8198 20.0853C10.7867 21.1716 10.677 23.172 11.8036 23.6307C11.9958 23.7109 12.2039 23.7272 12.404 23.6779C12.5675 23.6308 12.7198 23.5427 12.85 23.4198C12.9802 23.297 13.0849 23.1426 13.1567 22.9677C13.2664 22.5618 13.3105 22.1363 13.2868 21.7122C13.3457 21.0114 13.5092 20.3274 13.7703 19.6901C13.8468 19.4975 13.9324 19.3078 13.9932 19.1081C14.0192 19.0234 14.0607 18.9461 14.1149 18.8814C14.1692 18.8167 14.2349 18.7661 14.3077 18.7331C14.3805 18.7 14.4587 18.6853 14.5368 18.6899C14.615 18.6945 14.6914 18.7183 14.7609 18.7597C15.75 19.2965 16.856 19.4839 17.9383 19.2982C18.4753 19.2029 19.0246 19.3198 19.4959 19.6298C19.9673 19.9398 20.3327 20.4244 20.532 21.0041C20.7931 21.961 20.8645 22.9727 20.7412 23.9654C20.3976 30.0923 22.5009 30.632 22.5009 30.632C24.1751 31.4171 26.5116 31.2345 27.2217 30.7215C27.2217 30.7215 29.3713 29.3319 27.7769 26.8205C27.3571 26.1832 27.0528 25.4559 26.8821 24.6815C26.595 23.2764 26.3764 21.1904 27.2672 20.1154Z" fill="#733506"/>
<path d="M24.4118 17.2622C24.7056 17.2622 24.9438 16.9891 24.9438 16.6522C24.9438 16.3153 24.7056 16.0422 24.4118 16.0422C24.118 16.0422 23.8799 16.3153 23.8799 16.6522C23.8799 16.9891 24.118 17.2622 24.4118 17.2622Z" fill="#B6825A"/>
<path d="M20.3389 17.5057C20.3258 17.5057 20.313 17.5057 20.3003 17.5057C18.3273 17.3625 16.3737 16.9734 14.4741 16.3455C14.4049 16.3226 14.3403 16.2842 14.284 16.2326C14.2278 16.1809 14.181 16.117 14.1464 16.0446C14.1117 15.9721 14.0899 15.8925 14.0822 15.8103C14.0745 15.7282 14.0811 15.6451 14.1015 15.5658C14.1219 15.4866 14.1558 15.4127 14.2012 15.3486C14.2466 15.2844 14.3026 15.2311 14.366 15.1919C14.4295 15.1526 14.499 15.1282 14.5707 15.1199C14.6424 15.1116 14.7148 15.1196 14.7838 15.1435C16.6071 15.7457 18.4821 16.1186 20.3757 16.2557C20.5207 16.2612 20.6577 16.3326 20.7568 16.454C20.8559 16.5755 20.9088 16.7371 20.904 16.9033C20.8992 17.0695 20.837 17.2267 20.7311 17.3403C20.6251 17.4539 20.4842 17.5146 20.3393 17.5091L20.3389 17.5057Z" fill="#B6825A"/>
<path d="M18.9504 13.0054C18.9944 12.5256 18.3945 12.0601 17.6107 11.9657C16.8268 11.8713 16.1557 12.1838 16.1118 12.6636C16.0678 13.1435 16.6677 13.609 17.4515 13.7034C18.2354 13.7977 18.9065 13.4853 18.9504 13.0054Z" fill="white"/>
<path d="M21.8487 12.576C21.8671 12.3754 21.6166 12.1809 21.2892 12.1415C20.9618 12.102 20.6815 12.2327 20.6631 12.4332C20.6448 12.6338 20.8953 12.8283 21.2227 12.8678C21.5501 12.9072 21.8304 12.7765 21.8487 12.576Z" fill="white"/>
<path d="M38.0098 13.0184V8.79491C38.0091 8.45022 37.9745 8.10671 37.9067 7.77091C37.9067 7.76297 37.9045 7.75545 37.903 7.74793C37.9016 7.74041 37.9005 7.73038 37.899 7.72161C36.9167 1.5546 26.3724 0 22.5031 0C15.4316 0 9.26262 2.67887 7.50176 6.51753C7.17171 7.21808 6.99657 8.00078 6.99168 8.797V13.0184C2.48298 15.4261 0 18.7003 0 22.2674C0 29.4075 9.88418 35 22.502 35C35.1198 35 45 29.4075 45 22.2674C45.0011 18.6986 42.5181 15.4261 38.0098 13.0184ZM34.0964 27.128C34.0964 27.5032 33.9994 27.8701 33.8175 28.1821C33.6357 28.4941 33.3773 28.7372 33.075 28.8808C32.7726 29.0244 32.44 29.0619 32.119 28.9887C31.7981 28.9155 31.5033 28.7347 31.2719 28.4694C31.0405 28.204 30.883 27.8659 30.8192 27.4979C30.7554 27.1298 30.7882 26.7483 30.9135 26.4017C31.0388 26.055 31.2509 25.7587 31.523 25.5503C31.7951 25.3419 32.1151 25.2307 32.4423 25.2308C32.8809 25.2315 33.3013 25.4316 33.6114 25.7872C33.9215 26.1429 34.0959 26.6251 34.0964 27.128ZM34.1693 24.6818C34.2817 24.2512 34.5065 23.8704 34.8133 23.5907C35.1202 23.311 35.4944 23.1458 35.8857 23.1174C36.2769 23.089 36.6663 23.1987 37.0015 23.4317C37.3367 23.6648 37.6016 24.01 37.7605 24.4209C37.9194 24.8319 37.9647 25.2887 37.8903 25.7301C37.8159 26.1714 37.6254 26.576 37.3444 26.8895C37.0634 27.2029 36.7054 27.4101 36.3187 27.4831C35.9319 27.5562 35.5348 27.4916 35.181 27.298C35.1836 27.2412 35.1883 27.1852 35.1883 27.128C35.1883 26.6589 35.0968 26.1958 34.9204 25.7725C34.7441 25.3493 34.4874 24.9766 34.1693 24.6818ZM36.9044 20.2115C36.8603 20.8072 36.693 21.3823 36.4161 21.8889C35.7386 21.7759 35.0477 21.9339 34.4597 22.3362C33.8717 22.7385 33.4224 23.3607 33.1874 24.0982C32.826 23.9796 32.4472 23.9476 32.0745 24.0042C31.7019 24.0608 31.3434 24.2048 31.0214 24.4273C30.6994 24.6497 30.4208 24.9458 30.203 25.2971C29.9852 25.6484 29.8328 26.0473 29.7553 26.4691C29.3249 26.6031 28.8855 26.7243 28.4371 26.8326C28.3704 26.7073 28.2983 26.5794 28.2185 26.4524C27.8412 25.8824 27.5674 25.2315 27.4133 24.5381C27.3222 24.1007 27.2547 23.6573 27.2115 23.2104C31.7293 22.409 35.2364 20.5022 36.916 18.0878V20.1225C36.9108 20.152 36.9073 20.1818 36.9058 20.2119L36.9044 20.2115ZM8.0858 8.79491C8.08915 8.33113 8.17236 7.87268 8.33063 7.44587L20.9368 7.90544H20.9543C21.0596 7.90546 21.1626 7.87062 21.251 7.8051C21.3394 7.73959 21.4095 7.64618 21.4527 7.53611L23.9029 1.29808C24.0253 1.30393 24.1474 1.31145 24.2698 1.31938C24.5022 1.33401 24.7343 1.34988 24.9657 1.37119C25.0349 1.37746 25.1038 1.38665 25.173 1.39375L22.9294 7.10746C22.8926 7.20137 22.8765 7.30423 22.8826 7.40695C22.8887 7.50967 22.9168 7.60908 22.9644 7.69639C23.012 7.7837 23.0776 7.85623 23.1554 7.90755C23.2333 7.95888 23.3209 7.98742 23.4107 7.99066L36.9018 8.47739C36.9106 8.58267 36.9182 8.68629 36.9182 8.79533V9.85192L25.1566 9.4287C24.21 9.26959 23.257 9.16557 22.3013 9.11703C20.9215 9.07525 19.7144 9.11118 18.6502 9.19223L8.08434 8.81246L8.0858 8.79491ZM30.7419 12.2843C30.4392 11.6417 29.9646 11.1274 29.388 10.817L36.2107 11.0786C35.2776 12.5697 33.457 13.8957 31.0246 14.847C31.1623 13.9798 31.0636 13.0849 30.7419 12.2843ZM30.5896 16.3222C33.5105 15.3225 35.6973 13.8493 36.9168 12.0892V14.2617C36.9113 14.2901 36.9076 15.0242 36.9058 15.0555C36.7196 18.1284 32.7553 20.9209 27.2009 21.9453C27.2181 21.4338 27.3805 20.9428 27.6636 20.5469C28.3052 19.7792 28.864 18.926 29.3283 18.0055C29.4443 17.8031 29.5887 17.6241 29.7556 17.4758C30.0984 17.1594 30.382 16.7671 30.5896 16.3222ZM11.0472 13.3238C9.65173 12.3591 8.707 11.2348 8.30659 10.0742L13.3505 10.2413C13.0015 10.3754 12.7858 10.4811 12.7093 10.5212C11.8432 10.8851 11.3404 12.0746 11.0472 13.3238ZM10.81 14.6152C10.7604 14.9753 10.7247 15.3175 10.7007 15.6179C10.6807 15.8552 10.6545 16.0919 10.622 16.3281C10.4926 17.2556 10.4015 18.0711 10.3432 18.8206C9.25023 17.9241 8.19874 16.6561 8.1011 15.0568C8.09891 15.0208 8.09381 14.6912 8.08653 14.6574V12.0913C8.84612 13.123 9.77048 13.9789 10.81 14.6131V14.6152ZM8.0858 18.1158C8.70336 18.9682 9.44117 19.6957 10.2686 20.2683C10.2299 21.4849 10.1913 23.6373 11.6243 24.2193C11.9138 24.3399 12.2274 24.3635 12.5282 24.2874C12.7717 24.2199 12.9989 24.0908 13.1933 23.9097C13.3877 23.7285 13.5443 23.4999 13.6518 23.2404C13.7824 22.8903 13.8416 22.5107 13.8249 22.1304C15.9044 22.8939 18.0581 23.3601 20.2373 23.5183C20.2231 23.7301 20.2056 23.8621 20.2052 23.8663C20.2022 23.8862 20.2002 23.9063 20.199 23.9265C20.1194 25.095 20.152 26.2701 20.2963 27.4305C13.5112 26.8736 8.31861 23.8295 8.10037 20.211C8.09813 20.1755 8.09326 20.1403 8.0858 20.1058V18.1158ZM13.9761 20.8686C14.0528 20.5539 14.1511 20.2465 14.2701 19.9495L14.3313 19.7995C14.3965 19.6408 14.4614 19.4812 14.5164 19.3195C15.6026 19.9158 16.8198 20.1252 18.0108 19.9207C18.4243 19.8456 18.8479 19.9331 19.2125 20.169C19.5772 20.4049 19.8616 20.7753 20.0194 21.22C20.1222 21.5564 20.1897 21.9056 20.2205 22.2603C18.096 22.1009 15.9977 21.6325 13.9761 20.8666V20.8686ZM21.2855 24.0355C21.4188 22.9473 21.3368 21.8387 21.0457 20.7918C20.802 20.0795 20.355 19.483 19.7776 19.0995C19.2002 18.716 18.5266 18.5683 17.8665 18.6803C16.8938 18.8514 15.8987 18.6848 15.0094 18.2019C14.8704 18.1202 14.7177 18.0737 14.5617 18.0653C14.4057 18.057 14.25 18.0871 14.105 18.1536C13.96 18.2201 13.8291 18.3215 13.7211 18.4509C13.6132 18.5803 13.5307 18.7347 13.4791 18.9038C13.4392 19.0269 13.3936 19.1476 13.3425 19.2652L13.2747 19.4323C12.9879 20.1338 12.8091 20.8869 12.7461 21.6583C12.7355 21.7991 12.734 21.9424 12.733 22.0865C12.7468 22.2925 12.7246 22.4996 12.6677 22.6956C12.6312 22.7851 12.5783 22.8644 12.5125 22.9282C12.4467 22.992 12.3696 23.0386 12.2866 23.065C12.1876 23.0886 12.0847 23.0793 11.9901 23.0382C11.2829 22.7508 11.3343 21.1143 11.3638 20.2353L11.3678 20.1058C11.4137 18.9049 11.5254 17.7084 11.7022 16.5236C11.7387 16.2621 11.7671 16.0001 11.7893 15.7361C11.9715 13.5556 12.4961 11.9308 13.0977 11.6923C13.1178 11.6842 13.1375 11.6748 13.1567 11.6643C13.1833 11.6497 15.9198 10.1745 22.2677 10.3691C24.8305 10.482 29.1279 11.2423 29.7487 12.8036C29.9199 13.2597 30.0002 13.7537 29.9841 14.2498C29.9679 14.7459 29.8555 15.2317 29.6551 15.6717C29.5084 16.0091 29.2966 16.3038 29.0357 16.5332C28.779 16.7684 28.5591 17.052 28.3854 17.3717C27.9634 18.2089 27.4553 18.9848 26.8719 19.683C25.8306 20.9397 26.0131 23.1723 26.3498 24.8218C26.5371 25.6784 26.8723 26.4832 27.3357 27.1886C27.5215 27.3959 27.6614 27.6512 27.7436 27.9331C27.8259 28.215 27.8481 28.5154 27.8085 28.8092C27.7689 29.103 27.6686 29.3817 27.5159 29.6219C27.3632 29.8622 27.1627 30.0571 26.9309 30.1904C26.4019 30.5727 24.2548 30.7753 22.7086 30.0508C22.6865 30.0395 22.6634 30.0307 22.6397 30.0245C22.6226 30.0208 20.9907 29.3861 21.2855 24.0334V24.0355ZM36.5794 7.21399L24.261 6.76946L26.3159 1.5312C31.4076 2.27654 35.4273 4.52885 36.5794 7.2119V7.21399ZM22.5031 1.25337C22.576 1.25337 22.6459 1.25755 22.717 1.25797L20.6042 6.63911L8.98754 6.21714C11.0832 3.29303 16.5126 1.25337 22.5031 1.25337ZM22.5031 33.7466C10.6985 33.7466 1.09411 28.5969 1.09411 22.2674C1.09411 19.3738 3.2317 16.5395 6.99278 14.4033V20.2524C6.9926 20.319 7.00233 20.3851 7.02156 20.4479C7.40594 24.7491 13.0332 28.1771 20.5491 28.7018C21.0957 30.675 22.0469 31.1333 22.3268 31.2265C23.2292 31.6127 24.1861 31.8049 25.1493 31.7935C26.1447 31.7935 27.0329 31.5979 27.4905 31.267C28.1651 30.805 28.6558 30.0592 28.8579 29.1885C28.9297 28.8 28.9286 28.3984 28.8546 28.0104C29.1578 27.9338 29.457 27.852 29.7524 27.7651C29.8679 28.4079 30.1557 28.9933 30.5756 29.4393C30.9955 29.8853 31.5265 30.1696 32.0943 30.2525C32.662 30.3353 33.2382 30.2126 33.7422 29.9014C34.2461 29.5903 34.6526 29.1063 34.9049 28.5171C35.615 28.84 36.4057 28.841 37.1165 28.5199C37.8272 28.1989 38.4049 27.5798 38.7322 26.7883C39.0596 25.9968 39.1121 25.0921 38.8791 24.2578C38.6462 23.4235 38.1452 22.7221 37.4778 22.2958C37.7532 21.7211 37.9259 21.0892 37.9861 20.4371C38.0018 20.3779 38.0098 20.3164 38.0098 20.2545V14.4054C41.7705 16.5416 43.9081 19.3771 43.9081 22.2695C43.9081 28.5969 34.3059 33.7466 22.5031 33.7466Z" fill="#4C3C30"/>
</svg>
