<svg width="40" height="46" viewBox="0 0 40 46" fill="none" xmlns="http://www.w3.org/2000/svg">
<path d="M17.8125 7.90442C16.0508 11.2438 11.0094 12.7465 11.0094 12.7465C11.0094 12.7465 8.82663 8.83592 10.5883 5.49658C12.3501 2.15724 17.3914 0.654541 17.3914 0.654541C17.3914 0.654541 19.5742 4.56508 17.8125 7.90442Z" fill="#DEA67B"/>
<path d="M17.8131 7.90442C16.0514 11.2438 11.01 12.7465 11.01 12.7465C11.01 12.7465 10.9103 12.5707 10.7773 12.2631C12.4061 11.5162 14.6553 10.1629 15.719 8.15926C17.1151 5.52294 16.0514 2.5439 15.5306 1.39271C16.6054 0.89181 17.4032 0.654541 17.4032 0.654541C17.4032 0.654541 19.5859 4.56508 17.8131 7.90442Z" fill="#D28951"/>
<path d="M2.7885 9.69743C5.71361 12.4743 11.0874 12.738 11.0874 12.738C11.0874 12.738 11.7189 8.49351 8.79383 5.71658C5.8798 2.93087 0.494943 2.67603 0.494943 2.67603C0.494943 2.67603 -0.136615 6.9205 2.7885 9.69743Z" fill="#DEA67B"/>
<path d="M11.1317 12.2195C11.1206 12.5447 11.0874 12.738 11.0874 12.738C11.0874 12.738 5.7136 12.4743 2.7885 9.69743C-0.136615 6.9205 0.494943 2.67603 0.494943 2.67603C0.494943 2.67603 1.3481 2.71118 2.54474 2.93966C2.47826 4.15236 2.57798 7.25444 4.88261 9.45137C6.6554 11.121 9.30351 11.8856 11.1317 12.2195Z" fill="#EBC4A6"/>
<path d="M23.0865 40.692L30.3217 5.02259L38.399 3.35292C39.23 3.18595 39.7286 2.5093 39.507 1.85022C39.2854 1.19114 38.4433 0.795688 37.6123 0.971442L28.5489 2.84323C27.9506 2.96626 27.5074 3.36171 27.4076 3.83624L19.9619 40.569L23.0865 40.692Z" fill="#FCBB89"/>
<path d="M38.399 3.3612L30.3217 5.02209L23.0865 40.6827L19.9619 40.5685L20.1281 39.7248L21.7015 39.7864L28.7816 4.89906C28.8813 4.42452 29.3134 4.03786 29.9006 3.91483L36.9253 2.46486C37.7453 2.29789 38.3103 1.66517 38.1441 1.00609C38.1441 0.979728 38.1331 0.953365 38.122 0.927002C38.7646 0.962153 39.3408 1.32245 39.507 1.84093C39.7175 2.51758 39.2189 3.19424 38.399 3.3612Z" fill="#F9A463"/>
<path d="M31.6512 15.4448H8.2725C5.52467 16.1742 3.53027 18.2305 3.53027 20.656V41.1402C3.53027 43.2404 5.67979 44.9453 8.3279 44.9453H31.6069C34.255 44.9453 36.4045 43.2404 36.4045 41.1402V20.656C36.3934 18.2305 34.4101 16.1742 31.6512 15.4448Z" fill="#FDE5D3"/>
<path d="M36.3941 20.656V41.1402C36.3941 43.2404 34.2446 44.9453 31.5964 44.9453H27.9844C30.6325 44.9453 32.782 43.2404 32.782 41.1402V20.656C32.782 18.2305 30.7987 16.1742 28.0509 15.4448H31.6629C34.4107 16.1742 36.3941 18.2305 36.3941 20.656Z" fill="#FBCBA6"/>
<path d="M11.9289 44.9453H8.31682C5.66871 44.9453 3.53027 43.2404 3.53027 41.1402V20.656C3.53027 18.2305 5.51359 16.1742 8.2725 15.4448H11.8846C9.12565 16.1742 7.14234 18.2305 7.14234 20.656V41.1402C7.14234 43.2404 9.28077 44.9453 11.9289 44.9453Z" fill="#FEF0E5"/>
<path d="M7.14258 21.2617V41.1396C7.14258 41.6581 7.67442 42.0799 8.32813 42.0799H31.6071C32.2608 42.0799 32.7927 41.6581 32.7927 41.1396V21.2617H7.14258Z" fill="#BEA490"/>
<path d="M32.782 21.2617V41.1396C32.782 41.6581 32.2502 42.0886 31.5964 42.0886H27.9844C28.6381 42.0886 29.1699 41.6668 29.1699 41.1396V21.2617H32.782Z" fill="#A7856B"/>
<path d="M11.9295 42.0799H8.31739C7.66368 42.0799 7.13184 41.6581 7.13184 41.1308V21.2617H10.7439V41.1396C10.755 41.6581 11.2757 42.0799 11.9295 42.0799Z" fill="#D3C1B4"/>
<path d="M33.7238 13.4582C33.7238 14.5567 32.6047 15.4442 31.2197 15.4442H8.70524C7.32025 15.4442 6.20117 14.5567 6.20117 13.4582C6.20117 12.9046 6.48925 12.4125 6.94353 12.0522C7.39781 11.6919 8.01829 11.4634 8.71632 11.4634H31.2197C32.5936 11.4634 33.7238 12.3597 33.7238 13.4582Z" fill="#FBCBA6"/>
<path d="M33.7236 13.4582C33.7236 14.5567 32.6045 15.4442 31.2195 15.4442H27.6074C28.9924 15.4442 30.1115 14.5567 30.1115 13.4582C30.1115 12.3597 28.9924 11.4634 27.6074 11.4634H31.2195C32.5934 11.4634 33.7236 12.3597 33.7236 13.4582Z" fill="#F9B17A"/>
<path d="M12.3173 15.4442H8.70524C7.32025 15.4442 6.20117 14.5567 6.20117 13.4582C6.20117 12.9046 6.48925 12.4125 6.94353 12.0522C7.39781 11.6919 8.01829 11.4634 8.71632 11.4634H12.3284C11.6414 11.4634 11.0099 11.6831 10.5556 12.0522C10.1013 12.4125 9.81324 12.9046 9.81324 13.4582C9.81324 14.5567 10.9323 15.4442 12.3173 15.4442Z" fill="#FDE5D3"/>
<path d="M32.7814 20.9102H7.14242C6.89866 20.9102 6.69922 21.0683 6.69922 21.2617V41.1395C6.69922 41.8513 7.4305 42.4313 8.32797 42.4313H31.607C32.5044 42.4313 33.2357 41.8513 33.2357 41.1395V21.2617C33.2246 21.0683 33.0252 20.9102 32.7814 20.9102ZM32.3382 41.1395C32.3382 41.4647 32.0059 41.7283 31.5959 41.7283H8.31689C7.90694 41.7283 7.57454 41.4647 7.57454 41.1395V21.6132H32.3382V41.1395Z" fill="#733506"/>
<path d="M39.9393 1.77075C39.6623 0.918336 38.5765 0.417435 37.5017 0.637129L28.4383 2.50892C27.6738 2.66709 27.0976 3.168 26.9757 3.79192L25.491 11.1121H15.231C16.4387 10.2948 17.5799 9.24911 18.2226 8.0364C20.0397 4.6004 17.8902 0.67228 17.8015 0.505313C17.7018 0.338346 17.4581 0.250468 17.2365 0.32077C17.0259 0.382284 11.9956 1.92014 10.1785 5.35614C10.0345 5.62856 9.9126 5.90977 9.81288 6.21734C9.61344 5.96249 9.39185 5.72523 9.14809 5.48796C6.13434 2.62316 0.760555 2.33316 0.527876 2.32437C0.306277 2.31559 0.0846768 2.4474 0.0625168 2.63194C0.0403569 2.8077 -0.557961 7.06096 2.45579 9.92576C3.54162 10.9627 4.9377 11.6569 6.28946 12.1227C5.94598 12.5094 5.75762 12.9751 5.75762 13.4584C5.75762 14.2933 6.31162 15.0226 7.14261 15.4357C4.68286 16.4199 3.08735 18.4235 3.08735 20.6556V41.1398C3.08735 43.4334 5.4363 45.2964 8.32817 45.2964H31.6072C34.499 45.2964 36.848 43.4334 36.848 41.1398V20.6556C36.848 18.4235 35.2525 16.4199 32.7927 15.4357C33.6237 15.0226 34.1777 14.2933 34.1777 13.4584C34.1777 12.1666 32.8592 11.1121 31.2304 11.1121H29.5463L30.7097 5.3122L38.51 3.70405C39.5737 3.48435 40.2052 2.61437 39.9393 1.77075ZM10.9984 5.63735C12.3834 3.0186 15.9512 1.55105 17.1478 1.12045C17.6021 2.10468 18.7877 5.15402 17.4027 7.77277C16.616 9.25789 15.1423 10.3564 13.8017 11.1209H12.3502L15.3418 5.47038C15.4415 5.29463 15.3307 5.08372 15.1091 5.01342C14.8764 4.93433 14.6216 5.02221 14.5329 5.19796L11.5746 10.8045C11.486 9.7588 11.209 8.44064 10.4777 7.1752C10.5663 6.61279 10.7436 6.1031 10.9984 5.63735ZM3.13167 9.47759C0.838115 7.29823 0.838114 4.10828 0.904594 3.06254C2.21203 3.19436 6.16757 3.75677 8.46113 5.93613C9.93476 7.33338 10.5552 9.26668 10.666 11.1121H9.95692L4.92662 6.33158C4.7715 6.18219 4.4945 6.16461 4.30614 6.28764C4.11778 6.41067 4.09562 6.63036 4.25074 6.77975L8.80461 11.1121H8.70489C8.06225 11.1121 7.45285 11.2791 6.95425 11.5691C5.61358 11.1385 4.19534 10.4882 3.13167 9.47759ZM31.585 15.796C34.1999 16.5078 35.9505 18.4587 35.9505 20.6556V41.1398C35.9505 43.0467 34.0004 44.5934 31.5961 44.5934H8.31709C5.92382 44.5934 3.96266 43.0467 3.96266 41.1398V20.6556C3.96266 18.4587 5.7133 16.5078 8.32817 15.796C11.1868 15.796 28.7153 15.796 31.585 15.796ZM31.2194 11.8151C32.3606 11.8151 33.2802 12.5533 33.2802 13.4584C33.2802 14.3636 32.3495 15.0929 31.2194 15.0929H8.70489C7.56365 15.0929 6.64401 14.3548 6.64401 13.4584C6.64401 12.5797 7.54149 11.8151 8.70489 11.8151H31.2194ZM38.2884 3.0186L30.2111 4.68827C30.0449 4.72342 29.9119 4.83767 29.8898 4.96948L28.6377 11.1121H26.3885L27.8511 3.89738C27.9175 3.55466 28.2389 3.27345 28.6599 3.18557L37.7233 1.32257C38.3105 1.19954 38.9199 1.47196 39.0751 1.95529C39.2302 2.42104 38.8756 2.89558 38.2884 3.0186Z" fill="#733506"/>
</svg>
