<svg width="51.000000" height="60.000000" viewBox="0 0 51 60" fill="none" xmlns="http://www.w3.org/2000/svg" xmlns:xlink="http://www.w3.org/1999/xlink">
	<desc>
			Created with Pixso.
	</desc>
	<defs/>
	<path id="Vector" d="M50 44.27C50 50.61 38.75 55.9 25 55.9C11.25 55.9 0 50.61 0 44.27L0 41.49L50 41.49L50 44.27Z" fill="#DEA77E" fill-opacity="1.000000" fill-rule="nonzero"/>
	<path id="Vector" d="M25 55.9C11.25 55.9 0 50.61 0 44.27L0 41.49L50 41.49L50 44.27C50 50.61 38.75 55.9 25 55.9Z" stroke="#45403C" stroke-opacity="1.000000" stroke-width="1.000000" stroke-linejoin="round"/>
	<path id="Vector" d="M50 41.23C50 47.94 38.8 53.39 25 53.39C11.19 53.39 0 47.94 0 41.23C0 34.51 11.19 29.07 25 29.07C38.8 29.07 50 34.51 50 41.23Z" fill="#F0C7A8" fill-opacity="1.000000" fill-rule="evenodd"/>
	<path id="Vector" d="M25 33.43C37.22 33.43 47.5 37.79 49.58 43.48C49.86 42.81 50 42.02 50 41.36C50 34.62 38.75 29.2 25 29.2C11.25 29.2 0 34.49 0 41.23C0 42.02 0.13 42.68 0.41 43.34C2.5 37.66 12.77 33.43 25 33.43Z" fill="#F7DBC6" fill-opacity="1.000000" fill-rule="nonzero"/>
	<path id="Vector" d="M25 53.39C11.19 53.39 0 47.94 0 41.23C0 34.51 11.19 29.07 25 29.07C38.8 29.07 50 34.51 50 41.23C50 47.94 38.8 53.39 25 53.39Z" stroke="#45403C" stroke-opacity="1.000000" stroke-width="1.000000" stroke-linejoin="round"/>
	<g opacity="0.150000">
		<path id="Vector" d="M40.97 58.01C40.97 59.11 33.82 60 25 60C16.17 60 9.02 59.11 9.02 58.01C9.02 56.92 16.17 56.03 25 56.03C33.82 56.03 40.97 56.92 40.97 58.01Z" fill="#733506" fill-opacity="1.000000" fill-rule="evenodd"/>
	</g>
	<path id="Vector" d="M19.44 13.08C19.44 13.08 18.19 12.29 18.19 10.17C18.19 8.06 20.69 5.94 20.69 3.56C20.69 1.85 19.44 0 19.44 0M25 13.08C25 13.08 23.75 12.29 23.75 10.17C23.75 8.06 26.25 5.94 26.25 3.56C26.25 1.85 25 0 25 0M30.69 13.08C30.69 13.08 29.44 12.29 29.44 10.17C29.44 8.06 31.94 5.94 31.94 3.56C31.94 1.85 30.69 0 30.69 0" stroke="#45403C" stroke-opacity="1.000000" stroke-width="1.000000" stroke-linejoin="round"/>
	<path id="Vector" d="M34.02 42.55C34.02 44 30 45.19 25.13 45.19C20.27 45.19 16.25 44 16.25 42.55L16.25 40.44L34.02 40.44L34.02 42.55Z" fill="#E0E0E0" fill-opacity="1.000000" fill-rule="nonzero"/>
	<path id="Vector" d="M25.13 45.19C20.27 45.19 16.25 44 16.25 42.55L16.25 40.44L34.02 40.44L34.02 42.55C34.02 44 30 45.19 25.13 45.19Z" stroke="#45403C" stroke-opacity="1.000000" stroke-width="1.000000" stroke-linejoin="round"/>
	<path id="Vector" d="M45.13 22.07C45.13 28.67 43.33 38.32 33.05 41.23C33.05 41.23 29.86 42.15 25 42.15C20.13 42.15 16.94 41.23 16.94 41.23C6.66 38.32 4.86 28.67 4.86 22.07L45.13 22.07Z" fill="#F0F0F0" fill-opacity="1.000000" fill-rule="nonzero"/>
	<path id="Vector" d="M6.11 30.79C11.38 31.98 17.91 33.43 25 33.43C32.08 33.43 38.47 32.11 43.88 30.79C44.86 27.75 45.13 24.71 45.13 22.07L4.86 22.07C4.86 24.71 5.13 27.88 6.11 30.79Z" fill="#FFFFFF" fill-opacity="1.000000" fill-rule="nonzero"/>
	<path id="Vector" d="M33.05 41.23C33.05 41.23 29.86 42.15 25 42.15C20.13 42.15 16.94 41.23 16.94 41.23C6.66 38.32 4.86 28.67 4.86 22.07L45.13 22.07C45.13 28.67 43.33 38.32 33.05 41.23Z" stroke="#45403C" stroke-opacity="1.000000" stroke-width="1.000000" stroke-linejoin="round"/>
	<path id="Vector" d="M45.13 22.07C45.13 25.72 36.12 28.67 25 28.67C13.87 28.67 4.86 25.72 4.86 22.07C4.86 18.42 13.87 15.46 25 15.46C36.12 15.46 45.13 18.42 45.13 22.07Z" fill="#E0E0E0" fill-opacity="1.000000" fill-rule="evenodd"/>
	<path id="Vector" d="M25 18.1C34.72 18.1 42.91 20.35 44.72 23.39C45 22.99 45.13 22.46 45.13 22.07C45.13 18.37 36.11 15.46 25 15.46C13.88 15.46 4.86 18.37 4.86 22.07C4.86 22.46 5 22.99 5.27 23.39C7.08 20.35 15.27 18.1 25 18.1Z" fill="#F0F0F0" fill-opacity="1.000000" fill-rule="nonzero"/>
	<path id="Vector" d="M25 28.67C13.87 28.67 4.86 25.72 4.86 22.07C4.86 18.42 13.87 15.46 25 15.46C36.12 15.46 45.13 18.42 45.13 22.07C45.13 25.72 36.12 28.67 25 28.67Z" stroke="#45403C" stroke-opacity="1.000000" stroke-width="1.000000" stroke-linejoin="round"/>
	<path id="Vector" d="M25 20.08C16.38 20.08 9.02 21.93 6.11 24.31C9.02 26.82 16.38 28.67 25 28.67C33.61 28.67 40.97 26.82 43.88 24.44C40.97 21.93 33.61 20.08 25 20.08Z" fill="#EB9C60" fill-opacity="1.000000" fill-rule="nonzero"/>
	<path id="Vector" d="M25 23.39C31.52 23.39 37.36 24.44 41.11 26.03C42.22 25.5 43.19 24.97 43.88 24.44C40.97 21.93 33.75 20.22 25 20.22C16.25 20.22 9.02 22.07 6.11 24.44C6.8 25.11 7.77 25.63 8.88 26.03C12.63 24.44 18.47 23.39 25 23.39Z" fill="#FFCAA1" fill-opacity="1.000000" fill-rule="nonzero"/>
	<path id="Vector" d="M6.11 24.31C9.02 26.82 16.38 28.67 25 28.67C33.61 28.67 40.97 26.82 43.88 24.44C40.97 21.93 33.61 20.08 25 20.08C16.38 20.08 9.02 21.93 6.11 24.31Z" stroke="#45403C" stroke-opacity="1.000000" stroke-width="1.000000" stroke-linejoin="round"/>
</svg>
