<svg width="36.000000" height="40.000000" viewBox="0 0 36 45" fill="none" xmlns="http://www.w3.org/2000/svg" xmlns:xlink="http://www.w3.org/1999/xlink">
	<path d="M35 33.2C35 37.96 27.12 41.92 17.5 41.92C7.87 41.92 0 37.96 0 33.2L0 31.12L35 31.12L35 33.2Z" fill="#DEA77E" fill-opacity="1.000000" fill-rule="nonzero"/>
	<path d="M17.5 41.92C7.87 41.92 0 37.96 0 33.2L0 31.12L35 31.12L35 33.2C35 37.96 27.12 41.92 17.5 41.92Z" stroke="#45403C" stroke-opacity="1.000000" stroke-width="1.000000" stroke-linejoin="round"/>
	<path d="M35 30.92C35 35.96 27.16 40.04 17.5 40.04C7.83 40.04 0 35.96 0 30.92C0 25.88 7.83 21.8 17.5 21.8C27.16 21.8 35 25.88 35 30.92Z" fill="#F0C7A8" fill-opacity="1.000000" fill-rule="evenodd"/>
	<path d="M17.5 25.07C26.05 25.07 33.25 28.34 34.7 32.61C34.9 32.11 35 31.51 35 31.02C35 25.96 27.12 21.9 17.5 21.9C7.87 21.9 0 25.87 0 30.92C0 31.51 0.09 32.01 0.29 32.51C1.75 28.24 8.94 25.07 17.5 25.07Z" fill="#F7DBC6" fill-opacity="1.000000" fill-rule="nonzero"/>
	<path d="M17.5 40.04C7.83 40.04 0 35.96 0 30.92C0 25.88 7.83 21.8 17.5 21.8C27.16 21.8 35 25.88 35 30.92C35 35.96 27.16 40.04 17.5 40.04Z" stroke="#45403C" stroke-opacity="1.000000" stroke-width="1.000000" stroke-linejoin="round"/>
	<path d="M23.81 31.91C23.81 33 21 33.89 17.59 33.89C14.19 33.89 11.37 33 11.37 31.91L11.37 30.33L23.81 30.33L23.81 31.91Z" fill="#E0E0E0" fill-opacity="1.000000" fill-rule="nonzero"/>
	<path d="M17.59 33.89C14.19 33.89 11.37 33 11.37 31.91L11.37 30.33L23.81 30.33L23.81 31.91C23.81 33 21 33.89 17.59 33.89Z" stroke="#45403C" stroke-opacity="1.000000" stroke-width="1.000000" stroke-linejoin="round"/>
	<path d="M31.59 16.55C31.59 21.5 30.33 28.74 23.13 30.92C23.13 30.92 20.9 31.61 17.5 31.61C14.09 31.61 11.86 30.92 11.86 30.92C4.66 28.74 3.4 21.5 3.4 16.55L31.59 16.55Z" fill="#F0F0F0" fill-opacity="1.000000" fill-rule="nonzero"/>
	<path d="M4.27 23.09C7.97 23.98 12.54 25.07 17.5 25.07C22.45 25.07 26.92 24.08 30.72 23.09C31.4 20.81 31.59 18.53 31.59 16.55L3.4 16.55C3.4 18.53 3.59 20.91 4.27 23.09Z" fill="#FFFFFF" fill-opacity="1.000000" fill-rule="nonzero"/>
	<path d="M23.13 30.92C23.13 30.92 20.9 31.61 17.5 31.61C14.09 31.61 11.86 30.92 11.86 30.92C4.66 28.74 3.4 21.5 3.4 16.55L31.59 16.55C31.59 21.5 30.33 28.74 23.13 30.92Z" stroke="#45403C" stroke-opacity="1.000000" stroke-width="1.000000" stroke-linejoin="round"/>
	<path d="M31.59 16.55C31.59 19.29 25.28 21.5 17.5 21.5C9.71 21.5 3.4 19.29 3.4 16.55C3.4 13.81 9.71 11.59 17.5 11.59C25.28 11.59 31.59 13.81 31.59 16.55Z" fill="#E0E0E0" fill-opacity="1.000000" fill-rule="evenodd"/>
	<path d="M17.5 13.57C24.3 13.57 30.04 15.26 31.3 17.54C31.5 17.24 31.59 16.85 31.59 16.55C31.59 13.77 25.27 11.59 17.5 11.59C9.72 11.59 3.4 13.77 3.4 16.55C3.4 16.85 3.5 17.24 3.69 17.54C4.95 15.26 10.69 13.57 17.5 13.57Z" fill="#F0F0F0" fill-opacity="1.000000" fill-rule="nonzero"/>
	<path d="M17.5 21.5C9.71 21.5 3.4 19.29 3.4 16.55C3.4 13.81 9.71 11.59 17.5 11.59C25.28 11.59 31.59 13.81 31.59 16.55C31.59 19.29 25.28 21.5 17.5 21.5Z" stroke="#45403C" stroke-opacity="1.000000" stroke-width="1.000000" stroke-linejoin="round"/>
	<path d="M17.5 15.06C11.47 15.06 6.31 16.45 4.27 18.23C6.31 20.12 11.47 21.5 17.5 21.5C23.52 21.5 28.67 20.12 30.72 18.33C28.67 16.45 23.52 15.06 17.5 15.06Z" fill="#EB9C60" fill-opacity="1.000000" fill-rule="nonzero"/>
	<path d="M17.5 17.54C22.06 17.54 26.15 18.33 28.77 19.52C29.55 19.13 30.23 18.73 30.72 18.33C28.67 16.45 23.62 15.16 17.5 15.16C11.37 15.16 6.31 16.55 4.27 18.33C4.76 18.83 5.44 19.22 6.22 19.52C8.84 18.33 12.92 17.54 17.5 17.54Z" fill="#FFCAA1" fill-opacity="1.000000" fill-rule="nonzero"/>
	<path d="M4.27 18.23C6.31 20.12 11.47 21.5 17.5 21.5C23.52 21.5 28.67 20.12 30.72 18.33C28.67 16.45 23.52 15.06 17.5 15.06C11.47 15.06 6.31 16.45 4.27 18.23Z" stroke="#45403C" stroke-opacity="1.000000" stroke-width="1.000000" stroke-linejoin="round"/>
</svg>
