<svg width="45.000000" height="35.000000" viewBox="0 0 45 35" fill="none" xmlns="http://www.w3.org/2000/svg" xmlns:xlink="http://www.w3.org/1999/xlink">
	<desc>
			Created with Pixso.
	</desc>
	<defs/>
	<path id="Vector" d="M35.57 2.69C34.94 4.03 34.33 5.38 33.7 6.73C33.6 6.95 33.49 7.18 33.39 7.4L29.76 7.4C29.66 7.18 29.55 6.95 29.45 6.73C28.82 5.38 28.21 4.03 27.58 2.69C28.88 3.14 30.25 3.37 31.64 3.36C32.98 3.35 34.31 3.12 35.57 2.69Z" fill="#F38F44" fill-opacity="1.000000" fill-rule="nonzero"/>
	<path id="Vector" d="M36.14 24.9C35.86 25.82 35.52 26.72 35.11 27.59C34.45 29.01 33.63 30.37 32.66 31.63L31.21 30.28L29.76 31.63C28.14 29.61 26.93 27.33 26.2 24.9L26.21 24.9C26.84 24.26 27.61 23.75 28.46 23.4C29.32 23.06 30.24 22.88 31.18 22.88C32.11 22.88 33.03 23.06 33.89 23.4C34.74 23.75 35.51 24.26 36.14 24.9Z" fill="#EBE0D8" fill-opacity="1.000000" fill-rule="nonzero"/>
	<path id="Vector" d="M16.28 27.59C16.91 28.94 17.52 30.28 18.15 31.63C15.57 30.73 12.74 30.73 10.16 31.63C10.79 30.28 11.4 28.94 12.03 27.59C12.13 27.37 12.24 27.14 12.34 26.92L15.97 26.92C16.07 27.14 16.18 27.37 16.28 27.59Z" fill="#F38F44" fill-opacity="1.000000" fill-rule="nonzero"/>
	<path id="Vector" d="M26.2 24.9C25.67 23.15 25.4 21.33 25.41 19.51C25.4 18.84 25.44 18.17 25.52 17.5C25.93 13.84 27.4 10.35 29.76 7.4L33.39 7.4C35.46 10.44 36.68 13.91 36.97 17.5C37.02 18.15 37.03 18.82 37.02 19.51C36.97 21.34 36.68 23.15 36.14 24.9C35.51 24.26 34.74 23.75 33.89 23.4C33.03 23.06 32.11 22.88 31.18 22.88C30.24 22.88 29.32 23.06 28.46 23.4C27.61 23.75 26.84 24.26 26.21 24.9L26.2 24.9Z" fill="#FF9F56" fill-opacity="1.000000" fill-rule="nonzero"/>
	<path id="Vector" d="M29.45 6.73C29.55 6.95 29.66 7.18 29.76 7.4C27.4 10.35 25.93 13.84 25.52 17.49L19.49 17.49C19.58 16.6 19.62 15.7 19.6 14.8C19.55 12.98 19.26 11.17 18.72 9.42C18.44 8.5 18.1 7.6 17.69 6.73L29.45 6.73ZM40.65 27.59L40.65 34.99L4.36 34.99L4.36 27.59L12.03 27.59C11.41 28.94 10.79 30.28 10.16 31.63C12.74 30.73 15.57 30.73 18.15 31.63C17.52 30.28 16.91 28.94 16.28 27.59L27.23 27.59C27.91 29.02 28.76 30.38 29.76 31.63L31.21 30.28L32.66 31.63C33.63 30.37 34.45 29.01 35.11 27.59L40.65 27.59ZM33.7 6.73L40.64 6.73L40.64 8.74L45 8.74L45 17.49L36.97 17.49C36.68 13.91 35.46 10.44 33.39 7.4C33.49 7.18 33.6 6.95 33.7 6.73ZM9.82 6.73C9.4 7.6 9.06 8.5 8.78 9.42C8.25 11.17 7.98 12.98 7.99 14.8C7.99 15.7 8.05 16.6 8.18 17.49L0 17.49L0 8.74L4.35 8.74L4.35 6.73L9.82 6.73Z" fill="#733506" fill-opacity="1.000000" fill-rule="nonzero"/>
	<path id="Vector" d="M8.79 9.42C10.03 10.64 11.74 11.36 13.55 11.43C14.51 11.45 15.47 11.27 16.36 10.93C17.25 10.58 18.06 10.07 18.72 9.42C19.26 11.17 19.55 12.98 19.6 14.8C19.62 15.7 19.58 16.6 19.49 17.5C19.11 20.84 17.91 24.07 15.97 26.92L12.34 26.92C10.12 24.15 8.69 20.91 8.18 17.5C8.05 16.6 7.99 15.7 7.99 14.8C7.98 12.98 8.25 11.17 8.79 9.42L8.79 9.42Z" fill="#FF9F56" fill-opacity="1.000000" fill-rule="nonzero"/>
	<path id="Vector" d="M45 17.5L45 25.57L40.65 25.57L40.65 27.59L35.11 27.59C36.3 25.04 36.94 22.29 37.02 19.51C37.03 18.82 37.02 18.15 36.97 17.5L45 17.5ZM25.41 19.51C25.4 21.33 25.67 23.15 26.2 24.9C26.48 25.82 26.82 26.72 27.23 27.59L16.28 27.59C16.18 27.37 16.07 27.14 15.97 26.92C17.91 24.07 19.11 20.84 19.49 17.5L25.52 17.5C25.44 18.17 25.4 18.84 25.41 19.51ZM12.34 26.92C12.24 27.14 12.13 27.37 12.03 27.59L4.36 27.59L4.36 25.57L0 25.57L0 17.5L8.18 17.5C8.69 20.91 10.12 24.15 12.34 26.92ZM40.64 0L40.64 6.73L33.7 6.73C34.33 5.38 34.94 4.03 35.57 2.69C34.31 3.12 32.98 3.35 31.64 3.36C30.25 3.37 28.88 3.14 27.58 2.69C28.21 4.03 28.82 5.38 29.45 6.73L17.69 6.73C17.03 5.3 16.21 3.95 15.24 2.69L13.79 4.03L12.34 2.69C11.34 3.94 10.49 5.3 9.82 6.73L4.35 6.73L4.35 0L40.64 0Z" fill="#916747" fill-opacity="1.000000" fill-rule="nonzero"/>
	<path id="Vector" d="M17.69 6.73C18.1 7.6 18.44 8.5 18.72 9.42C18.05 10.07 17.25 10.58 16.36 10.93C15.47 11.27 14.51 11.45 13.55 11.43C11.74 11.36 10.03 10.64 8.79 9.42L8.78 9.42C9.51 6.99 10.72 4.71 12.34 2.69L13.79 4.03L15.24 2.69C16.21 3.95 17.03 5.3 17.69 6.73Z" fill="#EBE0D8" fill-opacity="1.000000" fill-rule="nonzero"/>
	<path id="Vector" d="M45 1.05L45 8.75L40.64 8.75L40.64 0L43.86 0C44 -0.01 44.15 0.02 44.29 0.07C44.43 0.13 44.56 0.21 44.66 0.3C44.77 0.4 44.85 0.52 44.91 0.65C44.97 0.78 45 0.91 45 1.05ZM45 25.57L45 33.94C45 34.08 44.97 34.21 44.91 34.34C44.85 34.47 44.77 34.59 44.66 34.69C44.56 34.78 44.43 34.86 44.29 34.92C44.15 34.97 44 35 43.86 35L40.65 35L40.65 25.57L45 25.57ZM4.36 27.59L4.36 35L1.13 35C0.99 35 0.84 34.97 0.7 34.92C0.56 34.86 0.43 34.78 0.33 34.69C0.22 34.59 0.14 34.47 0.08 34.34C0.02 34.21 0 34.08 0 33.94L0 25.57L4.36 25.57L4.36 27.59ZM4.35 6.73L4.35 8.75L0 8.75L0 1.05C0 0.91 0.02 0.78 0.08 0.65C0.14 0.52 0.22 0.4 0.33 0.3C0.43 0.21 0.56 0.13 0.7 0.07C0.84 0.02 0.99 -0.01 1.13 0L4.35 0L4.35 6.73Z" fill="#A07554" fill-opacity="1.000000" fill-rule="nonzero"/>
	<path id="Vector" d="M12.36 8.07C12.16 8.07 11.98 8 11.84 7.88C11.7 7.75 11.63 7.58 11.63 7.4C11.62 7.22 11.7 7.05 11.84 6.92C11.97 6.8 12.16 6.73 12.35 6.73L12.36 6.73C12.55 6.73 12.73 6.8 12.87 6.92C13 7.05 13.08 7.22 13.08 7.4C13.08 7.58 13 7.75 12.87 7.87C12.73 8 12.55 8.07 12.36 8.07ZM29.78 27.59C29.58 27.59 29.4 27.52 29.26 27.4C29.12 27.27 29.05 27.1 29.05 26.92C29.04 26.74 29.12 26.57 29.26 26.44C29.39 26.32 29.58 26.25 29.77 26.24L29.78 26.24C29.97 26.24 30.15 26.31 30.29 26.44C30.42 26.57 30.5 26.74 30.5 26.92C30.5 27.1 30.42 27.27 30.29 27.39C30.15 27.52 29.97 27.59 29.78 27.59Z" fill="#746A63" fill-opacity="1.000000" fill-rule="nonzero"/>
	<path id="Vector" d="M4.35 0L40.64 0L40.64 1.36L4.35 1.36L4.35 0Z" fill="#A07554" fill-opacity="1.000000" fill-rule="evenodd"/>
	<path id="Vector" d="M4.35 33.63L40.64 33.63L40.64 35L4.35 35L4.35 33.63Z" fill="#A07554" fill-opacity="1.000000" fill-rule="evenodd"/>
	<path id="Vector" d="M0 8.75L1.49 8.75L1.49 25.57L0 25.57L0 8.75Z" fill="#A07554" fill-opacity="1.000000" fill-rule="evenodd"/>
	<path id="Vector" d="M43.5 8.75L45 8.75L45 25.57L43.5 25.57L43.5 8.75Z" fill="#A07554" fill-opacity="1.000000" fill-rule="evenodd"/>
</svg>
