<svg width="45" height="35" viewBox="0 0 45 35" fill="none" xmlns="http://www.w3.org/2000/svg">
<path d="M35.5718 2.69214C34.9476 4.03829 34.3306 5.38445 33.7064 6.7306C33.6048 6.95271 33.4959 7.18156 33.3943 7.40368H29.7653C29.6637 7.18156 29.5548 6.95271 29.4532 6.7306C28.829 5.38445 28.2121 4.03829 27.5879 2.69214C28.8849 3.14346 30.2598 3.37156 31.6451 3.36522C32.9864 3.35554 34.3154 3.12773 35.5718 2.69214Z" fill="#F38F44"/>
<path d="M36.1453 24.9039C35.8665 25.8215 35.5222 26.7209 35.1146 27.5962C34.4553 29.0186 33.6354 30.3723 32.6687 31.6346L31.217 30.2885L29.7654 31.6346C28.1425 29.6136 26.9368 27.3316 26.209 24.9039H26.2162C26.8477 24.2664 27.615 23.7576 28.4696 23.4094C29.3242 23.0613 30.2474 22.8816 31.1808 22.8816C32.1141 22.8816 33.0374 23.0613 33.8919 23.4094C34.7465 23.7576 35.5138 24.2664 36.1453 24.9039Z" fill="#EBE0D8"/>
<path d="M16.2865 27.5964C16.9107 28.9426 17.5276 30.2887 18.1518 31.6349C15.5786 30.7372 12.7412 30.7372 10.168 31.6349C10.7922 30.2887 11.4091 28.9426 12.0333 27.5964C12.1349 27.3743 12.2438 27.1455 12.3454 26.9233H15.9744C16.076 27.1455 16.1849 27.3743 16.2865 27.5964Z" fill="#F38F44"/>
<path d="M26.2087 24.9041C25.6772 23.1517 25.4086 21.3398 25.4103 19.5194C25.4076 18.8449 25.4464 18.1707 25.5264 17.5002C25.9378 13.8433 27.4018 10.3562 29.7651 7.40405H33.3942C35.4608 10.4468 36.6896 13.9138 36.9724 17.5002C37.0232 18.1531 37.0377 18.8262 37.0232 19.5194C36.9783 21.3416 36.6832 23.1511 36.145 24.9041C35.5135 24.2666 34.7462 23.7577 33.8916 23.4096C33.037 23.0615 32.1138 22.8818 31.1804 22.8818C30.2471 22.8818 29.3238 23.0615 28.4693 23.4096C27.6147 23.7577 26.8474 24.2666 26.2159 24.9041H26.2087Z" fill="#FF9F56"/>
<path d="M29.4532 6.73047C29.5548 6.95258 29.6637 7.18143 29.7653 7.40355C27.402 10.3557 25.938 13.8428 25.5266 17.4997H19.4951C19.5876 16.605 19.6239 15.706 19.604 14.8074C19.5592 12.9852 19.2641 11.1758 18.7258 9.42278C18.447 8.50514 18.1027 7.60572 17.6951 6.73047H29.4532ZM40.6524 27.5959V34.9997H4.36209V27.5959H12.0339C11.4097 28.942 10.7927 30.2882 10.1685 31.6343C12.7418 30.7366 15.5791 30.7366 18.1524 31.6343C17.5282 30.2882 16.9113 28.942 16.2871 27.5959H27.2395C27.9135 29.0265 28.7609 30.3814 29.7653 31.6343L31.2169 30.2882L32.6685 31.6343C33.6352 30.372 34.4551 29.0183 35.1145 27.5959H40.6524ZM33.7064 6.73047H40.6451V8.7497H45V17.4997H36.9725C36.6898 13.9133 35.461 10.4462 33.3943 7.40355C33.4959 7.18143 33.6048 6.95258 33.7064 6.73047ZM9.82015 6.73047C9.40943 7.60456 9.06504 8.50418 8.78951 9.42278C8.25806 11.1751 7.98941 12.987 7.99112 14.8074C7.99151 15.7079 8.05698 16.6073 8.18709 17.4997H0V8.7497H4.35484V6.73047H9.82015Z" fill="#733506"/>
<path d="M8.79686 9.42358C10.0373 10.6445 11.7436 11.3668 13.5509 11.4361C14.5167 11.451 15.4753 11.2799 16.3661 10.9335C17.2569 10.587 18.0605 10.0729 18.7259 9.42358C19.2642 11.1766 19.5593 12.986 19.6041 14.8082C19.624 15.7068 19.5877 16.6058 19.4952 17.5005C19.1161 20.8502 17.9117 24.0743 15.9751 26.9236H12.3461C10.1288 24.1561 8.6986 20.9155 8.18719 17.5005C8.05707 16.6081 7.9916 15.7087 7.99122 14.8082C7.98951 12.9878 8.25816 11.176 8.7896 9.42358H8.79686Z" fill="#FF9F56"/>
<path d="M45 17.5V25.5769H40.6524V27.5962H35.1145C36.3012 25.0416 36.9491 22.2999 37.0234 19.5192C37.0379 18.826 37.0234 18.1529 36.9725 17.5H45ZM25.4105 19.5192C25.4087 21.3396 25.6774 23.1515 26.2088 24.9038C26.4844 25.8224 26.8288 26.7221 27.2395 27.5962H16.2871C16.1855 27.374 16.0766 27.1452 15.975 26.9231C17.9116 24.0738 19.116 20.8497 19.4951 17.5H25.5266C25.4465 18.1705 25.4078 18.8447 25.4105 19.5192ZM12.346 26.9231C12.2443 27.1452 12.1355 27.374 12.0339 27.5962H4.36209V25.5769H0V17.5H8.18709C8.6985 20.915 10.1287 24.1556 12.346 26.9231ZM40.6451 0V6.73077H33.7064C34.3306 5.38461 34.9475 4.03846 35.5717 2.69231C34.3154 3.1279 32.9864 3.35571 31.6451 3.36538C30.2598 3.37173 28.8849 3.14363 27.5879 2.69231C28.2121 4.03846 28.829 5.38461 29.4532 6.73077H17.6951C17.0358 5.30834 16.2159 3.95464 15.2492 2.69231L13.7976 4.03846L12.346 2.69231C11.3416 3.94525 10.4942 5.30012 9.82015 6.73077H4.35484V0H40.6451Z" fill="#916747"/>
<path d="M17.6947 6.7306C18.1022 7.60585 18.4465 8.50527 18.7253 9.42291C18.0599 10.0722 17.2564 10.5864 16.3656 10.9328C15.4748 11.2792 14.5162 11.4504 13.5503 11.4354C11.7431 11.3661 10.0367 10.6438 8.79632 9.42291H8.78906C9.51686 6.99515 10.7226 4.71317 12.3455 2.69214L13.7971 4.03829L15.2487 2.69214C16.2155 3.95447 17.0354 5.30817 17.6947 6.7306Z" fill="#EBE0D8"/>
<path d="M45 1.05673V8.75H40.6451V2.9647e-06H43.8604C44.0102 -0.000326348 44.1585 0.026782 44.2969 0.0797711C44.4354 0.13276 44.5611 0.210586 44.667 0.308778C44.7729 0.40697 44.8568 0.523594 44.9139 0.651951C44.9711 0.780308 45.0003 0.917869 45 1.05673ZM45 25.5769V33.9433C45.0003 34.0821 44.9711 34.2197 44.9139 34.348C44.8568 34.4764 44.7729 34.593 44.667 34.6912C44.5611 34.7894 44.4354 34.8672 44.2969 34.9202C44.1585 34.9732 44.0102 35.0003 43.8604 35H40.6524V25.5769H45ZM4.3621 27.5962V35H1.13952C0.989775 35.0003 0.841438 34.9732 0.703025 34.9202C0.564612 34.8672 0.438852 34.7894 0.332968 34.6912C0.227083 34.593 0.143161 34.4764 0.0860204 34.348C0.0288801 34.2197 -0.000351914 34.0821 3.19695e-06 33.9433V25.5769H4.3621V27.5962ZM4.35484 6.73077V8.75H3.19695e-06V1.05673C-0.000351914 0.917869 0.0288801 0.780308 0.0860204 0.651951C0.143161 0.523594 0.227083 0.40697 0.332968 0.308778C0.438852 0.210586 0.564612 0.13276 0.703025 0.0797711C0.841438 0.026782 0.989775 -0.000326348 1.13952 2.9647e-06H4.35484V6.73077Z" fill="#A07554"/>
<path d="M12.3602 8.07662C12.1677 8.07749 11.9827 8.00742 11.846 7.88181C11.7092 7.7562 11.6318 7.58534 11.6309 7.40683C11.6299 7.22832 11.7055 7.05678 11.8409 6.92993C11.9764 6.80309 12.1606 6.73134 12.3531 6.73047H12.3602C12.5527 6.73047 12.7373 6.80138 12.8734 6.92761C13.0096 7.05383 13.086 7.22503 13.086 7.40355C13.086 7.58206 13.0096 7.75326 12.8734 7.87948C12.7373 8.00571 12.5527 8.07662 12.3602 8.07662ZM29.7803 27.5952C29.5878 27.596 29.4028 27.526 29.266 27.4004C29.1292 27.2747 29.0519 27.1039 29.0509 26.9254C29.05 26.7469 29.1255 26.5753 29.261 26.4485C29.3964 26.3216 29.5807 26.2499 29.7732 26.249H29.7803C29.9728 26.249 30.1574 26.3199 30.2935 26.4462C30.4296 26.5724 30.5061 26.7436 30.5061 26.9221C30.5061 27.1006 30.4296 27.2718 30.2935 27.398C30.1574 27.5243 29.9728 27.5952 29.7803 27.5952Z" fill="#746A63"/>
<path d="M40.6448 0H4.35449V1.36769H40.6448V0Z" fill="#A07554"/>
<path d="M40.6448 33.6323H4.35449V35H40.6448V33.6323Z" fill="#A07554"/>
<path d="M1.49879 8.75H0V25.5769H1.49879V8.75Z" fill="#A07554"/>
<path d="M44.9998 8.75H43.501V25.5769H44.9998V8.75Z" fill="#A07554"/>
</svg>
