<svg width="70.000000" height="60.000000" viewBox="0 0 70 60" fill="none" xmlns="http://www.w3.org/2000/svg" xmlns:xlink="http://www.w3.org/1999/xlink">
	<desc>
			Created with Pixso.
	</desc>
	<defs/>
	<path id="heart2" d="M50.75 -0.5C44.62 -0.5 38.85 2.11 35 6.36C31.14 2.11 25.37 -0.5 19.25 -0.5C8.39 -0.5 0 7.34 0 17.48C0 29.9 11.89 39.88 29.92 55.24L35 59.5L40.07 55.24C58.1 39.88 70 29.9 70 17.48C70 7.34 61.6 -0.5 50.75 -0.5ZM37.16 50.94L36.45 51.55L35 52.76L33.54 51.55L32.84 50.94C24.35 43.71 17.03 37.47 12.18 31.88C7.48 26.46 5.38 22.02 5.38 17.48C5.38 13.91 6.8 10.61 9.37 8.21C11.93 5.81 15.44 4.5 19.25 4.5C23.64 4.5 27.99 6.4 30.87 9.58L35 14.13L39.12 9.58C42 6.4 46.35 4.5 50.75 4.5C54.55 4.5 58.06 5.81 60.62 8.21C63.19 10.61 64.61 13.91 64.61 17.48C64.61 22.02 62.51 26.46 57.81 31.88C52.96 37.46 45.64 43.71 37.16 50.94Z" fill="#F2E3B3" fill-opacity="1.000000" fill-rule="nonzero"/>
</svg>
