<svg width="110.000000" height="100.000000" viewBox="0 0 110 100" fill="none" xmlns="http://www.w3.org/2000/svg" xmlns:xlink="http://www.w3.org/1999/xlink">
	<desc>
			Created with Pixso.
	</desc>
	<defs/>
	<path id="Vector" d="M70.75 20C64.62 20 58.85 22.61 55 26.86C51.14 22.61 45.37 20 39.25 20C28.39 20 20 27.84 20 37.98C20 50.4 31.89 60.38 49.92 75.74L55 80L60.07 75.74C78.1 60.38 90 50.4 90 37.98C90 27.84 81.6 20 70.75 20ZM57.16 71.44L56.45 72.05L55 73.26L53.54 72.05L52.84 71.44C44.35 64.21 37.03 57.97 32.18 52.38C27.48 46.96 25.38 42.52 25.38 37.98C25.38 34.41 26.8 31.11 29.37 28.71C31.93 26.31 35.44 25 39.25 25C43.64 25 47.99 26.9 50.87 30.08L55 34.63L59.12 30.08C62 26.9 66.35 25 70.75 25C74.55 25 78.06 26.31 80.62 28.71C83.19 31.11 84.61 34.41 84.61 37.98C84.61 42.52 82.51 46.96 77.81 52.38C72.96 57.96 65.64 64.21 57.16 71.44Z" fill="#B90F0F" fill-opacity="1.000000" fill-rule="nonzero"/>
	<path id="Vector 7" d="M55 75L36.86 58.91L31.53 53.55L27.26 48.19L25.66 45.51L24.59 42.83L23.53 39.61L23 36.93L23.53 33.72L24.59 31.04L26.2 28.36L28.33 26.21L31 24.6L33.66 23.53L36.33 23L40.06 23L43.26 23.53L45.4 24.6L47.53 25.68L50.2 27.82L55 33.18L59.79 27.82L62.46 25.68L64.59 24.6L67.26 23.53L69.93 23L74.2 23L76.86 23.53L79 24.6L81.66 26.21L83.79 28.36L85.4 31.04L86.46 33.72L87 36.93L86.46 39.61L85.4 42.83L84.33 45.51L82.73 48.19L78.46 53.55L73.13 58.91L55 75Z" fill="#B90F0F" fill-opacity="1.000000" fill-rule="nonzero"/>
	<path id="Vector 7" d="M36.86 58.91L31.53 53.55L27.26 48.19L25.66 45.51L24.59 42.83L23.53 39.61L23 36.93L23.53 33.72L24.59 31.04L26.2 28.36L28.33 26.21L31 24.6L33.66 23.53L36.33 23L40.06 23L43.26 23.53L45.4 24.6L47.53 25.68L50.2 27.82L55 33.18L59.79 27.82L62.46 25.68L64.59 24.6L67.26 23.53L69.93 23L74.2 23L76.86 23.53L79 24.6L81.66 26.21L83.79 28.36L85.4 31.04L86.46 33.72L87 36.93L86.46 39.61L85.4 42.83L84.33 45.51L82.73 48.19L78.46 53.55L73.13 58.91L55 75L36.86 58.91Z" stroke="#B90F0F" stroke-opacity="1.000000" stroke-width="1.000000"/>
</svg>
