<svg width="100.000000" height="100.000000" viewBox="0 0 100 100" fill="none" xmlns="http://www.w3.org/2000/svg" xmlns:xlink="http://www.w3.org/1999/xlink">
	<desc>
			Created with Pixso.
	</desc>
	<defs/>
	<rect id="Property 1=Variant2" rx="49.500000" width="99.000000" height="99.000000" transform="translate(0.500000 0.500000)" fill="#B90F0F" fill-opacity="1.000000"/>
	<path id="Vector" d="M65.75 25C59.62 25 53.85 27.61 50 31.86C46.14 27.61 40.37 25 34.25 25C23.39 25 15 32.84 15 42.98C15 55.4 26.89 65.38 44.92 80.74L50 85L55.07 80.74C73.1 65.38 85 55.4 85 42.98C85 32.84 76.6 25 65.75 25ZM52.16 76.44L51.45 77.05L50 78.26L48.54 77.05L47.84 76.44C39.35 69.21 32.03 62.97 27.18 57.38C22.48 51.96 20.38 47.52 20.38 42.98C20.38 39.41 21.8 36.11 24.37 33.71C26.93 31.31 30.44 30 34.25 30C38.64 30 42.99 31.9 45.87 35.08L50 39.63L54.12 35.08C57 31.9 61.35 30 65.75 30C69.55 30 73.06 31.31 75.62 33.71C78.19 36.11 79.61 39.41 79.61 42.98C79.61 47.52 77.51 51.96 72.81 57.38C67.96 62.96 60.64 69.21 52.16 76.44Z" fill="#F2E3B3" fill-opacity="1.000000" fill-rule="nonzero"/>
	<path id="Vector 7" d="M49 81L30.86 64.91L25.53 59.55L21.26 54.19L19.66 51.51L18.59 48.83L17.53 45.61L17 42.93L17.53 39.72L18.59 37.04L20.2 34.36L22.33 32.21L25 30.6L27.66 29.53L30.33 29L34.06 29L37.26 29.53L39.4 30.6L41.53 31.68L44.2 33.82L49 39.18L53.79 33.82L56.46 31.68L58.59 30.6L61.26 29.53L63.93 29L68.2 29L70.86 29.53L73 30.6L75.66 32.21L77.79 34.36L79.4 37.04L80.46 39.72L81 42.93L80.46 45.61L79.4 48.83L78.33 51.51L76.73 54.19L72.46 59.55L67.13 64.91L49 81Z" fill="#F2E3B3" fill-opacity="1.000000" fill-rule="nonzero"/>
	<path id="Vector 7" d="M30.86 64.91L25.53 59.55L21.26 54.19L19.66 51.51L18.59 48.83L17.53 45.61L17 42.93L17.53 39.72L18.59 37.04L20.2 34.36L22.33 32.21L25 30.6L27.66 29.53L30.33 29L34.06 29L37.26 29.53L39.4 30.6L41.53 31.68L44.2 33.82L49 39.18L53.79 33.82L56.46 31.68L58.59 30.6L61.26 29.53L63.93 29L68.2 29L70.86 29.53L73 30.6L75.66 32.21L77.79 34.36L79.4 37.04L80.46 39.72L81 42.93L80.46 45.61L79.4 48.83L78.33 51.51L76.73 54.19L72.46 59.55L67.13 64.91L49 81L30.86 64.91Z" stroke="#F2E3B3" stroke-opacity="1.000000" stroke-width="1.000000"/>
	<rect id="Property 1=Variant2" rx="49.500000" width="99.000000" height="99.000000" transform="translate(0.500000 0.500000)" stroke="#B90F0F" stroke-opacity="1.000000" stroke-width="1.000000"/>
</svg>
