<svg width="70" height="60" viewBox="0 0 70 60" fill="none" xmlns="http://www.w3.org/2000/svg">
	<path d="M36.1204 5.42559L35.0332 6.45375L33.9461 5.42267C30.191 1.92608 25.1321 -0.0227329 19.8698 0.000200132C14.6075 0.0231332 9.56763 2.01595 5.84659 5.54513C2.12555 9.07431 0.0243908 13.8543 0.000211012 18.8453C-0.0239688 23.8362 2.03079 28.6343 5.71747 32.1958L6.80461 33.2269L35.0332 60L63.2619 33.2269L64.349 32.1958C68.0064 28.6288 70.0363 23.8396 69.9995 18.8642C69.9628 13.8887 67.8624 9.127 64.1526 5.60893C60.4429 2.09087 55.4221 0.0992939 50.1762 0.0649822C44.9302 0.0306705 39.8809 1.95638 36.1204 5.42559Z" fill="#F2E3B3"/>
</svg>

