<svg width="70.000000" height="60.000000" viewBox="0 0 70 60" fill="none" xmlns="http://www.w3.org/2000/svg" xmlns:xlink="http://www.w3.org/1999/xlink">
	<path id="Vector" d="M50.75 0C44.62 0 38.85 2.61 35 6.86C31.14 2.61 25.37 0 19.25 0C8.39 0 0 7.84 0 17.98C0 30.4 11.89 40.38 29.92 55.74L35 60L40.07 55.74C58.1 40.38 70 30.4 70 17.98C70 7.84 61.6 0 50.75 0ZM37.16 51.44L36.45 52.05L35 53.26L33.54 52.05L32.84 51.44C24.35 44.21 17.03 37.97 12.18 32.38C7.48 26.96 5.38 22.52 5.38 17.98C5.38 14.41 6.8 11.11 9.37 8.71C11.93 6.31 15.44 5 19.25 5C23.64 5 27.99 6.9 30.87 10.08L35 14.63L39.12 10.08C42 6.9 46.35 5 50.75 5C54.55 5 58.06 6.31 60.62 8.71C63.19 11.11 64.61 14.41 64.61 17.98C64.61 22.52 62.51 26.96 57.81 32.38C52.96 37.96 45.64 44.21 37.16 51.44Z" fill="#F2E3B3" fill-opacity="1.000000" fill-rule="nonzero"/>
	<svg width="69.000000" height="60.000000" viewBox="0 0 69 60" fill="none" xmlns="http://www.w3.org/2000/svg" xmlns:xlink="http://www.w3.org/1999/xlink">
		<path id="Vector 7" d="M35 59L24.5 50.08L14.5 41L8.5 35L5.5 31L2 25L1.04 22.5L1 21L0.5 18.07L1.04 14.82L2.15 12.12L3.79 9.41L5.5 6.5L7.5 4.5L10.5 2.5L12.5 2L16 1L21 1L25 2L28 3L31 4.54L34.5 7.5L36.5 6L38.45 4.54L40.5 3L43.4 2L46.15 1L50.5 0.5L54.5 1L58.5 2.5L61 4L63.5 5.98L66 9.41L68 12.42L68.5 14.9L68.5 16.38L68.5 20.78L67.5 24.81L64.84 29.27L61 34.72L54.5 41.16L35 59Z" fill="#F2E3B3" fill-opacity="1.000000" fill-rule="nonzero"/>
		<path id="Vector 7" d="M8.5 35L5.5 31L2 25L1.04 22.5L1 21L0.5 18.07L1.04 14.82L2.15 12.12L3.79 9.41L5.5 6.5L7.5 4.5L10.5 2.5L12.5 2L16 1L21 1L25 2L28 3L31 4.54L34.5 7.5L36.5 6L38.45 4.54L40.5 3L43.4 2L46.15 1L50.5 0.5L54.5 1L58.5 2.5L61 4L63.5 5.98L66 9.41L68 12.42L68.5 14.9L68.5 16.38L68.5 20.78L67.5 24.81L64.84 29.27L61 34.72L54.5 41.16L35 59L24.5 50.08L14.5 41L8.5 35Z" stroke="#F2E3B3" stroke-opacity="1.000000" stroke-width="1.000000"/>
	</svg>
</svg>
