<svg width="110" height="100" viewBox="0 0 110 100" fill="none" xmlns="http://www.w3.org/2000/svg">
<path d="M70.75 20C64.625 20 58.8503 22.6159 55 26.8667C51.1495 22.6159 45.375 20 39.25 20C28.3997 20 20 27.847 20 37.9836C20 50.408 31.8997 60.3817 49.9243 75.7483L55 80L60.0757 75.7483C78.1002 60.3816 90 50.4078 90 37.9836C90 27.847 81.6003 20 70.75 20ZM57.1599 71.4464L56.45 72.0516L55 73.2661L53.5502 72.0517L52.8411 71.4472C44.3573 64.2156 37.0304 57.97 32.1867 52.3856C27.4824 46.9617 25.3846 42.52 25.3846 37.9836C25.3846 34.4109 26.8018 31.1194 29.3751 28.7155C31.9399 26.3195 35.4468 25 39.25 25C43.6475 25 47.995 26.9011 50.8791 30.0852L55 34.6345L59.1207 30.0852C62.0051 26.9011 66.3523 25 70.75 25C74.5534 25 78.0601 26.3195 80.625 28.7153C83.1982 31.1194 84.6154 34.4108 84.6154 37.9836C84.6154 42.52 82.5176 46.9616 77.8136 52.3853C72.9701 57.9697 65.6435 64.2148 57.1599 71.4464Z" fill="#B90F0F"/>
<path d="M55 75L36.8667 58.9175L31.5333 53.5567L27.2667 48.1959L25.6667 45.5155L24.6 42.8351L23.5333 39.6186L23 36.9381L23.5333 33.7217L24.6 31.0412L26.2 28.3608L28.3333 26.2165L31 24.6082L33.6667 23.5361L36.3333 23H40.0667L43.2667 23.5361L45.4 24.6082L47.5333 25.6804L50.2 27.8247L55 33.1856L59.8 27.8247L62.4667 25.6804L64.6 24.6082L67.2667 23.5361L69.9333 23H74.2L76.8667 23.5361L79 24.6082L81.6667 26.2165L83.8 28.3608L85.4 31.0412L86.4667 33.7217L87 36.9381L86.4667 39.6186L85.4 42.8351L84.3333 45.5155L82.7333 48.1959L78.4667 53.5567L73.1333 58.9175L55 75Z" fill="#B90F0F" stroke="#B90F0F"/>
</svg>
