<svg width="70" height="60" viewBox="0 0 70 60" fill="none" xmlns="http://www.w3.org/2000/svg">
    <path d="M50.75 0C44.625 0 38.8503 2.61594 35 6.86672C31.1495 2.61594 25.375 0 19.25 0C8.39966 0 0 7.84703 0 17.9836C0 30.408 11.8997 40.3817 29.9243 55.7483L35 60L40.0757 55.7483C58.1002 40.3816 70 30.4078 70 17.9836C70 7.84703 61.6003 0 50.75 0ZM37.1599 51.4464L36.45 52.0516L35 53.2661L33.5502 52.0517L32.8411 51.4472C24.3573 44.2156 17.0304 37.97 12.1867 32.3856C7.48243 26.9617 5.38462 22.52 5.38462 17.9836C5.38462 14.4109 6.80178 11.1194 9.37512 8.71547C11.9399 6.31953 15.4468 5 19.25 5C23.6475 5 27.995 6.90109 30.8791 10.0852L35 14.6345L39.1207 10.0852C42.0051 6.90109 46.3523 5 50.75 5C54.5534 5 58.0601 6.31953 60.625 8.71531C63.1982 11.1194 64.6154 14.4108 64.6154 17.9836C64.6154 22.52 62.5176 26.9616 57.8136 32.3853C52.9701 37.9697 45.6435 44.2148 37.1599 51.4464Z" fill="#733506"/>
</svg>
