<svg width="60" height="60" viewBox="0 0 60 60" fill="none" xmlns="http://www.w3.org/2000/svg">
<path d="M58.6271 26.6855L33.3145 1.37294C31.4839 -0.457647 28.5159 -0.457647 26.6855 1.37294L1.37294 26.6855C-0.457647 28.516 -0.457647 31.484 1.37294 33.3145C2.77615 34.7177 4.8472 35.044 6.56248 34.296V52.9688C6.56248 56.852 9.71049 60 13.5937 60H46.4063C50.2895 60 53.4375 56.852 53.4375 52.9688V34.296C55.1528 35.044 57.2239 34.7177 58.6271 33.3145C60.4576 31.4839 60.4576 28.516 58.6271 26.6855ZM38.2031 50.625C38.2031 51.9195 37.1538 52.9688 35.8594 52.9688H24.1406C22.8462 52.9688 21.7969 51.9195 21.7969 50.625V36.5625C21.7969 35.268 22.8462 34.2187 24.1406 34.2187H35.8594C37.1538 34.2187 38.2031 35.268 38.2031 36.5625V50.625Z" fill="#733506"/>
</svg>
