<svg width="30.000000" height="30.000000" viewBox="0 0 30 30" fill="none" xmlns="http://www.w3.org/2000/svg" xmlns:xlink="http://www.w3.org/1999/xlink">
	<desc>
			Created with Pixso.
	</desc>
	<defs/>
	<path id="Vector" d="M26.36 16.84L1.95 16.84C1.32 16.84 0.71 17.13 0.35 17.64C-0.02 18.15 -0.1 18.8 0.11 19.37L3.47 28.13C3.89 29.24 5.01 30 6.25 30L22.06 30C23.29 30 24.41 29.24 24.85 28.13L28.19 19.38C28.66 18.15 27.73 16.84 26.36 16.84ZM25.2 20.57L23.1 25.72C22.97 26.04 22.6 26.18 22.28 26.07C21.95 25.94 21.79 25.59 21.92 25.27L24.02 20.12C24.14 19.8 24.51 19.65 24.84 19.77C25.16 19.89 25.32 20.25 25.2 20.57ZM7.01 7.16C7.01 6.41 6.95 5.68 6.74 5.17C6.62 4.85 6.25 4.7 5.92 4.81C5.59 4.93 5.43 5.29 5.55 5.6C5.69 5.95 5.75 6.5 5.75 7.1C3.3 7.3 1.37 9.27 1.37 11.68C1.37 14.22 3.52 16.28 6.15 16.28C8.78 16.28 10.92 14.22 10.92 11.68C10.92 9.42 9.23 7.55 7.01 7.16ZM6.26 10.58C6.26 10.58 6.26 10.58 6.26 10.58C5.46 10.67 4.09 10.24 4.61 9.44C5.06 8.7 5.62 9.74 6.88 9.2L6.89 9.2C7.78 8.83 8.58 10.5 6.26 10.58ZM10.11 15.45C9.82 15.59 9.69 15.91 9.79 16.2C9.9 16.5 10.22 16.67 10.53 16.59C18.45 14.89 20.04 9.2 20.44 5.7C19.62 6.11 18.82 6.27 18.1 6.27C16.52 6.27 15.24 5.51 14.52 4.97C14.52 5.04 14.52 5.11 14.53 5.18C14.93 10.71 12.46 14.35 10.11 15.45ZM20.57 4.19C20.67 2.89 20.19 2.02 19.34 1.51C19.48 1.38 19.64 1.24 19.84 1.09C20.12 0.89 20.17 0.5 19.96 0.24C19.75 -0.03 19.35 -0.08 19.07 0.12C18.58 0.48 18.23 0.82 17.97 1.14C16.56 1.14 15.32 2.45 14.82 3.6C14.89 3.6 17.37 6.4 20.57 4.19ZM28.11 5.95C26.76 5.43 25.19 5.79 24.66 6.95L20.69 15.61L26.36 15.61C26.67 15.61 26.98 15.66 27.28 15.75L29.87 8.99C30.28 7.97 29.66 6.56 28.11 5.95ZM18.55 13.07C18.41 13.62 18.04 14.56 17.71 14.82C17.44 15.04 17.4 15.42 17.62 15.68C17.75 15.83 17.93 15.9 18.11 15.9C18.26 15.9 18.4 15.86 18.52 15.76C19.28 15.15 19.7 13.66 19.78 13.37C19.86 13.04 19.66 12.71 19.32 12.62C18.98 12.54 18.63 12.74 18.55 13.07Z" fill="#733506" fill-opacity="1.000000" fill-rule="nonzero"/>
</svg>
