<svg width="44.000000" height="44.000000" viewBox="0 0 44 44" fill="none" xmlns="http://www.w3.org/2000/svg" xmlns:xlink="http://www.w3.org/1999/xlink">
	<desc>
			Created with Pixso.
	</desc>
	<defs/>
	<path id="Vector" d="M14.66 22C14.66 17.95 17.95 14.66 22 14.66C26.05 14.66 29.33 17.95 29.33 22C29.33 26.04 26.05 29.33 22 29.33C17.95 29.33 14.66 26.04 14.66 22ZM10.7 22C10.7 28.23 15.76 33.29 22 33.29C28.24 33.29 33.29 28.23 33.29 22C33.29 15.76 28.24 10.7 22 10.7C15.76 10.7 10.7 15.76 10.7 22ZM31.1 10.25C31.1 11.71 32.28 12.89 33.74 12.89C35.2 12.89 36.38 11.71 36.38 10.25C36.38 8.79 35.2 7.61 33.74 7.61C32.28 7.61 31.1 8.79 31.1 10.25ZM13.11 39.9C10.96 39.8 9.8 39.45 9.02 39.15C7.99 38.75 7.26 38.27 6.49 37.5C5.72 36.73 5.24 36 4.84 34.97C4.54 34.2 4.19 33.03 4.09 30.89C3.98 28.57 3.96 27.87 3.96 22C3.96 16.12 3.98 15.43 4.09 13.1C4.19 10.96 4.54 9.8 4.84 9.02C5.25 7.99 5.72 7.26 6.49 6.49C7.26 5.72 7.99 5.24 9.02 4.84C9.8 4.54 10.96 4.18 13.11 4.09C15.43 3.98 16.12 3.96 22 3.96C27.87 3.96 28.57 3.98 30.89 4.09C33.03 4.18 34.2 4.54 34.97 4.84C36 5.24 36.73 5.72 37.5 6.49C38.27 7.26 38.75 7.99 39.15 9.02C39.45 9.79 39.81 10.96 39.91 13.1C40.01 15.43 40.03 16.12 40.03 22C40.03 27.87 40.01 28.56 39.91 30.89C39.81 33.03 39.45 34.2 39.15 34.97C38.75 36 38.27 36.73 37.5 37.5C36.73 38.27 36 38.75 34.97 39.15C34.2 39.45 33.03 39.8 30.89 39.9C28.57 40.01 27.87 40.03 22 40.03C16.12 40.03 15.43 40.01 13.11 39.9ZM12.93 0.13C10.58 0.23 8.98 0.61 7.58 1.15C6.14 1.71 4.91 2.47 3.69 3.69C2.46 4.91 1.71 6.14 1.15 7.58C0.61 8.98 0.24 10.58 0.13 12.92C0.02 15.27 0 16.02 0 22C0 27.97 0.02 28.72 0.13 31.07C0.24 33.41 0.61 35.01 1.15 36.41C1.71 37.85 2.46 39.08 3.69 40.3C4.91 41.52 6.14 42.28 7.58 42.84C8.99 43.38 10.58 43.76 12.93 43.86C15.27 43.97 16.02 44 22 44C27.97 44 28.72 43.97 31.07 43.86C33.41 43.76 35.01 43.38 36.41 42.84C37.85 42.28 39.08 41.52 40.3 40.3C41.53 39.08 42.28 37.85 42.84 36.41C43.39 35.01 43.76 33.41 43.86 31.07C43.97 28.72 44 27.97 44 22C44 16.02 43.97 15.27 43.86 12.92C43.76 10.58 43.39 8.98 42.84 7.58C42.28 6.14 41.53 4.91 40.3 3.69C39.08 2.47 37.85 1.71 36.41 1.15C35.01 0.61 33.41 0.23 31.07 0.13C28.72 0.02 27.97 0 22 0C16.02 0 15.27 0.02 12.93 0.13Z" fill="#733506" fill-opacity="1.000000" fill-rule="nonzero"/>
</svg>
