<svg width="642.000000" height="566.000000" viewBox="0 0 642 566" fill="none" xmlns="http://www.w3.org/2000/svg" xmlns:xlink="http://www.w3.org/1999/xlink">
	<desc>
			Created with Pixso.
	</desc>
	<defs/>
	<path id="Vector" d="M413.07 124.24C407.46 127.01 401.99 128.95 396.09 129.42C391.98 129.74 389.8 131.24 390.17 135.95C390.6 141.42 390.5 146.96 390.16 152.44C389.9 156.6 391.67 158.67 395.29 160.34C408.95 166.62 421.14 175 429.94 187.43C446.54 210.89 451.76 236.35 442.33 264.03C440 270.86 436.47 277.17 430.42 281.53C422.89 286.95 414.01 283.54 412.32 274.74C411.76 271.82 412.23 268.91 413.85 266.59C431.96 240.43 421.07 197.78 382.94 180.99C366.41 173.72 349.21 170.21 331.14 169.78C306.98 169.22 282.82 169.61 258.66 169.4C248.41 169.32 244.98 166.07 244.58 155.7C244.31 148.88 244.08 142.05 244.13 135.23C244.16 131.23 242.54 129.68 238.59 129.28C215.72 126.99 196.22 105.49 195.86 82.41C195.47 57.14 214.83 35.05 239.93 31.57C246.66 30.64 253.23 30.81 259.77 31.99C263.16 32.6 264.89 31.81 266.59 28.89C275.57 13.48 289.01 4.07 306.42 0.55C332.58 -4.75 356.44 5.66 370.19 28.35C372.17 31.61 373.81 32.83 378 32.09C407.57 26.86 434.19 45.42 438.96 75.01C441.84 92.86 433.34 113.47 413.07 124.24ZM222.83 69.44C215.67 85.61 223.91 102.54 240.76 106.51C250.93 108.91 259.82 106.01 268.07 100.28C271.07 98.19 273.76 95.65 277.35 94.51C282.7 92.82 286.57 94.7 288.39 99.93C291.52 108.95 289.24 115.46 278.04 121.23C269.82 125.45 267.42 130.82 268.2 139.38C268.87 146.79 268.35 146.72 275.61 146.88C304.36 147.52 333.22 144.8 361.85 149.62C364.53 150.07 365.94 148.9 365.9 146.06C365.85 141.89 365.7 137.72 365.96 133.57C366.26 128.72 364.73 125.34 360.09 123.19C357.1 121.82 354.54 119.54 351.74 117.75C346.6 114.47 345.25 109.57 345.73 103.89C346.38 96.15 353.14 92.27 360.09 95.83C363.18 97.42 366.02 99.53 368.94 101.45C376.31 106.29 384.14 108.63 393.07 106.72C408.63 103.38 416.19 91.53 415.06 79.48C413.61 63.97 400 53.42 385.19 55.09C377.91 55.91 372.04 59.46 366.64 64.11C364.13 66.27 361.33 67.69 357.96 66.2C354.54 64.68 353.15 61.71 352.87 58.19C352.7 56.04 352.71 53.86 352.87 51.7C353.18 47.34 351.81 43.56 349.47 39.95C341.75 28.03 330.7 21.71 316.67 22.75C301.17 23.9 289.84 31.95 284.12 46.89C280.19 57.12 276.23 59.37 265.4 57.27C263.61 56.92 261.87 56.29 260.11 55.81C244.21 51.46 230.23 56.38 222.83 69.44Z" fill="#733506" fill-opacity="1.000000" fill-rule="nonzero"/>
	<path id="Vector" d="M384.98 340.98C380.8 334.93 376.78 329.2 372.85 323.41C368.12 316.44 368.37 310.28 373.46 306.48C379.55 301.92 387.77 302.91 392.36 309.42C402.75 324.11 412.78 339.05 422.98 353.87C427.57 360.54 432.21 367.17 437.17 374.3C439.58 369.7 438.66 365.49 438.58 361.48C438.44 354.4 438.9 347.91 445.56 343.35C448.13 341.59 448.41 329.09 446.59 326.59C445.51 325.09 443.96 325.37 442.51 325.35C438.51 325.31 434.51 325.32 430.51 325.34C428.62 325.35 426.59 325.25 425.53 323.57C422.41 318.64 422.26 313.17 423.78 307.75C425.07 303.16 429.07 301.92 433.22 301.79C440.88 301.57 448.55 301.66 456.22 301.68C459.07 301.69 461.85 301.42 464.64 300.83C474.28 298.8 480.52 292.28 480.59 282.45C480.81 249.79 481.25 217.11 480.4 184.47C479.91 165.84 469.28 152.85 452.34 145.24C445.54 142.19 439.49 138.93 439.63 129.97C439.77 121.02 445.17 116.6 453.74 119.55C463.56 122.94 472.67 127.81 480.6 134.65C497.41 149.15 505.35 167.64 505.34 189.7C505.33 219.87 505.06 250.04 505.44 280.2C505.7 299.94 496.53 313.25 479.06 320.96C473.7 323.32 471.85 326.09 472.24 331.71C472.64 337.48 471.73 343.05 477.65 347.23C481.3 349.8 481.22 354.91 481.23 359.28C481.28 385.94 481.3 412.6 481.29 439.27C481.28 447.08 478.27 451.56 471.95 453.44C465.22 455.44 460.28 453.5 455.93 446.66C440.35 422.21 423.63 398.53 407.51 374.44C400.1 363.36 392.63 352.33 384.98 340.98Z" fill="#733506" fill-opacity="1.000000" fill-rule="nonzero"/>
	<path id="Vector" d="M370.51 374.52C380.55 389.28 390.64 403.58 400.11 418.27C405.16 426.11 411.79 432.31 418.25 438.79C420.6 441.15 422.98 443.54 424.19 446.72C425.66 450.58 424.16 453.18 420.11 453.21C404.12 453.34 388.12 453.43 372.13 453.18C365.83 453.08 361.78 447.78 361.74 440.75C361.7 434.06 365.2 430.26 371.96 429.66C373.26 429.55 374.67 429.86 375.77 428.58C376.37 426.6 374.95 425.21 373.97 423.76C344.9 380.48 315.8 337.23 286.72 293.95C284.45 290.58 281.29 288.12 278.42 285.34C273.29 280.38 270.46 274.53 270.53 267.16C270.71 247 270.6 226.83 270.65 206.67C270.67 198.49 272.37 196.74 280.7 196.79C300.02 196.92 319.36 195.92 338.64 197.74C356.11 199.39 371.89 204.89 382.78 219.77C397.37 239.69 392.27 266.02 371.41 279.38C359.63 286.93 346.76 290.85 332.8 291.43C327.69 291.64 322.59 292.17 315.71 292.69C334.31 320.46 352.31 347.34 370.51 374.52ZM303.6 220.22C294.39 220.17 294.33 220.17 294.4 229.65C294.49 241.3 294.81 252.95 294.78 264.6C294.78 267.65 295.67 268.75 298.74 268.71C308.22 268.57 317.73 268.95 327.2 268.54C335.84 268.17 344.38 266.97 352.33 262.96C367.59 255.27 370.5 239.84 358.37 229.47C353.49 225.31 347.76 222.55 341.43 221.39C329.22 219.15 316.86 220.62 303.6 220.22Z" fill="#733506" fill-opacity="1.000000" fill-rule="nonzero"/>
	<path id="Vector" d="M197.32 425.98C197.34 433.28 197.89 440.1 193.3 446.08C187.66 453.42 180.2 455.55 171.59 453.97C163.15 452.42 158.22 446.91 156.59 438.57C156.06 435.81 155.8 432.96 155.8 430.15C155.79 407.33 155.84 384.52 155.97 361.7C156.01 354.51 156.08 347.25 162.6 342.18C163.3 341.64 163.79 340.48 163.87 339.56C164.7 330.44 164.73 321.31 164.16 312.17C163.95 308.67 161.85 306.46 159.23 304.49C152.97 299.77 146.96 294.84 142.56 288.14C138.12 281.39 135.72 274.08 135.71 266.06C135.65 232.42 135.68 198.78 135.7 165.13C135.7 160.25 136.63 155.79 141.63 153.44C146.23 151.27 150.74 151.41 154.79 154.58C158.89 157.78 159.29 162.52 159.29 167.26C159.32 195.4 159.32 223.55 159.33 251.7C159.33 254.86 159.28 258.03 159.36 261.19C159.56 269.14 162.64 275.7 168.99 280.61C172.15 283.05 175.47 285.3 178.5 287.9C184.87 293.35 188.13 300.11 188.55 308.75C189 317.93 188.37 327.05 188.34 336.19C188.33 338.84 188.84 341.1 190.96 342.88C195.99 347.1 197.28 352.83 197.29 359.03C197.3 381.18 197.31 403.33 197.32 425.98Z" fill="#733506" fill-opacity="1.000000" fill-rule="nonzero"/>
	<path id="Vector" d="M216.7 339C216.7 280.69 216.69 222.89 216.74 165.08C216.75 161.43 215.48 156.89 220.32 155.16C224.96 153.51 228.25 156.37 231.18 159.53C237.16 165.99 240.44 173.25 240.42 182.44C240.23 268.4 240.32 354.36 240.3 440.32C240.3 450.92 234.36 455.69 224.32 453.37C220.88 452.58 218.83 450.53 217.64 447.33C216.7 444.76 216.67 442.12 216.68 439.45C216.69 406.13 216.7 372.81 216.7 339Z" fill="#733506" fill-opacity="1.000000" fill-rule="nonzero"/>
	<path id="Vector" d="M270.68 393C270.67 366.68 270.65 340.86 270.68 315.04C270.69 312.65 269.85 309.62 272.82 308.42C275.91 307.17 278.21 309.18 280.18 311.32C285.07 316.61 288.78 322.76 292.5 328.86C293.97 331.28 294.36 334.13 294.36 337.03C294.32 372.35 294.37 407.66 294.33 442.97C294.32 450.11 290.29 453.96 283.07 454.08C275.25 454.21 270.73 450.28 270.69 442.97C270.62 426.48 270.68 409.99 270.68 393Z" fill="#733506" fill-opacity="1.000000" fill-rule="nonzero"/>
	<path id="Vector" d="M199.29 221C199.28 233.82 199.38 246.14 199.24 258.47C199.15 266.65 194.3 271.64 187.19 271.31C181.93 271.06 177.99 268 176.8 262.84C176.21 260.27 175.95 257.57 175.94 254.93C175.91 226.28 175.94 197.64 176 169C176.01 166.51 176.22 164.01 176.52 161.53C177.19 156.03 180.38 152.75 185.67 151.95C190.51 151.21 196.02 154.23 197.93 158.74C199.04 161.38 199.34 164.16 199.33 167.04C199.28 184.86 199.3 202.68 199.29 221Z" fill="#733506" fill-opacity="1.000000" fill-rule="nonzero"/>
	<path id="Vector" d="M407.05 560.34C406.93 552.35 406.93 544.8 406.93 536.34C401.36 538.96 399.27 542.88 396.53 546.08C391.14 552.37 389.21 552.33 383.76 545.92C381.11 542.82 379.27 538.95 375.65 536.82C373.85 537.77 374.38 539.25 374.36 540.48C374.3 545.64 374.35 550.8 374.32 555.96C374.29 562.48 372.62 564.3 366.67 564.34C360.81 564.38 358.8 562.41 358.78 556.04C358.74 541.56 358.81 527.09 358.89 512.61C358.9 509.2 359.2 505.75 363.23 504.53C367.37 503.27 371.2 503.78 373.99 507.47C377.9 512.65 381.68 517.93 385.56 523.13C386.94 524.97 388.08 527.05 390.83 528.45C396.17 522.97 400.62 516.65 405.03 510.3C407.8 506.31 410.89 502.97 416.47 504.12C419.37 504.72 421.07 505.98 421.46 509.3C422.88 521.42 421.79 533.57 422.17 545.69C422.28 549.18 422.12 552.68 422.21 556.17C422.29 559.78 421.63 563.22 417.64 563.99C413.82 564.73 409.51 565.53 407.05 560.34Z" fill="#733506" fill-opacity="1.000000" fill-rule="nonzero"/>
	<path id="Vector" d="M39.12 543.85C41.8 548.19 44.53 552.17 47 556.3C49.62 560.71 48.03 563.69 43.02 564.27C37.26 564.94 32.57 563.73 29.66 558.02C28.02 554.78 25.63 551.92 23.62 548.87C22.15 546.63 20.08 545.93 17.58 546.51C14.81 547.15 15.44 549.48 15.35 551.38C15.27 552.88 15.33 554.38 15.32 555.87C15.26 562.83 13.96 564.32 7.95 564.34C1.71 564.37 -0.3 562.39 -0.32 555.93C-0.35 541.46 -0.36 526.99 -0.33 512.52C-0.31 506.24 0.93 505.01 7.1 504.41C14.42 503.7 21.79 503.98 29 504.91C37.42 506 43.8 510.77 46.72 519.11C49.59 527.29 47.64 534.45 41.45 540.49C40.52 541.39 39.24 542.05 39.12 543.85ZM15.53 521.26C14.74 533.17 15.13 533.61 25.37 532.63C28.68 532.32 31.08 530.84 31.7 527.42C32.35 523.78 30.57 521.02 27.31 520.01C23.6 518.84 19.6 518.2 15.53 521.26Z" fill="#733506" fill-opacity="1.000000" fill-rule="nonzero"/>
	<path id="Vector" d="M593.58 511.68C593.49 506.68 595.78 504.54 600.31 504.58C607.45 504.65 614.61 504.39 621.73 504.77C630.4 505.24 637.77 511.59 640.58 520.32C643.09 528.16 640.59 535.66 633.48 541.53C632.97 541.95 632.44 542.35 631.83 542.82C633.27 547.81 637 551.14 639.24 555.32C640.33 557.35 642.06 559.24 640.75 561.75C639.34 564.44 636.71 564.13 634.21 564.36C628.78 564.87 624.98 562.93 622.42 557.98C620.68 554.6 618.3 551.54 616.12 548.41C614.84 546.58 612.91 545.98 610.81 546.56C608.75 547.12 608.88 549.08 608.77 550.69C608.59 553.17 608.5 555.67 608.57 558.15C608.69 562.95 606.23 564.56 601.71 564.42C595.84 564.25 593.76 562.9 593.7 558.01C593.55 546.86 593.58 535.71 593.54 524.57C593.53 520.41 593.56 516.25 593.58 511.68ZM609.42 530.81C612.07 534.42 615.86 532.34 619.09 532.54C622.99 532.77 625.26 530.29 625.64 526.47C626.02 522.67 623.6 520.54 620.34 519.59C611.9 517.12 609.08 519.33 609.2 527.97C609.21 528.64 609.25 529.3 609.42 530.81Z" fill="#733506" fill-opacity="1.000000" fill-rule="nonzero"/>
	<path id="Vector" d="M501.42 542.02C497.33 542.92 495.48 545.54 495.37 549.42C495.3 552.08 495.39 554.75 495.34 557.41C495.23 562.85 493.86 564.22 488.57 564.33C482.43 564.45 481.06 563.17 480.54 557.59C479.16 542.63 480.02 527.65 479.97 512.68C479.94 506.01 482.46 503.79 488.71 503.97C492.71 504.09 495.45 505.52 495.43 510.15C495.42 512.46 495.78 514.78 496.03 517.09C496.28 519.3 494.73 521.7 497.24 524.37C501.92 519.38 506.61 514.53 511.12 509.52C514.79 505.43 518.78 502.67 524.64 504.28C529.88 505.72 531.22 508.78 527.8 512.97C524.01 517.59 519.92 522.01 515.64 526.18C512.67 529.07 512.4 531.54 514.92 534.78C519.51 540.69 524.09 546.63 528.31 552.8C530.36 555.78 534.8 558.83 530.59 563.09C527.89 565.82 518.39 564.73 515.87 561.49C511.69 556.1 507.84 550.46 503.83 544.94C503.15 544 502.4 543.11 501.42 542.02Z" fill="#733506" fill-opacity="1.000000" fill-rule="nonzero"/>
	<path id="Vector" d="M165.07 508.78C167.77 510.52 169.9 512.34 171.68 514.6C174.42 518.08 175.12 521.33 171.35 524.62C167.65 527.84 163.54 528.31 160.18 525.23C154.46 519.97 148.31 517.3 140.68 520.85C132.28 524.75 129.43 533.1 133.73 541.21C137.99 549.26 147.32 551.86 155.02 547.1C156.42 546.23 157.69 545.12 158.95 544.03C163.42 540.2 167.32 540.31 171.52 544.43C174.31 547.16 174.72 550.03 172.34 553.31C164.48 564.11 147.7 568.17 134.35 562.41C120.77 556.55 113.01 541.99 115.87 527.74C118.62 514.06 131.47 503.77 145.75 503.62C152.58 503.55 158.98 504.81 165.07 508.78Z" fill="#733506" fill-opacity="1.000000" fill-rule="nonzero"/>
	<path id="Vector" d="M575.75 550.63C580.86 550.2 583.07 552.54 583.26 556.97C583.45 561.39 580.96 564.13 576.25 564.21C566.1 564.38 555.94 564.33 545.78 564.29C541.31 564.27 538.94 561.71 538.92 557.4C538.85 542.09 538.89 526.77 539.03 511.45C539.07 506.86 541.47 504.55 546.3 504.62C556.29 504.74 566.28 504.58 576.27 504.64C580.99 504.67 583.18 507.04 583.24 511.77C583.3 516.25 580.92 518.85 576.23 519.02C570.74 519.23 565.24 519.27 559.75 519.22C556.62 519.19 555.3 520.38 555.24 523.64C555.18 527.2 557.01 527.77 559.93 527.7C564.09 527.6 568.26 527.66 572.42 527.78C577.47 527.92 577.41 531.47 577.42 535.2C577.43 538.98 576.33 541.34 572.1 541.3C568.11 541.25 564.11 541.45 560.12 541.31C556.84 541.2 555.27 542.22 555.23 545.83C555.18 549.63 556.74 550.81 560.3 550.68C565.29 550.5 570.29 550.63 575.75 550.63Z" fill="#733506" fill-opacity="1.000000" fill-rule="nonzero"/>
	<path id="Vector" d="M99.59 504.67C105.12 505.69 105.42 509.65 105.12 513.54C104.8 517.56 101.96 519.11 98.13 519.13C92.3 519.16 86.47 519.31 80.64 519.26C77.42 519.23 76.25 520.65 76.29 523.82C76.33 527.06 78.04 527.74 80.76 527.69C84.42 527.62 88.09 527.6 91.75 527.71C97.12 527.86 98.24 529.28 98.38 534.75C98.51 539.39 96.68 541.57 91.92 541.36C88.09 541.18 84.25 541.44 80.42 541.33C76.99 541.24 76.29 543.09 76.28 546.07C76.27 549.05 76.9 550.79 80.41 550.69C86.4 550.51 92.41 550.74 98.4 550.62C102.8 550.53 104.89 552.81 105.2 556.88C105.54 561.21 102.83 564.18 98.33 564.23C88 564.35 77.67 564.32 67.34 564.27C62.93 564.24 60.91 561.98 60.55 557.45C59.37 542.46 60.9 527.49 60.59 512.51C60.47 506.24 61.98 504.71 68.16 504.6C78.48 504.41 88.81 504.61 99.59 504.67Z" fill="#733506" fill-opacity="1.000000" fill-rule="nonzero"/>
	<path id="Vector" d="M302.2 527.69C306 527.73 309.34 527.67 312.66 527.82C317.15 528.02 318.62 530.74 318.32 534.9C318.04 538.8 317.03 541.72 312.16 541.39C308.51 541.14 304.82 541.52 301.17 541.3C297.55 541.08 296.12 542.36 296.09 546.11C296.06 550.12 298.02 550.8 301.38 550.69C306.71 550.52 312.04 550.76 317.37 550.62C321.88 550.5 323.71 553.01 323.99 557C324.28 561.07 321.65 564.11 317.46 564.18C307.47 564.35 297.48 564.32 287.49 564.23C283.14 564.19 280.69 561.98 280.67 557.42C280.6 542.43 280.4 527.45 280.47 512.46C280.5 506.02 282.08 504.78 288.62 504.63C297.11 504.45 305.6 504.81 314.09 504.27C322.04 503.76 325.71 508.13 323.47 514.58C322.61 517.03 321.31 518.56 318.5 518.62C312.84 518.73 307.19 519.1 301.54 519.18C298.41 519.22 296.04 519.46 296.03 523.62C296.01 528.11 298.85 527.73 302.2 527.69Z" fill="#733506" fill-opacity="1.000000" fill-rule="nonzero"/>
	<path id="Vector" d="M243.05 548.29C235.41 548.17 235.41 548.17 235.34 556.27C235.29 563.35 231.55 566.15 224.79 564.35C221.56 563.49 219.92 561.34 219.89 558.25C219.75 542.28 219.69 526.31 219.77 510.34C219.79 506.63 222.02 504.62 225.9 504.64C233.22 504.69 240.55 504.43 247.85 504.76C259 505.25 268.14 514.63 268.36 525.36C268.61 537.76 260.59 546.76 248 548.14C246.52 548.3 245.01 548.25 243.05 548.29ZM244.14 519.31C241.19 519.91 237.07 517.45 235.59 521.94C232.78 530.49 235.72 534.2 244.57 533.7C248.75 533.46 252.07 531.96 252.6 527.29C253.06 523.26 249.97 520.18 244.14 519.31Z" fill="#733506" fill-opacity="1.000000" fill-rule="nonzero"/>
	<path id="Vector" d="M448.32 527C448.32 533.5 448.46 539.5 448.26 545.49C448.13 549.35 449.21 550.93 453.44 550.33C458.19 549.66 463.03 549.56 467.86 550.46C472.03 551.23 472.64 554.04 472.56 557.45C472.48 560.99 471.17 563.95 467.24 564.05C457.75 564.28 448.24 564.32 438.75 564.14C434.72 564.06 432.82 561.15 432.8 557.41C432.69 541.92 432.64 526.42 432.81 510.92C432.87 505.82 435.55 503.88 441.16 503.98C446.03 504.07 448.14 506.03 448.28 511C448.42 516.16 448.32 521.33 448.32 527Z" fill="#733506" fill-opacity="1.000000" fill-rule="nonzero"/>
	<path id="Vector" d="M192.2 504.94C201.63 502.39 205.09 504.93 205.16 514.28C205.27 528.23 205.28 542.19 205.23 556.14C205.21 562.25 203.11 564.3 197.22 564.36C191.23 564.43 188.97 562.57 188.89 556.46C188.72 541.51 188.82 526.56 188.86 511.61C188.87 509.05 189.48 506.65 192.2 504.94Z" fill="#733506" fill-opacity="1.000000" fill-rule="nonzero"/>
</svg>
