<svg width="120.000000" height="120.000000" viewBox="0 0 120 120" fill="none" xmlns="http://www.w3.org/2000/svg" xmlns:xlink="http://www.w3.org/1999/xlink">
	<desc>
			Created with Pixso.
	</desc>
	<defs/>
	<path id="Vector" d="M76.94 25.71C75.89 26.3 74.87 26.71 73.77 26.81C73 26.88 72.59 27.2 72.66 28.2C72.74 29.35 72.72 30.53 72.66 31.69C72.61 32.58 72.94 33.01 73.62 33.37C76.17 34.7 78.45 36.48 80.09 39.11C83.2 44.09 84.17 49.49 82.41 55.36C81.98 56.81 81.31 58.15 80.18 59.07C78.78 60.22 77.12 59.5 76.8 57.63C76.7 57.01 76.78 56.39 77.09 55.9C80.47 50.35 78.44 41.31 71.31 37.75C68.22 36.2 65 35.46 61.62 35.37C57.11 35.25 52.59 35.33 48.07 35.29C46.16 35.27 45.52 34.58 45.44 32.38C45.39 30.94 45.35 29.49 45.36 28.04C45.36 27.2 45.06 26.87 44.32 26.78C40.05 26.3 36.4 21.74 36.33 16.84C36.26 11.48 39.88 6.8 44.57 6.06C45.83 5.86 47.06 5.9 48.28 6.15C48.91 6.28 49.24 6.11 49.56 5.49C51.24 2.22 53.75 0.23 57 -0.52C61.89 -1.64 66.35 0.56 68.92 5.37C69.29 6.07 69.6 6.33 70.38 6.17C75.91 5.06 80.89 9 81.78 15.27C82.32 19.06 80.73 23.43 76.94 25.71ZM41.37 14.09C40.04 17.52 41.58 21.11 44.73 21.95C46.63 22.46 48.29 21.84 49.83 20.63C50.39 20.19 50.9 19.65 51.57 19.41C52.57 19.05 53.29 19.45 53.63 20.56C54.22 22.47 53.79 23.85 51.7 25.07C50.16 25.97 49.71 27.11 49.86 28.92C49.98 30.49 49.88 30.48 51.24 30.51C56.62 30.65 62.01 30.07 67.36 31.09C67.87 31.19 68.13 30.94 68.12 30.34C68.11 29.46 68.08 28.57 68.13 27.69C68.19 26.66 67.9 25.94 67.04 25.49C66.48 25.2 66 24.71 65.47 24.33C64.51 23.64 64.26 22.6 64.35 21.4C64.47 19.75 65.74 18.93 67.04 19.69C67.61 20.02 68.14 20.47 68.69 20.88C70.07 21.9 71.53 22.4 73.2 22C76.11 21.29 77.52 18.77 77.31 16.22C77.04 12.93 74.5 10.69 71.73 11.05C70.37 11.22 69.27 11.97 68.26 12.96C67.79 13.42 67.27 13.72 66.64 13.4C66 13.08 65.74 12.45 65.69 11.7C65.65 11.25 65.66 10.79 65.69 10.33C65.74 9.4 65.49 8.6 65.05 7.84C63.61 5.31 61.54 3.97 58.92 4.19C56.02 4.43 53.9 6.14 52.83 9.31C52.1 11.48 51.36 11.95 49.33 11.51C49 11.44 48.67 11.3 48.34 11.2C45.37 10.28 42.76 11.32 41.37 14.09Z" fill="#733506" fill-opacity="1.000000" fill-rule="nonzero"/>
	<path id="Vector" d="M71.69 71.68C70.91 70.39 70.16 69.18 69.42 67.95C68.54 66.47 68.58 65.17 69.54 64.36C70.67 63.39 72.21 63.6 73.07 64.98C75.01 68.1 76.89 71.27 78.79 74.41C79.65 75.83 80.52 77.23 81.45 78.74C81.9 77.77 81.73 76.87 81.71 76.02C81.68 74.52 81.77 73.15 83.01 72.18C83.5 71.81 83.55 69.16 83.21 68.62C83 68.31 82.71 68.37 82.44 68.36C81.7 68.35 80.95 68.36 80.2 68.36C79.85 68.36 79.47 68.34 79.27 67.99C78.69 66.94 78.66 65.78 78.94 64.63C79.18 63.66 79.93 63.39 80.71 63.37C82.14 63.32 83.57 63.34 85.01 63.34C85.54 63.34 86.06 63.29 86.58 63.16C88.38 62.73 89.55 61.35 89.56 59.26C89.61 52.34 89.69 45.41 89.53 38.48C89.44 34.53 87.45 31.78 84.28 30.17C83.01 29.52 81.88 28.83 81.91 26.93C81.93 25.03 82.94 24.09 84.54 24.72C86.38 25.44 88.08 26.47 89.57 27.92C92.71 31 94.19 34.91 94.19 39.6C94.19 45.99 94.14 52.39 94.21 58.79C94.26 62.97 92.54 65.8 89.28 67.43C88.27 67.93 87.93 68.52 88 69.71C88.08 70.93 87.91 72.12 89.01 73C89.7 73.55 89.68 74.63 89.68 75.56C89.69 81.21 89.7 86.87 89.69 92.52C89.69 94.18 89.13 95.13 87.95 95.53C86.69 95.95 85.77 95.54 84.95 94.09C82.04 88.9 78.91 83.88 75.9 78.77C74.52 76.42 73.12 74.08 71.69 71.68Z" fill="#733506" fill-opacity="1.000000" fill-rule="nonzero"/>
	<path id="Vector" d="M68.98 78.79C70.86 81.92 72.75 84.95 74.52 88.07C75.46 89.73 76.7 91.05 77.91 92.42C78.35 92.92 78.79 93.43 79.02 94.1C79.29 94.92 79.01 95.47 78.26 95.48C75.27 95.51 72.28 95.52 69.29 95.47C68.11 95.45 67.35 94.33 67.34 92.84C67.34 91.42 67.99 90.61 69.26 90.48C69.5 90.46 69.76 90.53 69.97 90.26C70.08 89.84 69.81 89.54 69.63 89.23C64.2 80.05 58.75 70.88 53.32 61.7C52.9 60.99 52.3 60.47 51.77 59.88C50.81 58.82 50.28 57.58 50.29 56.02C50.33 51.75 50.3 47.47 50.31 43.19C50.32 41.46 50.64 41.09 52.19 41.1C55.8 41.13 59.42 40.91 63.03 41.3C66.29 41.65 69.24 42.81 71.28 45.97C74 50.2 73.05 55.78 69.15 58.61C66.95 60.21 64.54 61.05 61.93 61.17C60.98 61.21 60.03 61.33 58.74 61.44C62.22 67.33 65.58 73.03 68.98 78.79ZM56.48 46.07C54.75 46.06 54.74 46.06 54.76 48.07C54.77 50.54 54.83 53.01 54.83 55.48C54.83 56.12 54.99 56.36 55.57 56.35C57.34 56.32 59.12 56.4 60.89 56.32C62.5 56.24 64.1 55.98 65.58 55.13C68.44 53.5 68.98 50.23 66.71 48.03C65.8 47.15 64.73 46.56 63.55 46.32C61.26 45.84 58.95 46.15 56.48 46.07Z" fill="#733506" fill-opacity="1.000000" fill-rule="nonzero"/>
	<path id="Vector" d="M36.61 89.7C36.61 91.25 36.71 92.7 35.85 93.97C34.8 95.52 33.4 95.97 31.79 95.64C30.22 95.31 29.3 94.14 28.99 92.37C28.89 91.79 28.84 91.18 28.84 90.59C28.84 85.75 28.85 80.91 28.87 76.07C28.88 74.55 28.9 73.01 30.11 71.93C30.24 71.82 30.34 71.57 30.35 71.38C30.51 69.44 30.51 67.51 30.41 65.57C30.37 64.82 29.98 64.36 29.48 63.94C28.31 62.94 27.19 61.89 26.37 60.47C25.54 59.04 25.09 57.49 25.09 55.79C25.08 48.65 25.08 41.52 25.08 34.38C25.08 33.35 25.26 32.4 26.19 31.9C27.05 31.44 27.9 31.47 28.65 32.15C29.42 32.83 29.5 33.83 29.5 34.83C29.5 40.8 29.5 46.77 29.5 52.74C29.5 53.41 29.49 54.08 29.51 54.76C29.55 56.44 30.12 57.83 31.31 58.87C31.9 59.39 32.52 59.87 33.09 60.42C34.28 61.58 34.89 63.01 34.97 64.84C35.05 66.79 34.93 68.72 34.93 70.66C34.92 71.22 35.02 71.7 35.42 72.08C36.36 72.98 36.6 74.19 36.6 75.51C36.6 80.2 36.6 84.9 36.61 89.7Z" fill="#733506" fill-opacity="1.000000" fill-rule="nonzero"/>
	<path id="Vector" d="M40.23 71.26C40.23 58.89 40.23 46.63 40.24 34.37C40.24 33.6 40 32.64 40.91 32.27C41.77 31.92 42.39 32.53 42.94 33.2C44.05 34.57 44.67 36.11 44.66 38.06C44.63 56.28 44.64 74.51 44.64 92.74C44.64 94.99 43.53 96 41.65 95.51C41.01 95.34 40.63 94.91 40.41 94.23C40.23 93.69 40.22 93.13 40.22 92.56C40.23 85.49 40.23 78.43 40.23 71.26Z" fill="#733506" fill-opacity="1.000000" fill-rule="nonzero"/>
	<path id="Vector" d="M50.32 82.71C50.32 77.13 50.31 71.65 50.32 66.18C50.32 65.67 50.16 65.03 50.72 64.77C51.3 64.51 51.73 64.93 52.1 65.39C53.01 66.51 53.7 67.81 54.4 69.11C54.67 69.62 54.75 70.22 54.75 70.84C54.74 78.33 54.75 85.82 54.74 93.31C54.74 94.82 53.99 95.64 52.64 95.66C51.17 95.69 50.33 94.86 50.32 93.31C50.31 89.81 50.32 86.31 50.32 82.71Z" fill="#733506" fill-opacity="1.000000" fill-rule="nonzero"/>
	<path id="Vector" d="M36.97 46.23C36.97 48.95 36.99 51.56 36.96 54.18C36.95 55.91 36.04 56.97 34.71 56.9C33.73 56.85 32.99 56.2 32.77 55.1C32.66 54.56 32.61 53.99 32.61 53.43C32.6 47.35 32.61 41.28 32.62 35.2C32.62 34.68 32.66 34.14 32.72 33.62C32.84 32.45 33.44 31.76 34.43 31.59C35.33 31.43 36.36 32.07 36.72 33.03C36.93 33.59 36.98 34.18 36.98 34.79C36.97 38.57 36.97 42.35 36.97 46.23Z" fill="#733506" fill-opacity="1.000000" fill-rule="nonzero"/>
	<path id="Vector" d="M75.82 118.2C75.79 116.5 75.79 114.9 75.79 113.11C74.75 113.67 74.36 114.5 73.85 115.17C72.84 116.51 72.48 116.5 71.46 115.14C70.97 114.48 70.62 113.66 69.94 113.21C69.61 113.41 69.71 113.73 69.7 113.99C69.69 115.08 69.7 116.18 69.7 117.27C69.69 118.65 69.38 119.04 68.27 119.05C67.17 119.06 66.8 118.64 66.79 117.29C66.78 114.22 66.8 111.15 66.81 108.08C66.81 107.35 66.87 106.62 67.62 106.36C68.4 106.1 69.11 106.2 69.63 106.99C70.37 108.09 71.07 109.2 71.8 110.31C72.06 110.7 72.27 111.14 72.78 111.44C73.78 110.27 74.61 108.93 75.44 107.59C75.96 106.74 76.53 106.03 77.58 106.28C78.12 106.4 78.44 106.67 78.51 107.37C78.78 109.94 78.57 112.52 78.64 115.09C78.66 115.83 78.63 116.57 78.65 117.32C78.66 118.08 78.54 118.81 77.79 118.97C77.08 119.13 76.28 119.3 75.82 118.2Z" fill="#733506" fill-opacity="1.000000" fill-rule="nonzero"/>
	<path id="Vector" d="M7.03 114.7C7.53 115.62 8.04 116.47 8.5 117.34C8.99 118.28 8.7 118.91 7.76 119.03C6.68 119.18 5.81 118.92 5.26 117.71C4.95 117.02 4.51 116.41 4.13 115.77C3.86 115.29 3.47 115.14 3 115.27C2.48 115.4 2.6 115.89 2.59 116.3C2.57 116.62 2.58 116.93 2.58 117.25C2.57 118.73 2.33 119.04 1.2 119.05C0.04 119.05 -0.34 118.63 -0.34 117.26C-0.35 114.19 -0.35 111.13 -0.34 108.06C-0.34 106.73 -0.11 106.46 1.04 106.34C2.41 106.19 3.79 106.25 5.14 106.44C6.71 106.67 7.91 107.69 8.45 109.45C8.99 111.19 8.62 112.71 7.47 113.99C7.29 114.18 7.05 114.32 7.03 114.7ZM2.62 109.91C2.47 112.44 2.55 112.53 4.46 112.32C5.08 112.26 5.53 111.94 5.64 111.22C5.76 110.45 5.43 109.86 4.82 109.64C4.13 109.4 3.38 109.26 2.62 109.91Z" fill="#733506" fill-opacity="1.000000" fill-rule="nonzero"/>
	<path id="Vector" d="M110.69 107.88C110.67 106.82 111.1 106.36 111.95 106.37C113.28 106.39 114.62 106.33 115.95 106.41C117.57 106.51 118.95 107.86 119.47 109.71C119.94 111.37 119.47 112.97 118.15 114.21C118.05 114.3 117.95 114.38 117.84 114.48C118.11 115.54 118.81 116.25 119.22 117.13C119.43 117.56 119.75 117.96 119.51 118.5C119.24 119.07 118.75 119 118.28 119.05C117.27 119.16 116.56 118.75 116.08 117.7C115.75 116.98 115.31 116.33 114.9 115.67C114.66 115.28 114.3 115.15 113.91 115.28C113.52 115.4 113.55 115.81 113.53 116.15C113.49 116.68 113.48 117.21 113.49 117.74C113.51 118.75 113.05 119.09 112.21 119.07C111.11 119.03 110.72 118.74 110.71 117.7C110.68 115.34 110.69 112.98 110.68 110.61C110.68 109.73 110.68 108.85 110.69 107.88ZM113.65 111.94C114.14 112.7 114.85 112.26 115.46 112.3C116.18 112.35 116.61 111.83 116.68 111.02C116.75 110.21 116.3 109.76 115.69 109.56C114.11 109.03 113.58 109.5 113.61 111.33C113.61 111.48 113.62 111.62 113.65 111.94Z" fill="#733506" fill-opacity="1.000000" fill-rule="nonzero"/>
	<path id="Vector" d="M93.46 114.31C92.69 114.5 92.35 115.06 92.33 115.88C92.31 116.45 92.33 117.01 92.32 117.58C92.3 118.73 92.05 119.02 91.06 119.04C89.91 119.07 89.65 118.8 89.56 117.61C89.3 114.44 89.46 111.27 89.45 108.09C89.44 106.68 89.91 106.21 91.08 106.24C91.83 106.27 92.34 106.57 92.34 107.55C92.34 108.05 92.4 108.54 92.45 109.03C92.5 109.5 92.21 110 92.68 110.57C93.55 109.51 94.43 108.48 95.27 107.42C95.96 106.55 96.7 105.97 97.8 106.31C98.78 106.61 99.03 107.26 98.39 108.15C97.68 109.13 96.92 110.07 96.12 110.95C95.56 111.57 95.51 112.09 95.98 112.78C96.84 114.03 97.7 115.29 98.49 116.6C98.87 117.23 99.7 117.88 98.91 118.78C98.41 119.36 96.63 119.13 96.16 118.44C95.38 117.3 94.66 116.1 93.91 114.93C93.78 114.73 93.64 114.54 93.46 114.31Z" fill="#733506" fill-opacity="1.000000" fill-rule="nonzero"/>
	<path id="Vector" d="M30.58 107.26C31.08 107.63 31.48 108.02 31.81 108.5C32.32 109.24 32.46 109.92 31.75 110.62C31.06 111.31 30.29 111.41 29.66 110.75C28.59 109.64 27.44 109.07 26.02 109.82C24.45 110.65 23.91 112.42 24.72 114.14C25.51 115.85 27.26 116.4 28.7 115.39C28.96 115.21 29.2 114.97 29.43 114.74C30.27 113.93 31 113.95 31.78 114.82C32.3 115.4 32.38 116.01 31.94 116.71C30.47 119 27.33 119.86 24.83 118.64C22.29 117.4 20.84 114.31 21.38 111.28C21.89 108.38 24.29 106.2 26.96 106.17C28.24 106.16 29.44 106.42 30.58 107.26Z" fill="#733506" fill-opacity="1.000000" fill-rule="nonzero"/>
	<path id="Vector" d="M107.35 116.14C108.31 116.05 108.72 116.55 108.76 117.48C108.79 118.42 108.33 119 107.45 119.02C105.55 119.05 103.65 119.05 101.75 119.04C100.92 119.03 100.47 118.49 100.47 117.58C100.46 114.33 100.46 111.08 100.49 107.83C100.5 106.86 100.95 106.37 101.85 106.38C103.72 106.41 105.58 106.37 107.45 106.39C108.33 106.39 108.74 106.89 108.75 107.9C108.76 108.85 108.32 109.4 107.44 109.44C106.42 109.48 105.39 109.49 104.36 109.48C103.78 109.47 103.53 109.72 103.52 110.42C103.51 111.17 103.85 111.29 104.4 111.28C105.17 111.26 105.95 111.27 106.73 111.29C107.68 111.32 107.66 112.08 107.67 112.87C107.67 113.67 107.46 114.17 106.67 114.16C105.93 114.15 105.18 114.19 104.43 114.16C103.82 114.14 103.52 114.36 103.52 115.12C103.51 115.93 103.8 116.18 104.47 116.15C105.4 116.11 106.33 116.14 107.35 116.14Z" fill="#733506" fill-opacity="1.000000" fill-rule="nonzero"/>
	<path id="Vector" d="M18.33 106.39C19.37 106.61 19.42 107.45 19.37 108.27C19.31 109.13 18.78 109.45 18.06 109.46C16.97 109.47 15.88 109.5 14.79 109.49C14.19 109.48 13.97 109.78 13.98 110.45C13.99 111.14 14.31 111.29 14.81 111.28C15.5 111.26 16.19 111.26 16.87 111.28C17.87 111.31 18.08 111.61 18.11 112.77C18.13 113.76 17.79 114.22 16.9 114.17C16.19 114.14 15.47 114.19 14.75 114.17C14.11 114.15 13.98 114.54 13.98 115.17C13.98 115.8 14.09 116.17 14.75 116.15C15.87 116.11 16.99 116.16 18.11 116.14C18.93 116.12 19.33 116.6 19.38 117.46C19.45 118.38 18.94 119.01 18.1 119.02C16.17 119.05 14.24 119.04 12.31 119.03C11.48 119.03 11.1 118.55 11.04 117.59C10.82 114.41 11.1 111.23 11.04 108.05C11.02 106.73 11.3 106.4 12.46 106.38C14.39 106.34 16.32 106.38 18.33 106.39Z" fill="#733506" fill-opacity="1.000000" fill-rule="nonzero"/>
	<path id="Vector" d="M56.21 111.27C56.92 111.28 57.55 111.27 58.17 111.3C59.01 111.34 59.28 111.92 59.23 112.8C59.17 113.63 58.99 114.25 58.07 114.18C57.39 114.13 56.7 114.21 56.02 114.16C55.34 114.11 55.08 114.39 55.07 115.18C55.07 116.03 55.43 116.17 56.06 116.15C57.06 116.12 58.05 116.17 59.05 116.14C59.89 116.11 60.23 116.64 60.29 117.49C60.34 118.35 59.85 119 59.07 119.01C57.2 119.05 55.33 119.04 53.46 119.02C52.65 119.02 52.19 118.55 52.19 117.58C52.17 114.4 52.14 111.22 52.15 108.04C52.16 106.68 52.45 106.42 53.67 106.39C55.26 106.35 56.85 106.42 58.44 106.31C59.92 106.2 60.61 107.13 60.19 108.49C60.03 109.01 59.79 109.34 59.26 109.35C58.2 109.37 57.15 109.45 56.09 109.47C55.5 109.48 55.06 109.53 55.06 110.41C55.06 111.36 55.59 111.28 56.21 111.27Z" fill="#733506" fill-opacity="1.000000" fill-rule="nonzero"/>
	<path id="Vector" d="M45.16 115.64C43.73 115.62 43.73 115.62 43.71 117.33C43.7 118.84 43 119.43 41.74 119.05C41.14 118.87 40.83 118.41 40.83 117.76C40.8 114.37 40.79 110.98 40.8 107.6C40.81 106.81 41.22 106.38 41.95 106.39C43.32 106.4 44.69 106.34 46.05 106.41C48.14 106.52 49.85 108.51 49.89 110.78C49.93 113.41 48.43 115.32 46.08 115.61C45.8 115.65 45.52 115.63 45.16 115.64ZM45.36 109.5C44.81 109.62 44.04 109.1 43.76 110.06C43.23 111.87 43.78 112.65 45.44 112.55C46.22 112.5 46.84 112.18 46.94 111.19C47.03 110.33 46.45 109.68 45.36 109.5Z" fill="#733506" fill-opacity="1.000000" fill-rule="nonzero"/>
	<path id="Vector" d="M83.53 111.13C83.53 112.51 83.56 113.78 83.52 115.05C83.49 115.87 83.7 116.2 84.49 116.08C85.37 115.93 86.28 115.91 87.18 116.1C87.96 116.27 88.08 116.86 88.06 117.59C88.05 118.34 87.8 118.96 87.07 118.99C85.29 119.04 83.52 119.04 81.74 119C80.99 118.99 80.63 118.37 80.63 117.58C80.61 114.29 80.6 111 80.63 107.72C80.64 106.64 81.14 106.23 82.19 106.25C83.1 106.26 83.5 106.68 83.52 107.73C83.55 108.83 83.53 109.93 83.53 111.13Z" fill="#733506" fill-opacity="1.000000" fill-rule="nonzero"/>
	<path id="Vector" d="M35.65 106.45C37.41 105.91 38.06 106.45 38.07 108.43C38.09 111.39 38.09 114.35 38.09 117.31C38.08 118.6 37.69 119.04 36.59 119.05C35.47 119.07 35.04 118.67 35.03 117.38C35 114.21 35.02 111.04 35.02 107.87C35.03 107.32 35.14 106.81 35.65 106.45Z" fill="#733506" fill-opacity="1.000000" fill-rule="nonzero"/>
</svg>
