<svg version="1.1" id="Layer_1" xmlns="http://www.w3.org/2000/svg" xmlns:xlink="http://www.w3.org/1999/xlink" x="0px" y="0px"
	 width="100%" viewBox="0 0 1024 1024" enable-background="new 0 0 1024 1024" xml:space="preserve">
<path fill="#000000" opacity="1.000000" stroke="none" 
	d="
M609.070435,344.248596 
	C603.468933,347.017059 597.991577,348.955933 592.095642,349.420013 
	C587.989258,349.743225 585.804749,351.243195 586.175903,355.958191 
	C586.606018,361.422607 586.508789,366.963715 586.168518,372.442200 
	C585.909729,376.608521 587.670471,378.679291 591.296265,380.346222 
	C604.956848,386.626373 617.142822,395.001465 625.943176,407.435150 
	C642.545166,430.891510 647.763489,456.355286 638.335327,484.030945 
	C636.005920,490.868744 632.471191,497.177582 626.420654,501.536407 
	C618.896606,506.956696 610.009949,503.547394 608.321960,494.744965 
	C607.761353,491.821838 608.238892,488.918488 609.851501,486.589966 
	C627.966003,460.433136 617.074036,417.782562 578.945862,400.997955 
	C562.412720,393.719818 545.209900,390.213654 527.141296,389.788727 
	C502.980652,389.220459 478.825470,389.612640 454.669128,389.407898 
	C444.413666,389.320984 440.986206,386.073364 440.584381,375.708069 
	C440.319916,368.885986 440.089447,362.055634 440.137543,355.231018 
	C440.165710,351.238922 438.548950,349.686066 434.598755,349.289856 
	C411.724457,346.995575 392.223572,325.494934 391.867310,302.415558 
	C391.477112,277.142181 410.831299,255.051666 435.939392,251.572784 
	C442.665344,250.640839 449.239716,250.816193 455.771729,251.990921 
	C459.169128,252.601898 460.895660,251.813065 462.597595,248.894028 
	C471.579895,233.488464 485.011200,224.078705 502.420898,220.553711 
	C528.582703,215.256622 552.449280,225.662552 566.198608,248.352020 
	C568.175659,251.614655 569.809998,252.839249 574.007996,252.095901 
	C603.576233,246.860199 630.194519,265.421082 634.966736,295.009949 
	C637.845764,312.860962 629.349121,333.474304 609.070435,344.248596 
M418.838470,289.448761 
	C411.677429,305.611511 419.918579,322.548309 436.765930,326.517029 
	C446.939606,328.913605 455.823853,326.012451 464.077026,320.281616 
	C467.077087,318.198456 469.764954,315.651184 473.360046,314.513550 
	C478.704437,312.822388 482.579071,314.704315 484.396393,319.936920 
	C487.529114,328.956909 485.249664,335.459961 474.041199,341.230438 
	C465.827362,345.459167 463.425354,350.821259 464.201569,359.388611 
	C464.872803,366.797577 464.356628,366.727264 471.616302,366.887695 
	C500.369263,367.523102 529.229553,364.806213 557.851807,369.625702 
	C560.532349,370.077057 561.942749,368.907043 561.908142,366.064117 
	C561.857483,361.900116 561.707397,357.722626 561.963440,353.573334 
	C562.262756,348.721680 560.737610,345.339569 556.091003,343.199188 
	C553.106201,341.824280 550.548706,339.540588 547.744263,337.751038 
	C542.604919,334.471527 541.255005,329.570099 541.733337,323.895752 
	C542.386230,316.150665 549.146484,312.279663 556.092346,315.835968 
	C559.189270,317.421661 562.022339,319.530609 564.943848,321.449707 
	C572.318787,326.294312 580.147766,328.636169 589.077576,326.719818 
	C604.632751,323.381714 612.193665,311.533600 611.067688,299.480225 
	C609.619751,283.979248 596.006592,273.429474 581.199158,275.096130 
	C573.910522,275.916473 568.044312,279.467163 562.647461,284.113708 
	C560.139221,286.273193 557.333557,287.699341 553.961121,286.202026 
	C550.540344,284.683167 549.153625,281.712738 548.872192,278.199005 
	C548.699951,276.048035 548.718445,273.862793 548.872498,271.708740 
	C549.184326,267.347717 547.812744,263.566620 545.475403,259.956146 
	C537.757935,248.035110 526.707336,241.716507 512.677917,242.758453 
	C497.178589,243.909561 485.847961,251.953445 480.120575,266.891113 
	C476.196960,277.124329 472.239594,279.370270 461.400757,277.274353 
	C459.611877,276.928406 457.879364,276.295532 456.115845,275.813171 
	C440.216553,271.464539 426.236877,276.382874 418.838470,289.448761 
z"/>
<path fill="#000000" opacity="1.000000" stroke="none" 
	d="
M580.984375,560.986145 
	C576.801331,554.934998 572.789246,549.201660 568.858337,543.413269 
	C564.126648,536.445618 564.379456,530.285034 569.463806,526.482910 
	C575.554871,521.927979 583.771851,522.919556 588.369019,529.426086 
	C598.750061,544.118713 608.784851,559.055664 618.983887,573.877197 
	C623.573181,580.546570 628.218567,587.177246 633.172668,594.306335 
	C635.581360,589.703247 634.669373,585.490234 634.587769,581.484070 
	C634.443481,574.404053 634.908081,567.910400 641.565491,563.354492 
	C644.133179,561.597351 644.411133,549.096069 642.596436,546.591125 
	C641.510193,545.091797 639.964294,545.376404 638.511963,545.359375 
	C634.513000,545.312439 630.513062,545.325989 626.513611,545.342224 
	C624.626892,545.349854 622.596497,545.256897 621.536865,543.580139 
	C618.415955,538.641113 618.265259,533.179565 619.788330,527.756714 
	C621.077209,523.167969 625.074707,521.921570 629.229431,521.798035 
	C636.889099,521.570190 644.559204,521.663574 652.224792,521.684143 
	C655.070312,521.691772 657.851685,521.421936 660.646667,520.832825 
	C670.281494,518.801819 676.525330,512.288940 676.593018,502.452545 
	C676.817566,469.791260 677.256653,437.111542 676.403870,404.470490 
	C675.917175,385.842041 665.284729,372.854126 648.342163,365.245605 
	C641.548584,362.194763 635.494141,358.938477 635.637146,349.972412 
	C635.779907,341.023743 641.178711,336.600281 649.747864,339.555847 
	C659.566467,342.942352 668.671387,347.813477 676.603271,354.656250 
	C693.412231,369.157288 701.354309,387.639709 701.344788,409.709076 
	C701.331787,439.873352 701.063416,470.041229 701.449036,500.200623 
	C701.701538,519.947205 692.535339,533.254333 675.065369,540.963623 
	C669.701782,543.330444 667.850098,546.091431 668.241577,551.716675 
	C668.642944,557.482544 667.731689,563.054993 673.653870,567.229736 
	C677.299805,569.799988 677.225098,574.909729 677.233582,579.279785 
	C677.284729,605.944092 677.303711,632.608521 677.292847,659.272949 
	C677.289612,667.088806 674.274658,671.569031 667.957825,673.446167 
	C661.224976,675.446899 656.282837,673.499756 651.931396,666.669434 
	C636.352905,642.216614 619.634644,618.530334 603.514099,594.442505 
	C596.102783,583.368408 588.633972,572.332703 580.984375,560.986145 
z"/>
<path fill="#000000" opacity="1.000000" stroke="none" 
	d="
M566.517578,594.522339 
	C576.551331,609.285950 586.640564,623.584656 596.116089,638.279114 
	C601.168030,646.113647 607.797546,652.316772 614.251221,658.789490 
	C616.604858,661.150085 618.989624,663.541809 620.199524,666.729309 
	C621.661865,670.582092 620.169556,673.183167 616.114502,673.216492 
	C600.120239,673.348083 584.121643,673.431702 568.130127,673.183716 
	C561.832520,673.086060 557.787720,667.787964 557.745300,660.755615 
	C557.704956,654.064087 561.208679,650.261780 567.968750,649.667603 
	C569.266541,649.553467 570.673035,649.860840 571.774658,648.588379 
	C572.371216,646.606812 570.958618,645.219055 569.977905,643.759399 
	C540.904236,600.485474 511.800781,557.231506 482.727478,513.957214 
	C480.459290,510.581116 477.295441,508.121918 474.428772,505.349091 
	C469.292145,500.380646 466.465576,494.535278 466.532623,487.161194 
	C466.715820,467.001556 466.601257,446.839355 466.650452,426.678284 
	C466.670441,418.494354 468.370361,416.742462 476.705139,416.798309 
	C496.020721,416.927704 515.369202,415.929443 534.640991,417.744415 
	C552.115417,419.390045 567.894653,424.889954 578.789246,439.772034 
	C593.371155,459.690979 588.272339,486.028778 567.411865,499.388458 
	C555.634766,506.930878 542.759521,510.853394 528.800537,511.431976 
	C523.690552,511.643799 518.593811,512.174072 511.715790,512.692993 
	C530.317749,540.468445 548.317749,567.345215 566.517578,594.522339 
M499.608856,440.224976 
	C490.393829,440.173340 490.332336,440.173828 490.406525,449.658813 
	C490.497650,461.306854 490.810669,472.954193 490.789368,484.601410 
	C490.783783,487.651764 491.678528,488.752655 494.740631,488.709991 
	C504.228699,488.577820 513.732971,488.956665 523.205444,488.547668 
	C531.843567,488.174744 540.382629,486.971741 548.335144,482.962280 
	C563.590637,475.270813 566.509277,459.847961 554.374390,449.477844 
	C549.499146,445.311615 543.765503,442.556976 537.433594,441.395111 
	C525.221313,439.154205 512.866516,440.624542 499.608856,440.224976 
z"/>
<path fill="#000000" opacity="1.000000" stroke="none" 
	d="
M393.328247,645.983948 
	C393.341187,653.286499 393.895813,660.103455 389.308594,666.080444 
	C383.668671,673.429138 376.203827,675.551453 367.590942,673.970276 
	C359.155518,672.421692 354.223633,666.919495 352.596771,658.572998 
	C352.059540,655.816772 351.801147,652.962158 351.800720,650.152405 
	C351.797424,627.336426 351.843445,604.520264 351.971039,581.704651 
	C352.011261,574.513000 352.081940,567.255798 358.604248,562.180908 
	C359.299438,561.639893 359.793243,560.484375 359.876740,559.567993 
	C360.707733,550.449097 360.732178,541.315491 360.167114,532.176575 
	C359.950470,528.672180 357.859589,526.467346 355.236053,524.493042 
	C348.970703,519.778198 342.961975,514.840637 338.564087,508.148956 
	C334.126740,501.397186 331.728363,494.083557 331.714630,486.065887 
	C331.656921,452.423828 331.687012,418.781586 331.701660,385.139435 
	C331.703796,380.259338 332.634949,375.793823 337.636139,373.439606 
	C342.234100,371.275238 346.744843,371.417786 350.791840,374.582184 
	C354.889954,377.786560 355.292999,382.520691 355.297852,387.262360 
	C355.326538,415.408569 355.326721,443.554749 355.337677,471.700958 
	C355.338898,474.865326 355.285461,478.031250 355.365417,481.193726 
	C355.566437,489.144775 358.650421,495.700958 364.995392,500.610504 
	C368.155365,503.055634 371.478546,505.305389 374.508698,507.899597 
	C380.876801,513.351379 384.131683,520.119263 384.555298,528.757141 
	C385.005524,537.938049 384.376038,547.054565 384.345093,556.198914 
	C384.336151,558.843384 384.847504,561.105530 386.962585,562.882690 
	C391.991028,567.107788 393.285217,572.829834 393.289795,579.035522 
	C393.306030,601.186096 393.315979,623.336609 393.328247,645.983948 
z"/>
<path fill="#000000" opacity="1.000000" stroke="none" 
	d="
M412.706207,559.000000 
	C412.706421,500.695343 412.690643,442.890625 412.745972,385.086029 
	C412.749481,381.432007 411.480835,376.891693 416.322357,375.165894 
	C420.962036,373.512024 424.258057,376.372925 427.184082,379.536682 
	C433.159790,385.997803 436.446930,393.256927 436.426758,402.448303 
	C436.238007,488.405365 436.320923,574.363037 436.308868,660.320496 
	C436.307373,670.925293 430.363007,675.690552 420.324615,673.373535 
	C416.885712,672.579712 414.829498,670.537231 413.647095,667.330505 
	C412.700806,664.764160 412.678497,662.122253 412.679840,659.450867 
	C412.696686,626.133911 412.699829,592.816956 412.706207,559.000000 
z"/>
<path fill="#000000" opacity="1.000000" stroke="none" 
	d="
M466.682251,612.999878 
	C466.674500,586.681152 466.650574,560.862427 466.686310,535.043762 
	C466.689606,532.650757 465.854828,529.627197 468.823914,528.425171 
	C471.909637,527.175903 474.211731,529.186646 476.184113,531.323792 
	C481.069641,536.617493 484.779388,542.761047 488.499634,548.867188 
	C489.971619,551.283264 490.364685,554.132019 490.362061,557.038330 
	C490.329895,592.351440 490.375031,627.664612 490.337219,662.977722 
	C490.329590,670.110291 486.298340,673.961609 479.079895,674.085388 
	C471.255402,674.219543 466.734528,670.285034 466.699219,662.972046 
	C466.619629,646.481689 466.679321,629.990662 466.682251,612.999878 
z"/>
<path fill="#000000" opacity="1.000000" stroke="none" 
	d="
M395.294281,441.000061 
	C395.289398,453.823730 395.382568,466.148529 395.243774,478.470703 
	C395.151550,486.659180 390.308899,491.647125 383.196106,491.313751 
	C377.938446,491.067322 373.993347,488.005554 372.803925,482.841248 
	C372.212341,480.272705 371.949951,477.573364 371.946747,474.932709 
	C371.911896,446.288635 371.945404,417.644440 372.004578,389.000397 
	C372.009735,386.511475 372.223450,384.010254 372.525360,381.537354 
	C373.197449,376.032593 376.386200,372.755615 381.673401,371.950775 
	C386.515778,371.213654 392.027496,374.230743 393.932892,378.741302 
	C395.049286,381.384094 395.347382,384.167053 395.338409,387.041687 
	C395.282684,404.861023 395.300385,422.680542 395.294281,441.000061 
z"/>
<path fill="#000000" opacity="1.000000" stroke="none" 
	d="
M603.059387,780.340820 
	C602.935120,772.355408 602.935120,764.799927 602.935120,756.344788 
	C597.361877,758.969238 595.278748,762.884460 592.536499,766.084595 
	C587.145386,772.376038 585.218750,772.332703 579.759766,765.927612 
	C577.117065,762.826965 575.275879,758.951416 571.652283,756.823486 
	C569.857361,757.770203 570.382874,759.259033 570.367676,760.487976 
	C570.303650,765.645935 570.351501,770.805054 570.326538,775.963684 
	C570.294983,782.484619 568.621460,784.300842 562.670288,784.344482 
	C556.815552,784.387512 554.807495,782.417847 554.787231,776.044678 
	C554.741211,761.567566 554.814087,747.089844 554.891418,732.612671 
	C554.909668,729.202637 555.200439,725.750488 559.231018,724.531128 
	C563.375916,723.277222 567.206543,723.782410 569.996399,727.478516 
	C573.905151,732.657104 577.684509,737.933105 581.567871,743.131226 
	C582.942322,744.970947 584.087830,747.059265 586.833557,748.452637 
	C592.179443,742.971741 596.629517,736.656494 601.036133,730.304504 
	C603.803223,726.315918 606.895447,722.972046 612.476685,724.128723 
	C615.372192,724.728760 617.078247,725.985840 617.466919,729.305969 
	C618.885742,741.424988 617.792664,753.570679 618.178406,765.695129 
	C618.289490,769.186096 618.127441,772.685242 618.210327,776.177795 
	C618.295837,779.780884 617.630981,783.221497 613.641357,783.994263 
	C609.829834,784.732422 605.514771,785.532288 603.059387,780.340820 
z"/>
<path fill="#000000" opacity="1.000000" stroke="none" 
	d="
M235.124939,763.852051 
	C237.806046,768.197388 240.539612,772.171570 243.003006,776.306580 
	C245.627731,780.712524 244.033478,783.693542 239.020889,784.277832 
	C233.267456,784.948486 228.576294,783.733337 225.669083,778.022339 
	C224.021667,774.786194 221.640335,771.926819 219.629822,768.871216 
	C218.156311,766.631714 216.085388,765.938599 213.580276,766.516235 
	C210.811737,767.154602 211.442841,769.481995 211.351395,771.387878 
	C211.279709,772.881531 211.339859,774.381165 211.326935,775.878052 
	C211.266891,782.829773 209.964844,784.324341 203.957687,784.350281 
	C197.711716,784.377258 195.706863,782.394043 195.689590,775.935547 
	C195.650879,761.465210 195.644867,746.994690 195.679001,732.524353 
	C195.693817,726.244446 196.937027,725.011536 203.103882,724.414307 
	C210.427933,723.705078 217.799408,723.979919 225.001907,724.911987 
	C233.425903,726.002258 239.806808,730.777100 242.729111,739.114502 
	C245.597305,747.297363 243.644684,754.452576 237.454239,760.494690 
	C236.527588,761.399170 235.244537,762.055054 235.124939,763.852051 
M211.533386,741.263672 
	C210.748138,753.177185 211.137314,753.619263 221.379028,752.639404 
	C224.681091,752.323486 227.084503,750.840576 227.700714,747.424683 
	C228.356400,743.789978 226.572388,741.028198 223.317932,740.009460 
	C219.608444,738.848267 215.604538,738.206299 211.533386,741.263672 
z"/>
<path fill="#000000" opacity="1.000000" stroke="none" 
	d="
M789.583130,731.681274 
	C789.498718,726.685608 791.781311,724.541565 796.313171,724.585266 
	C803.454773,724.654175 810.611389,724.398315 817.735046,724.778870 
	C826.401550,725.241882 833.778625,731.589417 836.581543,740.325256 
	C839.097168,748.165710 836.589783,755.668457 829.487488,761.536560 
	C828.976379,761.958862 828.442322,762.353394 827.835815,762.825623 
	C829.268982,767.817749 833.005249,771.140625 835.248169,775.323792 
	C836.335938,777.352478 838.060364,779.241821 836.749451,781.754822 
	C835.345886,784.445068 832.715576,784.136475 830.213440,784.369324 
	C824.787354,784.874207 820.987671,782.938477 818.426331,777.979614 
	C816.683228,774.605103 814.307373,771.548462 812.119690,768.415894 
	C810.843384,766.588318 808.914917,765.988281 806.817139,766.560974 
	C804.751709,767.124939 804.884216,769.084900 804.771057,770.693115 
	C804.596436,773.175232 804.508606,775.673584 804.571228,778.160339 
	C804.692078,782.956787 802.230347,784.562988 797.711670,784.429199 
	C791.848083,784.255493 789.766846,782.899902 789.701538,778.010376 
	C789.552734,766.866272 789.579529,755.719788 789.548584,744.574280 
	C789.537048,740.416687 789.563293,736.258972 789.583130,731.681274 
M805.422363,750.817139 
	C808.077087,754.426453 811.863403,752.345581 815.097534,752.542236 
	C818.993652,752.779053 821.267639,750.291504 821.645935,746.471619 
	C822.022156,742.671814 819.601929,740.546143 816.346191,739.593445 
	C807.908875,737.124634 805.080322,739.332581 805.205933,747.978943 
	C805.215576,748.644226 805.257935,749.308960 805.422363,750.817139 
z"/>
<path fill="#000000" opacity="1.000000" stroke="none" 
	d="
M697.423157,762.025024 
	C693.331299,762.926514 691.481934,765.544861 691.374329,769.427856 
	C691.300598,772.088989 691.397034,774.754517 691.343567,777.416565 
	C691.234436,782.853088 689.869141,784.223999 684.570984,784.331909 
	C678.435303,784.456848 677.065002,783.174377 676.548584,777.590454 
	C675.165161,762.633423 676.023560,747.651733 675.970947,732.683228 
	C675.947510,726.012939 678.459412,723.792847 684.714539,723.975159 
	C688.710266,724.091614 691.453613,725.523560 691.434265,730.152344 
	C691.424561,732.467712 691.781311,734.788757 692.038513,737.099854 
	C692.284119,739.307068 690.729675,741.702454 693.243835,744.374146 
	C697.919861,739.385559 702.614319,734.536682 707.121277,729.519409 
	C710.791565,725.433655 714.786804,722.675781 720.644348,724.282410 
	C725.884460,725.719604 727.227722,728.785828 723.804321,732.971008 
	C720.018250,737.599304 715.927795,742.014587 711.641663,746.185425 
	C708.674316,749.072937 708.400635,751.543518 710.920959,754.783081 
	C715.516846,760.690674 720.089844,766.632385 724.317871,772.802795 
	C726.361084,775.784729 730.800354,778.836792 726.595398,783.091736 
	C723.897827,785.821350 714.393799,784.734192 711.874939,781.490356 
	C707.694641,776.106812 703.841309,770.469543 699.837036,764.948792 
	C699.154602,764.007935 698.406128,763.114990 697.423157,762.025024 
z"/>
<path fill="#000000" opacity="1.000000" stroke="none" 
	d="
M361.078247,728.783752 
	C363.779358,730.527039 365.908264,732.342896 367.686493,734.607666 
	C370.420166,738.089355 371.122589,741.331299 367.350403,744.623413 
	C363.656281,747.847412 359.541962,748.311096 356.187866,745.230713 
	C350.467651,739.977173 344.313049,737.309448 336.681885,740.854431 
	C328.288269,744.753723 325.434021,753.106628 329.733795,761.218506 
	C333.996490,769.260376 343.324219,771.867371 351.022766,767.103699 
	C352.429260,766.233521 353.697510,765.121094 354.958374,764.037598 
	C359.419434,760.204102 363.321930,760.313843 367.529449,764.434753 
	C370.318237,767.166077 370.722778,770.030273 368.339630,773.309692 
	C360.488586,784.113220 343.701630,788.169922 330.351715,782.412842 
	C316.772644,776.556946 309.011322,761.992004 311.875092,747.739685 
	C314.623383,734.062073 327.472260,723.770264 341.754608,723.625488 
	C348.581757,723.556335 354.982727,724.813782 361.078247,728.783752 
z"/>
<path fill="#000000" opacity="1.000000" stroke="none" 
	d="
M771.759033,770.637634 
	C776.865540,770.207458 779.073975,772.547974 779.263062,776.973450 
	C779.451721,781.393311 776.962341,784.134766 772.258057,784.212646 
	C762.104248,784.380798 751.946045,784.338135 741.790039,784.296936 
	C737.316833,784.278748 734.944763,781.720337 734.925049,777.410034 
	C734.854797,762.093201 734.899414,746.775085 735.031799,731.458557 
	C735.071472,726.860535 737.476379,724.557678 742.309204,724.619629 
	C752.297119,724.747864 762.288452,724.580994 772.277649,724.647400 
	C776.995667,724.678833 779.182556,727.041260 779.242798,731.772339 
	C779.299805,736.252136 776.924683,738.852539 772.234253,739.027527 
	C766.745972,739.232361 761.247803,739.272095 755.755371,739.223999 
	C752.627808,739.196655 751.301697,740.384155 751.247559,743.642578 
	C751.188416,747.204956 753.010620,747.776489 755.937317,747.706543 
	C760.095947,747.607300 764.261963,747.669189 768.421326,747.786682 
	C773.476074,747.929382 773.411499,751.471436 773.423462,755.207581 
	C773.435547,758.981079 772.331604,761.348083 768.107056,761.300842 
	C764.112000,761.256104 760.111328,761.452698 756.120911,761.315796 
	C752.841919,761.203369 751.274475,762.221436 751.231506,765.833496 
	C751.186340,769.633850 752.741028,770.813660 756.304932,770.683533 
	C761.293396,770.501221 766.293213,770.633484 771.759033,770.637634 
z"/>
<path fill="#000000" opacity="1.000000" stroke="none" 
	d="
M295.591461,724.675049 
	C301.124329,725.691895 301.424713,729.658203 301.121002,733.546570 
	C300.807068,737.566162 297.965515,739.110840 294.138458,739.132568 
	C288.307617,739.165710 282.476379,739.309753 276.646484,739.262817 
	C273.420532,739.236816 272.256805,740.652100 272.295258,743.826111 
	C272.334473,747.063293 274.045654,747.747620 276.763306,747.697021 
	C280.427429,747.628845 284.096161,747.606750 287.758820,747.709900 
	C293.128998,747.861084 294.239716,749.283447 294.387451,754.757202 
	C294.512543,759.393188 292.688782,761.578247 287.920471,761.361328 
	C284.096924,761.187378 280.255493,761.442322 276.426758,761.336365 
	C272.994080,761.241211 272.291138,763.093323 272.282501,766.070374 
	C272.273834,769.051392 272.899872,770.799133 276.413147,770.692749 
	C282.405579,770.511169 288.409668,770.747131 294.405243,770.626465 
	C298.799835,770.538086 300.896820,772.812134 301.208618,776.879761 
	C301.540833,781.213684 298.829163,784.179626 294.338104,784.233093 
	C284.009583,784.356201 273.678467,784.328003 263.348938,784.271973 
	C258.930573,784.248047 256.915894,781.986572 256.558197,777.450378 
	C255.376297,762.461731 256.900513,747.492859 256.596832,732.512878 
	C256.469818,726.247925 257.985901,724.716248 264.162781,724.603271 
	C274.483398,724.414490 284.811218,724.618835 295.591461,724.675049 
z"/>
<path fill="#000000" opacity="1.000000" stroke="none" 
	d="
M498.208862,747.695679 
	C502.005676,747.730286 505.339905,747.672363 508.664673,747.822876 
	C513.156311,748.026062 514.620483,750.742554 514.324829,754.900696 
	C514.047363,758.802856 513.034546,761.725037 508.161072,761.392822 
	C504.514313,761.144226 500.825867,761.525818 497.175690,761.303345 
	C493.555359,761.082703 492.125366,762.367493 492.096191,766.115051 
	C492.064972,770.125488 494.023987,770.800659 497.388245,770.693665 
	C502.711945,770.524292 508.048065,770.762512 513.373352,770.620117 
	C517.888245,770.499390 519.709595,773.014648 519.996155,777.007385 
	C520.287842,781.072327 517.653870,784.116821 513.467102,784.187195 
	C503.477600,784.355225 493.483032,784.322510 483.491730,784.235901 
	C479.147156,784.198242 476.691498,781.981262 476.670380,777.422607 
	C476.601044,762.436523 476.403412,747.450134 476.471832,732.464844 
	C476.501251,726.020447 478.081848,724.782166 484.628693,724.639343 
	C493.115173,724.454285 501.599091,724.811096 510.094543,724.271851 
	C518.042664,723.767456 521.716125,728.138184 519.469421,734.586792 
	C518.617493,737.032166 517.314575,738.561462 514.503357,738.619873 
	C508.848083,738.737427 503.197357,739.104736 497.542145,739.184326 
	C494.413361,739.228394 492.044647,739.459534 492.031433,743.625977 
	C492.017212,748.111877 494.856781,747.735474 498.208862,747.695679 
z"/>
<path fill="#000000" opacity="1.000000" stroke="none" 
	d="
M439.057190,768.291626 
	C431.415009,768.171875 431.415039,768.171875 431.347992,776.271240 
	C431.289368,783.353943 427.555847,786.153809 420.793854,784.354492 
	C417.560577,783.494202 415.923584,781.347168 415.896240,778.256104 
	C415.755005,762.287781 415.692078,746.317749 415.775299,730.349182 
	C415.794678,726.630615 418.026947,724.625793 421.901276,724.649414 
	C429.220734,724.694031 436.551575,724.436279 443.857544,724.759583 
	C455.001007,725.252625 464.143097,734.636658 464.362732,745.361755 
	C464.616669,757.762939 456.591858,766.764954 444.005920,768.145142 
	C442.522644,768.307861 441.015167,768.250061 439.057190,768.291626 
M440.145935,739.312256 
	C437.193756,739.915833 433.069641,737.452271 431.591797,741.948853 
	C428.782532,750.496277 431.723450,754.200562 440.570862,753.703979 
	C444.754059,753.469177 448.078796,751.969055 448.608246,747.298462 
	C449.066101,743.259705 445.976044,740.181396 440.145935,739.312256 
z"/>
<path fill="#000000" opacity="1.000000" stroke="none" 
	d="
M644.328003,747.000488 
	C644.323059,753.499573 644.461060,759.503662 644.261658,765.496460 
	C644.133179,769.357544 645.209229,770.934326 649.439697,770.334839 
	C654.193848,769.661072 659.030701,769.563416 663.863220,770.461731 
	C668.033203,771.236877 668.644897,774.045654 668.564575,777.452515 
	C668.480957,780.995544 667.175964,783.953186 663.241760,784.051758 
	C653.750488,784.289490 644.247742,784.320190 634.755188,784.141479 
	C630.725037,784.065674 628.828003,781.156311 628.801880,777.417908 
	C628.693665,761.920898 628.649292,746.421509 628.816956,730.925598 
	C628.872070,725.828369 631.552246,723.888611 637.164856,723.986572 
	C642.031128,724.071472 644.144043,726.033813 644.281433,731.003357 
	C644.424072,736.165588 644.322632,741.334595 644.328003,747.000488 
z"/>
<path fill="#000000" opacity="1.000000" stroke="none" 
	d="
M388.208527,724.940430 
	C397.630676,722.394226 401.090118,724.931030 401.165039,734.285034 
	C401.276733,748.237488 401.285583,762.191345 401.238251,776.144226 
	C401.217499,782.259216 399.110779,784.301086 393.229584,784.366882 
	C387.234863,784.433960 384.970154,782.571533 384.899902,776.466370 
	C384.727905,761.518860 384.823517,746.567932 384.864777,731.618530 
	C384.871857,729.058960 385.489044,726.658875 388.208527,724.940430 
z"/>
</svg>