<svg width="36" height="36" viewBox="0 0 36 36" fill="none" xmlns="http://www.w3.org/2000/svg">
<path d="M12.7474 6.81559C11.0067 6.88329 9.43483 7.50429 8.59393 8.34539C8.20343 8.73599 7.57023 8.73599 7.17973 8.34549C6.78913 7.95509 6.78903 7.32189 7.17953 6.93129C8.47693 5.63369 10.5883 4.89809 12.6696 4.81709C14.7645 4.73559 17.0516 5.30919 18.6533 6.91119C19.0437 7.30169 19.0437 7.93489 18.6531 8.32539C18.2626 8.71589 17.6294 8.71579 17.2389 8.32529C16.1479 7.23399 14.4744 6.74839 12.7474 6.81559Z" fill="#733506"/>
<path fill-rule="evenodd" clip-rule="evenodd" d="M22.9355 21.3841C24.8475 19.1207 26 16.1949 26 13C26 5.8203 20.1797 0 13 0C5.8203 0 0 5.8203 0 13C0 20.1797 5.8203 26 13 26C16.1949 26 19.1207 24.8475 21.3841 22.9355L21 25.1442L28.5137 32.6579L32.6579 28.5137L25.1442 21L22.9355 21.3841ZM13 23C18.5228 23 23 18.5228 23 13C23 7.4772 18.5228 3 13 3C7.4772 3 3 7.4772 3 13C3 18.5228 7.4772 23 13 23Z" fill="#733506"/>
<path d="M29.9277 34.0722L34.0719 29.928L35.4276 31.2838C36.1905 32.0467 36.1905 33.2836 35.4276 34.0465L34.0462 35.4279C33.2833 36.1908 32.0464 36.1908 31.2835 35.4279L29.9277 34.0722Z" fill="#733506"/>
</svg>
