<svg width="39.000000" height="26.000000" viewBox="0 0 39 26" fill="none" xmlns="http://www.w3.org/2000/svg" xmlns:xlink="http://www.w3.org/1999/xlink">
	<desc>
			Created with Pixso.
	</desc>
	<defs/>
	<path d="M20.44 1.9L17.68 1.9C17.32 1.9 16.97 1.76 16.71 1.52C16.45 1.28 16.3 0.95 16.3 0.61C16.3 0.26 16.45 -0.07 16.71 -0.31C16.97 -0.55 17.32 -0.68 17.68 -0.68L20.44 -0.68C20.8 -0.68 21.15 -0.55 21.41 -0.31C21.67 -0.07 21.81 0.26 21.81 0.61C21.81 0.95 21.67 1.28 21.41 1.52C21.15 1.76 20.8 1.9 20.44 1.9Z" fill="#A04500" fill-opacity="1.000000" fill-rule="nonzero"/>
	<path d="M20.44 -0.68L19.06 -0.68L19.06 1.9L20.44 1.9C20.8 1.9 21.15 1.76 21.41 1.52C21.67 1.28 21.81 0.95 21.81 0.61C21.81 0.26 21.67 -0.07 21.41 -0.31C21.15 -0.55 20.8 -0.68 20.44 -0.68Z" fill="#733506" fill-opacity="1.000000" fill-rule="nonzero"/>
	<path d="M23.54 4.27C20.62 3.4 17.5 3.4 14.58 4.27C7.83 6.19 2.53 12.52 2.53 18.66C2.53 19.01 2.67 19.34 2.93 19.58C3.19 19.82 3.54 19.95 3.91 19.95L34.21 19.95C34.58 19.95 34.93 19.82 35.19 19.58C35.45 19.34 35.59 19.01 35.59 18.66C35.59 12.52 30.29 6.19 23.54 4.27Z" fill="#F09856" fill-opacity="1.000000" fill-rule="nonzero"/>
	<path d="M23.54 4.27C22.09 3.83 20.58 3.61 19.06 3.61L19.06 19.95L34.21 19.95C34.58 19.95 34.93 19.82 35.19 19.58C35.44 19.34 35.59 19.01 35.59 18.66C35.59 12.52 30.29 6.19 23.54 4.27Z" fill="#F76C02" fill-opacity="1.000000" fill-rule="nonzero"/>
	<path d="M38.14 17.99C38.02 17.81 37.84 17.65 37.64 17.54C37.43 17.43 37.2 17.38 36.97 17.38L1.15 17.38C0.92 17.38 0.69 17.43 0.48 17.54C0.28 17.65 0.1 17.8 -0.02 17.99C-0.14 18.18 -0.21 18.39 -0.22 18.61C-0.23 18.83 -0.18 19.05 -0.08 19.25C0.86 21.01 2.31 22.5 4.1 23.53C5.89 24.57 7.96 25.12 10.06 25.12L28.05 25.12C30.16 25.11 32.23 24.56 34.02 23.53C35.78 22.48 37.21 21.01 38.15 19.26C38.27 19.06 38.33 18.85 38.32 18.62C38.32 18.4 38.26 18.19 38.14 17.99Z" fill="#A04500" fill-opacity="1.000000" fill-rule="nonzero"/>
	<path d="M38.14 17.99C38.02 17.81 37.84 17.65 37.64 17.54C37.43 17.43 37.2 17.38 36.97 17.38L19.06 17.38L19.06 25.12L28.05 25.12C30.16 25.11 32.23 24.56 34.02 23.53C35.78 22.48 37.21 21.01 38.15 19.26C38.27 19.06 38.32 18.85 38.32 18.62C38.32 18.4 38.26 18.19 38.14 17.99Z" fill="#733506" fill-opacity="1.000000" fill-rule="nonzero"/>
</svg>
