<svg width="40" height="27" viewBox="0 0 40 27" fill="none" xmlns="http://www.w3.org/2000/svg">
<path d="M21.4423 2.90007H18.6872C18.3218 2.90007 17.9714 2.76416 17.7131 2.52223C17.4547 2.28031 17.3096 1.9522 17.3096 1.61007C17.3096 1.26794 17.4547 0.939822 17.7131 0.697901C17.9714 0.455979 18.3218 0.320068 18.6872 0.320068H21.4423C21.8077 0.320068 22.1581 0.455979 22.4165 0.697901C22.6748 0.939822 22.8199 1.26794 22.8199 1.61007C22.8199 1.9522 22.6748 2.28031 22.4165 2.52223C22.1581 2.76416 21.8077 2.90007 21.4423 2.90007Z" fill="#A04500"/>
<path d="M21.442 0.320068H20.0645V2.90007H21.442C21.8074 2.90007 22.1578 2.76416 22.4162 2.52223C22.6745 2.28031 22.8196 1.9522 22.8196 1.61007C22.8196 1.26794 22.6745 0.939822 22.4162 0.697901C22.1578 0.455979 21.8074 0.320068 21.442 0.320068Z" fill="#733506"/>
<path d="M24.5415 5.27369C21.6282 4.40844 18.5004 4.40844 15.5871 5.27369C8.83693 7.19579 3.5332 13.5297 3.5332 19.6701C3.5332 20.0122 3.67834 20.3403 3.93669 20.5822C4.19504 20.8242 4.54543 20.9601 4.91079 20.9601H35.2178C35.5832 20.9601 35.9336 20.8242 36.1919 20.5822C36.4503 20.3403 36.5954 20.0122 36.5954 19.6701C36.5954 13.5297 31.2917 7.19579 24.5415 5.27369Z" fill="#F09856"/>
<path d="M24.5416 5.27362C23.0942 4.84012 21.5841 4.61821 20.0645 4.61572V20.96H35.218C35.5833 20.96 35.9337 20.8241 36.1921 20.5822C36.4504 20.3403 36.5956 20.0121 36.5956 19.67C36.5956 13.5296 31.2918 7.19572 24.5416 5.27362Z" fill="#F76C02"/>
<path d="M39.144 18.9993C39.0216 18.811 38.8497 18.6552 38.6447 18.5468C38.4397 18.4384 38.2085 18.381 37.973 18.3801H2.15565C1.92082 18.3808 1.69007 18.4377 1.48531 18.5453C1.28056 18.653 1.10859 18.8079 0.985748 18.9953C0.862905 19.1827 0.793262 19.3964 0.783434 19.6161C0.773606 19.8358 0.823918 20.0542 0.929593 20.2506C1.86717 22.0169 3.31344 23.5025 5.10507 24.5396C6.8967 25.5768 8.96232 26.1242 11.0687 26.1201H29.06C31.167 26.1192 33.2322 25.5699 35.025 24.5334C36.7889 23.4855 38.217 22.01 39.1578 20.2635C39.2715 20.0694 39.33 19.8511 39.3276 19.6297C39.3252 19.4083 39.262 19.1912 39.144 18.9993Z" fill="#A04500"/>
<path d="M39.1441 18.9993C39.0217 18.811 38.8498 18.6552 38.6448 18.5468C38.4398 18.4384 38.2086 18.381 37.9731 18.3801H20.0645V26.1201H29.0601C31.1671 26.1192 33.2323 25.5699 35.0251 24.5334C36.789 23.4855 38.2171 22.01 39.1579 20.2635C39.2716 20.0694 39.3301 19.8511 39.3277 19.6297C39.3253 19.4083 39.2621 19.1912 39.1441 18.9993Z" fill="#733506"/>
</svg>
