<svg width="30.000000" height="30.000000" viewBox="0 0 30 30" fill="none" xmlns="http://www.w3.org/2000/svg" xmlns:xlink="http://www.w3.org/1999/xlink">
	<desc>
			Created with Pixso.
	</desc>
	<defs/>
	<path id="Vector" d="M6.42 4.28L5.35 4.28C4.76 4.28 4.28 4.76 4.28 5.35C4.28 5.94 4.76 6.42 5.35 6.42L6.42 6.42C7.01 6.42 7.49 5.94 7.49 5.35C7.49 4.76 7.01 4.28 6.42 4.28ZM10.71 4.28L9.64 4.28C9.05 4.28 8.57 4.76 8.57 5.35C8.57 5.94 9.05 6.42 9.64 6.42L10.71 6.42C11.3 6.42 11.78 5.94 11.78 5.35C11.78 4.76 11.3 4.28 10.71 4.28Z" fill="#733506" fill-opacity="1.000000" fill-rule="nonzero"/>
	<path id="Vector" d="M26.78 0L8.57 0C3.84 0 0 3.84 0 8.57L0 10.71L0 15C0 15.58 0.48 16.07 1.07 16.07L4.28 16.07L4.28 18.21C2.51 18.21 1.07 19.66 1.07 21.42L1.07 26.78C1.07 28.55 2.51 30 4.28 30L6.42 30C8.19 30 9.64 28.55 9.64 26.78L9.64 21.42C9.64 19.66 8.19 18.21 6.42 18.21L6.42 16.07L28.92 16.07C29.51 16.07 30 15.58 30 15L30 10.71L30 3.21C30 1.44 28.55 0 26.78 0ZM3.21 26.78L3.21 21.42C3.21 20.83 3.69 20.35 4.28 20.35L4.28 27.85C3.69 27.85 3.21 27.37 3.21 26.78ZM7.5 21.42L7.5 26.78C7.5 27.37 7.01 27.85 6.42 27.85L6.42 20.35C7.01 20.35 7.5 20.83 7.5 21.42ZM27.85 3.21L27.85 5.35L16.07 5.35L16.07 2.14L26.78 2.14C27.37 2.14 27.85 2.62 27.85 3.21ZM2.14 8.57C2.14 5.02 5.02 2.14 8.57 2.14L13.92 2.14L13.92 6.42C13.92 7.01 14.41 7.5 15 7.5L27.85 7.5L27.85 9.64L2.14 9.64L2.14 8.57ZM27.85 13.92L2.14 13.92L2.14 11.78L27.85 11.78L27.85 13.92Z" fill="#733506" fill-opacity="1.000000" fill-rule="nonzero"/>
</svg>
