<svg width="141.000000" height="162.000000" viewBox="0 0 141 162" fill="none" xmlns="http://www.w3.org/2000/svg" xmlns:xlink="http://www.w3.org/1999/xlink">
	<desc>
			Created with Pixso.
	</desc>
	<defs/>
	<path id="Vector" d="M43.59 29.91C44.58 30.3 45.52 30.67 46.75 30.4C62.08 26.96 77.46 26.58 92.85 29.99C94.61 30.38 96.17 30.53 97.93 29.73C104.28 26.87 107.15 20.06 104.43 13.9C101.73 7.8 94.55 5.07 88.16 7.75C86.59 8.4 85.09 9.2 83.44 9.99C82.68 8.74 81.96 7.54 81.21 6.36C79.63 3.88 77.72 1.75 74.79 0.74C69.46 -1.08 64.13 0.48 60.78 4.95C59.61 6.51 58.64 8.21 57.5 9.99C56.06 9.28 54.74 8.59 53.4 7.97C51.37 7.02 49.22 6.51 46.97 6.72C41.06 7.27 36.51 11.39 35.67 16.9C34.82 22.53 37.96 27.72 43.59 29.91ZM94.13 49.3C94.13 44.96 94.13 40.53 94.13 36.08C78.35 32.04 62.65 32.35 46.8 36.18C46.8 39.01 46.86 45.23 47.13 45.31C49.14 45.88 87.28 50.24 94.13 49.3ZM140.64 128.83C140.31 120.01 136.42 113.35 129.18 108.34C121.91 103.32 113.73 100.49 105.09 98.82C99.28 97.7 94.65 94.83 90.85 90.5C90.11 89.65 89.43 88.74 88.69 87.81C83.14 91.14 77.25 92.94 70.87 93.01C64.4 93.07 58.42 91.32 52.7 87.99C52.37 88.41 52.14 88.78 51.85 89.09C46.92 94.35 41.15 98.11 33.83 99.52C26.58 100.92 19.77 103.56 13.56 107.54C6.55 112.04 1.65 117.93 0.97 126.47C0.71 129.69 0.41 132.91 0.22 136.14C-0.2 143.1 -0.01 150.06 0.65 157C0.92 159.85 2.56 161.87 5 161.92C11.96 162.06 18.92 161.97 26.06 161.97C26.06 159.51 26.02 157.23 26.07 154.95C26.11 152.57 27.49 151.15 29.63 151.17C31.76 151.18 33.07 152.59 33.1 155C33.13 157.28 33.11 159.56 33.11 161.93C44.56 161.93 55.79 161.93 67.01 161.93C67.02 148.07 67.03 134.22 67.03 120.37C67.03 117.59 65.37 116.59 62.79 117.76C60.86 118.63 59.05 119.74 56.97 120.29C52.01 121.6 47.71 118.48 47.65 113.47C47.61 110.67 47.6 107.87 47.65 105.07C47.73 100.17 52.12 97.1 56.93 98.57C57 98.59 57.08 98.59 57.14 98.63C60.54 100.5 63.64 101.38 67.49 98.88C70.29 97.06 73.86 98.19 76.58 100.16C77.83 101.07 78.69 101 79.89 100.41C81.33 99.71 82.81 99.04 84.34 98.57C88.92 97.15 93.3 100.16 93.45 104.82C93.55 107.83 93.55 110.85 93.45 113.86C93.29 118.4 89.14 121.43 84.57 120.42C82.25 119.91 80.27 118.63 78.14 117.67C75.84 116.64 74.09 117.68 74.09 120.15C74.09 134.07 74.1 148 74.11 161.92C85.39 161.92 96.67 161.92 107.9 161.92C107.97 161.54 108.01 161.4 108.01 161.26C108.02 159.32 108.01 157.39 108.01 155.45C108.01 152.68 109.22 151.17 111.48 151.14C113.74 151.1 115.05 152.6 115.08 155.33C115.11 157.53 115.09 159.72 115.09 161.97C122.01 161.97 128.61 161.99 135.22 161.96C138.69 161.95 140.39 160.27 140.62 156.81C141.24 147.48 140.98 138.16 140.64 128.83ZM54.74 131.4C54.78 129.87 55.82 129.15 57.23 129.03C59.02 129.19 59.83 130.26 59.76 131.76C59.7 133.1 58.79 134.01 57.3 133.97C55.64 133.94 54.69 133 54.74 131.4ZM59.78 141.61C59.7 142.98 58.86 144 56.93 143.98C55.68 143.88 54.74 143.05 54.74 141.56C54.74 139.96 55.73 139.06 57.4 139.11C58.99 139.17 59.86 140.18 59.78 141.61ZM57.14 149.09C58.7 149.02 59.61 149.9 59.8 151.38C59.98 152.74 58.67 154.04 57.25 154.06C55.89 154.07 54.74 152.97 54.7 151.39C54.83 150.14 55.58 149.17 57.14 149.09ZM83.66 129.07C85.2 129.05 86.14 130 86.18 131.49C86.22 132.98 85.32 133.84 83.79 134.01C82.25 133.91 81.24 133.21 81.16 131.68C81.06 130.03 82.03 129.09 83.66 129.07ZM83.52 154.02C82 153.96 81.18 152.99 81.11 151.4C81.31 149.99 82.12 149.08 83.68 149.09C85.23 149.11 86.19 150.01 86.17 151.51C86.16 153.1 85.15 154.08 83.52 154.02ZM83.75 144C82.17 143.92 81.22 143.15 81.16 141.64C81.1 140.14 81.93 139.2 83.5 139.11C85.19 139.02 86.17 139.99 86.19 141.54C86.21 142.99 85.28 143.88 83.75 144Z" fill="#E77925" fill-opacity="1.000000" fill-rule="nonzero"/>
	<path id="Vector" d="M70.58 103.72C70.49 103.72 70.39 103.72 70.3 103.72C67.58 103.88 65.52 106.08 65.62 108.75C65.71 111.32 67.92 113.41 70.55 113.41C70.59 113.41 70.64 113.41 70.69 113.41C73.37 113.34 75.54 111.14 75.53 108.52C75.52 105.87 73.3 103.72 70.58 103.72ZM54.67 103.86C54 103.69 53.35 104.2 53.38 104.87L53.82 114.97C53.85 115.72 54.69 116.17 55.36 115.8C57.51 114.58 61.28 112.2 61.41 110.3C61.72 106.09 59.73 105.14 55.13 103.97L54.67 103.86ZM86.3 115.83C86.99 116.19 87.82 115.7 87.82 114.94L87.82 104.82C87.82 104.17 87.18 103.68 86.53 103.85L86 103.99C81.12 105.25 79.44 106.07 79.71 110.26C79.83 112.19 83.99 114.62 86.3 115.83ZM47.06 62.69C47.58 63.44 47.79 64.21 47.95 65.07C48.42 67.49 48.14 70.1 49.78 72.21C51.92 74.97 54.17 77.66 56.22 80.48C59.19 84.56 63.12 86.61 68.26 86.94C75.51 87.4 81.64 85.83 85.73 79.37C86.97 77.4 88.46 75.54 90.05 73.82C91.88 71.87 92.6 69.62 92.88 67.07C93.07 65.28 93.29 63.52 94.38 61.86C95.63 59.96 95.5 57.7 94.68 55.59C94.1 54.09 93.06 53.26 91.22 53.5C86.41 54.12 81.61 53.85 76.81 53.25C73.02 52.77 50.19 52.34 50.19 52.34C50.19 52.34 48.62 52.09 47.94 52.82C45.32 55.63 44.92 59.58 47.06 62.69ZM79.65 59.84C81.13 58.84 82.73 58.76 84.33 59.66C85.9 60.55 86.63 61.87 86.54 63.79C83.62 62.99 80.81 62.83 77.88 63.55C77.58 61.85 78.38 60.7 79.65 59.84ZM70.13 72.88C70.36 72.98 70.55 73.09 70.84 72.95C72.33 72.21 73.6 72.82 74.82 73.62C75.46 74.05 76.09 74.49 76.72 74.93C78 75.82 79.36 76.34 80.96 75.71C80.57 78.59 79.14 79.51 76.34 78.77C74.51 78.29 72.65 78.26 70.76 78.16C68.28 78.02 66.01 78.53 63.65 78.92C61.68 79.24 60.71 78.33 60.13 75.94C60.1 75.84 60.07 75.75 60.03 75.66C60.14 75.67 60.24 75.69 60.34 75.7C61.63 76.13 62.8 75.85 63.91 75.15C64.88 74.53 65.83 73.88 66.82 73.27C67.85 72.64 68.94 72.33 70.13 72.88ZM59.99 59.06C62.51 59.18 64.32 61.24 64.07 63.79C61.23 62.93 58.35 62.87 55.46 63.54C55.49 60.8 57.41 58.95 59.99 59.06Z" fill="#E77925" fill-opacity="1.000000" fill-rule="nonzero"/>
	<path id="Vector" d="M43.58 29.91C44.58 30.3 45.52 30.67 46.75 30.4C62.08 26.96 77.46 26.58 92.85 29.99C94.61 30.38 96.17 30.53 97.93 29.73C104.28 26.87 107.15 20.06 104.43 13.9C101.73 7.8 94.55 5.07 88.16 7.75C86.59 8.4 85.09 9.2 83.44 9.99C82.68 8.74 81.96 7.54 81.21 6.36C79.63 3.88 77.72 1.75 74.79 0.74C69.46 -1.08 64.13 0.48 60.78 4.95C59.61 6.51 58.64 8.21 57.5 9.99C56.06 9.28 54.74 8.59 53.4 7.97C51.37 7.02 49.22 6.51 46.97 6.72C41.06 7.27 36.51 11.39 35.67 16.9C34.82 22.53 37.96 27.72 43.58 29.91Z" fill="#BD6F34" fill-opacity="1.000000" fill-rule="nonzero"/>
	<path id="Vector" d="M94.13 49.3C94.13 44.96 94.13 40.53 94.13 36.08C78.35 32.04 62.65 32.35 46.8 36.18C46.8 39.01 46.86 45.23 47.13 45.31C49.14 45.88 87.28 50.24 94.13 49.3ZM140.64 128.83C140.31 120.01 136.42 113.35 129.18 108.34C121.91 103.32 113.73 100.49 105.09 98.82C99.28 97.7 94.65 94.83 90.85 90.5C90.11 89.65 89.43 88.74 88.69 87.81C83.14 91.14 77.25 92.94 70.87 93.01C64.4 93.07 58.42 91.32 52.7 87.99C52.37 88.41 52.14 88.78 51.85 89.09C46.92 94.35 41.15 98.11 33.83 99.52C26.58 100.92 19.77 103.56 13.56 107.54C6.55 112.04 1.65 117.93 0.97 126.47C0.71 129.69 0.41 132.91 0.22 136.14C-0.2 143.1 -0.01 150.06 0.65 157C0.92 159.85 2.56 161.87 5 161.92C11.96 162.06 18.92 161.97 26.06 161.97C26.06 159.51 26.02 157.23 26.07 154.95C26.11 152.57 27.49 151.15 29.63 151.17C31.76 151.18 33.07 152.59 33.1 155C33.13 157.28 33.11 159.56 33.11 161.93C44.56 161.93 55.79 161.93 67.01 161.93C67.02 148.07 67.03 134.22 67.03 120.36C67.03 117.59 65.37 116.59 62.79 117.76C60.86 118.63 59.05 119.74 56.97 120.29C52.01 121.6 47.71 118.48 47.65 113.47C47.61 110.67 47.6 107.87 47.65 105.07C47.73 100.17 52.12 97.1 56.93 98.57C57 98.59 57.08 98.59 57.14 98.63C60.54 100.5 63.64 101.38 67.49 98.88C70.29 97.06 73.86 98.19 76.58 100.16C77.83 101.07 78.69 101 79.89 100.41C81.33 99.71 82.81 99.04 84.34 98.57C88.92 97.15 93.3 100.16 93.45 104.82C93.55 107.83 93.55 110.85 93.45 113.86C93.29 118.4 89.14 121.43 84.57 120.42C82.25 119.91 80.27 118.63 78.14 117.67C75.84 116.64 74.09 117.68 74.09 120.15C74.09 134.07 74.1 148 74.11 161.92C85.39 161.92 96.67 161.92 107.9 161.92C107.97 161.54 108.01 161.4 108.01 161.26C108.02 159.32 108.01 157.39 108.01 155.45C108.01 152.68 109.22 151.17 111.48 151.14C113.74 151.1 115.05 152.6 115.08 155.33C115.11 157.53 115.09 159.72 115.09 161.97C122.01 161.97 128.61 161.99 135.22 161.96C138.69 161.95 140.39 160.27 140.62 156.81C141.24 147.48 140.98 138.16 140.64 128.83ZM54.74 131.4C54.78 129.87 55.82 129.15 57.23 129.03C59.02 129.19 59.83 130.26 59.76 131.76C59.7 133.1 58.79 134.01 57.3 133.97C55.64 133.94 54.69 133 54.74 131.4ZM59.78 141.61C59.7 142.98 58.86 144 56.93 143.98C55.68 143.88 54.74 143.05 54.74 141.56C54.74 139.96 55.73 139.06 57.4 139.11C58.99 139.17 59.86 140.18 59.78 141.61ZM57.14 149.09C58.7 149.02 59.61 149.9 59.8 151.38C59.98 152.74 58.67 154.04 57.25 154.06C55.89 154.07 54.74 152.97 54.7 151.39C54.83 150.14 55.58 149.17 57.14 149.09ZM83.66 129.06C85.2 129.05 86.14 130 86.18 131.49C86.22 132.98 85.32 133.84 83.79 134.01C82.25 133.91 81.24 133.21 81.16 131.68C81.06 130.03 82.03 129.09 83.66 129.06ZM83.52 154.02C82 153.96 81.18 152.99 81.11 151.4C81.31 149.99 82.12 149.08 83.68 149.09C85.23 149.11 86.19 150.01 86.17 151.51C86.16 153.1 85.15 154.08 83.52 154.02ZM83.75 144C82.17 143.92 81.22 143.15 81.16 141.64C81.1 140.14 81.93 139.19 83.5 139.11C85.19 139.02 86.17 139.99 86.19 141.54C86.21 142.99 85.28 143.88 83.75 144Z" fill="#733506" fill-opacity="1.000000" fill-rule="nonzero"/>
	<path id="Vector" d="M70.58 103.72C70.48 103.72 70.39 103.72 70.3 103.72C67.58 103.88 65.52 106.08 65.62 108.75C65.71 111.32 67.92 113.41 70.54 113.41C70.59 113.41 70.64 113.41 70.69 113.41C73.37 113.34 75.54 111.14 75.53 108.52C75.52 105.87 73.3 103.72 70.58 103.72ZM54.66 103.86C54 103.69 53.35 104.2 53.38 104.87L53.82 114.97C53.85 115.72 54.69 116.17 55.35 115.8C57.51 114.58 61.28 112.2 61.41 110.3C61.72 106.09 59.73 105.14 55.13 103.97L54.66 103.86ZM86.3 115.83C86.99 116.19 87.82 115.7 87.82 114.94L87.82 104.82C87.82 104.17 87.18 103.68 86.53 103.85L86 103.99C81.12 105.25 79.44 106.07 79.71 110.26C79.83 112.19 83.99 114.62 86.3 115.83ZM47.06 62.69C47.58 63.44 47.79 64.21 47.95 65.07C48.41 67.49 48.14 70.1 49.78 72.21C51.92 74.97 54.16 77.66 56.22 80.48C59.19 84.56 63.12 86.61 68.25 86.94C75.51 87.4 81.64 85.83 85.72 79.37C86.97 77.4 88.45 75.54 90.05 73.82C91.88 71.87 92.6 69.62 92.88 67.07C93.07 65.28 93.29 63.52 94.38 61.86C95.63 59.96 95.5 57.7 94.68 55.59C94.1 54.09 93.06 53.26 91.22 53.5C86.41 54.12 81.61 53.85 76.8 53.25C73.02 52.77 50.19 52.34 50.19 52.34C50.19 52.34 48.62 52.09 47.94 52.82C45.32 55.63 44.92 59.58 47.06 62.69ZM79.65 59.84C81.13 58.84 82.73 58.76 84.33 59.66C85.9 60.55 86.63 61.87 86.54 63.79C83.62 62.99 80.81 62.83 77.88 63.55C77.58 61.85 78.38 60.7 79.65 59.84ZM70.13 72.88C70.35 72.98 70.55 73.09 70.84 72.95C72.33 72.21 73.6 72.82 74.81 73.62C75.46 74.05 76.09 74.49 76.72 74.93C78 75.82 79.36 76.34 80.96 75.71C80.57 78.59 79.13 79.51 76.34 78.77C74.51 78.29 72.65 78.26 70.76 78.16C68.28 78.02 66.01 78.53 63.65 78.92C61.68 79.24 60.71 78.33 60.13 75.94C60.1 75.84 60.07 75.75 60.03 75.66C60.13 75.67 60.24 75.69 60.34 75.7C61.63 76.13 62.8 75.85 63.91 75.15C64.88 74.53 65.83 73.88 66.82 73.27C67.85 72.64 68.94 72.33 70.13 72.88ZM59.99 59.06C62.51 59.18 64.32 61.24 64.07 63.79C61.23 62.93 58.35 62.87 55.46 63.54C55.48 60.8 57.41 58.95 59.99 59.06Z" fill="#BD6F34" fill-opacity="1.000000" fill-rule="nonzero"/>
</svg>
