<svg width="125.000000" height="125.000000" viewBox="0 0 125 125" fill="none" xmlns="http://www.w3.org/2000/svg" xmlns:xlink="http://www.w3.org/1999/xlink">
	<desc>
			Created with Pixso.
	</desc>
	<defs/>
	<path id="Vector" d="M62.52 125C61.8 125 61.22 124.41 61.22 123.69C61.22 122.97 61.8 122.39 62.52 122.39C63.37 122.39 64.22 122.37 65.06 122.34C65.78 122.32 66.39 122.86 66.42 123.58C66.45 124.3 65.89 124.91 65.17 124.94C64.29 124.98 63.41 125 62.52 125ZM54.59 124.5C53.71 124.39 52.83 124.26 51.96 124.12C51.25 124 50.77 123.33 50.89 122.62C51.01 121.91 51.68 121.42 52.39 121.55C53.23 121.69 54.07 121.81 54.91 121.92C55.62 122.01 56.13 122.66 56.04 123.37C55.95 124.09 55.29 124.59 54.59 124.5ZM72.86 124.12C72.24 124.12 71.69 123.67 71.58 123.03C71.46 122.32 71.93 121.65 72.65 121.53C73.48 121.39 74.32 121.23 75.14 121.05C75.84 120.9 76.54 121.34 76.69 122.05C76.84 122.75 76.39 123.44 75.69 123.6C74.83 123.78 73.96 123.95 73.08 124.1C73.01 124.11 72.93 124.12 72.86 124.12ZM44.22 122.29C43.37 122.03 42.52 121.76 41.69 121.46C41.01 121.23 40.66 120.48 40.89 119.8C41.13 119.12 41.88 118.77 42.55 119.01C43.35 119.29 44.16 119.55 44.98 119.8C45.66 120.01 46.05 120.74 45.84 121.43C45.63 122.12 44.9 122.5 44.22 122.29ZM81.68 120.63C81.44 119.95 81.79 119.21 82.47 118.97C83.27 118.69 84.07 118.39 84.85 118.07C85.52 117.8 86.28 118.12 86.55 118.79C86.82 119.46 86.49 120.22 85.83 120.49C85.01 120.82 84.18 121.13 83.34 121.43C82.66 121.67 81.92 121.3 81.68 120.63ZM34.95 118.48C34.75 118.48 34.55 118.44 34.37 118.34C33.57 117.95 32.79 117.53 32.02 117.1C31.39 116.75 31.16 115.95 31.52 115.33C31.87 114.7 32.66 114.47 33.29 114.82C34.03 115.24 34.78 115.64 35.54 116.02C36.18 116.34 36.44 117.12 36.12 117.77C35.89 118.22 35.43 118.48 34.95 118.48ZM26.11 113.04C25.84 113.04 25.57 112.96 25.33 112.79C24.62 112.26 23.92 111.72 23.24 111.16C22.67 110.71 22.58 109.89 23.04 109.33C23.49 108.78 24.31 108.68 24.87 109.14C25.53 109.67 26.2 110.19 26.88 110.69C27.46 111.12 27.58 111.93 27.16 112.51C26.9 112.86 26.51 113.04 26.11 113.04ZM18.31 106.19C17.97 106.19 17.62 106.05 17.37 105.79C16.76 105.15 16.16 104.5 15.57 103.84C15.1 103.3 15.15 102.48 15.69 102C16.23 101.52 17.05 101.57 17.52 102.11C18.09 102.75 18.66 103.37 19.25 103.98C19.75 104.5 19.73 105.33 19.21 105.83C18.96 106.07 18.63 106.19 18.31 106.19ZM11.78 98.13C11.36 98.13 10.95 97.93 10.7 97.56C10.2 96.83 9.72 96.08 9.26 95.33C8.88 94.72 9.07 93.92 9.68 93.54C10.29 93.16 11.09 93.35 11.47 93.96C11.92 94.68 12.38 95.39 12.85 96.09C13.26 96.69 13.1 97.5 12.51 97.9C12.28 98.05 12.03 98.13 11.78 98.13ZM113.93 95.68C113.32 95.3 113.13 94.5 113.51 93.89C113.95 93.17 114.38 92.43 114.79 91.69C115.15 91.07 115.94 90.84 116.57 91.19C117.19 91.54 117.42 92.34 117.07 92.97C116.64 93.74 116.19 94.5 115.72 95.26C115.35 95.87 114.54 96.06 113.93 95.68ZM5.51 88.32C5.15 87.52 4.8 86.71 4.47 85.89C4.2 85.22 4.52 84.46 5.19 84.19C5.85 83.93 6.61 84.24 6.88 84.91C7.2 85.7 7.53 86.48 7.88 87.24C8.18 87.9 7.89 88.67 7.24 88.97C6.58 89.26 5.81 88.98 5.51 88.32ZM118.81 86.51C118.14 86.24 117.82 85.48 118.09 84.81C118.4 84.03 118.7 83.23 118.99 82.43C119.23 81.75 119.97 81.39 120.65 81.64C121.33 81.88 121.68 82.62 121.44 83.3C121.15 84.14 120.83 84.97 120.51 85.79C120.24 86.46 119.48 86.78 118.81 86.51ZM1.97 78.34C1.75 77.48 1.54 76.62 1.35 75.76C1.2 75.05 1.65 74.36 2.35 74.21C3.05 74.06 3.75 74.5 3.9 75.21C4.08 76.04 4.27 76.86 4.49 77.68C4.67 78.37 4.25 79.08 3.56 79.27C2.87 79.45 2.15 79.04 1.97 78.34ZM122.06 76.64C121.35 76.48 120.91 75.79 121.06 75.09C121.24 74.26 121.4 73.43 121.54 72.6C121.66 71.89 122.33 71.41 123.04 71.53C123.75 71.65 124.23 72.32 124.11 73.03C123.96 73.91 123.79 74.78 123.61 75.64C123.46 76.33 122.77 76.79 122.06 76.64ZM1.46 69.08C0.8 69.08 0.23 68.57 0.17 67.89C0.09 67.01 0.04 66.13 0 65.25C-0.04 64.53 0.52 63.92 1.24 63.89C1.95 63.86 2.57 64.41 2.6 65.13C2.64 65.98 2.69 66.83 2.76 67.67C2.83 68.43 2.23 69.08 1.46 69.08ZM123.58 66.37C122.86 66.34 122.31 65.73 122.34 65.01C122.4 63.47 122.39 62.42 122.39 62.23C122.39 61.51 122.97 60.93 123.69 60.93C124.41 60.93 125 61.51 125 62.23C124.99 62.37 125.01 63.53 124.94 65.12C124.91 65.82 124.33 66.39 123.58 66.37ZM1.34 58.7C0.62 58.64 0.09 58.01 0.15 57.29C0.22 56.41 0.31 55.53 0.42 54.66C0.51 53.94 1.16 53.43 1.88 53.53C2.59 53.61 3.09 54.27 3.01 54.98C2.9 55.82 2.81 56.66 2.75 57.51C2.68 58.24 2.04 58.76 1.34 58.7ZM121.88 54.63C121.77 53.79 121.64 52.95 121.5 52.12C121.38 51.41 121.85 50.74 122.56 50.61C123.27 50.49 123.94 50.96 124.07 51.67C124.22 52.54 124.35 53.41 124.47 54.29C124.56 55.01 124.06 55.66 123.34 55.75C122.6 55.84 121.97 55.32 121.88 54.63ZM2.84 48.43C2.15 48.25 1.73 47.54 1.91 46.84C2.13 45.99 2.36 45.13 2.62 44.29C2.83 43.6 3.55 43.21 4.25 43.42C4.93 43.63 5.32 44.36 5.11 45.05C4.87 45.85 4.64 46.67 4.43 47.49C4.25 48.18 3.55 48.61 2.84 48.43ZM119.71 44.71C119.46 43.9 119.19 43.1 118.91 42.3C118.67 41.62 119.02 40.88 119.7 40.63C120.37 40.39 121.12 40.74 121.36 41.42C121.66 42.25 121.94 43.09 122.2 43.94C122.42 44.62 122.03 45.35 121.35 45.57C120.65 45.78 119.93 45.39 119.71 44.71ZM6.07 38.56C5.41 38.26 5.12 37.49 5.41 36.84C5.78 36.03 6.16 35.23 6.56 34.43C6.89 33.79 7.67 33.53 8.31 33.86C8.95 34.18 9.21 34.97 8.89 35.61C8.5 36.36 8.14 37.13 7.79 37.9C7.5 38.55 6.73 38.86 6.07 38.56ZM117.05 36.01C116.58 36.01 116.12 35.75 115.89 35.3C115.51 34.55 115.11 33.8 114.69 33.07C114.34 32.44 114.56 31.64 115.18 31.29C115.81 30.94 116.6 31.16 116.96 31.78C117.39 32.55 117.81 33.33 118.21 34.12C118.54 34.76 118.29 35.54 117.65 35.87C117.46 35.97 117.25 36.01 117.05 36.01ZM33.59 8.45C33.27 7.81 33.52 7.03 34.16 6.7C34.95 6.3 35.75 5.92 36.55 5.55C37.21 5.25 37.98 5.54 38.28 6.2C38.57 6.85 38.29 7.63 37.63 7.92C36.86 8.28 36.1 8.64 35.34 9.03C34.7 9.35 33.92 9.1 33.59 8.45ZM86.99 7.78C86.21 7.43 85.43 7.1 84.64 6.79C83.97 6.52 83.64 5.76 83.91 5.1C84.18 4.43 84.94 4.1 85.6 4.37C86.43 4.7 87.24 5.04 88.05 5.4C88.71 5.7 89 6.47 88.71 7.13C88.41 7.78 87.64 8.08 86.99 7.78ZM43.12 4.35C42.91 3.67 43.3 2.94 43.99 2.72C44.83 2.46 45.68 2.22 46.54 2C47.23 1.81 47.94 2.23 48.13 2.93C48.31 3.62 47.89 4.33 47.2 4.52C46.38 4.73 45.56 4.96 44.75 5.21C44.07 5.43 43.34 5.04 43.12 4.35ZM77.39 4.42C76.57 4.22 75.75 4.02 74.91 3.85C74.21 3.7 73.76 3.01 73.91 2.3C74.06 1.6 74.75 1.15 75.45 1.3C76.32 1.48 77.18 1.68 78.03 1.9C78.73 2.08 79.15 2.79 78.97 3.49C78.79 4.2 78.07 4.6 77.39 4.42ZM53.22 1.93C53.13 1.22 53.63 0.56 54.34 0.47C55.22 0.36 56.1 0.26 56.98 0.19C57.71 0.11 58.33 0.66 58.39 1.37C58.45 2.09 57.92 2.72 57.21 2.78C56.36 2.86 55.52 2.95 54.68 3.06C53.99 3.15 53.31 2.66 53.22 1.93ZM67.37 2.75C66.53 2.68 65.68 2.63 64.83 2.6C64.11 2.57 63.55 1.97 63.58 1.25C63.6 0.53 64.21 -0.05 64.93 0C65.82 0.03 66.7 0.08 67.58 0.16C68.29 0.21 68.83 0.84 68.77 1.56C68.71 2.29 68.06 2.81 67.37 2.75ZM75.94 48.15C76.1 48.15 56.29 48.15 49.53 48.15C47.98 45.25 46.98 42.25 46.86 39.07C46.58 27.45 56.91 23.02 68.14 21.85C68.81 21.78 69.29 22.49 68.99 23.07C68.58 23.85 68.42 24.65 68.55 25.48C70.44 24.76 72.45 24.03 74.56 23.25C75.19 23.01 75.86 23.6 75.68 24.24C75.4 25.22 74.9 26.21 74.23 27.18C74.01 27.5 74.03 27.93 74.29 28.22C79.66 34.27 78.7 42.7 75.94 48.15Z" fill="#733506" fill-opacity="1.000000" fill-rule="nonzero"/>
	<path id="Vector" d="M68.27 59.21L56.68 59.21C56.28 62.19 55.42 66.24 53.57 66.46L53.74 79.35L71.22 79.35L71.39 66.46C69.54 66.24 68.68 62.19 68.27 59.21Z" fill="#F27516" fill-opacity="1.000000" fill-rule="nonzero"/>
	<path id="Vector" d="M74.91 46.74C74.95 46.04 74.98 45.35 74.98 44.63C74.98 44.6 74.98 44.56 74.98 44.53C74.96 39.22 70.46 35 65.15 35L59.87 35C54.52 35 50.09 39.28 50.03 44.63C50.02 45.32 50.04 46.01 50.09 46.7C48.61 47.01 47.5 48.48 47.5 50.21C47.5 52.21 48.93 53.82 50.73 53.82C50.9 53.82 51.08 53.81 51.25 53.77C53.18 60.37 57.29 64.51 62.5 64.51C67.72 64.51 71.82 60.38 73.76 53.81C73.93 53.84 74.11 53.86 74.29 53.86C76.08 53.86 77.52 52.24 77.52 50.26C77.52 48.51 76.4 47.05 74.91 46.74Z" fill="#FF8529" fill-opacity="1.000000" fill-rule="nonzero"/>
	<path id="Vector" d="M87.14 89.34C90.4 89.34 93.05 86.7 93.05 83.44L93.05 79.75C93.05 75.58 90.39 71.93 86.43 70.61C86.29 70.57 72.01 66.66 71.39 66.46L71.38 66.46C69.91 69.69 66.53 72.15 62.49 72.15C58.93 72.15 55.54 70.36 53.58 66.49L53.58 66.48L53.56 66.47L53.56 66.46C44.68 69.37 38.33 70.68 38.53 70.61C33.91 72.38 31.89 76.15 31.89 79.76L31.89 83.44C31.89 86.7 34.53 89.34 37.79 89.34L87.14 89.34Z" fill="#F9A464" fill-opacity="1.000000" fill-rule="nonzero"/>
	<g opacity="0.080000">
		<path id="Vector" d="M87.14 79.75L87.14 89.34C90.4 89.34 93.05 86.7 93.05 83.44L93.05 79.75C93.05 75.58 90.39 71.93 86.43 70.61C86.29 70.56 72.14 66.7 71.4 66.46L71.39 66.46C71.13 67.03 70.81 67.58 70.44 68.09C73.96 69.23 80.45 70.59 80.53 70.61C84.48 71.93 87.14 75.58 87.14 79.75Z" fill="#000000" fill-opacity="1.000000" fill-rule="nonzero"/>
	</g>
	<path id="Vector" d="M121.62 17.68C121.62 21.55 120.22 25.1 117.9 27.84C117.86 27.88 117.83 27.93 117.79 27.97C117.38 28.44 116.94 28.9 116.48 29.32C113.68 31.87 109.96 33.41 105.89 33.41C103.82 33.41 101.85 33.02 100.05 32.29C97.69 31.35 95.62 29.86 93.99 27.98C91.6 25.21 90.15 21.61 90.15 17.68C90.15 8.99 97.19 1.95 105.89 1.95C114.58 1.95 121.62 8.99 121.62 17.68Z" fill="#F2A266" fill-opacity="1.000000" fill-rule="nonzero"/>
	<path id="Vector" d="M108.34 19.58L103.45 19.58C103.27 20.84 102.91 22.55 102.13 22.65L102.2 28.09L109.59 28.09L109.66 22.65C108.88 22.55 108.51 20.84 108.34 19.58Z" fill="#F27516" fill-opacity="1.000000" fill-rule="nonzero"/>
	<path id="Vector" d="M117.79 27.97C114.88 31.37 110.55 33.41 105.89 33.41C101.28 33.41 96.97 31.42 93.99 27.98C94.13 25.94 95.84 24.66 96.41 24.55C96.59 24.44 101.99 22.69 102.13 22.65L102.13 22.65C103.03 24.34 104.41 25.05 105.9 25.05C107.61 25.05 109.08 23.96 109.65 22.65L109.66 22.65C109.8 22.69 115.36 24.52 115.01 24.4C116.55 24.92 117.66 26.3 117.79 27.97Z" fill="#733506" fill-opacity="1.000000" fill-rule="nonzero"/>
	<path id="Vector" d="M112.22 16.39C111.92 17.3 111.28 17.94 110.69 18C110.43 18.85 109.96 19.65 109.32 20.3L107.98 21.63C107.68 21.92 107.28 22.08 106.87 22.08L104.91 22.08C104.5 22.08 104.09 21.92 103.8 21.63L102.46 20.3C101.82 19.65 101.34 18.85 101.08 18C100.48 17.94 99.86 17.3 99.55 16.39C99.19 15.29 99.44 14.22 100.11 13.98C100.33 13.91 100.58 13.94 100.81 14.07L100.81 9.42L110.95 9.42L110.95 14.07C111.2 13.94 111.45 13.91 111.67 13.98C112.34 14.22 112.59 15.29 112.22 16.39Z" fill="#FF8529" fill-opacity="1.000000" fill-rule="nonzero"/>
	<path id="Vector" d="M110.77 14.58L110.57 12.61C110.53 12.28 110.29 12 109.96 11.96C109.34 11.89 108.78 11.54 108.45 11C108.26 10.68 107.89 10.54 107.55 10.67C106.07 11.24 104.1 11.31 102.49 10.91C102.13 10.82 101.76 11.01 101.63 11.36C101.25 12.37 101.02 13.51 100.9 14.75C100.87 15.05 100.45 15.09 100.38 14.8C99.05 9.74 99.3 5.25 104.64 4.75C107.12 4.52 108.35 5.57 108.93 6.73C109.32 6.39 109.89 6.24 110.73 6.43C113.04 6.95 112.18 10.41 111.3 14.6C111.24 14.9 110.81 14.88 110.77 14.58Z" fill="#733506" fill-opacity="1.000000" fill-rule="nonzero"/>
	<path id="Vector" d="M34.78 17.68C34.78 21.55 33.38 25.1 31.05 27.84C31.02 27.88 30.98 27.93 30.94 27.97C30.54 28.44 30.1 28.9 29.64 29.32C26.83 31.87 23.12 33.41 19.05 33.41C16.98 33.41 15.01 33.02 13.2 32.29C10.85 31.35 8.78 29.86 7.15 27.98C4.75 25.21 3.31 21.61 3.31 17.68C3.31 8.99 10.35 1.95 19.05 1.95C27.73 1.95 34.78 8.99 34.78 17.68Z" fill="#F2A266" fill-opacity="1.000000" fill-rule="nonzero"/>
	<path id="Vector" d="M21.5 19.58L16.6 19.58C16.43 20.84 16.07 22.55 15.29 22.65L15.36 28.09L22.74 28.09L22.82 22.65C22.04 22.55 21.67 20.84 21.5 19.58Z" fill="#F27516" fill-opacity="1.000000" fill-rule="nonzero"/>
	<path id="Vector" d="M30.95 27.97C28.04 31.37 23.71 33.41 19.05 33.41C14.44 33.41 10.13 31.42 7.15 27.98C7.28 25.94 9 24.66 9.57 24.55C9.75 24.44 15.15 22.69 15.29 22.65L15.29 22.65C16.19 24.34 17.57 25.05 19.06 25.05C20.76 25.05 22.24 23.96 22.81 22.65L22.82 22.65C22.96 22.69 28.52 24.52 28.17 24.4C29.71 24.92 30.82 26.3 30.95 27.97Z" fill="#733506" fill-opacity="1.000000" fill-rule="nonzero"/>
	<path id="Vector" d="M25.38 16.39C25.07 17.3 24.44 17.94 23.85 18C23.59 18.85 23.12 19.65 22.47 20.3L21.14 21.63C20.84 21.92 20.44 22.08 20.02 22.08L18.07 22.08C17.66 22.08 17.25 21.92 16.96 21.63L15.62 20.3C14.98 19.65 14.49 18.85 14.23 18C13.64 17.94 13.02 17.3 12.71 16.39C12.35 15.29 12.59 14.22 13.27 13.98C13.49 13.91 13.74 13.94 13.97 14.07L13.97 9.42L24.11 9.42L24.11 14.07C24.36 13.94 24.6 13.91 24.83 13.98C25.5 14.22 25.75 15.29 25.38 16.39Z" fill="#FF8529" fill-opacity="1.000000" fill-rule="nonzero"/>
	<path id="Vector" d="M23.93 14.58L23.73 12.61C23.69 12.28 23.45 12 23.12 11.96C22.5 11.89 21.94 11.54 21.61 11C21.42 10.68 21.05 10.54 20.71 10.67C19.23 11.24 17.25 11.31 15.65 10.91C15.29 10.82 14.92 11.01 14.79 11.36C14.41 12.37 14.18 13.51 14.06 14.75C14.03 15.05 13.61 15.09 13.54 14.8C12.21 9.74 12.46 5.25 17.8 4.75C20.28 4.52 21.51 5.57 22.09 6.73C22.48 6.39 23.05 6.24 23.89 6.43C26.2 6.95 25.34 10.41 24.46 14.6C24.4 14.9 23.97 14.88 23.93 14.58Z" fill="#733506" fill-opacity="1.000000" fill-rule="nonzero"/>
	<path id="Vector" d="M121.62 107.26C121.62 111.14 120.22 114.68 117.9 117.43C117.86 117.47 117.83 117.51 117.79 117.55C117.38 118.03 116.94 118.48 116.48 118.9C113.68 121.45 109.96 123 105.89 123C103.82 123 101.85 122.6 100.05 121.88C97.69 120.94 95.62 119.44 93.99 117.56C91.6 114.8 90.15 111.2 90.15 107.26C90.15 98.58 97.19 91.53 105.89 91.53C114.58 91.53 121.62 98.58 121.62 107.26Z" fill="#F2A266" fill-opacity="1.000000" fill-rule="nonzero"/>
	<path id="Vector" d="M108.34 109.17L103.45 109.17C103.27 110.43 102.91 112.14 102.13 112.23L102.2 117.67L109.59 117.67L109.66 112.23C108.88 112.14 108.51 110.43 108.34 109.17Z" fill="#F27516" fill-opacity="1.000000" fill-rule="nonzero"/>
	<path id="Vector" d="M117.79 117.55C114.88 120.95 110.55 123 105.89 123C101.28 123 96.97 121 93.99 117.56C94.13 115.52 95.84 114.25 96.41 114.13C96.59 114.02 101.99 112.28 102.13 112.23L102.13 112.24C103.03 113.92 104.41 114.63 105.9 114.63C107.61 114.63 109.08 113.55 109.65 112.23L109.66 112.23C109.8 112.28 115.36 114.1 115.01 113.99C116.55 114.5 117.66 115.88 117.79 117.55Z" fill="#733506" fill-opacity="1.000000" fill-rule="nonzero"/>
	<path id="Vector" d="M112.22 105.97C111.92 106.88 111.28 107.53 110.69 107.58C110.43 108.44 109.96 109.23 109.32 109.88L107.98 111.21C107.68 111.5 107.28 111.67 106.87 111.67L104.91 111.67C104.5 111.67 104.09 111.5 103.8 111.21L102.46 109.88C101.82 109.23 101.34 108.44 101.08 107.58C100.48 107.53 99.86 106.88 99.55 105.97C99.19 104.87 99.44 103.8 100.11 103.57C100.33 103.5 100.58 103.53 100.81 103.65L100.81 99L110.95 99L110.95 103.65C111.2 103.53 111.45 103.5 111.67 103.57C112.34 103.8 112.59 104.87 112.22 105.97Z" fill="#FF8529" fill-opacity="1.000000" fill-rule="nonzero"/>
	<path id="Vector" d="M110.77 104.16L110.57 102.19C110.53 101.87 110.29 101.59 109.96 101.55C109.34 101.48 108.78 101.12 108.45 100.58C108.26 100.27 107.89 100.12 107.55 100.26C106.07 100.82 104.1 100.9 102.49 100.49C102.13 100.4 101.76 100.6 101.63 100.94C101.25 101.95 101.02 103.09 100.9 104.34C100.87 104.64 100.45 104.67 100.38 104.38C99.05 99.32 99.3 94.83 104.64 94.33C107.12 94.1 108.35 95.15 108.93 96.31C109.32 95.97 109.89 95.82 110.73 96.01C113.04 96.53 112.18 99.99 111.3 104.19C111.24 104.49 110.81 104.47 110.77 104.16Z" fill="#733506" fill-opacity="1.000000" fill-rule="nonzero"/>
	<path id="Vector" d="M34.78 107.26C34.78 111.14 33.38 114.68 31.05 117.43C31.02 117.47 30.98 117.51 30.94 117.55C30.54 118.03 30.1 118.48 29.64 118.9C26.83 121.45 23.12 123 19.05 123C16.98 123 15.01 122.6 13.2 121.88C10.85 120.94 8.78 119.44 7.15 117.56C4.75 114.8 3.31 111.2 3.31 107.26C3.31 98.58 10.35 91.53 19.05 91.53C27.73 91.53 34.78 98.58 34.78 107.26Z" fill="#F2A266" fill-opacity="1.000000" fill-rule="nonzero"/>
	<path id="Vector" d="M21.5 109.17L16.6 109.17C16.43 110.43 16.07 112.14 15.29 112.23L15.36 117.67L22.74 117.67L22.82 112.23C22.04 112.14 21.67 110.43 21.5 109.17Z" fill="#F27516" fill-opacity="1.000000" fill-rule="nonzero"/>
	<path id="Vector" d="M30.95 117.55C28.04 120.95 23.71 123 19.05 123C14.44 123 10.13 121 7.15 117.56C7.28 115.52 9 114.25 9.57 114.13C9.75 114.02 15.15 112.28 15.29 112.23L15.29 112.24C16.19 113.92 17.57 114.63 19.06 114.63C20.76 114.63 22.24 113.55 22.81 112.23L22.82 112.23C22.96 112.28 28.52 114.1 28.17 113.99C29.71 114.5 30.82 115.88 30.95 117.55Z" fill="#733506" fill-opacity="1.000000" fill-rule="nonzero"/>
	<path id="Vector" d="M25.38 105.97C25.07 106.88 24.44 107.53 23.85 107.58C23.59 108.44 23.12 109.23 22.47 109.88L21.14 111.21C20.84 111.5 20.44 111.67 20.02 111.67L18.07 111.67C17.66 111.67 17.25 111.5 16.96 111.21L15.62 109.88C14.98 109.23 14.49 108.44 14.23 107.58C13.64 107.53 13.02 106.88 12.71 105.97C12.35 104.87 12.59 103.8 13.27 103.57C13.49 103.5 13.74 103.53 13.97 103.65L13.97 99L24.11 99L24.11 103.65C24.36 103.53 24.6 103.5 24.83 103.57C25.5 103.8 25.75 104.87 25.38 105.97Z" fill="#FF8529" fill-opacity="1.000000" fill-rule="nonzero"/>
	<path id="Vector" d="M23.93 104.16L23.73 102.19C23.69 101.87 23.45 101.59 23.12 101.55C22.5 101.48 21.94 101.12 21.61 100.58C21.42 100.27 21.05 100.12 20.71 100.26C19.23 100.82 17.25 100.9 15.65 100.49C15.29 100.4 14.92 100.6 14.79 100.94C14.41 101.95 14.18 103.09 14.06 104.34C14.03 104.64 13.61 104.67 13.54 104.38C12.21 99.32 12.46 94.83 17.8 94.33C20.28 94.1 21.51 95.15 22.09 96.31C22.48 95.97 23.05 95.82 23.89 96.01C26.2 96.53 25.34 99.99 24.46 104.19C24.4 104.49 23.97 104.47 23.93 104.16Z" fill="#733506" fill-opacity="1.000000" fill-rule="nonzero"/>
	<g opacity="0.400000">
		<path id="Vector" d="M38.55 79.2L38.55 83.05C38.55 83.77 37.96 84.36 37.24 84.36C36.51 84.36 35.92 83.77 35.92 83.05L35.92 79.2C35.92 78.49 36.51 77.9 37.24 77.9C37.96 77.9 38.55 78.49 38.55 79.2Z" fill="#FFFFFF" fill-opacity="1.000000" fill-rule="nonzero"/>
	</g>
</svg>
