<svg width="60.000000" height="59.000000" viewBox="0 0 60 59" fill="none" xmlns="http://www.w3.org/2000/svg" xmlns:xlink="http://www.w3.org/1999/xlink">
	<desc>
			Created with Pixso.
	</desc>
	<defs/>
	<path id="p2" d="M30 6.51C34.34 6.51 37.87 9.97 37.87 14.25C37.87 18.53 34.34 21.99 30 21.99C25.65 21.99 22.12 18.53 22.12 14.25C22.12 9.97 25.65 6.51 30 6.51ZM30 39.69C41.13 39.69 52.87 45.08 52.87 47.44L52.87 51.49L7.12 51.49L7.12 47.44C7.12 45.08 18.86 39.69 30 39.69ZM30 -0.5C21.71 -0.5 15 6.1 15 14.25C15 22.4 21.71 29 30 29C38.28 29 45 22.4 45 14.25C45 6.1 38.28 -0.5 30 -0.5ZM30 32.69C19.98 32.69 0 37.63 0 47.44L0 54.81C0 56.84 1.68 58.5 3.75 58.5L56.25 58.5C58.31 58.5 60 56.84 60 54.81L60 47.44C60 37.63 40.01 32.69 30 32.69Z" fill="#F2E3B3" fill-opacity="1.000000" fill-rule="nonzero"/>
</svg>
