<svg width="45" height="35" viewBox="0 0 45 35" fill="none" xmlns="http://www.w3.org/2000/svg">
<path d="M41.7833 17.5C41.3416 13.1696 39.4489 9.16856 36.4676 6.26267C33.4863 3.35678 29.6257 1.75006 25.6246 1.75H19.3732C15.3721 1.75006 11.5115 3.35678 8.53015 6.26267C5.54884 9.16856 3.65622 13.1696 3.21446 17.5C2.39161 18.3635 1.83087 19.4804 1.60742 20.7008C1.60742 22.6152 5.07862 23.5725 5.07862 23.5725L7.29633 30.8525C7.51111 31.5496 7.92122 32.1559 8.46894 32.586C9.01667 33.0161 9.67444 33.2483 10.3497 33.25H34.6481C35.3233 33.2483 35.9811 33.0161 36.5288 32.586C37.0766 32.1559 37.4867 31.5496 37.7015 30.8525L39.9192 23.5725C39.9192 23.5725 43.3904 22.6135 43.3904 20.699C43.1666 19.4792 42.6059 18.3631 41.7833 17.5Z" fill="#E5B18A"/>
<path d="M43.3323 16.9838C42.7863 12.2901 40.686 7.97485 37.4257 4.84782C34.1653 1.7208 29.969 -0.00298214 25.6244 4.60826e-06H19.373C15.0296 -0.00325167 10.8343 1.7193 7.57412 4.84454C4.31395 7.96978 2.21288 12.283 1.66507 16.975C1.1441 17.4202 0.723328 17.9891 0.434786 18.6382C0.146245 19.2873 -0.00244922 19.9996 3.05128e-05 20.7207C0.00251024 21.4419 0.156098 22.1529 0.449096 22.7996C0.742093 23.4464 1.16677 24.0118 1.69078 24.4528C2.3422 24.9944 3.12349 25.3196 3.94063 25.389L5.77587 31.4107C6.09804 32.4545 6.7125 33.3621 7.53288 34.0059C8.35325 34.6497 9.33828 34.9974 10.3495 35H34.6479C35.6607 34.9971 36.6472 34.6484 37.4685 34.0029C38.2899 33.3575 38.9046 32.4478 39.2263 31.402L41.0567 25.3943C41.8739 25.3275 42.6556 25.0034 43.3066 24.4615C43.8311 24.021 44.2562 23.4559 44.5497 22.8093C44.8432 22.1627 44.9972 21.4516 45 20.7303C45.0028 20.0091 44.8543 19.2966 44.5658 18.6473C44.2774 17.998 43.8566 17.4291 43.3355 16.9838H43.3323ZM19.373 3.5H25.6244C28.8994 3.49803 32.0802 4.6932 34.6572 6.89404C37.2342 9.09487 39.0582 12.174 39.837 15.638C39.4722 15.5085 39.1219 15.365 38.7506 15.2093C36.9182 14.3662 34.9429 13.9541 32.9541 14C30.9647 13.9544 28.989 14.3665 27.1559 15.2093C25.6909 15.8988 24.1054 16.2321 22.5099 16.1858C20.9135 16.232 19.3269 15.8988 17.8608 15.2093C16.0246 14.3654 14.0455 13.9533 12.0529 14C10.0626 13.9542 8.08571 14.3663 6.25155 15.2093C5.87711 15.3668 5.52356 15.5103 5.15555 15.6415C5.93393 12.176 7.7584 9.0954 10.3364 6.89379C12.9145 4.69218 16.0968 3.49704 19.373 3.5ZM36.181 30.2873C36.0737 30.6384 35.8681 30.9441 35.5932 31.1616C35.3182 31.3791 34.9877 31.4974 34.6479 31.5H10.3495C10.0119 31.4981 9.68327 31.3816 9.40934 31.1667C9.13541 30.9519 8.92983 30.6493 8.8212 30.3013L7.10649 24.675C7.20613 24.6348 7.31059 24.5945 7.40861 24.5525C8.87318 23.8632 10.458 23.5294 12.0529 23.5743C13.6498 23.5274 15.2369 23.86 16.7037 24.549C18.5375 25.3936 20.5145 25.8063 22.5051 25.76C24.4952 25.8063 26.4717 25.3936 28.3049 24.549C29.7695 23.8601 31.3545 23.5275 32.9492 23.5743C34.543 23.5274 36.1269 23.86 37.5904 24.549L37.8861 24.6698L36.181 30.2873ZM41.3332 21.7C41.2099 21.8092 41.0648 21.8852 40.9096 21.922C40.7544 21.9588 40.5934 21.9553 40.4396 21.9118C39.8653 21.7408 39.3007 21.5328 38.749 21.2888C36.9171 20.4458 34.9424 20.0338 32.9541 20.0795C30.9647 20.0339 28.989 20.446 27.1559 21.2888C25.6909 21.9783 24.1054 22.3116 22.5099 22.2653C20.9135 22.3115 19.3269 21.9783 17.8608 21.2888C16.025 20.4431 14.0458 20.0293 12.0529 20.0743C10.0626 20.0285 8.08571 20.4405 6.25155 21.2835C5.69725 21.5284 5.13003 21.737 4.55291 21.9083C4.39856 21.9498 4.23749 21.952 4.08223 21.9146C3.92698 21.8773 3.78173 21.8015 3.65779 21.693C3.51894 21.5757 3.40672 21.4252 3.32981 21.2532C3.2529 21.0811 3.21336 20.8921 3.21425 20.7008C3.2084 20.4168 3.29559 20.1399 3.46021 19.9196C3.62482 19.6993 3.85609 19.55 4.11258 19.4985C5.2447 19.3003 6.35151 18.9578 7.41022 18.4783C8.87387 17.7877 10.4584 17.4539 12.0529 17.5C13.6499 17.4536 15.237 17.7868 16.7037 18.4765C18.5379 19.3195 20.5147 19.7315 22.5051 19.6858C24.495 19.7316 26.4713 19.3195 28.3049 18.4765C29.7708 17.7862 31.3575 17.4529 32.9541 17.5C34.5487 17.4532 36.1333 17.7871 37.5968 18.4783C38.6525 18.9569 39.756 19.2994 40.8848 19.4985C41.141 19.5499 41.3721 19.699 41.5366 19.9189C41.7012 20.1388 41.7886 20.4154 41.7831 20.699C41.7844 20.8924 41.7444 21.0835 41.6663 21.2572C41.5882 21.4309 41.4742 21.5825 41.3332 21.7Z" fill="#804213"/>
<path d="M22.4986 14.0002C22.9248 14.0002 23.3336 13.8159 23.6349 13.4877C23.9363 13.1595 24.1056 12.7144 24.1056 12.2502V8.75024C24.1056 8.28611 23.9363 7.84099 23.6349 7.5128C23.3336 7.18461 22.9248 7.00024 22.4986 7.00024C22.0724 7.00024 21.6636 7.18461 21.3622 7.5128C21.0609 7.84099 20.8916 8.28611 20.8916 8.75024V12.2502C20.8916 12.7144 21.0609 13.1595 21.3622 13.4877C21.6636 13.8159 22.0724 14.0002 22.4986 14.0002ZM28.1811 10.411C28.3293 10.5781 28.5066 10.7115 28.7027 10.8032C28.8988 10.8949 29.1097 10.9432 29.323 10.9452C29.5364 10.9472 29.748 10.9029 29.9455 10.8149C30.143 10.7269 30.3225 10.597 30.4733 10.4327C30.6242 10.2684 30.7436 10.073 30.8244 9.85791C30.9052 9.64284 30.9458 9.4124 30.944 9.18004C30.9421 8.94767 30.8978 8.71804 30.8136 8.50453C30.7293 8.29102 30.6069 8.09792 30.4534 7.93649L28.1811 5.46199C28.0328 5.29485 27.8555 5.16153 27.6594 5.06981C27.4634 4.9781 27.2525 4.92982 27.0391 4.9278C26.8257 4.92578 26.6141 4.97006 26.4166 5.05805C26.2191 5.14604 26.0397 5.27599 25.8888 5.4403C25.7379 5.60461 25.6186 5.8 25.5378 6.01507C25.457 6.23014 25.4163 6.46058 25.4182 6.69294C25.42 6.9253 25.4644 7.15494 25.5486 7.36845C25.6328 7.58195 25.7552 7.77506 25.9087 7.93649L28.1811 10.411ZM15.6799 10.9237C15.891 10.9244 16.1002 10.8794 16.2952 10.7913C16.4902 10.7033 16.6673 10.574 16.8161 10.411L19.0885 7.93649C19.3812 7.60644 19.5432 7.16438 19.5395 6.70554C19.5359 6.24669 19.3668 5.80777 19.0689 5.48331C18.7709 5.15884 18.3679 4.9748 17.9465 4.97081C17.5251 4.96682 17.1192 5.14321 16.8161 5.46199L14.5438 7.93649C14.3191 8.18123 14.1661 8.49302 14.1041 8.83243C14.0421 9.17185 14.0739 9.52366 14.1956 9.84338C14.3172 10.1631 14.5231 10.4364 14.7873 10.6287C15.0515 10.821 15.3621 10.9237 15.6799 10.9237Z" fill="#804213"/>
</svg>
