<svg width="45.000000" height="35.000000" viewBox="0 0 45 35" fill="none" xmlns="http://www.w3.org/2000/svg" xmlns:xlink="http://www.w3.org/1999/xlink">
	<desc>
			Created with Pixso.
	</desc>
	<defs/>
	<path d="M41.78 17.5C41.34 13.16 39.44 9.16 36.46 6.26C33.48 3.35 29.62 1.75 25.62 1.75L19.37 1.75C15.37 1.75 11.51 3.35 8.53 6.26C5.54 9.16 3.65 13.16 3.21 17.5C2.39 18.36 1.83 19.48 1.6 20.7C1.6 22.61 5.07 23.57 5.07 23.57L7.29 30.85C7.51 31.54 7.92 32.15 8.46 32.58C9.01 33.01 9.67 33.24 10.34 33.25L34.64 33.25C35.32 33.24 35.98 33.01 36.52 32.58C37.07 32.15 37.48 31.54 37.7 30.85L39.91 23.57C39.91 23.57 43.39 22.61 43.39 20.69C43.16 19.47 42.6 18.36 41.78 17.5Z" fill="#E5B18A" fill-opacity="1.000000" fill-rule="nonzero"/>
	<path d="M43.33 16.98C42.78 12.29 40.68 7.97 37.42 4.84C34.16 1.72 29.96 -0.01 25.62 0L19.37 0C15.02 -0.01 10.83 1.71 7.57 4.84C4.31 7.96 2.21 12.28 1.66 16.97C1.14 17.42 0.72 17.98 0.43 18.63C0.14 19.28 -0.01 19.99 0 20.72C0 21.44 0.15 22.15 0.44 22.79C0.74 23.44 1.16 24.01 1.69 24.45C2.34 24.99 3.12 25.31 3.94 25.38L5.77 31.41C6.09 32.45 6.71 33.36 7.53 34C8.35 34.64 9.33 34.99 10.34 35L34.64 35C35.66 34.99 36.64 34.64 37.46 34C38.29 33.35 38.9 32.44 39.22 31.4L41.05 25.39C41.87 25.32 42.65 25 43.3 24.46C43.83 24.02 44.25 23.45 44.54 22.8C44.84 22.16 44.99 21.45 45 20.73C45 20 44.85 19.29 44.56 18.64C44.27 17.99 43.85 17.42 43.33 16.98L43.33 16.98ZM19.37 3.5L25.62 3.5C28.89 3.49 32.08 4.69 34.65 6.89C37.23 9.09 39.05 12.17 39.83 15.63C39.47 15.5 39.12 15.36 38.75 15.2C36.91 14.36 34.94 13.95 32.95 14C30.96 13.95 28.98 14.36 27.15 15.2C25.69 15.89 24.1 16.23 22.5 16.18C20.91 16.23 19.32 15.89 17.86 15.2C16.02 14.36 14.04 13.95 12.05 14C10.06 13.95 8.08 14.36 6.25 15.2C5.87 15.36 5.52 15.51 5.15 15.64C5.93 12.17 7.75 9.09 10.33 6.89C12.91 4.69 16.09 3.49 19.37 3.5ZM36.18 30.28C36.07 30.63 35.86 30.94 35.59 31.16C35.31 31.37 34.98 31.49 34.64 31.5L10.34 31.5C10.01 31.49 9.68 31.38 9.4 31.16C9.13 30.95 8.92 30.64 8.82 30.3L7.1 24.67C7.2 24.63 7.31 24.59 7.4 24.55C8.87 23.86 10.45 23.52 12.05 23.57C13.64 23.52 15.23 23.86 16.7 24.54C18.53 25.39 20.51 25.8 22.5 25.76C24.49 25.8 26.47 25.39 28.3 24.54C29.76 23.86 31.35 23.52 32.94 23.57C34.54 23.52 36.12 23.86 37.59 24.54L37.88 24.66L36.18 30.28ZM41.33 21.7C41.21 21.8 41.06 21.88 40.9 21.92C40.75 21.95 40.59 21.95 40.43 21.91C39.86 21.74 39.3 21.53 38.74 21.28C36.91 20.44 34.94 20.03 32.95 20.07C30.96 20.03 28.98 20.44 27.15 21.28C25.69 21.97 24.1 22.31 22.5 22.26C20.91 22.31 19.32 21.97 17.86 21.28C16.02 20.44 14.04 20.02 12.05 20.07C10.06 20.02 8.08 20.44 6.25 21.28C5.69 21.52 5.12 21.73 4.55 21.9C4.39 21.94 4.23 21.95 4.08 21.91C3.92 21.87 3.78 21.8 3.65 21.69C3.51 21.57 3.4 21.42 3.33 21.25C3.25 21.08 3.21 20.89 3.21 20.7C3.2 20.41 3.29 20.13 3.45 19.91C3.62 19.69 3.85 19.54 4.11 19.49C5.24 19.3 6.35 18.95 7.41 18.47C8.87 17.78 10.45 17.45 12.05 17.5C13.65 17.45 15.23 17.78 16.7 18.47C18.53 19.31 20.51 19.73 22.5 19.68C24.49 19.73 26.47 19.31 28.3 18.47C29.77 17.78 31.35 17.45 32.95 17.5C34.54 17.45 36.13 17.78 37.59 18.47C38.65 18.95 39.75 19.29 40.88 19.49C41.14 19.54 41.37 19.69 41.53 19.91C41.7 20.13 41.78 20.41 41.78 20.69C41.78 20.89 41.74 21.08 41.66 21.25C41.58 21.43 41.47 21.58 41.33 21.7Z" fill="#804213" fill-opacity="1.000000" fill-rule="nonzero"/>
	<path d="M22.49 14C22.92 14 23.33 13.81 23.63 13.48C23.93 13.15 24.1 12.71 24.1 12.25L24.1 8.75C24.1 8.28 23.93 7.84 23.63 7.51C23.33 7.18 22.92 7 22.49 7C22.07 7 21.66 7.18 21.36 7.51C21.06 7.84 20.89 8.28 20.89 8.75L20.89 12.25C20.89 12.71 21.06 13.15 21.36 13.48C21.66 13.81 22.07 14 22.49 14ZM28.18 10.41C28.32 10.57 28.5 10.71 28.7 10.8C28.89 10.89 29.1 10.94 29.32 10.94C29.53 10.94 29.74 10.9 29.94 10.81C30.14 10.72 30.32 10.59 30.47 10.43C30.62 10.26 30.74 10.07 30.82 9.85C30.9 9.64 30.94 9.41 30.94 9.17C30.94 8.94 30.89 8.71 30.81 8.5C30.72 8.29 30.6 8.09 30.45 7.93L28.18 5.46C28.03 5.29 27.85 5.16 27.65 5.06C27.46 4.97 27.25 4.92 27.03 4.92C26.82 4.92 26.61 4.96 26.41 5.05C26.21 5.14 26.04 5.27 25.88 5.44C25.73 5.6 25.61 5.8 25.53 6.01C25.45 6.23 25.41 6.46 25.41 6.69C25.41 6.92 25.46 7.15 25.54 7.36C25.63 7.58 25.75 7.77 25.9 7.93L28.18 10.41ZM15.67 10.92C15.89 10.92 16.1 10.87 16.29 10.79C16.49 10.7 16.66 10.57 16.81 10.41L19.08 7.93C19.38 7.6 19.54 7.16 19.53 6.7C19.53 6.24 19.36 5.8 19.06 5.48C18.77 5.15 18.36 4.97 17.94 4.97C17.52 4.96 17.11 5.14 16.81 5.46L14.54 7.93C14.31 8.18 14.16 8.49 14.1 8.83C14.04 9.17 14.07 9.52 14.19 9.84C14.31 10.16 14.52 10.43 14.78 10.62C15.05 10.82 15.36 10.92 15.67 10.92Z" fill="#804213" fill-opacity="1.000000" fill-rule="nonzero"/>
</svg>
