<svg width="30.000000" height="15.000000" viewBox="0 0 30 15" fill="none" xmlns="http://www.w3.org/2000/svg" xmlns:xlink="http://www.w3.org/1999/xlink">
	<desc>
			Created with Pixso.
	</desc>
	<defs/>
	<path id="Rating" d="M19.05 10.86C19.09 11.05 19.07 11.25 18.99 11.43C18.92 11.6 18.8 11.76 18.64 11.87C18.47 11.99 18.27 12.05 18.06 12.05C17.89 12.05 17.73 12.01 17.58 11.93L14.98 10.45L12.37 11.91C12.21 11.99 12.03 12.04 11.84 12.03C11.66 12.02 11.48 11.96 11.33 11.85C11.18 11.75 11.06 11.61 10.98 11.44C10.91 11.27 10.88 11.09 10.9 10.9L11.41 7.78L9.26 5.51C9.14 5.38 9.05 5.22 9.01 5.04C8.97 4.87 8.98 4.68 9.03 4.51C9.09 4.34 9.2 4.18 9.34 4.06C9.48 3.94 9.65 3.87 9.83 3.84L12.76 3.39L14.07 0.58C14.15 0.41 14.27 0.26 14.44 0.15C14.6 0.05 14.78 0 14.98 0C15.17 0 15.35 0.05 15.52 0.15C15.68 0.26 15.8 0.41 15.88 0.58L17.19 3.39L20.12 3.84C20.31 3.86 20.49 3.93 20.64 4.05C20.79 4.17 20.91 4.33 20.97 4.51C21.02 4.68 21.03 4.87 20.99 5.04C20.95 5.22 20.86 5.38 20.74 5.51L18.59 7.72L19.05 10.86ZM9.13 8.09L6.89 7.75L5.9 5.59C5.82 5.42 5.69 5.27 5.53 5.17C5.37 5.06 5.18 5.01 4.99 5.01C4.8 5.01 4.61 5.06 4.45 5.17C4.29 5.27 4.16 5.42 4.08 5.59L3.08 7.75L0.84 8.09C0.66 8.12 0.49 8.19 0.35 8.31C0.21 8.43 0.11 8.58 0.05 8.76C-0.01 8.93 -0.02 9.12 0.02 9.3C0.06 9.47 0.15 9.64 0.27 9.77L1.92 11.47L1.53 13.87C1.51 14.05 1.54 14.24 1.61 14.41C1.69 14.57 1.81 14.72 1.96 14.82C2.11 14.93 2.29 14.98 2.47 14.99C2.66 15 2.84 14.96 3 14.87L5 13.77L7 14.87C7.14 14.95 7.31 14.99 7.47 14.99C7.62 15 7.76 14.97 7.9 14.91C8.03 14.85 8.15 14.76 8.24 14.65C8.34 14.54 8.41 14.4 8.45 14.26C8.49 14.12 8.5 13.98 8.47 13.83L8.08 11.43L9.73 9.73C9.86 9.6 9.95 9.43 9.99 9.26C10.03 9.08 10.01 8.89 9.96 8.72C9.9 8.54 9.79 8.39 9.65 8.27C9.51 8.15 9.34 8.08 9.16 8.05L9.13 8.09ZM29.91 8.76C29.85 8.58 29.74 8.43 29.6 8.31C29.46 8.19 29.29 8.12 29.11 8.09L26.87 7.75L25.87 5.59C25.79 5.42 25.67 5.27 25.5 5.17C25.34 5.06 25.16 5.01 24.96 5.01C24.77 5.01 24.58 5.06 24.42 5.17C24.26 5.27 24.13 5.42 24.05 5.59L23.06 7.75L20.82 8.09C20.64 8.12 20.47 8.19 20.33 8.31C20.19 8.43 20.08 8.58 20.03 8.76C19.97 8.93 19.96 9.12 20 9.3C20.04 9.47 20.12 9.64 20.25 9.77L21.9 11.47L21.51 13.87C21.49 14.05 21.51 14.24 21.59 14.41C21.67 14.57 21.79 14.72 21.94 14.82C22.09 14.93 22.27 14.98 22.45 14.99C22.63 15 22.82 14.96 22.98 14.87L24.97 13.77L26.97 14.87C27.12 14.95 27.28 14.99 27.45 14.99C27.6 15 27.74 14.97 27.87 14.91C28.01 14.85 28.12 14.76 28.22 14.65C28.32 14.54 28.39 14.4 28.43 14.26C28.46 14.12 28.47 13.98 28.45 13.83L28.06 11.43L29.71 9.73C29.83 9.61 29.92 9.45 29.96 9.28C30.01 9.11 30.01 8.93 29.96 8.76L29.91 8.76Z" fill="#733506" fill-opacity="1.000000" fill-rule="nonzero"/>
</svg>
