<svg width="80.000000" height="80.000000" viewBox="0 0 80 80" fill="none" xmlns="http://www.w3.org/2000/svg" xmlns:xlink="http://www.w3.org/1999/xlink">
	<desc>
			Created with Pixso.
	</desc>
	<defs/>
	<path id="Vector" d="M79.8 52.63C79.67 52.43 79.51 52.27 79.31 52.16C79.11 52.05 78.89 52 78.66 52L73.26 52C73.02 49.28 72.03 46.69 70.39 44.51C68.75 42.33 66.54 40.66 64 39.67L64 1.33C64 0.97 63.85 0.64 63.6 0.39C63.35 0.14 63.01 0 62.66 0L1.33 0C0.98 0 0.64 0.14 0.39 0.39C0.14 0.64 0 0.97 0 1.33L0 78.66C0 79.02 0.14 79.35 0.39 79.6C0.64 79.85 0.98 80 1.33 80L62.66 80C63.01 80 63.35 79.85 63.6 79.6C63.85 79.35 64 79.02 64 78.66L64 65.33L73.33 65.33C73.58 65.33 73.82 65.26 74.03 65.13C74.24 65 74.41 64.81 74.52 64.59L79.85 53.92C80.06 53.51 80.04 53.02 79.8 52.63L79.8 52.63ZM70.59 52L38.74 52C38.78 51.65 38.83 51.32 38.89 50.98C38.9 50.94 38.91 50.9 38.92 50.86C38.99 50.54 39.07 50.23 39.16 49.92C39.19 49.8 39.24 49.68 39.27 49.56C39.35 49.33 39.43 49.11 39.52 48.88C39.57 48.75 39.63 48.62 39.68 48.5C39.93 47.95 40.21 47.42 40.53 46.91C40.61 46.79 40.68 46.67 40.76 46.56C40.9 46.35 41.05 46.16 41.21 45.96C41.28 45.86 41.35 45.77 41.43 45.67C42.55 44.31 43.96 43.21 45.56 42.46C47.15 41.71 48.9 41.32 50.66 41.33L58.66 41.33C59.89 41.33 61.1 41.52 62.26 41.88C64.48 42.57 66.45 43.9 67.93 45.7C69.41 47.49 70.33 49.68 70.59 52L70.59 52ZM61.33 77.33L2.66 77.33L2.66 2.66L61.33 2.66L61.33 38.9C61.26 38.89 61.2 38.89 61.13 38.88C60.86 38.83 60.58 38.79 60.31 38.76C60.17 38.75 60.04 38.73 59.91 38.72C59.49 38.68 59.08 38.66 58.66 38.66L50.66 38.66C48.5 38.66 46.37 39.13 44.41 40.05C42.46 40.97 40.74 42.31 39.36 43.98C39.27 44.1 39.18 44.22 39.08 44.34C38.9 44.58 38.71 44.82 38.54 45.08C38.44 45.22 38.35 45.37 38.25 45.52C38.11 45.76 37.96 45.99 37.83 46.23C37.74 46.4 37.66 46.56 37.57 46.73C37.37 47.13 37.18 47.55 37.01 47.97C36.91 48.22 36.83 48.48 36.74 48.74C36.68 48.91 36.63 49.08 36.58 49.25C36.5 49.53 36.43 49.8 36.37 50.08C36.33 50.25 36.29 50.41 36.26 50.57C36.2 50.89 36.15 51.22 36.11 51.54C36.1 51.67 36.08 51.8 36.06 51.93C36.06 51.95 36.06 51.97 36.05 52L30.66 52C30.43 52 30.21 52.05 30.01 52.16C29.81 52.27 29.65 52.43 29.53 52.63C29.41 52.82 29.34 53.04 29.33 53.27C29.32 53.5 29.37 53.72 29.47 53.92L34.8 64.59C34.91 64.81 35.08 65 35.29 65.13C35.5 65.26 35.75 65.33 36 65.33L61.33 65.33L61.33 77.33ZM72.5 62.66L36.82 62.66L32.82 54.66L76.5 54.66L72.5 62.66Z" fill="#733506" fill-opacity="1.000000" fill-rule="nonzero"/>
	<path id="Vector" d="M12 17.33L45.33 17.33C45.68 17.33 46.02 17.19 46.27 16.94C46.52 16.69 46.66 16.35 46.66 16C46.66 15.64 46.52 15.3 46.27 15.05C46.02 14.8 45.68 14.66 45.33 14.66L12 14.66C11.64 14.66 11.3 14.8 11.05 15.05C10.8 15.3 10.66 15.64 10.66 16C10.66 16.35 10.8 16.69 11.05 16.94C11.3 17.19 11.64 17.33 12 17.33ZM12 24L40 24C40.35 24 40.69 23.85 40.94 23.6C41.19 23.35 41.33 23.02 41.33 22.66C41.33 22.31 41.19 21.97 40.94 21.72C40.69 21.47 40.35 21.33 40 21.33L12 21.33C11.64 21.33 11.3 21.47 11.05 21.72C10.8 21.97 10.66 22.31 10.66 22.66C10.66 23.02 10.8 23.35 11.05 23.6C11.3 23.85 11.64 24 12 24ZM12 30.66L30.66 30.66C31.01 30.66 31.35 30.52 31.6 30.27C31.85 30.02 32 29.68 32 29.33C32 28.97 31.85 28.64 31.6 28.39C31.35 28.14 31.01 28 30.66 28L12 28C11.64 28 11.3 28.14 11.05 28.39C10.8 28.64 10.66 28.97 10.66 29.33C10.66 29.68 10.8 30.02 11.05 30.27C11.3 30.52 11.64 30.66 12 30.66ZM24 34.66L12 34.66C11.64 34.66 11.3 34.8 11.05 35.05C10.8 35.3 10.66 35.64 10.66 36C10.66 36.35 10.8 36.69 11.05 36.94C11.3 37.19 11.64 37.33 12 37.33L24 37.33C24.35 37.33 24.69 37.19 24.94 36.94C25.19 36.69 25.33 36.35 25.33 36C25.33 35.64 25.19 35.3 24.94 35.05C24.69 34.8 24.35 34.66 24 34.66ZM20 41.33L12 41.33C11.64 41.33 11.3 41.47 11.05 41.72C10.8 41.97 10.66 42.31 10.66 42.66C10.66 43.02 10.8 43.35 11.05 43.6C11.3 43.85 11.64 44 12 44L20 44C20.35 44 20.69 43.85 20.94 43.6C21.19 43.35 21.33 43.02 21.33 42.66C21.33 42.31 21.19 41.97 20.94 41.72C20.69 41.47 20.35 41.33 20 41.33ZM53.33 42.66L50.66 42.66C50.31 42.66 49.97 42.8 49.72 43.05C49.47 43.3 49.33 43.64 49.33 44C49.33 44.35 49.47 44.69 49.72 44.94C49.97 45.19 50.31 45.33 50.66 45.33L53.33 45.33C53.68 45.33 54.02 45.19 54.27 44.94C54.52 44.69 54.66 44.35 54.66 44C54.66 43.64 54.52 43.3 54.27 43.05C54.02 42.8 53.68 42.66 53.33 42.66ZM48 46.66L45.33 46.66C44.97 46.66 44.64 46.8 44.39 47.05C44.14 47.3 44 47.64 44 48C44 48.35 44.14 48.69 44.39 48.94C44.64 49.19 44.97 49.33 45.33 49.33L48 49.33C48.35 49.33 48.69 49.19 48.94 48.94C49.19 48.69 49.33 48.35 49.33 48C49.33 47.64 49.19 47.3 48.94 47.05C48.69 46.8 48.35 46.66 48 46.66ZM58.66 46.66L56 46.66C55.64 46.66 55.3 46.8 55.05 47.05C54.8 47.3 54.66 47.64 54.66 48C54.66 48.35 54.8 48.69 55.05 48.94C55.3 49.19 55.64 49.33 56 49.33L58.66 49.33C59.01 49.33 59.35 49.19 59.6 48.94C59.85 48.69 60 48.35 60 48C60 47.64 59.85 47.3 59.6 47.05C59.35 46.8 59.01 46.66 58.66 46.66ZM12 48C11.64 48 11.3 48.14 11.05 48.39C10.8 48.64 10.66 48.97 10.66 49.33L10.66 51.99C10.66 52.35 10.8 52.69 11.05 52.94C11.3 53.19 11.64 53.33 12 53.33C12.35 53.33 12.69 53.19 12.94 52.94C13.19 52.69 13.33 52.35 13.33 51.99L13.33 49.33C13.33 48.97 13.19 48.64 12.94 48.39C12.69 48.14 12.35 48 12 48ZM17.33 48C16.97 48 16.64 48.14 16.39 48.39C16.14 48.64 16 48.97 16 49.33L16 51.99C16 52.35 16.14 52.69 16.39 52.94C16.64 53.19 16.97 53.33 17.33 53.33C17.68 53.33 18.02 53.19 18.27 52.94C18.52 52.69 18.66 52.35 18.66 51.99L18.66 49.33C18.66 48.97 18.52 48.64 18.27 48.39C18.02 48.14 17.68 48 17.33 48ZM22.66 48C22.31 48 21.97 48.14 21.72 48.39C21.47 48.64 21.33 48.97 21.33 49.33L21.33 51.99C21.33 52.35 21.47 52.69 21.72 52.94C21.97 53.19 22.31 53.33 22.66 53.33C23.01 53.33 23.35 53.19 23.6 52.94C23.85 52.69 24 52.35 24 51.99L24 49.33C24 48.97 23.85 48.64 23.6 48.39C23.35 48.14 23.01 48 22.66 48Z" fill="#733506" fill-opacity="1.000000" fill-rule="nonzero"/>
</svg>
