<svg width="40.000000" height="45.000000" viewBox="0 0 40 45" fill="none" xmlns="http://www.w3.org/2000/svg" xmlns:xlink="http://www.w3.org/1999/xlink">
	<desc>
			Created with Pixso.
	</desc>
	<defs/>
	<path d="M6.82 19.68C6.82 21.23 5.58 22.5 4.06 22.5C2.53 22.5 1.3 21.23 1.3 19.68C1.3 18.13 2.53 16.87 4.06 16.87C5.58 16.87 6.82 18.13 6.82 19.68Z" fill="#FEE0CA" fill-opacity="1.000000" fill-rule="evenodd"/>
	<path d="M10.96 15.46C10.96 17.01 9.72 18.27 8.2 18.27C6.67 18.27 5.44 17.01 5.44 15.46C5.44 13.9 6.67 12.64 8.2 12.64C9.72 12.64 10.96 13.9 10.96 15.46Z" fill="#F9CDAC" fill-opacity="1.000000" fill-rule="evenodd"/>
	<path d="M15.78 18.27C15.17 18.27 14.56 18.13 14 17.86C13.44 17.59 12.95 17.19 12.57 16.7C12.18 16.21 11.9 15.64 11.76 15.03C11.62 14.42 11.61 13.78 11.74 13.16C11.87 12.55 12.13 11.97 12.51 11.47C12.89 10.97 13.37 10.57 13.92 10.28C14.47 10 15.08 9.84 15.69 9.83C16.31 9.82 16.92 9.94 17.48 10.2L18.06 10.47L18.37 9.9C18.76 9.18 19.34 8.6 20.05 8.21C20.76 7.83 21.57 7.67 22.37 7.74C23.17 7.82 23.93 8.13 24.56 8.64C25.19 9.15 25.66 9.84 25.91 10.61C26.16 11.39 26.19 12.23 25.98 13.02C25.78 13.81 25.35 14.53 24.76 15.08C24.16 15.62 23.42 15.98 22.63 16.11C21.83 16.24 21.02 16.13 20.29 15.79L19.71 15.52L19.4 16.09C19.04 16.75 18.52 17.3 17.88 17.69C17.25 18.07 16.52 18.27 15.78 18.27Z" fill="#BA7A4A" fill-opacity="1.000000" fill-rule="nonzero"/>
	<path d="M31.6 28.34C30.72 28.34 29.85 28.1 29.1 27.63C28.35 27.16 27.74 26.49 27.33 25.69L27.15 25.34L26.77 25.32C25.8 25.24 24.87 24.87 24.1 24.25C23.34 23.63 22.78 22.79 22.49 21.84C22.2 20.89 22.2 19.87 22.5 18.92C22.79 17.96 23.37 17.13 24.14 16.52L24.6 16.16L24.33 15.63C24.18 15.35 24.06 15.06 23.97 14.76C23.79 14.14 23.72 13.49 23.78 12.85C23.84 12.2 24.03 11.58 24.33 11C24.62 10.43 25.03 9.93 25.52 9.52C26.01 9.1 26.57 8.79 27.18 8.6C27.78 8.42 28.42 8.35 29.05 8.41C29.68 8.47 30.3 8.66 30.86 8.97C31.42 9.27 31.91 9.68 32.32 10.18C32.72 10.68 33.02 11.26 33.21 11.88C33.3 12.18 33.36 12.49 33.39 12.81L33.45 13.4L34.03 13.44C35.01 13.5 35.94 13.86 36.71 14.48C37.48 15.11 38.04 15.95 38.32 16.91C38.6 17.86 38.59 18.88 38.3 19.83C38 20.78 37.44 21.61 36.67 22.23L36.37 22.47L36.41 22.86C36.54 24.01 36.27 25.16 35.65 26.12C35.03 27.08 34.1 27.79 33.02 28.12C32.56 28.27 32.08 28.34 31.6 28.34Z" fill="#D3976A" fill-opacity="1.000000" fill-rule="nonzero"/>
	<path d="M18.54 21.79C18.54 25.68 15.45 28.83 11.64 28.83C7.83 28.83 4.75 25.68 4.75 21.79C4.75 17.91 7.83 14.75 11.64 14.75C15.45 14.75 18.54 17.91 18.54 21.79Z" fill="#FFF8F3" fill-opacity="1.000000" fill-rule="evenodd"/>
	<path d="M15.78 21.79C15.78 24.12 13.93 26.01 11.64 26.01C9.36 26.01 7.51 24.12 7.51 21.79C7.51 19.46 9.36 17.57 11.64 17.57C13.93 17.57 15.78 19.46 15.78 21.79Z" fill="#F4AF7A" fill-opacity="1.000000" fill-rule="evenodd"/>
	<path d="M26.82 21.79C26.82 26.07 23.42 29.53 19.23 29.53C15.04 29.53 11.64 26.07 11.64 21.79C11.64 17.52 15.04 14.05 19.23 14.05C23.42 14.05 26.82 17.52 26.82 21.79Z" fill="#FFAF73" fill-opacity="1.000000" fill-rule="evenodd"/>
	<path d="M10.26 44.31L10.26 40.38L9.91 40.18C6.9 38.53 4.38 36.08 2.63 33.09C0.87 30.1 -0.07 26.68 -0.08 23.2L-0.08 21.79L38.54 21.79L38.54 23.2C38.53 26.68 37.59 30.1 35.83 33.09C34.08 36.08 31.56 38.53 28.55 40.18L28.2 40.38L28.2 44.31L10.26 44.31Z" fill="#F9BA8A" fill-opacity="1.000000" fill-rule="nonzero"/>
	<path d="M7.51 9.13C6.87 9.13 6.24 9 5.66 8.75C5.07 8.51 4.54 8.14 4.09 7.68L10.92 0.72C11.6 1.41 12.06 2.28 12.24 3.24C12.43 4.19 12.33 5.18 11.97 6.08C11.6 6.98 10.98 7.75 10.19 8.29C9.39 8.84 8.46 9.13 7.51 9.13Z" fill="#FF9C51" fill-opacity="1.000000" fill-rule="nonzero"/>
	<path d="M35.78 3.5C35.78 4.66 34.86 5.61 33.71 5.61C32.57 5.61 31.64 4.66 31.64 3.5C31.64 2.33 32.57 1.38 33.71 1.38C34.86 1.38 35.78 2.33 35.78 3.5Z" fill="#F4AF7A" fill-opacity="1.000000" fill-rule="evenodd"/>
	<path d="M10.26 40.79L28.2 40.79L28.2 44.31L10.26 44.31L10.26 40.79Z" fill="#EFA66F" fill-opacity="1.000000" fill-rule="evenodd"/>
	<path d="M0.13 26.01C-0.01 25.08 -0.08 24.14 -0.08 23.2L-0.08 21.79L38.54 21.79L38.54 23.2C38.54 24.14 38.47 25.08 38.33 26.01L0.13 26.01Z" fill="#FCDCC3" fill-opacity="1.000000" fill-rule="nonzero"/>
	<path d="M19.23 16.85C19.14 16.85 19.05 16.87 18.97 16.9C18.88 16.94 18.81 16.99 18.74 17.05C18.68 17.12 18.63 17.2 18.59 17.28C18.56 17.37 18.54 17.46 18.54 17.55L18.54 18.96C18.54 19.15 18.61 19.32 18.74 19.46C18.87 19.59 19.05 19.66 19.23 19.66C19.41 19.66 19.59 19.59 19.72 19.46C19.85 19.32 19.92 19.15 19.92 18.96L19.92 17.55C19.92 17.46 19.9 17.37 19.87 17.28C19.83 17.2 19.78 17.12 19.72 17.05C19.65 16.99 19.58 16.94 19.49 16.9C19.41 16.87 19.32 16.85 19.23 16.85ZM16.27 18.46C16.14 18.33 15.96 18.26 15.78 18.26C15.6 18.26 15.43 18.33 15.3 18.46C15.17 18.6 15.1 18.77 15.1 18.96C15.09 19.15 15.17 19.32 15.29 19.46L15.98 20.16C16.11 20.29 16.29 20.36 16.47 20.36C16.65 20.36 16.83 20.29 16.96 20.16C17.08 20.03 17.16 19.85 17.16 19.66C17.16 19.48 17.09 19.3 16.96 19.17L16.27 18.46ZM22.19 18.46L21.5 19.17C21.44 19.23 21.38 19.31 21.35 19.39C21.31 19.48 21.3 19.57 21.3 19.66C21.3 19.76 21.31 19.85 21.35 19.93C21.38 20.02 21.43 20.1 21.5 20.16C21.56 20.23 21.64 20.28 21.72 20.32C21.81 20.35 21.9 20.37 21.99 20.37C22.08 20.37 22.17 20.35 22.25 20.31C22.34 20.28 22.41 20.23 22.48 20.16L23.17 19.46C23.23 19.39 23.28 19.31 23.32 19.23C23.35 19.14 23.37 19.05 23.37 18.96C23.37 18.87 23.35 18.77 23.32 18.69C23.28 18.6 23.23 18.52 23.17 18.46C23.1 18.39 23.03 18.34 22.94 18.31C22.86 18.27 22.77 18.25 22.68 18.25C22.59 18.25 22.5 18.27 22.41 18.31C22.33 18.34 22.25 18.4 22.19 18.46ZM7.51 9.81C8.6 9.81 9.66 9.48 10.57 8.86C11.48 8.24 12.19 7.36 12.6 6.34C13.02 5.31 13.13 4.18 12.92 3.08C12.7 1.99 12.18 0.99 11.41 0.2C11.34 0.14 11.27 0.08 11.18 0.05C11.1 0.01 11.01 0 10.92 0C10.83 0 10.74 0.01 10.66 0.05C10.57 0.08 10.5 0.14 10.43 0.2L3.6 7.17C3.54 7.23 3.49 7.31 3.45 7.4C3.42 7.48 3.4 7.57 3.4 7.67C3.4 7.76 3.42 7.85 3.45 7.93C3.49 8.02 3.54 8.1 3.6 8.16C4.12 8.69 4.72 9.1 5.39 9.39C6.06 9.67 6.78 9.81 7.51 9.81ZM10.88 1.73C11.45 2.55 11.71 3.54 11.63 4.53C11.55 5.53 11.12 6.46 10.43 7.17C9.74 7.87 8.83 8.31 7.85 8.39C6.88 8.47 5.91 8.2 5.11 7.62L10.88 1.73ZM33.71 6.29C34.26 6.29 34.79 6.13 35.25 5.82C35.7 5.51 36.05 5.07 36.26 4.56C36.47 4.04 36.52 3.48 36.42 2.93C36.31 2.38 36.05 1.88 35.66 1.49C35.28 1.09 34.79 0.83 34.25 0.72C33.72 0.61 33.16 0.66 32.66 0.88C32.15 1.09 31.72 1.45 31.42 1.91C31.12 2.38 30.95 2.92 30.95 3.48C30.96 4.22 31.25 4.94 31.76 5.47C32.28 6 32.98 6.29 33.71 6.29ZM33.71 2.07C33.99 2.07 34.25 2.15 34.48 2.31C34.71 2.46 34.88 2.68 34.99 2.94C35.09 3.2 35.12 3.48 35.07 3.75C35.01 4.03 34.88 4.28 34.69 4.47C34.5 4.67 34.25 4.8 33.98 4.86C33.71 4.91 33.44 4.89 33.18 4.78C32.93 4.67 32.72 4.49 32.57 4.26C32.41 4.03 32.33 3.76 32.33 3.48C32.33 3.11 32.48 2.75 32.74 2.48C33 2.22 33.35 2.07 33.71 2.07Z" fill="#733506" fill-opacity="1.000000" fill-rule="nonzero"/>
	<path d="M17.16 3.48C17.16 3.87 16.85 4.18 16.47 4.18C16.09 4.18 15.78 3.87 15.78 3.48C15.78 3.09 16.09 2.77 16.47 2.77C16.85 2.77 17.16 3.09 17.16 3.48Z" fill="#733506" fill-opacity="1.000000" fill-rule="evenodd"/>
	<path d="M25.44 2.07C25.44 2.46 25.13 2.77 24.75 2.77C24.37 2.77 24.06 2.46 24.06 2.07C24.06 1.68 24.37 1.37 24.75 1.37C25.13 1.37 25.44 1.68 25.44 2.07Z" fill="#733506" fill-opacity="1.000000" fill-rule="evenodd"/>
	<path d="M2.68 13.33C2.68 13.72 2.37 14.03 1.99 14.03C1.61 14.03 1.3 13.72 1.3 13.33C1.3 12.94 1.61 12.63 1.99 12.63C2.37 12.63 2.68 12.94 2.68 13.33Z" fill="#733506" fill-opacity="1.000000" fill-rule="evenodd"/>
	<path d="M36.47 9.11C36.47 9.5 36.16 9.81 35.78 9.81C35.4 9.81 35.09 9.5 35.09 9.11C35.09 8.72 35.4 8.4 35.78 8.4C36.16 8.4 36.47 8.72 36.47 9.11Z" fill="#733506" fill-opacity="1.000000" fill-rule="evenodd"/>
	<path d="M38.54 21.07L38.52 21.07C38.97 20.24 39.21 19.31 39.22 18.36C39.22 17.41 39 16.48 38.55 15.64C38.11 14.81 37.47 14.1 36.68 13.59C35.9 13.08 35 12.78 34.07 12.71C34.04 12.35 33.97 12 33.86 11.65C33.61 10.82 33.17 10.05 32.58 9.42C31.99 8.78 31.26 8.3 30.46 8C29.65 7.71 28.79 7.61 27.93 7.71C27.08 7.82 26.27 8.12 25.55 8.61C25.04 8.03 24.39 7.58 23.67 7.31C22.96 7.03 22.18 6.94 21.42 7.03C20.66 7.12 19.93 7.4 19.3 7.83C18.66 8.27 18.13 8.86 17.76 9.54C17.08 9.23 16.33 9.08 15.57 9.11C14.82 9.15 14.09 9.36 13.43 9.73C12.77 10.11 12.21 10.64 11.79 11.27C11.36 11.91 11.09 12.64 11 13.4C10.54 12.73 9.87 12.24 9.09 12.03C8.32 11.81 7.49 11.87 6.76 12.21C6.03 12.55 5.44 13.14 5.09 13.88C4.74 14.61 4.66 15.45 4.85 16.25C4.23 16.09 3.57 16.12 2.97 16.33C2.36 16.53 1.82 16.91 1.41 17.41C1 17.91 0.73 18.52 0.64 19.17C0.55 19.81 0.64 20.47 0.9 21.07L-0.08 21.07C-0.17 21.07 -0.26 21.09 -0.34 21.12C-0.43 21.16 -0.5 21.21 -0.57 21.28C-0.63 21.34 -0.68 21.42 -0.72 21.5C-0.75 21.59 -0.77 21.68 -0.77 21.77L-0.77 23.18C-0.77 26.85 0.19 30.45 2 33.62C3.82 36.78 6.44 39.39 9.58 41.18L9.58 44.29C9.58 44.38 9.59 44.48 9.63 44.56C9.66 44.65 9.71 44.72 9.78 44.79C9.84 44.85 9.92 44.91 10 44.94C10.08 44.98 10.17 45 10.26 45L28.2 45C28.29 45 28.38 44.98 28.46 44.94C28.54 44.91 28.62 44.85 28.68 44.79C28.75 44.72 28.8 44.65 28.83 44.56C28.87 44.48 28.89 44.38 28.89 44.29L28.89 41.18C32.02 39.39 34.64 36.78 36.46 33.62C38.28 30.45 39.23 26.85 39.23 23.18L39.23 21.77C39.23 21.68 39.21 21.59 39.18 21.5C39.14 21.42 39.09 21.34 39.03 21.28C38.96 21.21 38.89 21.16 38.8 21.12C38.72 21.09 38.63 21.07 38.54 21.07ZM27.38 9.27C28.43 8.94 29.56 9.05 30.53 9.58C31.5 10.1 32.22 11 32.54 12.07C32.67 12.5 32.73 12.95 32.72 13.39C32.72 13.49 32.73 13.59 32.77 13.68C32.81 13.77 32.86 13.85 32.93 13.92C33 13.99 33.08 14.04 33.17 14.07C33.26 14.11 33.36 14.12 33.45 14.12C34.26 14.06 35.07 14.26 35.77 14.67C36.48 15.09 37.05 15.7 37.41 16.45C37.77 17.19 37.91 18.03 37.8 18.85C37.7 19.67 37.36 20.44 36.83 21.07L31.64 21.07L30.46 17.13C30.4 16.96 30.28 16.81 30.12 16.72C29.96 16.63 29.77 16.62 29.59 16.67C29.42 16.72 29.27 16.85 29.19 17.01C29.1 17.18 29.08 17.37 29.14 17.55L30.19 21.07L27.47 21.07C27.33 19.21 26.57 17.45 25.33 16.08C25.32 15.96 25.28 15.85 25.22 15.75C24.84 15.2 24.59 14.57 24.5 13.91C24.4 13.25 24.46 12.58 24.67 11.94C24.89 11.31 25.24 10.74 25.71 10.27C26.18 9.81 26.75 9.46 27.38 9.27ZM8.27 21.07C8.43 20.28 8.85 19.56 9.46 19.05C10.08 18.54 10.85 18.26 11.64 18.26C11.67 18.26 11.69 18.26 11.71 18.26C11.31 19.15 11.07 20.1 10.99 21.07L8.27 21.07ZM5.49 21.07C5.6 20 5.98 18.98 6.59 18.1C7.34 17.01 8.41 16.2 9.65 15.77C10.88 15.34 12.22 15.33 13.46 15.73C13.09 16.1 12.76 16.5 12.46 16.93C12.19 16.88 11.92 16.85 11.64 16.85C10.48 16.85 9.36 17.28 8.49 18.05C7.61 18.83 7.04 19.9 6.87 21.07L5.49 21.07ZM13.36 18.08C14.11 16.83 15.24 15.85 16.57 15.28C17.9 14.72 19.37 14.59 20.77 14.92C22.18 15.25 23.45 16.02 24.4 17.12C25.36 18.23 25.95 19.61 26.09 21.07L12.38 21.07C12.48 20.01 12.81 18.99 13.36 18.08ZM15.78 10.52C16.47 10.51 17.13 10.72 17.7 11.11C17.79 11.17 17.89 11.21 17.99 11.23C18.1 11.24 18.2 11.23 18.3 11.2C18.4 11.16 18.49 11.11 18.57 11.03C18.64 10.96 18.7 10.86 18.74 10.76C18.93 10.19 19.27 9.68 19.71 9.28C20.16 8.88 20.7 8.6 21.28 8.48C21.86 8.35 22.46 8.39 23.03 8.57C23.6 8.75 24.11 9.08 24.51 9.53C23.94 10.17 23.52 10.94 23.29 11.78C23.05 12.62 23.01 13.5 23.17 14.35C21.86 13.62 20.38 13.27 18.89 13.34C17.4 13.4 15.95 13.88 14.71 14.71C13.96 14.37 13.16 14.15 12.34 14.08C12.34 14.06 12.33 14.05 12.33 14.03C12.33 13.1 12.7 12.21 13.34 11.55C13.99 10.89 14.87 10.52 15.78 10.52ZM8.2 13.33C8.53 13.33 8.86 13.41 9.16 13.57C9.45 13.73 9.71 13.96 9.9 14.25C8.54 14.58 7.3 15.29 6.31 16.29C6.17 15.97 6.11 15.62 6.13 15.27C6.16 14.92 6.27 14.58 6.46 14.29C6.65 13.99 6.9 13.75 7.21 13.58C7.51 13.41 7.85 13.33 8.2 13.33ZM1.99 19.66C1.99 19.29 2.08 18.92 2.26 18.6C2.45 18.28 2.71 18.01 3.03 17.83C3.35 17.64 3.71 17.55 4.07 17.55C4.44 17.56 4.79 17.66 5.11 17.85C4.54 18.83 4.19 19.93 4.09 21.07L2.54 21.07C2.19 20.69 1.99 20.18 1.99 19.66ZM27.51 43.59L10.96 43.59L10.96 41.48L27.51 41.48L27.51 43.59ZM28.01 40.07L10.45 40.07C7.99 38.71 5.86 36.8 4.21 34.48C2.56 32.17 1.44 29.51 0.94 26.7L26.13 26.7C26.31 26.7 26.49 26.63 26.61 26.49C26.74 26.36 26.82 26.18 26.82 26C26.82 25.81 26.74 25.63 26.61 25.5C26.49 25.37 26.31 25.29 26.13 25.29L0.73 25.29C0.65 24.59 0.61 23.89 0.61 23.18L0.61 22.48L31.12 22.48L31.13 22.48L31.13 22.48L37.85 22.48L37.85 23.18C37.85 23.89 37.81 24.59 37.73 25.29L30.26 25.29C30.08 25.29 29.91 25.37 29.78 25.5C29.65 25.63 29.58 25.81 29.58 26C29.58 26.18 29.65 26.36 29.78 26.49C29.91 26.63 30.08 26.7 30.26 26.7L37.53 26.7C37.02 29.51 35.9 32.17 34.25 34.48C32.61 36.8 30.47 38.71 28.01 40.07Z" fill="#733506" fill-opacity="1.000000" fill-rule="nonzero"/>
</svg>
