<svg width="41" height="45" viewBox="0 0 41 45" fill="none" xmlns="http://www.w3.org/2000/svg">
<path d="M5.06331 22.5C6.58685 22.5 7.82193 21.2398 7.82193 19.6853C7.82193 18.1308 6.58685 16.8706 5.06331 16.8706C3.53976 16.8706 2.30469 18.1308 2.30469 19.6853C2.30469 21.2398 3.53976 22.5 5.06331 22.5Z" fill="#FEE0CA"/>
<path d="M9.201 18.2778C10.7245 18.2778 11.9596 17.0176 11.9596 15.4631C11.9596 13.9086 10.7245 12.6484 9.201 12.6484C7.67746 12.6484 6.44238 13.9086 6.44238 15.4631C6.44238 17.0176 7.67746 18.2778 9.201 18.2778Z" fill="#F9CDAC"/>
<path d="M16.7875 18.2781C16.1705 18.2777 15.5615 18.1365 15.0049 17.8649C14.4483 17.5932 13.9582 17.1981 13.5707 16.7082C13.1831 16.2184 12.9078 15.6464 12.7649 15.034C12.622 14.4215 12.6151 13.7843 12.7447 13.1688C12.8744 12.5533 13.1373 11.9752 13.5142 11.4768C13.8911 10.9784 14.3725 10.5723 14.9231 10.2883C15.4737 10.0042 16.0796 9.84939 16.6965 9.83511C17.3133 9.82084 17.9254 9.94749 18.4881 10.2058L19.0673 10.4731L19.3751 9.90481C19.7643 9.1882 20.3496 8.60276 21.0596 8.22001C21.7696 7.83726 22.5734 7.67377 23.373 7.74951C24.1725 7.82526 24.9331 8.13695 25.5619 8.64653C26.1906 9.1561 26.6603 9.84149 26.9136 10.619C27.1669 11.3965 27.1927 12.2324 26.988 13.0246C26.7833 13.8168 26.3568 14.531 25.7608 15.08C25.1648 15.6291 24.425 15.9891 23.6317 16.1161C22.8384 16.2431 22.0261 16.1316 21.2939 15.7953L20.7147 15.528L20.4069 16.0963C20.0496 16.7567 19.5255 17.3074 18.889 17.6911C18.2525 18.0748 17.5268 18.2775 16.7875 18.2781Z" fill="#BA7A4A"/>
<path d="M32.603 28.3478C31.7219 28.3493 30.8575 28.1028 30.1049 27.6354C29.3522 27.168 28.7405 26.4979 28.3371 25.6987L28.1593 25.3486L27.7734 25.3207C26.8011 25.2471 25.8729 24.8766 25.1097 24.2575C24.3465 23.6385 23.7835 22.7994 23.494 21.8494C23.2019 20.896 23.2039 19.8741 23.4996 18.9218C23.7953 17.9696 24.3705 17.133 25.1474 16.5252L25.6081 16.161L25.3333 15.6363C25.1872 15.3582 25.0683 15.0661 24.9784 14.7643C24.7924 14.1455 24.7278 13.4954 24.7881 12.8512C24.8485 12.2069 25.0327 11.5811 25.3303 11.0095C25.6278 10.438 26.0329 9.93182 26.5222 9.52005C27.0116 9.10827 27.5757 8.79894 28.1823 8.60973C28.7889 8.42051 29.4261 8.35513 30.0574 8.41732C30.6888 8.47951 31.302 8.66805 31.8619 8.97216C32.4218 9.27627 32.9175 9.68999 33.3206 10.1897C33.7237 10.6893 34.0264 11.2652 34.2113 11.8843C34.3017 12.1861 34.3628 12.4963 34.3938 12.8103L34.4524 13.4026L35.035 13.4418C36.0121 13.5028 36.9473 13.8685 37.7142 14.4893C38.4811 15.1101 39.0427 15.9561 39.3231 16.9131C39.6034 17.866 39.5962 18.8829 39.3025 19.8315C39.0089 20.7802 38.4423 21.6168 37.6764 22.2326L37.372 22.4758L37.4165 22.8675C37.5439 24.0104 37.2748 25.1627 36.6559 26.124C36.037 27.0854 35.1074 27.7951 34.0288 28.1296C33.5669 28.2737 33.086 28.3473 32.603 28.3478Z" fill="#D3976A"/>
<path d="M12.6495 28.8332C16.4583 28.8332 19.546 25.6828 19.546 21.7965C19.546 17.9102 16.4583 14.7598 12.6495 14.7598C8.84062 14.7598 5.75293 17.9102 5.75293 21.7965C5.75293 25.6828 8.84062 28.8332 12.6495 28.8332Z" fill="#FFF8F3"/>
<path d="M12.6496 26.0183C14.935 26.0183 16.7876 24.128 16.7876 21.7963C16.7876 19.4645 14.935 17.5742 12.6496 17.5742C10.3643 17.5742 8.51172 19.4645 8.51172 21.7963C8.51172 24.128 10.3643 26.0183 12.6496 26.0183Z" fill="#F4AF7A"/>
<path d="M20.2356 29.5369C24.4254 29.5369 27.8218 26.0715 27.8218 21.7966C27.8218 17.5216 24.4254 14.0562 20.2356 14.0562C16.0459 14.0562 12.6494 17.5216 12.6494 21.7966C12.6494 26.0715 16.0459 29.5369 20.2356 29.5369Z" fill="#FFAF73"/>
<path d="M11.2696 44.3139V40.3829L10.9167 40.1815C7.90696 38.5322 5.38972 36.084 3.63095 33.0956C1.87219 30.1072 0.93721 26.6895 0.924805 23.2037V21.7964H39.5455V23.2037C39.5331 26.6895 38.5981 30.1072 36.8393 33.0956C35.0806 36.084 32.5633 38.5322 29.5536 40.1815L29.2007 40.3829V44.3139H11.2696Z" fill="#F9BA8A"/>
<path d="M8.51159 9.13022C7.87736 9.13187 7.2491 9.00525 6.66313 8.75768C6.07715 8.5101 5.54507 8.14648 5.09766 7.68783L11.9255 0.721191C12.6006 1.41015 13.0603 2.28787 13.2465 3.24337C13.4327 4.19888 13.337 5.18926 12.9716 6.08931C12.6062 6.98935 11.9875 7.75864 11.1936 8.29991C10.3997 8.84118 9.46639 9.13013 8.51159 9.13022Z" fill="#FF9C51"/>
<path d="M34.7184 5.61168C35.861 5.61168 36.7873 4.66655 36.7873 3.50067C36.7873 2.33478 35.861 1.38965 34.7184 1.38965C33.5757 1.38965 32.6494 2.33478 32.6494 3.50067C32.6494 4.66655 33.5757 5.61168 34.7184 5.61168Z" fill="#F4AF7A"/>
<path d="M29.2006 40.7954H11.2695V44.3138H29.2006V40.7954Z" fill="#EFA66F"/>
<path d="M1.13224 26.0184C0.995818 25.0866 0.926488 24.1459 0.924805 23.2037V21.7964H39.5455V23.2037C39.5438 24.1459 39.4745 25.0866 39.338 26.0184H1.13224Z" fill="#FCDCC3"/>
<path d="M20.2359 16.8531C20.1453 16.8531 20.0557 16.8713 19.972 16.9066C19.8883 16.942 19.8123 16.9938 19.7482 17.0591C19.6842 17.1245 19.6334 17.2021 19.5987 17.2875C19.5641 17.3728 19.5462 17.4644 19.5463 17.5568V18.9641C19.5463 19.1507 19.6189 19.3297 19.7483 19.4617C19.8776 19.5937 20.053 19.6678 20.2359 19.6678C20.4188 19.6678 20.5942 19.5937 20.7236 19.4617C20.8529 19.3297 20.9256 19.1507 20.9256 18.9641V17.5568C20.9256 17.4644 20.9078 17.3728 20.8731 17.2875C20.8385 17.2021 20.7877 17.1245 20.7236 17.0591C20.6596 16.9938 20.5836 16.942 20.4999 16.9066C20.4162 16.8713 20.3265 16.8531 20.2359 16.8531ZM17.2752 18.4666C17.1456 18.336 16.9707 18.2631 16.7885 18.2637C16.6064 18.2642 16.4319 18.3383 16.3031 18.4697C16.1743 18.6012 16.1017 18.7792 16.1011 18.965C16.1006 19.1509 16.1721 19.3294 16.3001 19.4616L16.9897 20.1653C17.1193 20.2959 17.2943 20.3688 17.4764 20.3683C17.6586 20.3677 17.8331 20.2936 17.9618 20.1622C18.0906 20.0308 18.1632 19.8527 18.1638 19.6669C18.1644 19.481 18.0929 19.3025 17.9649 19.1703L17.2752 18.4666ZM23.1966 18.4666L22.507 19.1703C22.4423 19.2355 22.3908 19.313 22.3556 19.3986C22.3204 19.4841 22.3022 19.5759 22.3019 19.6687C22.3016 19.7615 22.3193 19.8534 22.354 19.9391C22.3886 20.0249 22.4396 20.1028 22.5039 20.1684C22.5681 20.234 22.6445 20.286 22.7286 20.3214C22.8126 20.3567 22.9027 20.3748 22.9936 20.3745C23.0845 20.3742 23.1745 20.3556 23.2584 20.3197C23.3422 20.2838 23.4182 20.2313 23.4821 20.1653L24.1718 19.4616C24.2365 19.3965 24.2879 19.3189 24.3231 19.2333C24.3583 19.1478 24.3766 19.056 24.3768 18.9632C24.3771 18.8704 24.3594 18.7785 24.3248 18.6928C24.2901 18.607 24.2392 18.5291 24.1749 18.4635C24.1106 18.3979 24.0342 18.3459 23.9502 18.3105C23.8661 18.2752 23.776 18.2571 23.6851 18.2574C23.5942 18.2577 23.5042 18.2763 23.4204 18.3122C23.3365 18.3481 23.2605 18.4006 23.1966 18.4666ZM8.51179 9.81637C9.60299 9.8163 10.6697 9.48609 11.577 8.86751C12.4842 8.24892 13.1914 7.36973 13.609 6.3411C14.0266 5.31248 14.1359 4.18061 13.9231 3.08861C13.7102 1.9966 13.1849 0.99351 12.4133 0.206155C12.3493 0.140798 12.2733 0.0889523 12.1896 0.0535794C12.106 0.0182065 12.0163 0 11.9257 0C11.8352 0 11.7455 0.0182065 11.6618 0.0535794C11.5781 0.0889523 11.5021 0.140798 11.4381 0.206155L4.61025 7.17279C4.54619 7.23814 4.49538 7.31574 4.46071 7.40113C4.42605 7.48652 4.4082 7.57805 4.4082 7.67048C4.4082 7.76291 4.42605 7.85443 4.46071 7.93983C4.49538 8.02522 4.54619 8.10281 4.61025 8.16817C5.12157 8.69232 5.72964 9.10786 6.39932 9.39077C7.06899 9.67367 7.78698 9.81833 8.51179 9.81637ZM11.8853 1.73994C12.4515 2.55348 12.7172 3.54528 12.6351 4.53957C12.5531 5.53385 12.1288 6.46641 11.4373 7.17196C10.7458 7.87751 9.83182 8.31049 8.85734 8.39416C7.88286 8.47783 6.91082 8.20679 6.11349 7.62908L11.8853 1.73994ZM34.7187 6.29801C35.2643 6.29801 35.7976 6.13293 36.2513 5.82365C36.7049 5.51437 37.0585 5.07477 37.2673 4.56046C37.4761 4.04614 37.5307 3.4802 37.4243 2.9342C37.3178 2.38821 37.0551 1.88668 36.6693 1.49303C36.2835 1.09939 35.792 0.831319 35.2569 0.722714C34.7217 0.614108 34.1671 0.669848 33.663 0.882886C33.1589 1.09592 32.7281 1.45669 32.425 1.91956C32.1218 2.38244 31.9601 2.92663 31.9601 3.48332C31.9608 4.22958 32.2517 4.94504 32.7689 5.47273C33.2861 6.00041 33.9873 6.29721 34.7187 6.29801ZM34.7187 2.07598C34.9915 2.07598 35.2582 2.15851 35.485 2.31316C35.7118 2.4678 35.8886 2.68759 35.993 2.94475C36.0974 3.20191 36.1247 3.48488 36.0715 3.75788C36.0183 4.03088 35.8869 4.28164 35.694 4.47846C35.5011 4.67528 35.2553 4.80932 34.9878 4.86362C34.7202 4.91793 34.4429 4.89006 34.1908 4.78354C33.9388 4.67702 33.7234 4.49664 33.5718 4.2652C33.4203 4.03376 33.3394 3.76167 33.3394 3.48332C33.3398 3.1102 33.4852 2.75248 33.7438 2.48865C34.0024 2.22481 34.353 2.0764 34.7187 2.07598Z" fill="#733506"/>
<path d="M17.4768 4.18713C17.8577 4.18713 18.1664 3.87209 18.1664 3.48346C18.1664 3.09483 17.8577 2.77979 17.4768 2.77979C17.0959 2.77979 16.7871 3.09483 16.7871 3.48346C16.7871 3.87209 17.0959 4.18713 17.4768 4.18713Z" fill="#733506"/>
<path d="M25.7531 2.77942C26.134 2.77942 26.4428 2.46437 26.4428 2.07574C26.4428 1.68712 26.134 1.37207 25.7531 1.37207C25.3722 1.37207 25.0635 1.68712 25.0635 2.07574C25.0635 2.46437 25.3722 2.77942 25.7531 2.77942Z" fill="#733506"/>
<path d="M2.99434 14.0382C3.37523 14.0382 3.684 13.7232 3.684 13.3345C3.684 12.9459 3.37523 12.6309 2.99434 12.6309C2.61346 12.6309 2.30469 12.9459 2.30469 13.3345C2.30469 13.7232 2.61346 14.0382 2.99434 14.0382Z" fill="#733506"/>
<path d="M36.7873 9.81652C37.1682 9.81652 37.477 9.50148 37.477 9.11285C37.477 8.72422 37.1682 8.40918 36.7873 8.40918C36.4064 8.40918 36.0977 8.72422 36.0977 9.11285C36.0977 9.50148 36.4064 9.81652 36.7873 9.81652Z" fill="#733506"/>
<path d="M39.5457 21.0752H39.5205C39.9751 20.2472 40.2169 19.3153 40.2233 18.3662C40.2297 17.4172 40.0005 16.482 39.557 15.6477C39.1135 14.8135 38.4702 14.1074 37.6871 13.5953C36.904 13.0832 36.0065 12.7817 35.0784 12.719C35.0431 12.359 34.9723 12.0035 34.8669 11.658C34.6171 10.821 34.1791 10.055 33.5879 9.42126C32.9966 8.78748 32.2684 8.3034 31.4613 8.0076C30.6542 7.7118 29.7906 7.61246 28.9392 7.7175C28.0879 7.82255 27.2723 8.12907 26.5576 8.61263C26.042 8.03328 25.3982 7.58793 24.6799 7.3136C23.9615 7.03928 23.1894 6.94392 22.4277 7.03545C21.6659 7.12697 20.9366 7.40275 20.3004 7.83984C19.6642 8.27692 19.1395 8.86268 18.7698 9.5484C18.0827 9.23193 17.3325 9.08426 16.5793 9.11726C15.8261 9.15025 15.091 9.36298 14.433 9.73837C13.775 10.1138 13.2125 10.6414 12.7905 11.2788C12.3686 11.9162 12.099 12.6457 12.0035 13.4087C11.5457 12.7358 10.8712 12.2479 10.0973 12.03C9.32341 11.812 8.49913 11.8778 7.76787 12.2159C7.03662 12.554 6.44466 13.1429 6.09499 13.8803C5.74533 14.6176 5.66008 15.4567 5.85409 16.2516C5.23144 16.0991 4.57944 16.1272 3.97157 16.3325C3.3637 16.5379 2.82414 16.9124 2.4137 17.4139C2.00325 17.9153 1.73825 18.5238 1.64855 19.1707C1.55886 19.8176 1.64804 20.4772 1.90604 21.0752H0.925012C0.834439 21.0751 0.744748 21.0933 0.661065 21.1287C0.577381 21.164 0.501345 21.2159 0.4373 21.2812C0.373255 21.3466 0.322456 21.4241 0.287806 21.5095C0.253156 21.5949 0.235333 21.6864 0.235357 21.7788V23.1862C0.232722 26.8542 1.19022 30.4564 3.00888 33.6204C4.82754 36.7844 7.44136 39.3954 10.5802 41.1836V44.2964C10.5802 44.3888 10.598 44.4803 10.6326 44.5657C10.6673 44.6511 10.7181 44.7286 10.7821 44.794C10.8462 44.8593 10.9222 44.9112 11.0059 44.9465C11.0896 44.9819 11.1793 45.0001 11.2698 45H29.2009C29.2914 45.0001 29.3811 44.9819 29.4648 44.9465C29.5485 44.9112 29.6245 44.8593 29.6886 44.794C29.7526 44.7286 29.8034 44.6511 29.8381 44.5657C29.8727 44.4803 29.8905 44.3888 29.8905 44.2964V41.1836C33.0293 39.3954 35.6432 36.7844 37.4618 33.6204C39.2805 30.4564 40.238 26.8542 40.2353 23.1862V21.7788C40.2354 21.6864 40.2175 21.5949 40.1829 21.5095C40.1483 21.4241 40.0975 21.3466 40.0334 21.2812C39.9694 21.2159 39.8933 21.164 39.8096 21.1287C39.726 21.0933 39.6363 21.0751 39.5457 21.0752ZM28.3812 9.27215C29.4306 8.94545 30.5641 9.05695 31.533 9.58215C32.5019 10.1074 33.2269 11.0034 33.5489 12.0735C33.679 12.5025 33.7384 12.9505 33.7247 13.3994C33.7221 13.497 33.7393 13.5941 33.7754 13.6845C33.8114 13.7749 33.8655 13.8567 33.9342 13.9247C34.0026 13.9931 34.0844 14.0459 34.1743 14.0798C34.2641 14.1138 34.3599 14.128 34.4554 14.1216C35.2668 14.0683 36.0754 14.261 36.7796 14.6756C37.4839 15.0901 38.0522 15.7079 38.4131 16.4512C38.774 17.1945 38.9114 18.0301 38.808 18.8529C38.7046 19.6757 38.365 20.4488 37.8319 21.0752H32.6419L31.4604 17.1397C31.4065 16.9617 31.2855 16.8129 31.1242 16.7257C30.9628 16.6386 30.7741 16.6203 30.5996 16.6749C30.425 16.7295 30.2788 16.8525 30.193 17.0169C30.1071 17.1813 30.0887 17.3737 30.1417 17.552L31.1994 21.0752H28.4772C28.3316 19.213 27.5758 17.4552 26.3315 16.0849C26.3232 15.9663 26.2853 15.8519 26.2213 15.7526C25.8428 15.2076 25.5962 14.5787 25.502 13.9176C25.4078 13.2565 25.4686 12.5821 25.6794 11.9496C25.8902 11.3172 26.245 10.7447 26.7147 10.2793C27.1843 9.81385 27.7555 9.4687 28.3812 9.27215ZM9.27058 21.0752C9.43054 20.2811 9.85392 19.5676 10.4693 19.0549C11.0848 18.5421 11.8546 18.2616 12.6491 18.2605C12.6705 18.2605 12.6909 18.2645 12.7121 18.2649C12.3148 19.1522 12.071 20.103 11.9914 21.0752H9.27058ZM6.49529 21.0752C6.60528 20.0049 6.98493 18.982 7.59729 18.1059C8.34747 17.0182 9.41735 16.2023 10.6521 15.7761C11.8869 15.35 13.2225 15.3357 14.4658 15.7353C14.0956 16.1014 13.7604 16.5026 13.4649 16.9336C13.1958 16.8828 12.9228 16.8559 12.6491 16.8531C11.4894 16.8552 10.3692 17.2829 9.49296 18.0581C8.61674 18.8332 8.04305 19.9041 7.87667 21.0752H6.49529ZM14.3605 18.087C15.118 16.8349 16.2409 15.8565 17.5715 15.2892C18.902 14.7218 20.3734 14.594 21.7787 14.9237C23.1841 15.2534 24.453 16.0241 25.4071 17.1274C26.3611 18.2307 26.9525 19.6113 27.098 21.0752H13.3865C13.4864 20.017 13.8194 18.9955 14.3605 18.087ZM16.7871 10.5201C17.4706 10.5195 18.1387 10.7277 18.7052 11.1179C18.7926 11.178 18.8924 11.2168 18.9968 11.2314C19.1012 11.246 19.2075 11.2359 19.3075 11.202C19.4076 11.1682 19.4987 11.1114 19.5738 11.036C19.649 10.9606 19.7062 10.8686 19.741 10.7671C19.9359 10.1949 20.2727 9.68384 20.7185 9.28372C21.1643 8.8836 21.704 8.608 22.2851 8.48374C22.8662 8.35948 23.4689 8.39078 24.0347 8.5746C24.6004 8.75843 25.1099 9.08851 25.5136 9.53275C24.9412 10.1769 24.5227 10.9475 24.2908 11.7843C24.0589 12.621 24.0199 13.5011 24.1769 14.3557C22.8659 13.6289 21.3863 13.2786 19.8955 13.3421C18.4048 13.4055 16.9589 13.8804 15.7118 14.716C14.9617 14.3724 14.1612 14.1577 13.3425 14.0806C13.3423 14.0662 13.3388 14.0528 13.3388 14.0384C13.3399 13.1056 13.7035 12.2114 14.35 11.5518C14.9964 10.8922 15.8729 10.5212 16.7871 10.5201ZM9.20087 13.3348C9.53624 13.3344 9.8666 13.4177 10.1632 13.5773C10.4599 13.737 10.7138 13.9681 10.9029 14.2507C9.54494 14.5841 8.30329 15.293 7.31437 16.2995C7.17241 15.9788 7.1117 15.6268 7.13782 15.2759C7.16394 14.925 7.27606 14.5864 7.46387 14.2913C7.65168 13.9961 7.90916 13.7539 8.21267 13.5867C8.51618 13.4196 8.85598 13.333 9.20087 13.3348ZM2.99398 19.6678C2.99187 19.295 3.08712 18.9284 3.26992 18.6056C3.45272 18.2828 3.71648 18.0155 4.03408 17.8312C4.35168 17.6469 4.71166 17.5522 5.077 17.5569C5.44235 17.5616 5.79988 17.6655 6.11283 17.8579C5.54268 18.8393 5.19551 19.9387 5.09687 21.0751H3.53997C3.1927 20.6917 2.99802 20.1899 2.99398 19.6678ZM28.5112 43.5927H11.9595V41.4817H28.5112V43.5927ZM29.0166 40.0743H11.4541C8.99214 38.7099 6.86017 36.8013 5.21407 34.4881C3.56796 32.1749 2.44933 29.5155 1.93996 26.7045H27.1319C27.3148 26.7045 27.4902 26.6304 27.6196 26.4984C27.7489 26.3665 27.8216 26.1875 27.8216 26.0009C27.8216 25.8142 27.7489 25.6353 27.6196 25.5033C27.4902 25.3713 27.3148 25.2972 27.1319 25.2972H1.73812C1.65923 24.5964 1.61802 23.8916 1.61467 23.1862V22.4825H32.1298L32.1319 22.4829L32.1342 22.4825H38.856V23.1862C38.8527 23.8916 38.8115 24.5964 38.7326 25.2972H31.2698C31.0869 25.2972 30.9115 25.3713 30.7822 25.5033C30.6528 25.6353 30.5802 25.8142 30.5802 26.0009C30.5802 26.1875 30.6528 26.3665 30.7822 26.4984C30.9115 26.6304 31.0869 26.7045 31.2698 26.7045H38.5307C38.0214 29.5155 36.9027 32.1749 35.2566 34.4881C33.6105 36.8013 31.4786 38.7099 29.0166 40.0743Z" fill="#733506"/>
</svg>
