<svg width="37.000000" height="47.000000" viewBox="0 0 37 47" fill="none" xmlns="http://www.w3.org/2000/svg" xmlns:xlink="http://www.w3.org/1999/xlink">
	<desc>
			Created with Pixso.
	</desc>
	<defs/>
	<path id="Vector" d="M36 18.67L36 18.95L19.5 18.95C18.74 17.71 17.68 16.67 16.45 15.92C17.19 13.39 18.96 11.32 21.25 10.19L21.25 5.75L30.78 5.75L30.78 10.2C33.86 11.72 36 14.94 36 18.67Z" fill="#733506" fill-opacity="1.000000" fill-rule="nonzero"/>
	<path id="Vector" d="M19.5 18.96C20.42 20.41 20.94 22.14 20.94 24L20.94 32.04L36 32.04L36 18.96L19.5 18.96ZM29.69 27.59L26.59 29.72C26.57 29.73 26.55 29.73 26.54 29.7L24.46 26.52C24.45 26.5 24.45 26.49 24.48 26.47C24.45 26.49 24.44 26.48 24.43 26.46L22.35 23.27C22.34 23.25 22.34 23.24 22.37 23.22L25.48 21.1C25.5 21.08 25.51 21.09 25.52 21.11L27.59 24.3C27.61 24.31 27.6 24.33 27.58 24.35C27.6 24.33 27.62 24.34 27.63 24.36L29.71 27.54C29.71 27.56 29.71 27.58 29.69 27.59Z" fill="#F2A56B" fill-opacity="1.000000" fill-rule="nonzero"/>
	<path id="Vector" d="M36 32.04L36 37.48C36 39.24 34.59 40.67 32.87 40.67L20.94 40.67L20.94 32.04L36 32.04Z" fill="#733506" fill-opacity="1.000000" fill-rule="nonzero"/>
	<path id="Vector" d="M31.43 3.82L31.43 5.77L20.62 5.77L20.62 3.82C20.62 2.26 21.85 1 23.38 1L28.67 1C30.19 1 31.43 2.26 31.43 3.82Z" fill="#F2A56B" fill-opacity="1.000000" fill-rule="nonzero"/>
	<path id="Vector" d="M27.59 24.29C27.61 24.31 27.6 24.32 27.58 24.34L24.47 26.46C24.45 26.48 24.43 26.47 24.42 26.45L22.34 23.26C22.34 23.25 22.34 23.23 22.36 23.21L25.47 21.09C25.49 21.07 25.51 21.08 25.52 21.1L27.59 24.29Z" fill="#AC6530" fill-opacity="1.000000" fill-rule="nonzero"/>
	<path id="Vector" d="M29.71 27.54C29.71 27.56 29.71 27.58 29.69 27.59L26.58 29.72C26.56 29.73 26.54 29.73 26.53 29.7L24.45 26.51C24.45 26.49 24.45 26.48 24.47 26.46L27.58 24.34C27.6 24.32 27.62 24.33 27.63 24.35L29.71 27.54Z" fill="#AC6530" fill-opacity="1.000000" fill-rule="nonzero"/>
	<path id="Vector" d="M20.94 24L20.94 24.27L1 24.27L1 24C1 20.27 3.12 17.03 6.2 15.52L6.2 11.08L15.73 11.08L15.73 15.53C15.98 15.65 16.21 15.79 16.45 15.93C17.68 16.68 18.74 17.73 19.5 18.97C20.42 20.41 20.94 22.14 20.94 24Z" fill="#733506" fill-opacity="1.000000" fill-rule="nonzero"/>
	<path id="Vector" d="M1 24.27L1 37.36L20.94 37.36L20.94 24.27L1 24.27ZM14.64 32.9L11.53 35.03C11.51 35.04 11.49 35.04 11.49 35.02L9.41 31.83C9.4 31.82 9.4 31.8 9.42 31.78C9.4 31.8 9.38 31.79 9.38 31.78L7.3 28.58C7.29 28.57 7.29 28.55 7.32 28.54L10.42 26.41C10.44 26.4 10.46 26.4 10.47 26.42L12.54 29.62C12.55 29.63 12.54 29.65 12.53 29.66C12.54 29.65 12.57 29.65 12.58 29.67L14.65 32.86C14.66 32.87 14.65 32.89 14.64 32.9Z" fill="#F2A56B" fill-opacity="1.000000" fill-rule="nonzero"/>
	<path id="Vector" d="M20.94 37.36L20.94 42.8C20.94 44.57 19.53 45.99 17.82 45.99L4.11 45.99C2.4 45.99 1 44.57 1 42.8L1 37.36L20.94 37.36Z" fill="#733506" fill-opacity="1.000000" fill-rule="nonzero"/>
	<path id="Vector" d="M16.37 9.14L16.37 11.08L5.56 11.08L5.56 9.14C5.56 7.58 6.8 6.32 8.33 6.32L13.62 6.32C15.14 6.32 16.37 7.58 16.37 9.14Z" fill="#F2A56B" fill-opacity="1.000000" fill-rule="nonzero"/>
	<path id="Vector" d="M12.53 29.61C12.55 29.62 12.54 29.65 12.52 29.65L9.42 31.78C9.39 31.79 9.38 31.78 9.37 31.77L7.29 28.58C7.28 28.56 7.28 28.54 7.31 28.53L10.41 26.4C10.43 26.39 10.45 26.4 10.46 26.41L12.53 29.61ZM14.66 32.86C14.66 32.88 14.66 32.89 14.64 32.9L11.53 35.03C11.51 35.04 11.5 35.04 11.49 35.02L9.41 31.83C9.4 31.82 9.4 31.8 9.42 31.78L12.53 29.66C12.55 29.65 12.57 29.65 12.58 29.67L14.66 32.86Z" fill="#AC6530" fill-opacity="1.000000" fill-rule="nonzero"/>
	<path id="Vector" d="M36 18.95L19.5 18.95C18.74 17.71 17.68 16.67 16.45 15.92C17.19 13.39 18.96 11.32 21.25 10.19L21.25 5.75L30.78 5.75L30.78 10.2C33.86 11.72 36 14.94 36 18.67L36 18.95ZM20.94 24L20.94 32.04L36 32.04L36 18.96L19.5 18.96C20.42 20.41 20.94 22.14 20.94 24ZM26.59 29.72C26.57 29.73 26.55 29.73 26.54 29.7L24.46 26.52C24.45 26.5 24.45 26.49 24.48 26.47C24.45 26.49 24.44 26.48 24.43 26.46L22.35 23.27C22.34 23.25 22.34 23.24 22.37 23.22L25.48 21.1C25.5 21.08 25.51 21.09 25.52 21.11L27.59 24.3C27.61 24.31 27.6 24.33 27.58 24.35C27.6 24.33 27.62 24.34 27.63 24.36L29.71 27.54C29.71 27.56 29.71 27.58 29.69 27.59L26.59 29.72Z" stroke="#23211F" stroke-opacity="1.000000" stroke-width="2.000000" stroke-linejoin="round"/>
	<path id="Vector" d="M36 37.48C36 39.24 34.59 40.67 32.87 40.67L20.94 40.67L20.94 32.04L36 32.04L36 37.48ZM31.43 5.77L20.62 5.77L20.62 3.82C20.62 2.26 21.85 1 23.38 1L28.67 1C30.19 1 31.43 2.26 31.43 3.82L31.43 5.77ZM27.58 24.34L24.47 26.46C24.45 26.48 24.43 26.47 24.42 26.45L22.34 23.26C22.34 23.25 22.34 23.23 22.36 23.21L25.47 21.09C25.49 21.07 25.51 21.08 25.52 21.1L27.59 24.29C27.61 24.31 27.6 24.32 27.58 24.34Z" stroke="#23211F" stroke-opacity="1.000000" stroke-width="2.000000" stroke-linejoin="round"/>
	<path id="Vector" d="M29.69 27.59L26.58 29.72C26.56 29.73 26.54 29.73 26.53 29.7L24.45 26.51C24.45 26.49 24.45 26.48 24.47 26.46L27.58 24.34C27.6 24.32 27.62 24.33 27.63 24.35L29.71 27.54C29.71 27.56 29.71 27.58 29.69 27.59ZM20.94 24.27L1 24.27L1 24C1 20.27 3.12 17.03 6.2 15.52L6.2 11.08L15.73 11.08L15.73 15.53C15.98 15.65 16.21 15.79 16.45 15.93C17.68 16.68 18.74 17.73 19.5 18.97C20.42 20.41 20.94 22.14 20.94 24L20.94 24.27Z" stroke="#23211F" stroke-opacity="1.000000" stroke-width="2.000000" stroke-linejoin="round"/>
	<path id="Vector" d="M1 37.36L1 42.8C1 44.57 2.4 45.99 4.11 45.99L17.82 45.99C19.53 45.99 20.94 44.57 20.94 42.8L20.94 37.36L20.94 24.27L1 24.27L1 37.36ZM1 37.36L20.94 37.36M11.53 35.03C11.51 35.04 11.49 35.04 11.49 35.02L9.41 31.83C9.4 31.82 9.4 31.8 9.42 31.78C9.4 31.8 9.38 31.79 9.38 31.78L7.3 28.58C7.29 28.57 7.29 28.55 7.32 28.54L10.42 26.41C10.44 26.4 10.46 26.4 10.47 26.42L12.54 29.62C12.55 29.63 12.54 29.65 12.53 29.66C12.54 29.65 12.57 29.65 12.58 29.67L14.65 32.86C14.66 32.87 14.65 32.89 14.64 32.9L11.53 35.03ZM16.37 11.08L5.56 11.08L5.56 9.14C5.56 7.58 6.8 6.32 8.33 6.32L13.62 6.32C15.14 6.32 16.37 7.58 16.37 9.14L16.37 11.08Z" stroke="#23211F" stroke-opacity="1.000000" stroke-width="2.000000" stroke-linejoin="round"/>
	<path id="Vector" d="M12.52 29.65L9.42 31.78C9.39 31.79 9.38 31.78 9.37 31.77L7.29 28.58C7.28 28.56 7.28 28.54 7.31 28.53L10.41 26.4C10.43 26.39 10.45 26.4 10.46 26.41L12.53 29.61C12.55 29.62 12.54 29.65 12.52 29.65ZM14.64 32.9L11.53 35.03C11.51 35.04 11.5 35.04 11.49 35.02L9.41 31.83C9.4 31.82 9.4 31.8 9.42 31.78L12.53 29.66C12.55 29.65 12.57 29.65 12.58 29.67L14.66 32.86C14.66 32.88 14.66 32.89 14.64 32.9Z" stroke="#23211F" stroke-opacity="1.000000" stroke-width="2.000000" stroke-linejoin="round"/>
</svg>
