<svg width="37" height="47" viewBox="0 0 37 47" fill="none" xmlns="http://www.w3.org/2000/svg">
<path d="M35.9999 18.6793V18.9569H19.5068C18.7427 17.7162 17.684 16.6713 16.4502 15.9204C17.1984 13.3982 18.9655 11.3249 21.258 10.1985V5.75806H30.7861V10.2066C33.8666 11.7249 35.9999 14.9491 35.9999 18.6793Z" fill="#733506"/>
<path d="M19.5068 18.9651C20.4222 20.418 20.9476 22.1485 20.9476 24.0014V32.0414H35.9999V18.9651H19.5068ZM29.6956 27.5929L26.5912 29.7233C26.5753 29.7315 26.5514 29.7315 26.5434 29.707L24.4659 26.5236C24.4579 26.5073 24.4579 26.4909 24.4818 26.4746C24.4579 26.4909 24.442 26.4828 24.4341 26.4664L22.3565 23.2749C22.3485 23.2586 22.3485 23.2423 22.3724 23.2259L25.4848 21.1037C25.5007 21.0873 25.5166 21.0955 25.5246 21.1118L27.5942 24.3034C27.6101 24.3197 27.6021 24.336 27.5862 24.3524C27.6021 24.336 27.626 24.3442 27.634 24.3605L29.7115 27.5439C29.7195 27.5602 29.7115 27.5847 29.6956 27.5929Z" fill="#F2A56B"/>
<path d="M35.9996 32.042V37.4864C35.9996 39.2413 34.5906 40.6779 32.8793 40.6779H20.9473V32.042H35.9996Z" fill="#733506"/>
<path d="M31.4307 3.82423V5.77508H20.6211V3.82423C20.6211 2.26519 21.8549 1 23.3832 1H28.6766C30.1969 1 31.4307 2.26519 31.4307 3.82423Z" fill="#F2A56B"/>
<path d="M27.5941 24.2955C27.61 24.3118 27.6021 24.3282 27.5862 24.3445L24.4738 26.4668C24.4499 26.4831 24.434 26.4749 24.4261 26.4586L22.3485 23.267C22.3406 23.2507 22.3406 23.2344 22.3644 23.2181L25.4768 21.0958C25.4927 21.0795 25.5166 21.0877 25.5245 21.104L27.5941 24.2955Z" fill="#AC6530"/>
<path d="M29.7115 27.5445C29.7194 27.569 29.7115 27.5854 29.6955 27.5935L26.5832 29.7239C26.5673 29.7321 26.5434 29.7321 26.5354 29.7076L24.4579 26.5161C24.4499 26.4997 24.4499 26.4834 24.4738 26.4671L27.5862 24.3448C27.6021 24.3285 27.626 24.3367 27.6339 24.353L29.7115 27.5445Z" fill="#AC6530"/>
<path d="M20.9477 24.0017V24.2793H1V24.0017C1 20.2715 3.12531 17.0391 6.20582 15.529V11.0886H15.7339V15.5372C15.9807 15.6596 16.2195 15.7902 16.4503 15.9372C17.6841 16.6881 18.7428 17.7329 19.5069 18.9736C20.4223 20.4184 20.9477 22.1488 20.9477 24.0017Z" fill="#733506"/>
<path d="M1 24.2793V37.3638H20.9477V24.2793H1ZM14.6434 32.9071L11.531 35.0375C11.5151 35.0457 11.4992 35.0457 11.4912 35.0212L9.41368 31.8378C9.40573 31.8215 9.40573 31.8051 9.42961 31.7888C9.40573 31.8051 9.38981 31.797 9.38185 31.7807L7.30429 28.5891C7.29633 28.5728 7.29633 28.5565 7.32021 28.5401L10.4246 26.4179C10.4405 26.4016 10.4644 26.4097 10.4724 26.426L12.542 29.6257C12.5579 29.6339 12.5499 29.6584 12.534 29.6666C12.5499 29.6502 12.5738 29.6584 12.5818 29.6747L14.6593 32.8663C14.6673 32.8744 14.6593 32.8989 14.6434 32.9071Z" fill="#F2A56B"/>
<path d="M20.9477 37.3638V42.8082C20.9477 44.5713 19.5388 45.9997 17.8274 45.9997H4.11235C2.40095 45.9997 1 44.5713 1 42.8082V37.3638H20.9477Z" fill="#733506"/>
<path d="M16.379 9.14601V11.0887H5.56934V9.14601C5.56934 7.58697 6.80313 6.32178 8.33144 6.32178H13.6248C15.1452 6.32178 16.379 7.58697 16.379 9.14601Z" fill="#F2A56B"/>
<path d="M12.5344 29.6179C12.5503 29.6261 12.5424 29.6505 12.5265 29.6587L9.42206 31.781C9.39818 31.7973 9.38226 31.7891 9.3743 31.7728L7.29675 28.5813C7.28879 28.5649 7.28879 28.5486 7.31267 28.5323L10.4171 26.41C10.433 26.3937 10.4569 26.4019 10.4648 26.4182L12.5344 29.6179ZM14.6597 32.8666C14.6677 32.8829 14.6597 32.8992 14.6438 32.9074L11.5315 35.0378C11.5155 35.046 11.4996 35.046 11.4917 35.0215L9.4141 31.8381C9.40614 31.8218 9.40614 31.8054 9.43002 31.7891L12.5344 29.6669C12.5503 29.6505 12.5742 29.6587 12.5822 29.675L14.6597 32.8666Z" fill="#AC6530"/>
<path d="M35.9999 18.6793V18.9569H19.5068C18.7427 17.7162 17.684 16.6713 16.4502 15.9204C17.1984 13.3982 18.9655 11.3249 21.258 10.1985V5.75806H30.7861V10.2066C33.8666 11.7249 35.9999 14.9491 35.9999 18.6793ZM19.5068 18.965C20.4222 20.4179 20.9476 22.1484 20.9476 24.0013V32.0414H35.9999V18.965H19.5068ZM29.6956 27.5928L26.5912 29.7232C26.5753 29.7314 26.5514 29.7314 26.5434 29.7069L24.4659 26.5235C24.4579 26.5072 24.4579 26.4909 24.4818 26.4745C24.4579 26.4909 24.442 26.4827 24.434 26.4664L22.3565 23.2748C22.3485 23.2585 22.3485 23.2422 22.3724 23.2259L25.4848 21.1036C25.5007 21.0873 25.5166 21.0954 25.5246 21.1118L27.5941 24.3033C27.6101 24.3196 27.6021 24.336 27.5862 24.3523C27.6021 24.336 27.626 24.3441 27.6339 24.3604L29.7115 27.5438C29.7195 27.5602 29.7115 27.5846 29.6956 27.5928Z" stroke="#23211F" stroke-width="2" stroke-miterlimit="10" stroke-linejoin="round"/>
<path d="M35.9998 32.0421V37.4865C35.9998 39.2414 34.5908 40.678 32.8794 40.678H20.9475V32.0421H35.9998ZM31.4307 3.82423V5.77508H20.6211V3.82423C20.6211 2.26519 21.8549 1 23.3832 1H28.6766C30.1969 1 31.4307 2.26519 31.4307 3.82423ZM27.594 24.2958C27.6099 24.3122 27.602 24.3285 27.5861 24.3448L24.4737 26.4671C24.4498 26.4834 24.4339 26.4752 24.426 26.4589L22.3484 23.2674C22.3404 23.251 22.3404 23.2347 22.3643 23.2184L25.4767 21.0961C25.4926 21.0798 25.5165 21.088 25.5244 21.1043L27.594 24.2958Z" stroke="#23211F" stroke-width="2" stroke-miterlimit="10" stroke-linejoin="round"/>
<path d="M29.7116 27.5443C29.7196 27.5688 29.7116 27.5851 29.6957 27.5932L26.5833 29.7237C26.5674 29.7318 26.5435 29.7318 26.5356 29.7073L24.458 26.5158C24.4501 26.4995 24.4501 26.4831 24.4739 26.4668L27.5863 24.3446C27.6022 24.3282 27.6261 24.3364 27.634 24.3527L29.7116 27.5443ZM20.9477 24.0017V24.2793H1V24.0017C1 20.2715 3.12531 17.0391 6.20582 15.529V11.0886H15.7339V15.5372C15.9807 15.6596 16.2195 15.7902 16.4503 15.9372C17.6841 16.6881 18.7428 17.7329 19.5069 18.9736C20.4223 20.4184 20.9477 22.1488 20.9477 24.0017Z" stroke="#23211F" stroke-width="2" stroke-miterlimit="10" stroke-linejoin="round"/>
<path d="M1 37.3638V24.2793H20.9477V37.3638M1 37.3638H20.9477M1 37.3638V42.8082C1 44.5714 2.40095 45.9998 4.11235 45.9998H17.8274C19.5388 45.9998 20.9477 44.5714 20.9477 42.8082V37.3638M14.6434 32.9071L11.531 35.0375C11.5151 35.0457 11.4992 35.0457 11.4912 35.0212L9.41369 31.8378C9.40573 31.8215 9.40573 31.8052 9.42961 31.7888C9.40573 31.8052 9.38981 31.797 9.38185 31.7807L7.30429 28.5891C7.29633 28.5728 7.29633 28.5565 7.32021 28.5402L10.4246 26.4179C10.4405 26.4016 10.4644 26.4097 10.4724 26.4261L12.542 29.6258C12.5579 29.6339 12.5499 29.6584 12.534 29.6666C12.5499 29.6503 12.5738 29.6584 12.5818 29.6748L14.6593 32.8663C14.6673 32.8745 14.6593 32.8989 14.6434 32.9071ZM16.3787 9.14601V11.0887H5.56902V9.14601C5.56902 7.58697 6.80282 6.32178 8.33113 6.32178H13.6245C15.1449 6.32178 16.3787 7.58697 16.3787 9.14601Z" stroke="#23211F" stroke-width="2" stroke-miterlimit="10" stroke-linejoin="round"/>
<path d="M12.5344 29.6179C12.5503 29.6261 12.5424 29.6505 12.5265 29.6587L9.42206 31.781C9.39818 31.7973 9.38226 31.7891 9.3743 31.7728L7.29675 28.5813C7.28879 28.5649 7.28879 28.5486 7.31267 28.5323L10.4171 26.41C10.433 26.3937 10.4569 26.4019 10.4648 26.4182L12.5344 29.6179ZM14.6597 32.8666C14.6677 32.8829 14.6597 32.8992 14.6438 32.9074L11.5315 35.0378C11.5155 35.046 11.4996 35.046 11.4917 35.0215L9.4141 31.8381C9.40614 31.8218 9.40614 31.8054 9.43002 31.7891L12.5344 29.6669C12.5503 29.6505 12.5742 29.6587 12.5822 29.675L14.6597 32.8666Z" stroke="#23211F" stroke-width="2" stroke-miterlimit="10" stroke-linejoin="round"/>
</svg>
