<svg width="40.000000" height="45.000000" viewBox="0 0 40 45" fill="none" xmlns="http://www.w3.org/2000/svg" xmlns:xlink="http://www.w3.org/1999/xlink">
	<desc>
			Created with Pixso.
	</desc>
	<defs/>
	<path d="M17.81 6.9C16.05 10.24 11 11.74 11 11.74C11 11.74 8.82 7.83 10.58 4.49C12.34 1.15 17.39 -0.35 17.39 -0.35C17.39 -0.35 19.57 3.56 17.81 6.9Z" fill="#DEA67B" fill-opacity="1.000000" fill-rule="nonzero"/>
	<path d="M17.81 6.9C16.05 10.24 11 11.74 11 11.74C11 11.74 10.91 11.57 10.77 11.26C12.4 10.51 14.65 9.16 15.71 7.15C17.11 4.52 16.05 1.54 15.53 0.39C16.6 -0.11 17.4 -0.35 17.4 -0.35C17.4 -0.35 19.58 3.56 17.81 6.9Z" fill="#D28951" fill-opacity="1.000000" fill-rule="nonzero"/>
	<path d="M2.78 8.69C5.71 11.47 11.08 11.73 11.08 11.73C11.08 11.73 11.71 7.49 8.79 4.71C5.87 1.93 0.49 1.67 0.49 1.67C0.49 1.67 -0.14 5.92 2.78 8.69Z" fill="#DEA67B" fill-opacity="1.000000" fill-rule="nonzero"/>
	<path d="M11.13 11.21C11.12 11.54 11.08 11.73 11.08 11.73C11.08 11.73 5.71 11.47 2.78 8.69C-0.14 5.92 0.49 1.67 0.49 1.67C0.49 1.67 1.34 1.71 2.54 1.93C2.47 3.15 2.57 6.25 4.88 8.45C6.65 10.12 9.3 10.88 11.13 11.21Z" fill="#EBC4A6" fill-opacity="1.000000" fill-rule="nonzero"/>
	<path d="M23.08 39.69L30.32 4.02L38.39 2.35C39.22 2.18 39.72 1.5 39.5 0.85C39.28 0.19 38.44 -0.21 37.61 -0.03L28.54 1.84C27.95 1.96 27.5 2.36 27.4 2.83L19.96 39.56L23.08 39.69Z" fill="#FCBB89" fill-opacity="1.000000" fill-rule="nonzero"/>
	<path d="M38.39 2.36L30.32 4.02L23.08 39.68L19.96 39.56L20.12 38.72L21.7 38.78L28.78 3.89C28.88 3.42 29.31 3.03 29.9 2.91L36.92 1.46C37.74 1.29 38.31 0.66 38.14 0C38.14 -0.03 38.13 -0.05 38.12 -0.08C38.76 -0.04 39.34 0.32 39.5 0.84C39.71 1.51 39.21 2.19 38.39 2.36Z" fill="#F9A463" fill-opacity="1.000000" fill-rule="nonzero"/>
	<path d="M31.65 14.44L8.27 14.44C5.52 15.17 3.53 17.23 3.53 19.65L3.53 40.14C3.53 42.24 5.67 43.94 8.32 43.94L31.6 43.94C34.25 43.94 36.4 42.24 36.4 40.14L36.4 19.65C36.39 17.23 34.41 15.17 31.65 14.44Z" fill="#FDE5D3" fill-opacity="1.000000" fill-rule="nonzero"/>
	<path d="M36.39 19.65L36.39 40.14C36.39 42.24 34.24 43.94 31.59 43.94L27.98 43.94C30.63 43.94 32.78 42.24 32.78 40.14L32.78 19.65C32.78 17.23 30.79 15.17 28.05 14.44L31.66 14.44C34.41 15.17 36.39 17.23 36.39 19.65Z" fill="#FBCBA6" fill-opacity="1.000000" fill-rule="nonzero"/>
	<path d="M11.92 43.94L8.31 43.94C5.66 43.94 3.53 42.24 3.53 40.14L3.53 19.65C3.53 17.23 5.51 15.17 8.27 14.44L11.88 14.44C9.12 15.17 7.14 17.23 7.14 19.65L7.14 40.14C7.14 42.24 9.28 43.94 11.92 43.94Z" fill="#FEF0E5" fill-opacity="1.000000" fill-rule="nonzero"/>
	<path d="M7.14 20.26L7.14 40.13C7.14 40.65 7.67 41.07 8.32 41.07L31.6 41.07C32.26 41.07 32.79 40.65 32.79 40.13L32.79 20.26L7.14 20.26Z" fill="#BEA490" fill-opacity="1.000000" fill-rule="nonzero"/>
	<path d="M32.78 20.26L32.78 40.13C32.78 40.65 32.25 41.08 31.59 41.08L27.98 41.08C28.63 41.08 29.16 40.66 29.16 40.13L29.16 20.26L32.78 20.26Z" fill="#A7856B" fill-opacity="1.000000" fill-rule="nonzero"/>
	<path d="M11.92 41.07L8.31 41.07C7.66 41.07 7.13 40.65 7.13 40.13L7.13 20.26L10.74 20.26L10.74 40.13C10.75 40.65 11.27 41.07 11.92 41.07Z" fill="#D3C1B4" fill-opacity="1.000000" fill-rule="nonzero"/>
	<path d="M33.72 12.45C33.72 13.55 32.6 14.44 31.21 14.44L8.7 14.44C7.32 14.44 6.2 13.55 6.2 12.45C6.2 11.9 6.48 11.41 6.94 11.05C7.39 10.69 8.01 10.46 8.71 10.46L31.21 10.46C32.59 10.46 33.72 11.35 33.72 12.45Z" fill="#FBCBA6" fill-opacity="1.000000" fill-rule="nonzero"/>
	<path d="M33.72 12.45C33.72 13.55 32.6 14.44 31.21 14.44L27.6 14.44C28.99 14.44 30.11 13.55 30.11 12.45C30.11 11.35 28.99 10.46 27.6 10.46L31.21 10.46C32.59 10.46 33.72 11.35 33.72 12.45Z" fill="#F9B17A" fill-opacity="1.000000" fill-rule="nonzero"/>
	<path d="M12.31 14.44L8.7 14.44C7.32 14.44 6.2 13.55 6.2 12.45C6.2 11.9 6.48 11.41 6.94 11.05C7.39 10.69 8.01 10.46 8.71 10.46L12.32 10.46C11.64 10.46 11 10.68 10.55 11.05C10.1 11.41 9.81 11.9 9.81 12.45C9.81 13.55 10.93 14.44 12.31 14.44Z" fill="#FDE5D3" fill-opacity="1.000000" fill-rule="nonzero"/>
	<path d="M32.78 19.91L7.14 19.91C6.89 19.91 6.69 20.06 6.69 20.26L6.69 40.13C6.69 40.85 7.43 41.43 8.32 41.43L31.6 41.43C32.5 41.43 33.23 40.85 33.23 40.13L33.23 20.26C33.22 20.06 33.02 19.91 32.78 19.91ZM32.33 40.13C32.33 40.46 32 40.72 31.59 40.72L8.31 40.72C7.9 40.72 7.57 40.46 7.57 40.13L7.57 20.61L32.33 20.61L32.33 40.13Z" fill="#733506" fill-opacity="1.000000" fill-rule="nonzero"/>
	<path d="M39.93 0.77C39.66 -0.09 38.57 -0.59 37.5 -0.37L28.43 1.5C27.67 1.66 27.09 2.16 26.97 2.79L25.49 10.11L15.23 10.11C16.43 9.29 17.58 8.24 18.22 7.03C20.04 3.6 17.89 -0.33 17.8 -0.5C17.7 -0.67 17.45 -0.75 17.23 -0.68C17.02 -0.62 11.99 0.92 10.17 4.35C10.03 4.62 9.91 4.9 9.81 5.21C9.61 4.96 9.39 4.72 9.14 4.48C6.13 1.62 0.76 1.33 0.52 1.32C0.3 1.31 0.08 1.44 0.06 1.63C0.04 1.8 -0.56 6.06 2.45 8.92C3.54 9.96 4.93 10.65 6.28 11.12C5.94 11.5 5.75 11.97 5.75 12.45C5.75 13.29 6.31 14.02 7.14 14.43C4.68 15.41 3.08 17.42 3.08 19.65L3.08 40.13C3.08 42.43 5.43 44.29 8.32 44.29L31.6 44.29C34.49 44.29 36.84 42.43 36.84 40.13L36.84 19.65C36.84 17.42 35.25 15.41 32.79 14.43C33.62 14.02 34.17 13.29 34.17 12.45C34.17 11.16 32.85 10.11 31.23 10.11L29.54 10.11L30.71 4.31L38.5 2.7C39.57 2.48 40.2 1.61 39.93 0.77ZM10.99 4.63C12.38 2.01 15.95 0.55 17.14 0.12C17.6 1.1 18.78 4.15 17.4 6.77C16.61 8.25 15.14 9.35 13.8 10.12L12.35 10.12L15.34 4.47C15.44 4.29 15.33 4.08 15.1 4.01C14.87 3.93 14.62 4.02 14.53 4.19L11.57 9.8C11.48 8.75 11.2 7.44 10.47 6.17C10.56 5.61 10.74 5.1 10.99 4.63ZM3.13 8.47C0.83 6.29 0.83 3.1 0.9 2.06C2.21 2.19 6.16 2.75 8.46 4.93C9.93 6.33 10.55 8.26 10.66 10.11L9.95 10.11L4.92 5.33C4.77 5.18 4.49 5.16 4.3 5.28C4.11 5.41 4.09 5.63 4.25 5.77L8.8 10.11L8.7 10.11C8.06 10.11 7.45 10.27 6.95 10.56C5.61 10.13 4.19 9.48 3.13 8.47ZM31.58 14.79C34.2 15.5 35.95 17.45 35.95 19.65L35.95 40.13C35.95 42.04 34 43.59 31.59 43.59L8.31 43.59C5.92 43.59 3.96 42.04 3.96 40.13L3.96 19.65C3.96 17.45 5.71 15.5 8.32 14.79C11.18 14.79 28.71 14.79 31.58 14.79ZM31.21 10.81C32.36 10.81 33.28 11.55 33.28 12.45C33.28 13.36 32.34 14.09 31.21 14.09L8.7 14.09C7.56 14.09 6.64 13.35 6.64 12.45C6.64 11.57 7.54 10.81 8.7 10.81L31.21 10.81ZM38.28 2.01L30.21 3.68C30.04 3.72 29.91 3.83 29.88 3.96L28.63 10.11L26.38 10.11L27.85 2.89C27.91 2.55 28.23 2.27 28.66 2.18L37.72 0.32C38.31 0.19 38.91 0.47 39.07 0.95C39.23 1.42 38.87 1.89 38.28 2.01Z" fill="#733506" fill-opacity="1.000000" fill-rule="nonzero"/>
</svg>
