<svg width="40.000000" height="30.000000" viewBox="0 0 40 30" fill="none" xmlns="http://www.w3.org/2000/svg" xmlns:xlink="http://www.w3.org/1999/xlink">
	<desc>
			Created with Pixso.
	</desc>
	<defs/>
	<path d="M8.78 -0.25L18.32 -0.25C18.96 -0.25 19.49 0.26 19.49 0.89L19.49 9.35C19.49 9.98 18.96 10.49 18.32 10.49L8.78 10.49C8.14 10.49 7.61 9.98 7.61 9.35L7.61 0.89C7.61 0.26 8.14 -0.25 8.78 -0.25Z" fill="#FFB780" fill-opacity="1.000000" fill-rule="evenodd"/>
	<path d="M24.1 10.52L24.1 17.83C24.1 18.08 24.01 18.32 23.86 18.52C23.7 18.72 23.49 18.86 23.24 18.93C23.14 18.96 23.03 18.97 22.92 18.97L13.39 18.97C13.08 18.97 12.79 18.85 12.56 18.64C12.34 18.42 12.22 18.13 12.22 17.83L12.22 10.52C12.22 10.22 12.35 9.93 12.57 9.71C12.79 9.5 13.08 9.38 13.39 9.38L22.92 9.38C23.24 9.38 23.53 9.5 23.75 9.71C23.97 9.93 24.1 10.22 24.1 10.52Z" fill="#FFC599" fill-opacity="1.000000" fill-rule="nonzero"/>
	<path d="M22.24 12.21C22.24 12.52 21.98 12.78 21.65 12.78C21.33 12.78 21.07 12.52 21.07 12.21C21.07 11.89 21.33 11.64 21.65 11.64C21.98 11.64 22.24 11.89 22.24 12.21Z" fill="#FFB780" fill-opacity="1.000000" fill-rule="evenodd"/>
	<path d="M21.79 16.38C21.79 16.69 21.53 16.95 21.2 16.95C20.88 16.95 20.62 16.69 20.62 16.38C20.62 16.06 20.88 15.81 21.2 15.81C21.53 15.81 21.79 16.06 21.79 16.38Z" fill="#FFB780" fill-opacity="1.000000" fill-rule="evenodd"/>
	<path d="M18.94 15.81C18.94 16.12 18.68 16.38 18.36 16.38C18.04 16.38 17.77 16.12 17.77 15.81C17.77 15.49 18.04 15.24 18.36 15.24C18.68 15.24 18.94 15.49 18.94 15.81Z" fill="#FFB780" fill-opacity="1.000000" fill-rule="evenodd"/>
	<path d="M38.18 18.02C38.09 18.28 37.93 18.52 37.7 18.68C37.47 18.85 37.19 18.93 36.91 18.93L23.55 18.93C23.3 18.93 23.06 18.87 22.85 18.74C22.65 18.62 22.48 18.44 22.37 18.22C22.25 18.01 22.21 17.77 22.23 17.53C22.25 17.3 22.33 17.07 22.48 16.88L29.16 7.97C29.28 7.81 29.44 7.68 29.63 7.59C29.81 7.49 30.02 7.45 30.23 7.45C30.44 7.45 30.64 7.49 30.83 7.59C31.01 7.68 31.18 7.81 31.3 7.97L37.98 16.88C38.1 17.04 38.18 17.23 38.22 17.42C38.25 17.62 38.24 17.83 38.18 18.02Z" fill="#FFBA85" fill-opacity="1.000000" fill-rule="nonzero"/>
	<path d="M38.18 18.02L38.17 18.02L31.75 16.36C31.24 16.23 30.78 15.93 30.46 15.52C30.13 15.11 29.95 14.6 29.95 14.08L29.95 7.47L30.11 7.45C30.34 7.43 30.57 7.47 30.77 7.56C30.98 7.65 31.16 7.79 31.3 7.97L37.98 16.88C38.1 17.04 38.18 17.23 38.22 17.42C38.25 17.62 38.24 17.83 38.18 18.02Z" fill="#FFAE70" fill-opacity="1.000000" fill-rule="nonzero"/>
	<path d="M2.85 9.38L12.38 9.38C13.03 9.38 13.55 9.89 13.55 10.52L13.55 17.83C13.55 18.46 13.03 18.97 12.38 18.97L2.85 18.97C2.2 18.97 1.67 18.46 1.67 17.83L1.67 10.52C1.67 9.89 2.2 9.38 2.85 9.38Z" fill="#FFE2CC" fill-opacity="1.000000" fill-rule="evenodd"/>
	<path d="M24.1 10.52L24.1 17.83C24.1 18.08 24.01 18.32 23.86 18.52C23.7 18.72 23.49 18.86 23.24 18.93L16.77 18.93C16.53 18.93 16.29 18.87 16.08 18.74C15.87 18.62 15.7 18.44 15.59 18.22C15.48 18.01 15.43 17.77 15.45 17.53C15.47 17.3 15.56 17.07 15.7 16.87L21.33 9.38L22.92 9.38C23.24 9.38 23.53 9.5 23.75 9.71C23.97 9.93 24.1 10.22 24.1 10.52Z" fill="#FFB780" fill-opacity="1.000000" fill-rule="nonzero"/>
	<path d="M32.57 18.02L32.57 18.02C32.49 18.29 32.32 18.52 32.09 18.68C31.86 18.85 31.59 18.93 31.31 18.93L17.95 18.93C17.7 18.93 17.46 18.87 17.25 18.74C17.04 18.62 16.87 18.44 16.76 18.22C16.65 18.01 16.6 17.77 16.62 17.53C16.64 17.3 16.73 17.07 16.87 16.88L23.55 7.97C23.75 7.72 24.03 7.54 24.35 7.47C24.6 7.42 24.86 7.44 25.1 7.53C25.34 7.62 25.55 7.77 25.7 7.97L32.38 16.88C32.5 17.04 32.58 17.23 32.62 17.43C32.65 17.63 32.63 17.83 32.57 18.02Z" fill="#FFB37A" fill-opacity="1.000000" fill-rule="nonzero"/>
	<path d="M32.57 18.02L32.57 18.02L26.15 16.36C25.63 16.23 25.18 15.93 24.85 15.52C24.53 15.11 24.35 14.6 24.35 14.08L24.35 7.47L24.35 7.47C24.6 7.42 24.86 7.44 25.1 7.53C25.34 7.62 25.55 7.77 25.7 7.97L32.38 16.88C32.5 17.04 32.58 17.23 32.62 17.43C32.65 17.63 32.63 17.83 32.57 18.02Z" fill="#FFA866" fill-opacity="1.000000" fill-rule="nonzero"/>
	<path d="M9.76 25.33L30.22 25.33L30.22 26.25C30.22 26.86 29.98 27.44 29.54 27.87C29.1 28.29 28.5 28.54 27.88 28.54L12.11 28.54C11.49 28.54 10.89 28.29 10.45 27.87C10.01 27.44 9.76 26.86 9.76 26.25L9.76 25.33Z" fill="#877567" fill-opacity="1.000000" fill-rule="nonzero"/>
	<path d="M26.71 25.33L26.71 26.25C26.71 26.86 26.46 27.44 26.02 27.87C25.58 28.29 24.99 28.54 24.37 28.54L27.88 28.54C28.5 28.54 29.1 28.29 29.54 27.87C29.98 27.44 30.23 26.86 30.23 26.25L30.23 25.33L26.71 25.33Z" fill="#746559" fill-opacity="1.000000" fill-rule="nonzero"/>
	<path d="M39.41 18.93L38.15 21.22L36.56 24.12C36.36 24.49 36.06 24.79 35.69 25C35.33 25.22 34.91 25.33 34.49 25.33L5.5 25.33C5.08 25.33 4.66 25.22 4.3 25C3.93 24.79 3.63 24.49 3.43 24.12L1.84 21.22L0.58 18.93L39.41 18.93Z" fill="#60534A" fill-opacity="1.000000" fill-rule="nonzero"/>
	<path d="M35.89 18.93L34.63 21.22L33.04 24.12C32.84 24.49 32.54 24.79 32.18 25C31.81 25.22 31.4 25.33 30.97 25.33L34.49 25.33C34.91 25.33 35.33 25.22 35.69 25C36.06 24.79 36.36 24.49 36.56 24.12L38.15 21.22L39.41 18.93L35.89 18.93Z" fill="#4D433B" fill-opacity="1.000000" fill-rule="nonzero"/>
	<path d="M39.41 18.93L38.15 21.22L38.07 21.22L1.84 21.22L0.58 18.93L39.41 18.93Z" fill="#877567" fill-opacity="1.000000" fill-rule="nonzero"/>
	<path d="M35.89 18.93L34.64 21.22L38.07 21.22L38.15 21.22L39.41 18.93L35.89 18.93Z" fill="#746559" fill-opacity="1.000000" fill-rule="nonzero"/>
	<path d="M39.91 18.64C39.86 18.55 39.79 18.48 39.7 18.44C39.61 18.39 39.51 18.36 39.41 18.36L38.67 18.36C38.8 18.06 38.85 17.74 38.81 17.42C38.77 17.1 38.65 16.8 38.45 16.54L31.77 7.64C31.59 7.4 31.36 7.21 31.09 7.08C30.83 6.94 30.53 6.87 30.23 6.87C29.93 6.87 29.63 6.94 29.36 7.08C29.09 7.21 28.86 7.4 28.68 7.64L27.43 9.31L26.17 7.64C25.99 7.4 25.76 7.21 25.49 7.08C25.22 6.94 24.93 6.87 24.62 6.87C24.32 6.87 24.03 6.94 23.76 7.08C23.49 7.21 23.26 7.4 23.08 7.64L22.28 8.7L20.07 8.71L20.07 0.82C20.07 0.36 19.89 -0.07 19.56 -0.39C19.23 -0.71 18.78 -0.89 18.32 -0.89L8.78 -0.89C8.32 -0.89 7.87 -0.71 7.54 -0.39C7.21 -0.07 7.03 0.36 7.03 0.82L7.03 8.73L2.85 8.73C2.38 8.73 1.93 8.91 1.6 9.24C1.27 9.56 1.09 9.99 1.09 10.45L1.09 17.76C1.09 17.96 1.13 18.17 1.2 18.36L0.58 18.36C0.48 18.36 0.38 18.39 0.29 18.44C0.2 18.48 0.13 18.55 0.08 18.64C0.03 18.72 0 18.82 0 18.92C-0.01 19.02 0.02 19.12 0.06 19.2L1.32 21.49L1.32 21.49L2.92 24.39C3.17 24.85 3.54 25.23 4 25.49C4.45 25.76 4.97 25.9 5.5 25.9L9.18 25.9L9.18 26.25C9.18 27.01 9.49 27.73 10.04 28.27C10.59 28.8 11.33 29.11 12.11 29.11L27.88 29.11C28.66 29.11 29.4 28.8 29.95 28.27C30.5 27.73 30.81 27.01 30.81 26.25L30.81 25.9L34.49 25.9C35.02 25.9 35.54 25.76 36 25.49C36.45 25.23 36.82 24.85 37.07 24.39L39.93 19.2C39.97 19.12 40 19.02 40 18.92C39.99 18.82 39.96 18.72 39.91 18.64ZM30.54 8.08C30.65 8.13 30.75 8.21 30.83 8.31L37.51 17.21C37.52 17.23 37.53 17.25 37.54 17.27L32.4 15.94L30.54 13.46L30.54 8.08ZM33.19 17.32L37.1 18.34C37.04 18.35 36.97 18.36 36.91 18.36L33.07 18.36C33.21 18.03 33.25 17.67 33.19 17.32ZM29.37 8.66L29.37 11.9L28.15 10.28L29.37 8.66ZM24.94 8.08C25.05 8.13 25.15 8.21 25.22 8.31L26.95 10.62L26.96 10.62L31.9 17.21C31.92 17.23 31.93 17.25 31.94 17.27L26.3 15.81C25.91 15.71 25.56 15.48 25.32 15.17C25.07 14.86 24.94 14.48 24.94 14.08L24.94 8.08ZM23.76 8.66L23.76 14.08C23.76 14.73 23.98 15.35 24.39 15.87C24.79 16.38 25.36 16.75 26 16.91L31.5 18.34C31.43 18.35 31.37 18.36 31.3 18.36L17.95 18.36C17.81 18.36 17.67 18.32 17.56 18.25C17.44 18.18 17.35 18.08 17.28 17.97C17.22 17.85 17.2 17.71 17.21 17.58C17.22 17.45 17.27 17.32 17.35 17.21L23.76 8.66ZM21.42 9.85L16.4 16.54C16.21 16.8 16.08 17.1 16.04 17.42C16.01 17.74 16.05 18.06 16.18 18.36L14.02 18.36C14.1 18.17 14.14 17.96 14.14 17.76L14.14 10.45C14.14 10.25 14.1 10.05 14.03 9.87L21.42 9.85ZM8.2 0.82C8.2 0.67 8.26 0.52 8.37 0.42C8.48 0.31 8.63 0.25 8.78 0.25L18.32 0.25C18.47 0.25 18.62 0.31 18.73 0.42C18.84 0.52 18.9 0.67 18.9 0.82L18.9 8.71L12.22 8.73L8.2 8.73L8.2 0.82ZM2.26 10.45C2.26 10.3 2.32 10.15 2.43 10.04C2.54 9.94 2.69 9.88 2.85 9.88L12.38 9.88C12.53 9.88 12.68 9.94 12.79 10.04C12.9 10.15 12.96 10.3 12.96 10.45L12.96 17.76C12.96 17.91 12.9 18.05 12.79 18.16C12.68 18.27 12.53 18.33 12.38 18.33L2.85 18.33C2.69 18.33 2.54 18.27 2.43 18.16C2.32 18.05 2.26 17.91 2.26 17.76L2.26 10.45ZM29.64 26.25C29.64 26.7 29.45 27.14 29.12 27.46C28.79 27.78 28.35 27.96 27.88 27.96L12.11 27.96C11.64 27.96 11.2 27.78 10.87 27.46C10.54 27.14 10.35 26.7 10.35 26.25L10.35 25.9L29.64 25.9L29.64 26.25ZM36.04 23.85C35.89 24.13 35.67 24.36 35.39 24.51C35.12 24.67 34.81 24.76 34.49 24.76L5.5 24.76C5.18 24.76 4.87 24.67 4.6 24.51C4.32 24.36 4.1 24.13 3.95 23.85L2.82 21.79L37.17 21.79L36.04 23.85ZM37.8 20.65L2.19 20.65L1.56 19.5L38.43 19.5L37.8 20.65ZM15.94 12.13C16.05 12.13 16.17 12.1 16.26 12.04C16.36 11.97 16.43 11.88 16.48 11.78C16.52 11.68 16.53 11.56 16.51 11.45C16.49 11.34 16.43 11.24 16.35 11.16C16.27 11.08 16.16 11.02 16.05 11C15.94 10.98 15.82 10.99 15.71 11.03C15.61 11.08 15.51 11.15 15.45 11.24C15.39 11.34 15.35 11.45 15.35 11.56C15.35 11.71 15.41 11.86 15.52 11.97C15.63 12.07 15.78 12.13 15.94 12.13ZM18.36 11.83C18.47 11.83 18.59 11.79 18.68 11.73C18.78 11.67 18.85 11.58 18.9 11.47C18.94 11.37 18.95 11.25 18.93 11.14C18.91 11.03 18.85 10.93 18.77 10.85C18.69 10.77 18.59 10.72 18.47 10.69C18.36 10.67 18.24 10.68 18.13 10.73C18.03 10.77 17.94 10.84 17.87 10.94C17.81 11.03 17.77 11.14 17.77 11.25C17.77 11.41 17.83 11.55 17.94 11.66C18.05 11.77 18.2 11.83 18.36 11.83ZM15.71 15.24C15.82 15.24 15.93 15.21 16.03 15.15C16.13 15.08 16.2 15 16.25 14.89C16.29 14.79 16.3 14.67 16.28 14.56C16.26 14.45 16.2 14.35 16.12 14.27C16.04 14.19 15.93 14.13 15.82 14.11C15.71 14.09 15.59 14.1 15.48 14.15C15.37 14.19 15.28 14.26 15.22 14.36C15.15 14.45 15.12 14.56 15.12 14.67C15.12 14.82 15.18 14.97 15.29 15.08C15.4 15.18 15.55 15.24 15.71 15.24ZM16.59 7.25C16.71 7.25 16.82 7.21 16.92 7.15C17.02 7.09 17.09 7 17.14 6.89C17.18 6.79 17.19 6.67 17.17 6.56C17.15 6.45 17.09 6.35 17.01 6.27C16.93 6.19 16.82 6.14 16.71 6.12C16.6 6.09 16.48 6.1 16.37 6.15C16.26 6.19 16.17 6.26 16.11 6.36C16.04 6.45 16.01 6.56 16.01 6.68C16.01 6.83 16.07 6.97 16.18 7.08C16.29 7.19 16.44 7.25 16.59 7.25ZM13.16 6.1C13.16 6.22 13.2 6.33 13.26 6.42C13.33 6.52 13.42 6.59 13.52 6.63C13.63 6.68 13.75 6.69 13.86 6.66C13.98 6.64 14.08 6.59 14.16 6.51C14.25 6.43 14.3 6.33 14.32 6.22C14.35 6.11 14.33 5.99 14.29 5.89C14.25 5.78 14.17 5.69 14.07 5.63C13.98 5.57 13.86 5.53 13.75 5.53C13.59 5.53 13.44 5.59 13.33 5.7C13.22 5.81 13.16 5.95 13.16 6.1ZM17.04 3.08C17.16 3.08 17.27 3.04 17.37 2.98C17.47 2.92 17.54 2.83 17.59 2.72C17.63 2.62 17.64 2.5 17.62 2.39C17.6 2.28 17.54 2.18 17.46 2.1C17.38 2.02 17.27 1.97 17.16 1.94C17.05 1.92 16.93 1.93 16.82 1.98C16.71 2.02 16.62 2.09 16.56 2.19C16.49 2.28 16.46 2.39 16.46 2.5C16.46 2.66 16.52 2.8 16.63 2.91C16.74 3.02 16.89 3.08 17.04 3.08ZM10.74 1.93C10.74 1.82 10.71 1.71 10.64 1.62C10.58 1.52 10.49 1.45 10.38 1.41C10.27 1.36 10.16 1.35 10.04 1.37C9.93 1.4 9.82 1.45 9.74 1.53C9.66 1.61 9.6 1.71 9.58 1.82C9.56 1.93 9.57 2.05 9.61 2.15C9.66 2.26 9.73 2.35 9.83 2.41C9.93 2.47 10.04 2.5 10.16 2.5C10.31 2.5 10.46 2.44 10.57 2.34C10.68 2.23 10.74 2.08 10.74 1.93ZM13.16 3.08C13.28 3.08 13.39 3.04 13.49 2.98C13.58 2.92 13.66 2.83 13.7 2.72C13.75 2.62 13.76 2.5 13.74 2.39C13.71 2.28 13.66 2.18 13.58 2.1C13.5 2.02 13.39 1.97 13.28 1.94C13.16 1.92 13.05 1.93 12.94 1.98C12.83 2.02 12.74 2.09 12.68 2.19C12.61 2.28 12.58 2.39 12.58 2.5C12.58 2.66 12.64 2.8 12.75 2.91C12.86 3.02 13.01 3.08 13.16 3.08ZM10.74 6.58C10.63 6.58 10.51 6.62 10.42 6.68C10.32 6.74 10.25 6.83 10.2 6.93C10.16 7.04 10.14 7.15 10.17 7.26C10.19 7.37 10.25 7.48 10.33 7.56C10.41 7.64 10.51 7.69 10.63 7.71C10.74 7.73 10.86 7.72 10.97 7.68C11.07 7.64 11.16 7.56 11.23 7.47C11.29 7.38 11.33 7.27 11.33 7.15C11.33 7 11.27 6.86 11.16 6.75C11.05 6.64 10.9 6.58 10.74 6.58ZM4.22 12.13C4.33 12.13 4.45 12.1 4.54 12.04C4.64 11.97 4.71 11.88 4.76 11.78C4.8 11.68 4.82 11.56 4.79 11.45C4.77 11.34 4.71 11.24 4.63 11.16C4.55 11.08 4.45 11.02 4.33 11C4.22 10.98 4.1 10.99 3.99 11.03C3.89 11.08 3.8 11.15 3.73 11.24C3.67 11.34 3.63 11.45 3.63 11.56C3.63 11.71 3.69 11.86 3.8 11.97C3.91 12.07 4.06 12.13 4.22 12.13ZM7.23 12.7C7.34 12.7 7.45 12.67 7.55 12.61C7.65 12.54 7.72 12.46 7.77 12.35C7.81 12.25 7.82 12.13 7.8 12.02C7.78 11.91 7.72 11.81 7.64 11.73C7.56 11.65 7.45 11.59 7.34 11.57C7.23 11.55 7.11 11.56 7 11.6C6.89 11.65 6.8 11.72 6.74 11.82C6.67 11.91 6.64 12.02 6.64 12.13C6.64 12.28 6.7 12.43 6.81 12.54C6.92 12.64 7.07 12.7 7.23 12.7ZM4.22 16.78C4.22 16.89 4.25 17 4.32 17.1C4.38 17.19 4.47 17.26 4.58 17.31C4.69 17.35 4.8 17.36 4.92 17.34C5.03 17.32 5.14 17.26 5.22 17.18C5.3 17.1 5.36 17 5.38 16.89C5.4 16.78 5.39 16.67 5.35 16.56C5.3 16.46 5.23 16.37 5.13 16.31C5.03 16.24 4.92 16.21 4.8 16.21C4.65 16.21 4.5 16.27 4.39 16.38C4.28 16.48 4.22 16.63 4.22 16.78ZM11.11 12.7C11.22 12.7 11.34 12.67 11.43 12.61C11.53 12.54 11.6 12.46 11.65 12.35C11.69 12.25 11.71 12.13 11.68 12.02C11.66 11.91 11.6 11.81 11.52 11.73C11.44 11.65 11.33 11.59 11.22 11.57C11.11 11.55 10.99 11.56 10.88 11.6C10.78 11.65 10.68 11.72 10.62 11.82C10.56 11.91 10.52 12.02 10.52 12.13C10.52 12.28 10.58 12.43 10.69 12.54C10.8 12.64 10.95 12.7 11.11 12.7ZM10.66 16.87C10.77 16.87 10.89 16.84 10.98 16.78C11.08 16.72 11.15 16.63 11.2 16.52C11.24 16.42 11.25 16.3 11.23 16.19C11.21 16.08 11.15 15.98 11.07 15.9C10.99 15.82 10.88 15.77 10.77 15.74C10.66 15.72 10.54 15.73 10.43 15.78C10.33 15.82 10.23 15.89 10.17 15.99C10.11 16.08 10.07 16.19 10.07 16.3C10.07 16.45 10.13 16.6 10.24 16.71C10.35 16.81 10.5 16.87 10.66 16.87ZM7.23 15.73C7.23 15.85 7.26 15.96 7.32 16.05C7.39 16.14 7.48 16.22 7.59 16.26C7.69 16.3 7.81 16.31 7.93 16.29C8.04 16.27 8.14 16.22 8.23 16.14C8.31 16.06 8.36 15.95 8.39 15.84C8.41 15.73 8.4 15.62 8.35 15.51C8.31 15.41 8.23 15.32 8.14 15.26C8.04 15.19 7.93 15.16 7.81 15.16C7.66 15.16 7.51 15.22 7.4 15.33C7.29 15.44 7.23 15.58 7.23 15.73Z" fill="#733506" fill-opacity="1.000000" fill-rule="nonzero"/>
</svg>
