<svg width="40" height="31" viewBox="0 0 40 31" fill="none" xmlns="http://www.w3.org/2000/svg">
<path d="M18.3203 0.757324H8.78906C8.14185 0.757324 7.61719 1.26867 7.61719 1.89946V10.3512C7.61719 10.982 8.14185 11.4934 8.78906 11.4934H18.3203C18.9675 11.4934 19.4922 10.982 19.4922 10.3512V1.89946C19.4922 1.26867 18.9675 0.757324 18.3203 0.757324Z" fill="#FFB780"/>
<path d="M24.1016 11.5264V18.8361C24.1015 19.0855 24.0176 19.328 23.8629 19.5267C23.7082 19.7253 23.491 19.8692 23.2445 19.9363C23.142 19.9643 23.0361 19.9784 22.9297 19.9782H13.3984C13.0876 19.9782 12.7896 19.8579 12.5698 19.6437C12.35 19.4295 12.2266 19.139 12.2266 18.8361V11.5264C12.2267 11.2235 12.3502 10.9331 12.5699 10.7189C12.7897 10.5047 13.0877 10.3844 13.3984 10.3843H22.9297C23.2405 10.3844 23.5385 10.5047 23.7582 10.7189C23.978 10.9331 24.1015 11.2235 24.1016 11.5264Z" fill="#FFC599"/>
<path d="M21.6592 13.7835C21.9828 13.7835 22.2451 13.5278 22.2451 13.2124C22.2451 12.897 21.9828 12.6414 21.6592 12.6414C21.3356 12.6414 21.0732 12.897 21.0732 13.2124C21.0732 13.5278 21.3356 13.7835 21.6592 13.7835Z" fill="#FFB780"/>
<path d="M21.209 17.9549C21.5326 17.9549 21.7949 17.6992 21.7949 17.3838C21.7949 17.0684 21.5326 16.8127 21.209 16.8127C20.8854 16.8127 20.623 17.0684 20.623 17.3838C20.623 17.6992 20.8854 17.9549 21.209 17.9549Z" fill="#FFB780"/>
<path d="M18.3633 17.3836C18.6869 17.3836 18.9492 17.1279 18.9492 16.8125C18.9492 16.4971 18.6869 16.2415 18.3633 16.2415C18.0397 16.2415 17.7773 16.4971 17.7773 16.8125C17.7773 17.1279 18.0397 17.3836 18.3633 17.3836Z" fill="#FFB780"/>
<path d="M38.1816 19.0239C38.0994 19.289 37.9314 19.5211 37.7028 19.6857C37.4742 19.8502 37.1971 19.9383 36.9129 19.9368H23.5535C23.3085 19.9368 23.0682 19.8707 22.8593 19.7457C22.6505 19.6208 22.4812 19.4419 22.3703 19.2289C22.2593 19.016 22.2111 18.7772 22.2309 18.5391C22.2507 18.3011 22.3378 18.073 22.4824 17.8802L29.1621 8.97995C29.2854 8.81592 29.4467 8.68252 29.6328 8.59056C29.8189 8.4986 30.0246 8.45068 30.2332 8.45068C30.4419 8.45068 30.6476 8.4986 30.8337 8.59056C31.0197 8.68252 31.181 8.81592 31.3043 8.97995L37.984 17.8802C38.1075 18.042 38.1898 18.23 38.2241 18.4288C38.2585 18.6277 38.2439 18.8316 38.1816 19.0239Z" fill="#FFBA85"/>
<path d="M38.1816 19.0241L38.1793 19.0287L31.7566 17.365C31.2411 17.2314 30.7854 16.9355 30.4603 16.5233C30.1352 16.1112 29.9589 15.6059 29.959 15.086V8.47917L30.1121 8.45632C30.3404 8.43495 30.5705 8.47203 30.7796 8.56391C30.9887 8.65579 31.1696 8.79928 31.3043 8.98018L37.984 17.8804C38.1075 18.0422 38.1898 18.2302 38.2241 18.4291C38.2585 18.6279 38.2439 18.8318 38.1816 19.0241Z" fill="#FFAE70"/>
<path d="M12.3828 10.3853H2.85156C2.20435 10.3853 1.67969 10.8966 1.67969 11.5274V18.837C1.67969 19.4678 2.20435 19.9792 2.85156 19.9792H12.3828C13.03 19.9792 13.5547 19.4678 13.5547 18.837V11.5274C13.5547 10.8966 13.03 10.3853 12.3828 10.3853Z" fill="#FFE2CC"/>
<path d="M24.1016 11.5264V18.8361C24.1015 19.0855 24.0176 19.328 23.8629 19.5267C23.7082 19.7253 23.491 19.8692 23.2445 19.9363H16.7781C16.5331 19.9363 16.2928 19.8702 16.0839 19.7452C15.8751 19.6203 15.7058 19.4414 15.5949 19.2284C15.4839 19.0155 15.4357 18.7767 15.4555 18.5386C15.4753 18.3006 15.5624 18.0725 15.707 17.8797L21.332 10.3843H22.9297C23.2405 10.3844 23.5385 10.5047 23.7582 10.7189C23.978 10.9331 24.1015 11.2235 24.1016 11.5264Z" fill="#FFB780"/>
<path d="M32.5766 19.0276V19.0283C32.4937 19.2923 32.3257 19.5232 32.0976 19.6868C31.8695 19.8504 31.5934 19.9381 31.3102 19.9367H17.95C17.7049 19.9367 17.4647 19.8706 17.2558 19.7457C17.0469 19.6207 16.8777 19.4418 16.7667 19.2289C16.6558 19.0159 16.6076 18.7771 16.6274 18.539C16.6472 18.301 16.7342 18.0729 16.8789 17.8801L23.5586 8.97987C23.7507 8.72091 24.0357 8.5418 24.357 8.47809C24.6069 8.42638 24.8668 8.44623 25.1054 8.53527C25.344 8.6243 25.551 8.77871 25.7016 8.97987L32.3813 17.8801C32.5052 18.0424 32.5876 18.2312 32.6215 18.4308C32.6555 18.6304 32.6401 18.835 32.5766 19.0276Z" fill="#FFB37A"/>
<path d="M32.5766 19.0276V19.0283L26.1531 17.3646C25.6376 17.2311 25.1819 16.9352 24.8568 16.523C24.5317 16.1109 24.3554 15.6056 24.3555 15.0857V8.47885L24.357 8.47809C24.6069 8.42638 24.8668 8.44623 25.1054 8.53527C25.344 8.6243 25.551 8.77871 25.7016 8.97987L32.3812 17.8801C32.5052 18.0424 32.5876 18.2312 32.6215 18.4308C32.6555 18.6304 32.6401 18.835 32.5766 19.0276Z" fill="#FFA866"/>
<path d="M9.76953 26.3335H30.2297V27.2557C30.2297 27.8616 29.9828 28.4426 29.5432 28.8709C29.1037 29.2993 28.5075 29.54 27.8859 29.54H12.1133C11.4917 29.54 10.8955 29.2993 10.456 28.8709C10.0165 28.4426 9.76953 27.8616 9.76953 27.2557V26.3335Z" fill="#877567"/>
<path d="M26.7148 26.3335V27.2557C26.7148 27.8616 26.4679 28.4426 26.0284 28.8709C25.5888 29.2993 24.9927 29.54 24.3711 29.54H27.8867C28.5083 29.54 29.1045 29.2993 29.544 28.8709C29.9835 28.4426 30.2305 27.8616 30.2305 27.2557V26.3335H26.7148Z" fill="#746559"/>
<path d="M39.414 19.9373L38.1555 22.2261L36.5609 25.1271C36.3608 25.4915 36.063 25.7961 35.6992 26.0085C35.3355 26.2209 34.9194 26.3331 34.4953 26.3332H5.50469C5.08063 26.3331 4.66453 26.2209 4.30075 26.0085C3.93698 25.7961 3.63917 25.4915 3.43906 25.1271L1.84141 22.2215L0.585938 19.9373H39.414Z" fill="#60534A"/>
<path d="M35.8982 19.9373L34.6396 22.2261L33.0451 25.1271C32.845 25.4915 32.5472 25.7961 32.1834 26.0085C31.8196 26.2209 31.4036 26.3331 30.9795 26.3332H34.4951C34.9192 26.3331 35.3353 26.2209 35.699 26.0085C36.0628 25.7961 36.3606 25.4915 36.5607 25.1271L38.1553 22.2261L39.4139 19.9373H35.8982Z" fill="#4D433B"/>
<path d="M39.414 19.9373L38.1555 22.2261L38.0742 22.2215H1.84141L0.585938 19.9373H39.414Z" fill="#877567"/>
<path d="M35.8987 19.9373L34.6426 22.2215H38.0745L38.1557 22.2261L39.4143 19.9373H35.8987Z" fill="#746559"/>
<path d="M39.9167 19.644C39.8647 19.5593 39.791 19.4892 39.7029 19.4405C39.6149 19.3919 39.5153 19.3663 39.4141 19.3663H38.6764C38.8052 19.0699 38.8527 18.746 38.8142 18.4264C38.7757 18.1067 38.6525 17.8023 38.4567 17.5431L31.777 8.6431C31.5994 8.40643 31.367 8.21393 31.0987 8.08123C30.8305 7.94853 30.5339 7.87937 30.233 7.87937C29.9322 7.87937 29.6355 7.94853 29.3673 8.08123C29.099 8.21393 28.8666 8.40643 28.689 8.6431L27.4315 10.3185L26.1741 8.6431C25.9965 8.40643 25.7641 8.21393 25.4958 8.08123C25.2275 7.94853 24.9309 7.87937 24.63 7.87937C24.3292 7.87937 24.0326 7.94853 23.7643 8.08123C23.496 8.21393 23.2636 8.40643 23.086 8.6431L22.2887 9.70551L20.0781 9.71274V1.82404C20.0776 1.36983 19.8922 0.934376 19.5627 0.613202C19.2331 0.292029 18.7863 0.111364 18.3203 0.11084H8.78907C8.32303 0.111364 7.87624 0.292029 7.5467 0.613202C7.21716 0.934376 7.03179 1.36983 7.03125 1.82404V9.73848H2.85157C2.38553 9.739 1.93874 9.91967 1.6092 10.2408C1.27966 10.562 1.09429 10.9975 1.09376 11.4517V18.7613C1.09364 18.968 1.13211 19.173 1.20727 19.3663H0.585944C0.484666 19.3663 0.385117 19.3919 0.297008 19.4405C0.2089 19.4892 0.13524 19.5593 0.0832153 19.644C0.0311904 19.7287 0.0025769 19.8251 0.000166065 19.9237C-0.00224477 20.0224 0.0216294 20.12 0.0694596 20.207L1.32493 22.4911L1.32751 22.4957L2.92243 25.3974C3.17237 25.8531 3.54466 26.234 3.99952 26.4994C4.45438 26.7648 4.9747 26.9048 5.50485 26.9043H9.18399V27.2555C9.18486 28.0125 9.4938 28.7383 10.043 29.2736C10.5923 29.8089 11.3369 30.11 12.1137 30.1108H27.8863C28.6631 30.11 29.4077 29.8089 29.957 29.2736C30.5062 28.7383 30.8151 28.0125 30.816 27.2555V26.9043H34.4951C35.0252 26.9048 35.5456 26.7649 36.0005 26.4995C36.4553 26.234 36.8276 25.8531 37.0776 25.3974L39.9305 20.207C39.9784 20.12 40.0023 20.0224 39.9998 19.9237C39.9974 19.825 39.9688 19.7286 39.9167 19.644ZM30.5442 9.08845C30.6583 9.13967 30.7571 9.21845 30.8312 9.31734L37.5109 18.2174C37.5248 18.2359 37.5362 18.2554 37.5481 18.2745L32.4022 16.9414L30.5442 14.4659V9.08845ZM33.1958 18.3288L37.1058 19.3418C37.0428 19.3579 36.9779 19.3662 36.9127 19.3663H33.0734C33.2153 19.039 33.2578 18.6789 33.1958 18.3288ZM29.3723 9.66698V12.9045L28.1575 11.2857L29.3723 9.66698ZM24.9413 9.08845C25.0554 9.13967 25.1542 9.21846 25.2283 9.31734L26.9582 11.6223L26.9626 11.6281L31.908 18.2174C31.9219 18.2359 31.9332 18.2554 31.9452 18.2745L26.3037 16.813C25.9132 16.7115 25.568 16.4872 25.3217 16.1749C25.0753 15.8627 24.9416 15.4799 24.9412 15.086L24.9413 9.08845ZM23.7695 9.66698V15.086C23.77 15.7317 23.9892 16.3591 24.393 16.871C24.7968 17.3828 25.3626 17.7504 26.0027 17.9168L31.5028 19.3418C31.4398 19.3579 31.375 19.3661 31.3098 19.3663H17.9503C17.8134 19.3663 17.6792 19.3293 17.5625 19.2595C17.4459 19.1897 17.3513 19.0898 17.2894 18.9708C17.2274 18.8518 17.2005 18.7185 17.2116 18.5855C17.2227 18.4525 17.2713 18.3251 17.3521 18.2174L23.7695 9.66698ZM21.4293 10.8505L16.4062 17.5431C16.2105 17.8023 16.0873 18.1067 16.0489 18.4264C16.0104 18.746 16.0579 19.0699 16.1867 19.3663H14.0271C14.1023 19.173 14.1407 18.968 14.1406 18.7613V11.4517C14.1407 11.255 14.1059 11.0598 14.0377 10.8747L21.4293 10.8505ZM8.20313 1.82404C8.20329 1.67263 8.26508 1.52747 8.37493 1.42041C8.48478 1.31335 8.63372 1.25313 8.78907 1.25297H18.3203C18.4757 1.25313 18.6246 1.31335 18.7345 1.42041C18.8443 1.52747 18.9061 1.67263 18.9062 1.82404V9.71663L12.2245 9.73848H8.20313V1.82404ZM2.26563 11.4517C2.2658 11.3003 2.32758 11.1551 2.43743 11.0481C2.54728 10.941 2.69622 10.8808 2.85157 10.8806H12.3828C12.5382 10.8808 12.6871 10.941 12.797 11.0481C12.9068 11.1551 12.9686 11.3003 12.9688 11.4517V18.7613C12.9686 18.9127 12.9068 19.0579 12.797 19.1649C12.6871 19.272 12.5382 19.3322 12.3828 19.3324H2.85157C2.69622 19.3322 2.54728 19.272 2.43743 19.1649C2.32758 19.0579 2.2658 18.9127 2.26563 18.7613V11.4517ZM29.6441 27.2555C29.6436 27.7097 29.4582 28.1452 29.1287 28.4663C28.7992 28.7875 28.3524 28.9682 27.8863 28.9687H12.1137C11.6476 28.9682 11.2008 28.7875 10.8713 28.4663C10.5418 28.1452 10.3564 27.7097 10.3559 27.2555V26.9043H29.6441V27.2555ZM36.0445 24.858C35.8946 25.1314 35.6712 25.36 35.3983 25.5193C35.1254 25.6785 34.8132 25.7625 34.4951 25.7622H5.50485C5.18675 25.7625 4.87455 25.6785 4.60163 25.5193C4.32871 25.36 4.10534 25.1314 3.9554 24.858L2.82016 22.7927H37.1798L36.0445 24.858ZM37.8077 21.6505H2.19235L1.56454 20.5084H38.4355L37.8077 21.6505ZM15.942 13.1372C16.0578 13.1372 16.1711 13.1037 16.2675 13.041C16.3638 12.9782 16.4389 12.8891 16.4833 12.7847C16.5276 12.6804 16.5392 12.5655 16.5166 12.4548C16.494 12.344 16.4382 12.2422 16.3563 12.1624C16.2743 12.0825 16.1699 12.0281 16.0563 12.0061C15.9426 11.984 15.8248 11.9954 15.7177 12.0386C15.6107 12.0818 15.5191 12.155 15.4548 12.2489C15.3904 12.3428 15.356 12.4532 15.356 12.5662C15.356 12.7176 15.4177 12.8629 15.5276 12.97C15.6375 13.0771 15.7866 13.1372 15.942 13.1372ZM18.3628 12.8305C18.4787 12.8305 18.592 12.797 18.6883 12.7342C18.7847 12.6715 18.8598 12.5823 18.9041 12.4779C18.9485 12.3736 18.9601 12.2588 18.9375 12.148C18.9149 12.0372 18.8591 11.9355 18.7771 11.8556C18.6952 11.7757 18.5908 11.7213 18.4771 11.6993C18.3635 11.6773 18.2456 11.6886 18.1386 11.7318C18.0315 11.775 17.94 11.8482 17.8756 11.9421C17.8112 12.036 17.7769 12.1464 17.7769 12.2594C17.7769 12.4108 17.8386 12.5561 17.9485 12.6632C18.0584 12.7703 18.2074 12.8305 18.3628 12.8305ZM15.7103 16.2487C15.8262 16.2487 15.9395 16.2152 16.0358 16.1525C16.1322 16.0897 16.2073 16.0005 16.2516 15.8962C16.296 15.7918 16.3076 15.677 16.285 15.5662C16.2624 15.4555 16.2066 15.3537 16.1246 15.2738C16.0427 15.194 15.9383 15.1396 15.8246 15.1175C15.711 15.0955 15.5932 15.1068 15.4861 15.15C15.379 15.1933 15.2875 15.2665 15.2231 15.3604C15.1587 15.4543 15.1244 15.5647 15.1244 15.6776C15.1244 15.8291 15.1861 15.9744 15.296 16.0814C15.4059 16.1885 15.5549 16.2487 15.7103 16.2487ZM16.5996 8.2515C16.7155 8.2515 16.8288 8.21801 16.9251 8.15526C17.0215 8.09251 17.0966 8.00332 17.1409 7.89897C17.1853 7.79462 17.1969 7.6798 17.1743 7.56902C17.1517 7.45825 17.0959 7.35649 17.0139 7.27663C16.932 7.19676 16.8276 7.14237 16.7139 7.12034C16.6003 7.09831 16.4824 7.10962 16.3754 7.15284C16.2683 7.19606 16.1768 7.26926 16.1124 7.36317C16.048 7.45708 16.0137 7.56749 16.0137 7.68043C16.0137 7.83189 16.0754 7.97714 16.1853 8.08424C16.2952 8.19133 16.4442 8.2515 16.5996 8.2515ZM13.1675 7.10937C13.1675 7.22231 13.2019 7.33272 13.2663 7.42664C13.3306 7.52055 13.4221 7.59374 13.5292 7.63696C13.6363 7.68019 13.7541 7.69149 13.8677 7.66946C13.9814 7.64743 14.0858 7.59304 14.1678 7.51317C14.2497 7.43331 14.3055 7.33155 14.3281 7.22078C14.3507 7.11 14.3391 6.99518 14.2948 6.89083C14.2504 6.78648 14.1753 6.69729 14.079 6.63454C13.9826 6.57179 13.8693 6.5383 13.7534 6.5383C13.598 6.5383 13.449 6.59847 13.3391 6.70556C13.2292 6.81266 13.1675 6.95791 13.1675 7.10937ZM17.0498 4.08059C17.1657 4.08059 17.2789 4.04709 17.3753 3.98434C17.4717 3.92159 17.5468 3.83241 17.5911 3.72806C17.6354 3.62371 17.6471 3.50889 17.6244 3.39811C17.6018 3.28733 17.546 3.18558 17.4641 3.10572C17.3821 3.02585 17.2777 2.97146 17.1641 2.94943C17.0504 2.92739 16.9326 2.9387 16.8255 2.98192C16.7185 3.02515 16.627 3.09834 16.5626 3.19225C16.4982 3.28616 16.4638 3.39657 16.4638 3.50952C16.4638 3.66098 16.5256 3.80623 16.6354 3.91332C16.7453 4.02042 16.8944 4.08059 17.0498 4.08059ZM10.7466 2.93845C10.7466 2.82551 10.7123 2.7151 10.6479 2.62119C10.5835 2.52728 10.492 2.45408 10.3849 2.41086C10.2779 2.36764 10.1601 2.35633 10.0464 2.37836C9.93273 2.4004 9.82833 2.45478 9.74639 2.53465C9.66444 2.61451 9.60864 2.71627 9.58603 2.82704C9.56342 2.93782 9.57502 3.05264 9.61937 3.15699C9.66372 3.26134 9.73882 3.35053 9.83518 3.41328C9.93153 3.47603 10.0448 3.50952 10.1607 3.50952C10.3161 3.50952 10.4651 3.44935 10.575 3.34226C10.6849 3.23516 10.7466 3.08991 10.7466 2.93845ZM13.1675 4.08059C13.2834 4.08059 13.3967 4.04709 13.493 3.98434C13.5894 3.92159 13.6645 3.83241 13.7088 3.72806C13.7532 3.62371 13.7648 3.50889 13.7422 3.39811C13.7196 3.28733 13.6638 3.18558 13.5818 3.10572C13.4999 3.02585 13.3955 2.97146 13.2818 2.94943C13.1682 2.92739 13.0503 2.9387 12.9433 2.98192C12.8362 3.02515 12.7447 3.09834 12.6803 3.19225C12.6159 3.28616 12.5816 3.39657 12.5816 3.50952C12.5816 3.66098 12.6433 3.80623 12.7532 3.91332C12.8631 4.02042 13.0121 4.08059 13.1675 4.08059ZM10.7466 7.58655C10.6307 7.58655 10.5174 7.62004 10.421 7.68279C10.3247 7.74554 10.2496 7.83473 10.2052 7.93908C10.1609 8.04343 10.1493 8.15825 10.1719 8.26903C10.1945 8.3798 10.2503 8.48156 10.3322 8.56142C10.4142 8.64129 10.5186 8.69568 10.6323 8.71771C10.7459 8.73975 10.8637 8.72843 10.9708 8.68521C11.0779 8.64199 11.1694 8.5688 11.2338 8.47488C11.2981 8.38097 11.3325 8.27056 11.3325 8.15762C11.3325 8.00616 11.2708 7.86091 11.1609 7.75381C11.051 7.64672 10.902 7.58655 10.7466 7.58655ZM4.22313 13.1373C4.33902 13.1373 4.4523 13.1038 4.54866 13.0411C4.64502 12.9783 4.72012 12.8891 4.76447 12.7848C4.80881 12.6804 4.82042 12.5656 4.79781 12.4548C4.7752 12.3441 4.7194 12.2423 4.63745 12.1624C4.55551 12.0826 4.4511 12.0282 4.33744 12.0062C4.22378 11.9841 4.10597 11.9954 3.9989 12.0386C3.89184 12.0819 3.80032 12.1551 3.73594 12.249C3.67156 12.3429 3.63719 12.4533 3.63719 12.5662C3.63719 12.7177 3.69893 12.863 3.80881 12.9701C3.91869 13.0771 4.06773 13.1373 4.22313 13.1373ZM7.23 13.7084C7.34589 13.7084 7.45918 13.6749 7.55553 13.6121C7.65189 13.5494 7.72699 13.4602 7.77134 13.3558C7.81569 13.2515 7.82729 13.1367 7.80468 13.0259C7.78207 12.9151 7.72627 12.8134 7.64432 12.7335C7.56238 12.6536 7.45798 12.5993 7.34432 12.5772C7.23065 12.5552 7.11284 12.5665 7.00578 12.6097C6.89871 12.6529 6.8072 12.7261 6.74282 12.82C6.67843 12.914 6.64407 13.0244 6.64407 13.1373C6.64407 13.2888 6.7058 13.434 6.81568 13.5411C6.92557 13.6482 7.0746 13.7084 7.23 13.7084ZM4.22321 17.7853C4.22321 17.8983 4.25757 18.0087 4.32196 18.1026C4.38634 18.1965 4.47785 18.2697 4.58492 18.3129C4.69198 18.3562 4.8098 18.3675 4.92346 18.3454C5.03712 18.3234 5.14152 18.269 5.22347 18.1891C5.30541 18.1093 5.36122 18.0075 5.38382 17.8967C5.40643 17.786 5.39483 17.6711 5.35048 17.5668C5.30613 17.4624 5.23103 17.3733 5.13468 17.3105C5.03832 17.2478 4.92503 17.2143 4.80915 17.2143C4.65375 17.2143 4.50471 17.2744 4.39483 17.3815C4.28494 17.4886 4.22321 17.6339 4.22321 17.7853ZM11.1123 13.7083C11.2282 13.7083 11.3414 13.6748 11.4378 13.6121C11.5342 13.5493 11.6093 13.4601 11.6536 13.3558C11.698 13.2514 11.7096 13.1366 11.6869 13.0258C11.6643 12.9151 11.6085 12.8133 11.5266 12.7334C11.4446 12.6536 11.3402 12.5992 11.2266 12.5771C11.1129 12.5551 10.9951 12.5664 10.888 12.6096C10.781 12.6529 10.6895 12.7261 10.6251 12.82C10.5607 12.9139 10.5263 13.0243 10.5263 13.1372C10.5263 13.2887 10.5881 13.4339 10.6979 13.541C10.8078 13.6481 10.9569 13.7083 11.1123 13.7083ZM10.6621 17.8792C10.778 17.8792 10.8913 17.8457 10.9876 17.783C11.084 17.7202 11.1591 17.631 11.2034 17.5267C11.2478 17.4223 11.2594 17.3075 11.2368 17.1967C11.2142 17.086 11.1584 16.9842 11.0764 16.9043C10.9945 16.8245 10.8901 16.7701 10.7764 16.7481C10.6628 16.726 10.5449 16.7373 10.4379 16.7806C10.3308 16.8238 10.2393 16.897 10.1749 16.9909C10.1105 17.0848 10.0762 17.1952 10.0762 17.3081C10.0762 17.4596 10.1379 17.6049 10.2478 17.712C10.3577 17.8191 10.5067 17.8792 10.6621 17.8792ZM7.23 16.7371C7.23 16.85 7.26437 16.9604 7.32875 17.0544C7.39314 17.1483 7.48465 17.2215 7.59171 17.2647C7.69878 17.3079 7.81659 17.3192 7.93025 17.2972C8.04391 17.2751 8.14832 17.2208 8.23026 17.1409C8.31221 17.061 8.36801 16.9593 8.39062 16.8485C8.41323 16.7377 8.40162 16.6229 8.35728 16.5185C8.31293 16.4142 8.23783 16.325 8.14147 16.2623C8.04511 16.1995 7.93183 16.166 7.81594 16.166C7.66054 16.166 7.51151 16.2262 7.40162 16.3333C7.29174 16.4404 7.23 16.5856 7.23 16.7371Z" fill="#733506"/>
</svg>
