<svg width="37" height="46" viewBox="0 0 37 46" fill="none" xmlns="http://www.w3.org/2000/svg">
<path d="M36 34.2048C36 38.9625 28.125 42.9273 18.5 42.9273C8.875 42.9273 1 38.9625 1 34.2048V32.1233H36V34.2048Z" fill="#DEA77E" stroke="#45403C" stroke-miterlimit="10" stroke-linecap="round" stroke-linejoin="round"/>
<path d="M18.5 41.044C28.165 41.044 36 36.9613 36 31.9251C36 26.8888 28.165 22.8062 18.5 22.8062C8.83502 22.8062 1 26.8888 1 31.9251C1 36.9613 8.83502 41.044 18.5 41.044Z" fill="#F0C7A8"/>
<path d="M18.5 26.0771C27.0556 26.0771 34.25 29.348 35.7083 33.6101C35.9028 33.1145 36 32.5198 36 32.0242C36 26.9691 28.125 22.9053 18.5 22.9053C8.875 22.9053 1 26.87 1 31.9251C1 32.5198 1.09722 33.0154 1.29167 33.511C2.75 29.2489 9.94444 26.0771 18.5 26.0771Z" fill="#F7DBC6"/>
<path d="M18.5 41.044C28.165 41.044 36 36.9613 36 31.9251C36 26.8888 28.165 22.8062 18.5 22.8062C8.83502 22.8062 1 26.8888 1 31.9251C1 36.9613 8.83502 41.044 18.5 41.044Z" stroke="#45403C" stroke-miterlimit="10" stroke-linecap="round" stroke-linejoin="round"/>
<path opacity="0.15" d="M18.4999 45.9999C24.6747 45.9999 29.6804 45.3343 29.6804 44.5132C29.6804 43.692 24.6747 43.0264 18.4999 43.0264C12.325 43.0264 7.31934 43.692 7.31934 44.5132C7.31934 45.3343 12.325 45.9999 18.4999 45.9999Z" fill="#733506"/>
<path d="M14.6113 10.8128C14.6113 10.8128 13.7363 10.2181 13.7363 8.63216C13.7363 7.04626 15.4863 5.46035 15.4863 3.67621C15.4863 2.38767 14.6113 1 14.6113 1M18.5002 10.8128C18.5002 10.8128 17.6252 10.2181 17.6252 8.63216C17.6252 7.04626 19.3752 5.46035 19.3752 3.67621C19.3752 2.38767 18.5002 1 18.5002 1M22.4863 10.8128C22.4863 10.8128 21.6113 10.2181 21.6113 8.63216C21.6113 7.04626 23.3613 5.46035 23.3613 3.67621C23.3613 2.38767 22.4863 1 22.4863 1" stroke="#45403C" stroke-miterlimit="10" stroke-linecap="round" stroke-linejoin="round"/>
<path d="M24.8194 32.9162C24.8194 34.0065 22 34.8986 18.5972 34.8986C15.1944 34.8986 12.375 34.0065 12.375 32.9162V31.3303H24.8194V32.9162Z" fill="#E0E0E0" stroke="#45403C" stroke-miterlimit="10" stroke-linecap="round" stroke-linejoin="round"/>
<path d="M32.5968 17.5527C32.5968 22.5087 31.3329 29.7444 24.1385 31.925C24.1385 31.925 21.9023 32.6188 18.4996 32.6188C15.0968 32.6188 12.8607 31.925 12.8607 31.925C5.66623 29.7444 4.40234 22.5087 4.40234 17.5527H32.5968Z" fill="#F0F0F0"/>
<path d="M5.27734 24.0946C8.97179 24.9867 13.5412 26.077 18.4996 26.077C23.4579 26.077 27.9301 25.0858 31.7218 24.0946C32.4023 21.8148 32.5968 19.5351 32.5968 17.5527H4.40234C4.40234 19.5351 4.59679 21.914 5.27734 24.0946Z" fill="white"/>
<path d="M32.5968 17.5527C32.5968 22.5087 31.3329 29.7444 24.1385 31.925C24.1385 31.925 21.9023 32.6188 18.4996 32.6188C15.0968 32.6188 12.8607 31.925 12.8607 31.925C5.66623 29.7444 4.40234 22.5087 4.40234 17.5527H32.5968Z" stroke="#45403C" stroke-miterlimit="10" stroke-linecap="round" stroke-linejoin="round"/>
<path d="M18.4996 22.5088C26.2852 22.5088 32.5968 20.29 32.5968 17.5529C32.5968 14.8158 26.2852 12.5969 18.4996 12.5969C10.7139 12.5969 4.40234 14.8158 4.40234 17.5529C4.40234 20.29 10.7139 22.5088 18.4996 22.5088Z" fill="#E0E0E0"/>
<path d="M18.4996 14.5793C25.3051 14.5793 31.0412 16.2643 32.3051 18.5441C32.4996 18.2467 32.5968 17.8502 32.5968 17.5529C32.5968 14.7775 26.2773 12.5969 18.4996 12.5969C10.7218 12.5969 4.40234 14.7775 4.40234 17.5529C4.40234 17.8502 4.49957 18.2467 4.69401 18.5441C5.9579 16.2643 11.694 14.5793 18.4996 14.5793Z" fill="#F0F0F0"/>
<path d="M18.4996 22.5088C26.2852 22.5088 32.5968 20.29 32.5968 17.5529C32.5968 14.8158 26.2852 12.5969 18.4996 12.5969C10.7139 12.5969 4.40234 14.8158 4.40234 17.5529C4.40234 20.29 10.7139 22.5088 18.4996 22.5088Z" stroke="#45403C" stroke-miterlimit="10" stroke-linecap="round" stroke-linejoin="round"/>
<path d="M18.4996 16.0662C12.4718 16.0662 7.31901 17.4538 5.27734 19.238C7.31901 21.1212 12.4718 22.5089 18.4996 22.5089C24.5273 22.5089 29.6801 21.1212 31.7218 19.3371C29.6801 17.4538 24.5273 16.0662 18.4996 16.0662Z" fill="#EB9C60"/>
<path d="M18.4996 18.5441C23.069 18.5441 27.1523 19.3371 29.7773 20.5265C30.5551 20.13 31.2357 19.7336 31.7218 19.3371C29.6801 17.4538 24.6246 16.1653 18.4996 16.1653C12.3746 16.1653 7.31901 17.5529 5.27734 19.3371C5.76345 19.8327 6.44401 20.2292 7.22179 20.5265C9.84679 19.3371 13.9301 18.5441 18.4996 18.5441Z" fill="#FFCAA1"/>
<path d="M18.4996 16.0662C12.4718 16.0662 7.31901 17.4538 5.27734 19.238C7.31901 21.1212 12.4718 22.5089 18.4996 22.5089C24.5273 22.5089 29.6801 21.1212 31.7218 19.3371C29.6801 17.4538 24.5273 16.0662 18.4996 16.0662Z" stroke="#45403C" stroke-miterlimit="10" stroke-linecap="round" stroke-linejoin="round"/>
</svg>
