<svg width="46.000000" height="46.000000" viewBox="0 0 46 46" fill="none" xmlns="http://www.w3.org/2000/svg" xmlns:xlink="http://www.w3.org/1999/xlink">
	<desc>
			Created with Pixso.
	</desc>
	<defs/>
	<path id="telegram2" d="M23 0C18.45 0 14 1.34 10.22 3.87C6.43 6.4 3.49 9.99 1.75 14.19C0 18.4 -0.45 23.02 0.44 27.48C1.32 31.94 3.51 36.04 6.73 39.26C9.95 42.48 14.05 44.67 18.51 45.55C22.97 46.44 27.59 45.99 31.8 44.24C36 42.5 39.59 39.56 42.12 35.77C44.65 31.99 46 27.54 46 23C46 19.97 45.4 16.98 44.25 14.19C43.09 11.4 41.39 8.87 39.26 6.73C37.12 4.6 34.59 2.9 31.8 1.75C29.01 0.59 26.02 -0.01 23 0ZM30.31 34.85C30.22 35.06 30.09 35.25 29.92 35.41C29.76 35.57 29.56 35.7 29.34 35.77C29.12 35.85 28.89 35.88 28.66 35.86C28.43 35.84 28.21 35.77 28 35.65L21.76 30.8L17.75 34.5C17.66 34.57 17.55 34.61 17.44 34.63C17.32 34.64 17.2 34.63 17.1 34.59L17.87 27.72L17.89 27.74L17.91 27.6C17.91 27.6 29.14 17.37 29.6 16.93C30.06 16.5 29.91 16.41 29.91 16.41C29.94 15.88 29.08 16.41 29.08 16.41L14.19 25.98L7.99 23.87C7.99 23.87 7.04 23.53 6.95 22.78C6.85 22.03 8.02 21.63 8.02 21.63L32.67 11.84C32.67 11.84 34.7 10.93 34.7 12.43L30.31 34.85Z" fill="#F2E3B3" fill-opacity="1.000000" fill-rule="nonzero"/>
</svg>
