<svg width="30.000000" height="32.000000" viewBox="0 0 30 32" fill="none" xmlns="http://www.w3.org/2000/svg" xmlns:xlink="http://www.w3.org/1999/xlink">
	<desc>
			Created with Pixso.
	</desc>
	<defs/>
	<path id="&amp;lt;Compound Path&amp;gt;" d="M29.23 10.11C29.5 9.86 29.66 9.53 29.66 9.18C29.66 8.83 29.5 8.5 29.23 8.25L28.1 7.26C27.83 7.01 27.45 6.87 27.06 6.87C26.67 6.87 26.29 7.01 26.01 7.26L24.64 8.48C22.52 6.9 19.95 5.88 17.22 5.52L17.22 4.06L18 4.06C18.4 4.06 18.78 3.91 19.06 3.66C19.34 3.41 19.5 3.08 19.51 2.72L19.51 1.31C19.51 0.59 18.82 0 18 0L12 0C11.19 0 10.5 0.59 10.5 1.31L10.5 2.72C10.5 3.08 10.66 3.41 10.94 3.66C11.23 3.91 11.6 4.06 12 4.06L12.79 4.06L12.79 5.52C5.54 6.46 0 12.01 0 18.69C0 26.03 6.73 32 15 32C23.26 32 30 26.03 30 18.69C30 16.15 29.18 13.66 27.63 11.53L29.23 10.11ZM27.05 8.19L28.18 9.18L26.77 10.44C26.43 10.07 26.09 9.72 25.71 9.37L27.05 8.19ZM11.97 2.75L11.97 1.31L18.03 1.31L18.03 2.75L11.97 2.75ZM14.26 4.06L15.74 4.06L15.74 5.39C15.45 5.38 15.24 5.38 15 5.38C14.77 5.38 14.56 5.39 14.26 5.39L14.26 4.06ZM15 30.68C7.55 30.68 1.49 25.3 1.49 18.69C1.49 12.08 7.55 6.68 15 6.68C22.46 6.68 28.52 12.07 28.52 18.69C28.52 25.31 22.46 30.68 15 30.68Z" fill="#733506" fill-opacity="1.000000" fill-rule="nonzero"/>
	<path id="&amp;lt;Compound Path&amp;gt;" d="M15 8L14.86 8C8.37 8.06 3.11 12.71 2.96 18.45C2.91 18.54 2.88 18.64 2.88 18.75C2.88 18.85 2.91 18.96 2.97 19.05C3.19 24.72 8.41 29.29 14.83 29.36C14.86 29.37 14.89 29.37 14.93 29.37C14.96 29.37 14.99 29.37 15.02 29.36C21.65 29.36 27.05 24.58 27.05 18.69C27.05 12.79 21.64 8 15 8ZM15.67 28.04L15.67 26.82C15.67 26.65 15.59 26.48 15.45 26.36C15.31 26.23 15.12 26.16 14.93 26.16C14.73 26.16 14.54 26.23 14.41 26.36C14.27 26.48 14.19 26.65 14.19 26.82L14.19 28.03C9.01 27.68 4.86 24.01 4.47 19.41L5.77 19.41C5.96 19.41 6.15 19.34 6.29 19.22C6.43 19.09 6.5 18.93 6.5 18.75C6.5 18.58 6.43 18.41 6.29 18.29C6.15 18.17 5.96 18.1 5.77 18.1L4.46 18.1C4.62 15.84 5.69 13.71 7.48 12.1C9.27 10.49 11.65 9.51 14.19 9.33L14.19 10.55C14.19 10.73 14.27 10.89 14.41 11.02C14.54 11.14 14.73 11.21 14.93 11.21C15.12 11.21 15.31 11.14 15.45 11.02C15.59 10.89 15.67 10.73 15.67 10.55L15.67 9.33C18.23 9.47 20.65 10.45 22.47 12.06C24.29 13.67 25.38 15.82 25.55 18.1L24.09 18.1C23.89 18.1 23.71 18.17 23.57 18.29C23.43 18.41 23.35 18.58 23.35 18.75C23.35 18.93 23.43 19.09 23.57 19.22C23.71 19.34 23.89 19.41 24.09 19.41L25.53 19.41C25.13 24.05 20.91 27.75 15.67 28.04Z" fill="#733506" fill-opacity="1.000000" fill-rule="nonzero"/>
	<path id="&amp;lt;Path&amp;gt;" d="M19.21 18.16L15.74 18.16L15.74 13.83C15.74 13.65 15.66 13.49 15.53 13.36C15.39 13.24 15.2 13.17 15 13.17C14.81 13.17 14.62 13.24 14.48 13.36C14.34 13.49 14.26 13.65 14.26 13.83L14.26 18.83C14.26 18.91 14.28 18.99 14.31 19.07C14.35 19.15 14.4 19.22 14.47 19.28C14.54 19.34 14.62 19.39 14.7 19.42C14.79 19.46 14.88 19.47 14.98 19.47L19.2 19.47C19.4 19.48 19.58 19.41 19.72 19.28C19.86 19.16 19.94 19 19.94 18.82C19.94 18.65 19.87 18.48 19.73 18.36C19.59 18.23 19.4 18.16 19.21 18.16Z" fill="#733506" fill-opacity="1.000000" fill-rule="nonzero"/>
</svg>
