<svg width="60" height="60" viewBox="0 0 60 60" fill="none" xmlns="http://www.w3.org/2000/svg">
<path d="M30 7.06612C34.35 7.06612 37.875 10.562 37.875 14.876C37.875 19.1901 34.35 22.686 30 22.686C25.65 22.686 22.125 19.1901 22.125 14.876C22.125 10.562 25.65 7.06612 30 7.06612ZM30 40.5372C41.1375 40.5372 52.875 45.9669 52.875 48.3471V52.438H7.125V48.3471C7.125 45.9669 18.8625 40.5372 30 40.5372ZM30 0C21.7125 0 15 6.65702 15 14.876C15 23.095 21.7125 29.7521 30 29.7521C38.2875 29.7521 45 23.095 45 14.876C45 6.65702 38.2875 0 30 0ZM30 33.4711C19.9875 33.4711 0 38.4545 0 48.3471V55.7851C0 57.8306 1.6875 59.5041 3.75 59.5041H56.25C58.3125 59.5041 60 57.8306 60 55.7851V48.3471C60 38.4545 40.0125 33.4711 30 33.4711Z" fill="#733506"/>
</svg>
