<svg width="45.000000" height="35.000000" viewBox="0 0 45 35" fill="none" xmlns="http://www.w3.org/2000/svg" xmlns:xlink="http://www.w3.org/1999/xlink">
	<desc>
			Created with Pixso.
	</desc>
	<defs/>
	<path d="M37.46 13.41C41.76 15.62 44.45 18.77 44.45 22.26C44.45 28.95 34.62 34.37 22.5 34.37C10.38 34.37 0.54 28.95 0.54 22.26C0.54 18.77 3.23 15.62 7.53 13.41L37.46 13.41Z" fill="#F2EEEB" fill-opacity="1.000000" fill-rule="nonzero"/>
	<path d="M34.91 24.25L35.95 26.93C36.29 27.2 36.7 27.37 37.12 27.42C37.54 27.46 37.96 27.39 38.35 27.19C38.74 26.99 39.07 26.69 39.33 26.3C39.58 25.91 39.74 25.46 39.8 24.98C39.85 24.54 39.81 24.09 39.68 23.68C39.56 23.26 39.35 22.88 39.07 22.57C39.01 22.5 38.96 22.42 38.93 22.33C38.9 22.23 38.88 22.13 38.89 22.03C38.9 21.93 38.92 21.83 38.97 21.74C39.01 21.66 39.07 21.58 39.14 21.52L43.23 18.29C42.5 17.17 41.6 16.19 40.58 15.41C40.13 15.05 39.65 14.7 39.14 14.37L39.11 14.36C38.88 14.21 38.64 14.07 38.4 13.92C38.37 13.9 38.33 13.88 38.29 13.86C38.02 13.71 37.75 13.55 37.46 13.41L34.09 13.41L37.11 21.78C36.55 21.84 36.03 22.12 35.63 22.57C35.23 23.02 34.97 23.61 34.91 24.25ZM21.92 28.82C22.34 31.72 23.58 32.04 23.58 32.04C25.25 32.82 27.59 32.64 28.3 32.13C28.3 32.13 30.45 30.74 28.85 28.22L21.92 28.82Z" fill="#C6C5C4" fill-opacity="1.000000" fill-rule="nonzero"/>
	<path d="M26.77 22.65C32.79 21.67 37.23 18.67 37.45 15.09L37.46 15.09L37.46 8.79C37.46 8.48 37.43 8.17 37.36 7.86C36.65 4.42 32.03 1.63 25.98 0.85C25.19 0.74 24.38 0.67 23.55 0.64C23.21 0.63 22.85 0.62 22.5 0.62C15.49 0.62 9.61 3.25 7.98 6.8C7.69 7.41 7.54 8.09 7.53 8.79L7.53 15.09L7.55 15.09C7.66 16.93 8.87 18.6 10.84 19.93L26.77 22.65Z" fill="#F2A66D" fill-opacity="1.000000" fill-rule="nonzero"/>
	<path d="M37.46 14.95L37.46 20.25L37.45 20.25C37.38 21.1 37.12 21.9 36.67 22.58L36.66 22.62L36.62 22.69L36.12 24.52L30.24 26.96C29.58 27.18 28.88 27.38 28.16 27.54L24.23 28.01L21.82 28.1L20.93 28.1C13.57 27.68 7.8 24.34 7.55 20.25L7.53 20.25L7.53 14.95L37.46 14.95Z" fill="#F2A66D" fill-opacity="1.000000" fill-rule="nonzero"/>
	<path d="M21.82 25.37C21.94 24.38 21.87 23.36 21.61 22.41C21.41 21.83 21.04 21.34 20.57 21.03C20.1 20.72 19.55 20.61 19.01 20.7C17.93 20.89 16.83 20.7 15.84 20.16C15.77 20.12 15.69 20.1 15.61 20.09C15.54 20.09 15.46 20.1 15.38 20.14C15.31 20.17 15.25 20.22 15.19 20.28C15.14 20.35 15.1 20.43 15.07 20.51C15.01 20.71 14.92 20.9 14.85 21.09C14.59 21.73 14.42 22.41 14.36 23.11C14.39 23.54 14.34 23.96 14.23 24.37C14.16 24.55 14.06 24.7 13.93 24.82C13.8 24.95 13.64 25.03 13.48 25.08C13.28 25.13 13.07 25.11 12.88 25.03C11.75 24.57 11.86 22.58 11.9 21.49C11.94 20.26 12.06 19.04 12.24 17.83C12.27 17.58 12.3 17.33 12.32 17.08C12.41 16.04 12.76 12.99 13.99 12.5C13.99 12.5 16.8 10.95 23.36 11.15C23.36 11.15 30.33 11.45 31.32 13.95C31.53 14.49 31.62 15.07 31.61 15.66C31.59 16.25 31.46 16.82 31.22 17.34C30.83 18.28 30.28 18.42 29.93 19.09C29.49 19.97 28.96 20.78 28.34 21.52C27.45 22.59 27.67 24.68 27.96 26.08C28.12 26.86 25.73 26.48 26.14 27.12L21.82 25.37Z" fill="#BC7946" fill-opacity="1.000000" fill-rule="nonzero"/>
	<path d="M37.13 10.48L25.06 10.05L25.05 10.05L18.64 9.81L18.64 9.81L7.58 9.42L7.53 9.41L7.53 8.79C7.54 8.1 7.69 7.41 7.98 6.8L20.95 7.27L23.55 0.64C24.38 0.67 25.19 0.74 25.98 0.85L23.42 7.36L37.36 7.86L37.13 10.48Z" fill="#D6925F" fill-opacity="1.000000" fill-rule="nonzero"/>
	<path d="M27.05 7.98C26.96 7.98 26.87 7.95 26.79 7.9C26.71 7.85 26.64 7.78 26.59 7.69C26.54 7.6 26.51 7.5 26.51 7.39C26.5 7.29 26.52 7.18 26.56 7.09L28.88 1.28C28.91 1.2 28.95 1.13 29 1.08C29.05 1.02 29.12 0.97 29.18 0.94C29.25 0.91 29.33 0.9 29.4 0.9C29.47 0.9 29.54 0.92 29.61 0.96C29.68 0.99 29.74 1.04 29.79 1.1C29.83 1.17 29.87 1.24 29.9 1.32C29.92 1.4 29.93 1.48 29.93 1.56C29.92 1.65 29.9 1.73 29.87 1.8L27.55 7.61C27.5 7.72 27.44 7.81 27.35 7.88C27.26 7.94 27.16 7.98 27.05 7.98ZM30.54 7.99C30.45 7.99 30.36 7.96 30.28 7.91C30.2 7.86 30.13 7.79 30.08 7.7C30.03 7.61 30 7.51 29.99 7.41C29.99 7.3 30 7.2 30.04 7.1L30.97 4.73C31 4.65 31.04 4.58 31.09 4.52C31.14 4.47 31.2 4.42 31.27 4.39C31.34 4.36 31.41 4.34 31.48 4.35C31.56 4.35 31.63 4.37 31.7 4.4C31.76 4.43 31.82 4.48 31.87 4.54C31.92 4.61 31.96 4.68 31.99 4.76C32.01 4.84 32.02 4.92 32.02 5C32.01 5.09 32 5.17 31.96 5.24L31.04 7.62C30.99 7.73 30.92 7.82 30.83 7.89C30.75 7.95 30.64 7.99 30.54 7.99Z" fill="#D6925F" fill-opacity="1.000000" fill-rule="nonzero"/>
	<path d="M35.89 5.77L35.87 5.77L24.43 5.36C24.29 5.36 24.15 5.29 24.05 5.16C23.95 5.04 23.9 4.88 23.91 4.72C23.91 4.55 23.97 4.39 24.08 4.28C24.18 4.16 24.32 4.1 24.47 4.11L35.91 4.52C36.05 4.52 36.19 4.59 36.29 4.71C36.39 4.83 36.45 4.99 36.45 5.16C36.44 5.32 36.38 5.48 36.28 5.6C36.18 5.71 36.04 5.78 35.89 5.77ZM17.22 7.76C17.12 7.76 17.04 7.74 16.96 7.69C16.88 7.64 16.81 7.56 16.76 7.48C16.71 7.39 16.68 7.29 16.67 7.18C16.66 7.08 16.68 6.97 16.72 6.88L19.19 0.59C19.25 0.44 19.35 0.32 19.49 0.26C19.56 0.23 19.63 0.22 19.7 0.22C19.77 0.22 19.84 0.24 19.91 0.27C19.97 0.31 20.03 0.36 20.08 0.42C20.13 0.48 20.17 0.55 20.2 0.62C20.22 0.7 20.23 0.78 20.23 0.86C20.23 0.95 20.21 1.03 20.18 1.1L17.72 7.39C17.67 7.5 17.6 7.6 17.51 7.66C17.42 7.73 17.32 7.76 17.22 7.76ZM13.8 7.64C13.71 7.64 13.62 7.61 13.54 7.56C13.46 7.51 13.39 7.44 13.34 7.35C13.29 7.26 13.26 7.16 13.25 7.06C13.25 6.95 13.26 6.85 13.3 6.75L15.49 1.18C15.55 1.03 15.66 0.91 15.79 0.85C15.93 0.8 16.08 0.8 16.21 0.87C16.34 0.94 16.44 1.06 16.49 1.21C16.55 1.37 16.54 1.54 16.49 1.69L14.29 7.27C14.25 7.38 14.18 7.47 14.09 7.54C14.01 7.6 13.9 7.64 13.8 7.64Z" fill="#D6925F" fill-opacity="1.000000" fill-rule="nonzero"/>
	<path d="M22 5.23L21.98 5.23L10.14 4.8C10.06 4.8 9.99 4.78 9.93 4.75C9.86 4.71 9.8 4.67 9.75 4.61C9.66 4.49 9.6 4.32 9.61 4.16C9.61 3.99 9.67 3.83 9.78 3.72C9.88 3.61 10.03 3.55 10.17 3.55L22.01 3.98C22.08 3.98 22.15 3.99 22.22 4.03C22.29 4.06 22.35 4.11 22.4 4.17C22.45 4.22 22.48 4.29 22.51 4.37C22.54 4.45 22.55 4.53 22.55 4.61C22.55 4.69 22.53 4.78 22.5 4.85C22.48 4.93 22.44 5 22.38 5.05C22.33 5.11 22.27 5.15 22.2 5.18C22.14 5.22 22.07 5.23 22 5.23L22 5.23Z" fill="#D6925F" fill-opacity="1.000000" fill-rule="nonzero"/>
	<path d="M34.64 27.12C34.64 28.52 33.65 29.65 32.44 29.65C31.22 29.65 30.24 28.52 30.24 27.12C30.24 25.73 31.22 24.6 32.44 24.6C33.65 24.6 34.64 25.73 34.64 27.12Z" fill="#CE986F" fill-opacity="1.000000" fill-rule="evenodd"/>
	<path d="M34.6 27.63C35.04 27.98 35.57 28.16 36.11 28.14C36.65 28.11 37.16 27.88 37.58 27.49C37.99 27.09 38.29 26.55 38.41 25.95C38.53 25.35 38.48 24.72 38.26 24.15C38.04 23.59 37.67 23.12 37.19 22.83C36.72 22.53 36.18 22.42 35.64 22.51C35.11 22.6 34.62 22.89 34.24 23.33C33.86 23.77 33.62 24.34 33.56 24.95L34.6 27.63Z" fill="#CE986F" fill-opacity="1.000000" fill-rule="nonzero"/>
	<path d="M33.6 27.79C33.6 28.82 32.88 29.65 31.99 29.65C31.09 29.65 30.37 28.82 30.37 27.79C30.37 26.77 31.09 25.93 31.99 25.93C32.88 25.93 33.6 26.77 33.6 27.79Z" fill="#D3A785" fill-opacity="1.000000" fill-rule="evenodd"/>
	<path d="M34.27 27.39C34.6 27.65 34.99 27.78 35.38 27.76C35.78 27.74 36.16 27.57 36.46 27.28C36.77 26.99 36.98 26.6 37.07 26.16C37.16 25.71 37.13 25.25 36.96 24.83C36.8 24.42 36.53 24.07 36.18 23.86C35.83 23.64 35.43 23.55 35.04 23.62C34.65 23.69 34.29 23.9 34.01 24.22C33.73 24.55 33.55 24.97 33.5 25.42L34.27 27.39Z" fill="#D3A785" fill-opacity="1.000000" fill-rule="nonzero"/>
	<path d="M27.26 20.11C27.87 19.38 28.41 18.56 28.85 17.68C29.19 17.02 29.75 16.87 30.14 15.94C30.38 15.41 30.51 14.84 30.53 14.25C30.54 13.66 30.45 13.08 30.24 12.54C29.25 10.04 22.28 9.74 22.28 9.74C15.72 9.54 12.91 11.1 12.91 11.1C11.68 11.59 11.33 14.63 11.24 15.67C11.22 15.92 11.19 16.17 11.16 16.42C10.98 17.63 10.86 18.85 10.82 20.08C10.78 21.17 10.67 23.17 11.8 23.63C11.99 23.71 12.2 23.72 12.4 23.67C12.56 23.63 12.71 23.54 12.84 23.41C12.98 23.29 13.08 23.14 13.15 22.96C13.26 22.56 13.31 22.13 13.28 21.71C13.34 21.01 13.5 20.32 13.77 19.69C13.84 19.49 13.93 19.3 13.99 19.1C14.01 19.02 14.06 18.94 14.11 18.88C14.16 18.81 14.23 18.76 14.3 18.73C14.38 18.7 14.45 18.68 14.53 18.68C14.61 18.69 14.69 18.71 14.76 18.75C15.75 19.29 16.85 19.48 17.93 19.29C18.47 19.2 19.02 19.31 19.49 19.62C19.96 19.93 20.33 20.42 20.53 21C20.79 21.96 20.86 22.97 20.74 23.96C20.39 30.09 22.5 30.63 22.5 30.63C24.17 31.41 26.51 31.23 27.22 30.72C27.22 30.72 29.37 29.33 27.77 26.82C27.35 26.18 27.05 25.45 26.88 24.68C26.59 23.27 26.37 21.19 27.26 20.11Z" fill="#733506" fill-opacity="1.000000" fill-rule="nonzero"/>
	<path d="M24.94 16.65C24.94 16.98 24.7 17.26 24.41 17.26C24.11 17.26 23.87 16.98 23.87 16.65C23.87 16.31 24.11 16.04 24.41 16.04C24.7 16.04 24.94 16.31 24.94 16.65Z" fill="#B6825A" fill-opacity="1.000000" fill-rule="evenodd"/>
	<path d="M20.33 17.5C20.32 17.5 20.31 17.5 20.3 17.5C18.32 17.36 16.37 16.97 14.47 16.34C14.4 16.32 14.33 16.28 14.28 16.23C14.22 16.18 14.18 16.11 14.14 16.04C14.11 15.97 14.08 15.89 14.08 15.81C14.07 15.72 14.08 15.64 14.1 15.56C14.12 15.48 14.15 15.41 14.2 15.34C14.24 15.28 14.3 15.23 14.36 15.19C14.42 15.15 14.49 15.12 14.57 15.11C14.64 15.11 14.71 15.11 14.78 15.14C16.6 15.74 18.48 16.11 20.37 16.25C20.52 16.26 20.65 16.33 20.75 16.45C20.85 16.57 20.9 16.73 20.9 16.9C20.89 17.06 20.83 17.22 20.73 17.34C20.62 17.45 20.48 17.51 20.33 17.5L20.33 17.5Z" fill="#B6825A" fill-opacity="1.000000" fill-rule="nonzero"/>
	<path d="M17.61 11.96C18.39 12.06 18.99 12.52 18.95 13C18.9 13.48 18.23 13.79 17.45 13.7C16.66 13.6 16.06 13.14 16.11 12.66C16.15 12.18 16.82 11.87 17.61 11.96Z" fill="#FFFFFF" fill-opacity="1.000000" fill-rule="evenodd"/>
	<path d="M21.28 12.14C21.61 12.18 21.86 12.37 21.84 12.57C21.83 12.77 21.54 12.9 21.22 12.86C20.89 12.82 20.64 12.63 20.66 12.43C20.68 12.23 20.96 12.1 21.28 12.14Z" fill="#FFFFFF" fill-opacity="1.000000" fill-rule="evenodd"/>
	<path d="M38 13.01L38 8.79C38 8.45 37.97 8.1 37.9 7.77C37.9 7.76 37.9 7.75 37.9 7.74C37.9 7.74 37.9 7.73 37.89 7.72C36.91 1.55 26.37 0 22.5 0C15.43 0 9.26 2.67 7.5 6.51C7.17 7.21 6.99 8 6.99 8.79L6.99 13.01C2.48 15.42 0 18.7 0 22.26C0 29.4 9.88 35 22.5 35C35.12 35 45 29.4 45 22.26C45 18.69 42.51 15.42 38 13.01ZM34.09 27.12C34.09 27.5 33.99 27.87 33.81 28.18C33.63 28.49 33.37 28.73 33.07 28.88C32.77 29.02 32.44 29.06 32.11 28.98C31.79 28.91 31.5 28.73 31.27 28.46C31.04 28.2 30.88 27.86 30.81 27.49C30.75 27.12 30.78 26.74 30.91 26.4C31.03 26.05 31.25 25.75 31.52 25.55C31.79 25.34 32.11 25.23 32.44 25.23C32.88 25.23 33.3 25.43 33.61 25.78C33.92 26.14 34.09 26.62 34.09 27.12ZM34.16 24.68C34.28 24.25 34.5 23.87 34.81 23.59C35.12 23.31 35.49 23.14 35.88 23.11C36.27 23.08 36.66 23.19 37 23.43C37.33 23.66 37.6 24.01 37.76 24.42C37.91 24.83 37.96 25.28 37.89 25.73C37.81 26.17 37.62 26.57 37.34 26.88C37.06 27.2 36.7 27.41 36.31 27.48C35.93 27.55 35.53 27.49 35.18 27.29C35.18 27.24 35.18 27.18 35.18 27.12C35.18 26.65 35.09 26.19 34.92 25.77C34.74 25.34 34.48 24.97 34.16 24.68ZM36.9 20.21C36.86 20.8 36.69 21.38 36.41 21.88C35.73 21.77 35.04 21.93 34.46 22.33C33.87 22.73 33.42 23.36 33.18 24.09C32.82 23.97 32.44 23.94 32.07 24C31.7 24.06 31.34 24.2 31.02 24.42C30.69 24.64 30.42 24.94 30.2 25.29C29.98 25.64 29.83 26.04 29.75 26.46C29.32 26.6 28.88 26.72 28.43 26.83C28.37 26.7 28.29 26.57 28.21 26.45C27.84 25.88 27.56 25.23 27.41 24.53C27.32 24.1 27.25 23.65 27.21 23.21C31.72 22.4 35.23 20.5 36.91 18.08L36.91 20.12C36.91 20.15 36.9 20.18 36.9 20.21L36.9 20.21ZM8.08 8.79C8.08 8.33 8.17 7.87 8.33 7.44L20.93 7.9L20.95 7.9C21.05 7.9 21.16 7.87 21.25 7.8C21.33 7.73 21.4 7.64 21.45 7.53L23.9 1.29C24.02 1.3 24.14 1.31 24.26 1.31C24.5 1.33 24.73 1.34 24.96 1.37C25.03 1.37 25.1 1.38 25.17 1.39L22.92 7.1C22.89 7.2 22.87 7.3 22.88 7.4C22.88 7.5 22.91 7.6 22.96 7.69C23.01 7.78 23.07 7.85 23.15 7.9C23.23 7.95 23.32 7.98 23.41 7.99L36.9 8.47C36.91 8.58 36.91 8.68 36.91 8.79L36.91 9.85L25.15 9.42C24.21 9.26 23.25 9.16 22.3 9.11C20.92 9.07 19.71 9.11 18.65 9.19L8.08 8.81L8.08 8.79ZM30.74 12.28C30.43 11.64 29.96 11.12 29.38 10.81L36.21 11.07C35.27 12.56 33.45 13.89 31.02 14.84C31.16 13.97 31.06 13.08 30.74 12.28ZM30.58 16.32C33.51 15.32 35.69 13.84 36.91 12.08L36.91 14.26C36.91 14.29 36.9 15.02 36.9 15.05C36.71 18.12 32.75 20.92 27.2 21.94C27.21 21.43 27.38 20.94 27.66 20.54C28.3 19.77 28.86 18.92 29.32 18C29.44 17.8 29.58 17.62 29.75 17.47C30.09 17.15 30.38 16.76 30.58 16.32ZM11.04 13.32C9.65 12.35 8.7 11.23 8.3 10.07L13.35 10.24C13 10.37 12.78 10.48 12.7 10.52C11.84 10.88 11.34 12.07 11.04 13.32ZM10.8 14.61C10.76 14.97 10.72 15.31 10.7 15.61C10.68 15.85 10.65 16.09 10.62 16.32C10.49 17.25 10.4 18.07 10.34 18.82C9.25 17.92 8.19 16.65 8.1 15.05C8.09 15.02 8.09 14.69 8.08 14.65L8.08 12.09C8.84 13.12 9.77 13.97 10.8 14.61L10.8 14.61ZM8.08 18.11C8.7 18.96 9.44 19.69 10.26 20.26C10.22 21.48 10.19 23.63 11.62 24.21C11.91 24.33 12.22 24.36 12.52 24.28C12.77 24.22 12.99 24.09 13.19 23.9C13.38 23.72 13.54 23.5 13.65 23.24C13.78 22.89 13.84 22.51 13.82 22.13C15.9 22.89 18.05 23.36 20.23 23.51C20.22 23.73 20.2 23.86 20.2 23.86C20.2 23.88 20.2 23.9 20.19 23.92C20.11 25.09 20.15 26.27 20.29 27.43C13.51 26.87 8.31 23.82 8.1 20.21C8.09 20.17 8.09 20.14 8.08 20.1L8.08 18.11ZM13.97 20.86C14.05 20.55 14.15 20.24 14.27 19.94L14.33 19.79C14.39 19.64 14.46 19.48 14.51 19.31C15.6 19.91 16.81 20.12 18.01 19.92C18.42 19.84 18.84 19.93 19.21 20.16C19.57 20.4 19.86 20.77 20.01 21.22C20.12 21.55 20.18 21.9 20.22 22.26C18.09 22.1 15.99 21.63 13.97 20.86L13.97 20.86ZM21.28 24.03C21.41 22.94 21.33 21.83 21.04 20.79C20.8 20.07 20.35 19.48 19.77 19.09C19.2 18.71 18.52 18.56 17.86 18.68C16.89 18.85 15.89 18.68 15 18.2C14.87 18.12 14.71 18.07 14.56 18.06C14.4 18.05 14.25 18.08 14.1 18.15C13.96 18.22 13.82 18.32 13.72 18.45C13.61 18.58 13.53 18.73 13.47 18.9C13.43 19.02 13.39 19.14 13.34 19.26L13.27 19.43C12.98 20.13 12.8 20.88 12.74 21.65C12.73 21.79 12.73 21.94 12.73 22.08C12.74 22.29 12.72 22.49 12.66 22.69C12.63 22.78 12.57 22.86 12.51 22.92C12.44 22.99 12.37 23.03 12.28 23.06C12.18 23.08 12.08 23.07 11.99 23.03C11.28 22.75 11.33 21.11 11.36 20.23L11.36 20.1C11.41 18.9 11.52 17.7 11.7 16.52C11.73 16.26 11.76 16 11.78 15.73C11.97 13.55 12.49 11.93 13.09 11.69C13.11 11.68 13.13 11.67 13.15 11.66C13.18 11.64 15.91 10.17 22.26 10.36C24.83 10.48 29.12 11.24 29.74 12.8C29.91 13.25 30 13.75 29.98 14.24C29.96 14.74 29.85 15.23 29.65 15.67C29.5 16 29.29 16.3 29.03 16.53C28.77 16.76 28.55 17.05 28.38 17.37C27.96 18.2 27.45 18.98 26.87 19.68C25.83 20.93 26.01 23.17 26.34 24.82C26.53 25.67 26.87 26.48 27.33 27.18C27.52 27.39 27.66 27.65 27.74 27.93C27.82 28.21 27.84 28.51 27.8 28.8C27.76 29.1 27.66 29.38 27.51 29.62C27.36 29.86 27.16 30.05 26.93 30.19C26.4 30.57 24.25 30.77 22.7 30.05C22.68 30.03 22.66 30.03 22.63 30.02C22.62 30.02 20.99 29.38 21.28 24.03L21.28 24.03ZM36.57 7.21L24.26 6.76L26.31 1.53C31.4 2.27 35.42 4.52 36.57 7.21L36.57 7.21ZM22.5 1.25C22.57 1.25 22.64 1.25 22.71 1.25L20.6 6.63L8.98 6.21C11.08 3.29 16.51 1.25 22.5 1.25ZM22.5 33.74C10.69 33.74 1.09 28.59 1.09 22.26C1.09 19.37 3.23 16.53 6.99 14.4L6.99 20.25C6.99 20.31 7 20.38 7.02 20.44C7.4 24.74 13.03 28.17 20.54 28.7C21.09 30.67 22.04 31.13 22.32 31.22C23.22 31.61 24.18 31.8 25.14 31.79C26.14 31.79 27.03 31.59 27.49 31.26C28.16 30.8 28.65 30.05 28.85 29.18C28.92 28.8 28.92 28.39 28.85 28.01C29.15 27.93 29.45 27.85 29.75 27.76C29.86 28.4 30.15 28.99 30.57 29.43C30.99 29.88 31.52 30.16 32.09 30.25C32.66 30.33 33.23 30.21 33.74 29.9C34.24 29.59 34.65 29.1 34.9 28.51C35.61 28.84 36.4 28.84 37.11 28.52C37.82 28.19 38.4 27.57 38.73 26.78C39.05 25.99 39.11 25.09 38.87 24.25C38.64 23.42 38.14 22.72 37.47 22.29C37.75 21.72 37.92 21.08 37.98 20.43C38 20.37 38 20.31 38 20.25L38 14.4C41.77 16.54 43.9 19.37 43.9 22.26C43.9 28.59 34.3 33.74 22.5 33.74Z" fill="#4C3C30" fill-opacity="1.000000" fill-rule="nonzero"/>
</svg>
