<svg width="15" height="18" viewBox="0 0 20 24" fill="none" xmlns="http://www.w3.org/2000/svg">
    <path fill-rule="evenodd" clip-rule="evenodd"
          d="M10.0266 8.58093e-05C9.51595 -0.00406254 9.01629 0.142289 8.59533 0.419722C8.17438 0.697154 7.85246 1.09219 7.6732 1.55104L0.203215 20.6644C0.0698148 20.9615 0.000681359 21.2816 5.01115e-06 21.6052C-0.000671337 21.9287 0.0671234 22.2489 0.19928 22.5466C0.331437 22.8443 0.525205 23.113 0.76884 23.3367C1.01248 23.5604 1.30091 23.7344 1.61665 23.8479C1.9324 23.9615 2.26888 24.0124 2.60572 23.9975C2.94255 23.9825 3.27272 23.902 3.57622 23.761C3.87972 23.62 4.15022 23.4215 4.37134 23.1772C4.59245 22.9329 4.75958 22.6481 4.86259 22.34L6.09676 19.1781H13.904L15.1407 22.34C15.2448 22.6469 15.4127 22.9304 15.6341 23.1734C15.8555 23.4164 16.126 23.6137 16.4291 23.7537C16.7322 23.8937 17.0618 23.9734 17.3978 23.9878C17.7339 24.0022 18.0695 23.9511 18.3844 23.8377C18.6994 23.7243 18.9871 23.551 19.2303 23.3279C19.4735 23.1049 19.667 22.8369 19.7993 22.5401C19.9316 22.2434 19.9999 21.9239 20 21.6011C20.0001 21.2783 19.9321 20.9589 19.8001 20.662L12.3301 1.55104C12.1538 1.09984 11.8395 0.710263 11.4285 0.433475C11.0174 0.156688 10.5288 0.0056785 10.0266 8.58093e-05ZM10.0066 9.1911L12.0403 14.4026H7.968L10.0066 9.1911Z"
          fill="#733506"/>
</svg>
