<svg width="15" height="18" viewBox="0 0 20 25" fill="none" xmlns="http://www.w3.org/2000/svg">
    <path fill-rule="evenodd" clip-rule="evenodd"
          d="M3.29062 0.000172845C2.65988 0.00838418 2.04533 0.144868 1.51836 0.39377C1.50717 0.398523 1.49603 0.403323 1.48492 0.40817C1.31101 0.492981 1.14866 0.589409 1.00006 0.696168C0.98883 0.704111 0.977685 0.712111 0.966617 0.720168C0.919449 0.75437 0.873728 0.789586 0.829519 0.825767C0.794055 0.853182 0.759492 0.881189 0.725858 0.909766C0.691164 0.943529 0.657713 0.97794 0.625541 1.01297C0.592162 1.0436 0.559828 1.0748 0.528569 1.10656C0.504284 1.1358 0.480872 1.16541 0.458347 1.19536C0.425542 1.23471 0.39432 1.27473 0.364719 1.31536C0.341241 1.35017 0.318942 1.38538 0.297841 1.42096C0.27421 1.45815 0.251909 1.49576 0.230962 1.53376C0.219382 1.55524 0.208235 1.57685 0.197524 1.59856C0.0391728 1.91673 -0.0235061 2.25535 0.0136113 2.59215V11.7649C-0.00453709 11.9086 -0.00453709 12.0532 0.0136113 12.1969V21.3936C-0.0108793 21.6135 0.00712463 21.8348 0.0671127 22.0512C0.08754 22.1281 0.113208 22.2042 0.144023 22.2792C0.175331 22.3573 0.212161 22.4342 0.254371 22.5096C0.297249 22.5833 0.345237 22.6554 0.398157 22.7256C0.449069 22.7964 0.50487 22.8652 0.565352 22.932C0.60996 22.978 0.656802 23.0228 0.705794 23.0664C0.741411 23.0991 0.778206 23.1311 0.816142 23.1624C0.818366 23.1648 0.820594 23.1672 0.82283 23.1696C0.892586 23.2281 0.966237 23.2842 1.04353 23.3376C1.12563 23.3927 1.21157 23.4448 1.30101 23.4936C1.38916 23.5425 1.48068 23.5881 1.5752 23.6304C1.66829 23.673 1.76427 23.7122 1.86278 23.748C2.06286 23.8189 2.27234 23.8752 2.48808 23.916C2.70365 23.9565 2.92434 23.9815 3.14683 23.9904C3.30379 23.9984 3.46135 23.9984 3.61832 23.9904H9.99845V24C10.0519 24 10.0988 23.9904 10.1489 23.9904C10.3579 23.9884 10.5661 23.9724 10.7709 23.9424C15.8937 23.6544 20 20.5704 20 16.8241C19.9868 15.0325 19.0341 13.3103 17.3316 12.0001C19.0317 10.6892 19.9819 8.967 19.9933 7.17612C19.9933 3.41775 15.867 0.32657 10.7207 0.0505723C10.5244 0.0242046 10.3252 0.0105498 10.1255 0.00977265C10.0854 0.00977265 10.0453 0.000172845 9.99845 0.000172845V0.00977265H3.63169C3.5183 0.00239473 3.40446 -0.000809318 3.29062 0.000172845ZM6.67463 4.79054H10.0319C10.4692 4.78526 10.9034 4.84351 11.3085 4.96177C11.7136 5.08004 12.0812 5.25588 12.3892 5.47872C12.6972 5.70157 12.9392 5.96681 13.1007 6.25851C13.2622 6.55021 13.3398 6.86233 13.329 7.17612C13.329 8.54411 11.9045 9.5713 9.99845 9.5713V9.6097H6.67463V4.79054ZM6.67463 14.3953H9.99845V14.4289C11.9045 14.4289 13.329 15.4561 13.329 16.8241C13.329 18.1776 11.9279 19.1904 10.0519 19.2096H6.67463V14.3953Z"
          fill="#733506"/>
</svg>
