<svg width="15" height="18" viewBox="0 0 19 22" fill="none" xmlns="http://www.w3.org/2000/svg">
    <path d="M19 18.9538C18.0136 19.9128 16.8456 20.6604 15.4961 21.196C14.1559 21.7322 12.6947 22 11.1125 22C9.521 22 8.04584 21.7274 6.68703 21.1821C5.33752 20.6274 4.1602 19.8564 3.15505 18.8692C2.15922 17.8726 1.38208 16.7069 0.823664 15.3718C0.274562 14.0367 0 12.5795 0 11C0 9.42051 0.274562 7.96326 0.823664 6.62821C1.38208 5.29315 2.15922 4.13205 3.15505 3.14487C4.1602 2.14828 5.33752 1.37736 6.68703 0.832051C8.04584 0.277358 9.521 0 11.1125 0C12.6854 0 14.1373 0.272642 15.4681 0.817949C16.8083 1.35385 17.9716 2.10128 18.9582 3.06026L15.1052 6.98077C14.6211 6.32264 14.0256 5.80556 13.3182 5.42949C12.6202 5.05341 11.857 4.86538 11.0287 4.86538C10.2655 4.86538 9.55823 5.02051 8.90674 5.33077C8.25525 5.64103 7.68287 6.07351 7.18961 6.62821C6.70564 7.1829 6.32871 7.83162 6.05882 8.57436C5.78892 9.3171 5.65396 10.1209 5.65396 10.9859C5.65396 11.8603 5.78892 12.6688 6.05882 13.4115C6.32871 14.1543 6.70564 14.8077 7.18961 15.3718C7.68287 15.9264 8.25525 16.359 8.90674 16.6692C9.55823 16.9795 10.2655 17.1345 11.0287 17.1345C11.857 17.1345 12.6202 16.9465 13.3182 16.5704C14.0162 16.1945 14.6073 15.6773 15.0911 15.0193L19 18.9538Z"
          fill="#733506"/>
</svg>
