<svg width="15" height="18" viewBox="0 0 19 22" fill="none" xmlns="http://www.w3.org/2000/svg">
    <path fill-rule="evenodd" clip-rule="evenodd"
          d="M2.34484 0.000165068C2.0341 0.0050354 1.72745 0.0666116 1.44239 0.181377C1.15733 0.296142 0.899449 0.461848 0.683475 0.669029C0.467501 0.876211 0.297666 1.12081 0.183671 1.38885C0.0696747 1.6569 0.0137513 1.94314 0.0190948 2.23123V19.523C-0.0424119 19.9692 0.0454943 20.4221 0.270905 20.8204C0.496315 21.2187 0.848334 21.5431 1.27927 21.7497C1.34872 21.7845 1.42 21.8161 1.49286 21.8443C1.49444 21.8443 1.49602 21.8443 1.4976 21.8443C1.5707 21.8705 1.64515 21.8932 1.72068 21.9125C1.76622 21.9241 1.81213 21.9343 1.85833 21.9433C1.90316 21.9526 1.94827 21.9607 1.9936 21.9675C2.07218 21.98 2.15139 21.9888 2.23092 21.9939C2.32015 22.0001 2.40969 22.0016 2.4991 21.9983H7.13397C7.28118 21.9993 7.42816 21.9875 7.57301 21.9631C13.8881 21.6023 19 16.8717 19 11.0279C19 5.19937 13.9213 0.488622 7.63234 0.0991768C7.48064 0.0720711 7.32643 0.058806 7.17194 0.0595719H2.92153C2.73265 0.0179092 2.53897 -0.00204302 2.34484 0.000165068ZM4.75127 4.44688H6.79935C11.0237 4.44688 14.2678 7.38643 14.2678 11.0256C14.2678 14.6649 11.0213 17.611 6.79935 17.611H4.75127V4.44688Z"
          fill="#733506"/>
</svg>
