<svg width="15" height="18" viewBox="0 0 15 18" fill="none" xmlns="http://www.w3.org/2000/svg">
<path fill-rule="evenodd" clip-rule="evenodd" d="M1.71295 0.0121703C1.69856 0.0120116 1.68416 0.0120116 1.66977 0.0121703C1.62319 0.0177025 1.57685 0.0248401 1.53084 0.0337017C1.49369 0.0398336 1.45675 0.0469695 1.42006 0.055233C1.39551 0.0619543 1.37109 0.0693081 1.34684 0.0769841C1.33426 0.0828492 1.32174 0.088647 1.30929 0.0947804C1.25004 0.112992 1.19176 0.134077 1.13468 0.157837C0.764586 0.310678 0.455606 0.573749 0.253419 0.907919C0.0512318 1.24209 -0.0334321 1.62963 0.0119413 2.01349V8.80971C-0.00366842 8.94308 -0.00366842 9.07774 0.0119413 9.21111V16.0073C-0.0265578 16.37 0.0506977 16.7353 0.233486 17.0549C0.262079 17.108 0.293409 17.1595 0.32736 17.2096C0.361874 17.2581 0.398842 17.3049 0.438133 17.35C0.467945 17.3871 0.499261 17.4232 0.532008 17.4581C0.544347 17.4702 0.556865 17.4823 0.569558 17.4941C0.59578 17.5176 0.622702 17.5404 0.65029 17.5624C0.667534 17.5771 0.685061 17.5914 0.70286 17.6055C0.712175 17.6128 0.721563 17.6201 0.731022 17.6272C0.77159 17.6595 0.813558 17.6902 0.856815 17.7191C0.866145 17.7252 0.875533 17.731 0.884977 17.7369C0.980284 17.7946 1.08082 17.8441 1.18538 17.8845C1.19539 17.8846 1.2054 17.8846 1.21542 17.8845H1.22293H1.23044C1.48076 17.9749 1.74833 18.0129 2.01523 17.9961H13.1225C13.6204 17.9961 14.098 17.8066 14.4501 17.469C14.8022 17.1315 15 16.6736 15 16.1963C15 15.7189 14.8022 15.2613 14.4501 14.9237C14.098 14.5862 13.6204 14.3964 13.1225 14.3964H3.76694V10.7985H9.36751C9.86545 10.7985 10.343 10.609 10.6951 10.2714C11.0472 9.93389 11.245 9.476 11.245 8.99866C11.245 8.52131 11.0472 8.06364 10.6951 7.72611C10.343 7.38857 9.86545 7.19881 9.36751 7.19881H3.76694V3.6011H13.1225C13.6204 3.6011 14.098 3.41133 14.4501 3.0738C14.8022 2.73626 15 2.2786 15 1.80125C15 1.3239 14.8022 0.86602 14.4501 0.528483C14.098 0.190947 13.6204 0.00140465 13.1225 0.00140465H2.04527C1.99835 -0.000283296 1.95138 -0.000283296 1.90446 0.00140465C1.89006 0.00124596 1.87567 0.00124596 1.86128 0.00140465C1.81185 -0.000468218 1.76237 -0.000468218 1.71295 0.00140465V0.0121703Z" fill="#733506"/>
</svg>
