<svg width="18" height="18" viewBox="0 0 21 21" fill="none" xmlns="http://www.w3.org/2000/svg">
    <path d="M11.0004 0.999767C8.22034 1.00767 4.96584 0.406457 3 1.58612C1.03416 2.76579 0.515975 5.63093 0.502809 7.29922V10.9287C0.499064 10.9834 0.499064 11.0382 0.502809 11.0929V18.9988C0.502809 19.5295 0.854125 20.0384 1.47947 20.4137C2.10482 20.789 2.95297 20.9998 3.83734 20.9998C4.72172 20.9998 5.56987 20.789 6.19521 20.4137C6.82056 20.0384 7.17188 19.5295 7.17188 18.9988V13.0018H13.8276C14.712 13.0018 15.5601 12.791 16.1855 12.4157C16.8108 12.0404 17.1621 11.5315 17.1621 11.0008C17.1621 10.4701 16.8108 9.96111 16.1855 9.58585C15.5601 9.21059 14.712 8.99977 13.8276 8.99977H7.17188V7.29721C7 4.5 8.82079 5.00177 11.0004 5.00177H17.1655C18.0498 5.00177 18.898 4.79095 19.5233 4.41569C20.1487 4.04043 20.5 3.5307 20.5 3C20.5 2.4693 20.1487 1.96111 19.5233 1.58585C18.898 1.21059 18.0498 0.999767 17.1655 0.999767H11.0004Z"
          fill="#733506"/>
</svg>
