<svg width="16" height="19" viewBox="0 0 16 19" fill="none" xmlns="http://www.w3.org/2000/svg">
<path d="M11.5535 5.71731C11.1963 5.28654 10.7599 4.95193 10.244 4.71346C9.72817 4.47499 9.17262 4.35577 8.57738 4.35577C8.00198 4.35577 7.47949 4.47115 7.00992 4.70192C7.002 4.70574 6.9941 4.70958 6.98622 4.71346C6.53329 4.9362 6.14106 5.2593 5.80952 5.68269C5.47884 6.11346 5.2209 6.62885 5.03571 7.22885C4.85714 7.82885 4.76786 8.50578 4.76786 9.25962C4.76786 10.0289 4.86376 10.7288 5.05556 11.3596C5.24735 11.9904 5.52183 12.5327 5.87897 12.9866C6.23611 13.4327 6.6594 13.7788 7.14881 14.0249C7.64484 14.2712 8.19378 14.3941 8.79564 14.3941C9.24537 14.3941 9.65543 14.3251 10.0258 14.1866C10.3962 14.0482 10.7235 13.8442 11.0079 13.575C11.2924 13.3058 11.5338 12.975 11.7322 12.5827C11.9306 12.1827 12.0827 11.7288 12.1884 11.2212H11.4643H10.0456H8.62698V7.75962H10.3805H12.7738H15.6408L15.75 9.50192C15.75 10.8173 15.5781 12.0211 15.2341 13.1135C14.8968 14.1981 14.414 15.1326 13.7857 15.9172C13.1575 16.7018 12.4068 17.3096 11.5338 17.7405C10.6673 18.1634 9.70171 18.375 8.63691 18.375C7.52579 18.375 6.49075 18.1481 5.53175 17.6943C4.57937 17.2328 3.74273 16.5942 3.02183 15.7788C2.30754 14.9557 1.74868 13.9943 1.34524 12.8943C0.948413 11.7942 0.75 10.6058 0.75 9.32885C0.75 8.06731 0.945111 6.89423 1.33532 5.80962C1.72552 4.725 2.27116 3.77501 2.97222 2.95962C3.67329 2.14422 4.49008 1.50961 5.42262 1.05577C6.36178 0.601929 7.37698 0.375 8.46825 0.375C9.49338 0.375 10.4921 0.582692 11.4643 0.998077C12.4365 1.41346 13.3095 2.00576 14.0833 2.775L11.5535 5.71731Z" fill="#733506"/>
</svg>
