<svg width="15" height="18" viewBox="0 0 15 18" fill="none" xmlns="http://www.w3.org/2000/svg">
<path d="M5.90243 0C4.33944 0.00756882 2.84271 0.606993 1.73749 1.66801C0.632277 2.72903 0.00788409 4.16591 0 5.6664V12.339C0.00789928 13.8393 0.632732 15.2759 1.73851 16.3361C2.84429 17.3963 4.3415 17.9943 5.9043 18H9.09739C12.0505 18 14.5029 15.8688 14.9154 13.1382C14.9739 12.9576 15.0024 12.7693 14.9998 12.5802V9.0252C15.0036 8.76497 14.9486 8.50705 14.8386 8.2692C14.8217 8.23263 14.8036 8.19661 14.7842 8.1612C14.7805 8.15398 14.7767 8.14678 14.7729 8.1396C14.7568 8.11279 14.7399 8.08638 14.7223 8.0604C14.5029 7.71495 14.1687 7.45053 13.7736 7.3098C13.7648 7.30794 13.7561 7.30614 13.7473 7.3044C13.6473 7.27029 13.5444 7.2444 13.4398 7.227C13.4118 7.22279 13.3837 7.21919 13.3555 7.2162C13.3119 7.20992 13.2681 7.20512 13.2242 7.2018C13.1868 7.19952 13.1492 7.19832 13.1117 7.1982C13.1067 7.19818 13.1017 7.19818 13.0967 7.1982H9.40301C8.90573 7.1982 8.42883 7.38784 8.0772 7.72541C7.72557 8.06297 7.52803 8.52081 7.52803 8.9982C7.52803 9.47559 7.72557 9.93343 8.0772 10.271C8.42883 10.6086 8.90573 10.7982 9.40301 10.7982H11.2499V12.3372C11.2499 13.5126 10.3217 14.3982 9.09739 14.3982H5.90243C5.61826 14.4048 5.33565 14.3561 5.07165 14.255C4.80764 14.1538 4.56773 14.0024 4.36639 13.8098C4.16504 13.6171 4.00645 13.3873 3.90018 13.1343C3.79391 12.8812 3.74217 12.61 3.74808 12.3372V5.6664C3.74995 4.491 4.67807 3.6 5.9043 3.6H13.1248C13.6221 3.6 14.099 3.41036 14.4506 3.07279C14.8023 2.73523 14.9998 2.27739 14.9998 1.8C14.9998 1.32261 14.8023 0.864773 14.4506 0.527208C14.099 0.189642 13.6221 0 13.1248 0H5.90243Z" fill="#733506"/>
</svg>
