<svg width="15" height="18" viewBox="0 0 15 18" fill="none" xmlns="http://www.w3.org/2000/svg">
    <path fill-rule="evenodd" clip-rule="evenodd"
          d="M1.84233 0.000205396C1.34607 0.00822945 0.873449 0.20476 0.528335 0.5466C0.183222 0.888441 -0.00613944 1.34762 0.00187238 1.8232V8.90526C-0.000330398 8.95548 -0.000330398 9.00577 0.00187238 9.05599V16.1255C-0.0094357 16.3676 0.0305657 16.6095 0.119463 16.8364C0.20836 17.0633 0.344309 17.2706 0.519107 17.4458C0.693904 17.621 0.903926 17.7604 1.1365 17.8556C1.36907 17.9509 1.61936 18 1.87228 18C2.1252 18 2.3755 17.9509 2.60807 17.8556C2.84064 17.7604 3.05066 17.621 3.22546 17.4458C3.40026 17.2706 3.53621 17.0633 3.6251 16.8364C3.714 16.6095 3.754 16.3676 3.74269 16.1255V10.7659H11.2281V16.1237C11.2168 16.3658 11.2568 16.6077 11.3457 16.8346C11.4346 17.0615 11.5705 17.2688 11.7453 17.444C11.9201 17.6192 12.1301 17.7586 12.3627 17.8538C12.5953 17.9491 12.8456 17.9982 13.0985 17.9982C13.3514 17.9982 13.6017 17.9491 13.8343 17.8538C14.0669 17.7586 14.2769 17.6192 14.4517 17.444C14.6265 17.2688 14.7624 17.0615 14.8513 16.8346C14.9402 16.6077 14.9802 16.3658 14.9689 16.1237V9.30719C15.0104 9.0919 15.0104 8.87115 14.9689 8.65586V1.8232C14.9729 1.58289 14.9266 1.34424 14.8325 1.12143C14.7385 0.898625 14.5987 0.696195 14.4214 0.52616C14.2442 0.356125 14.0331 0.22195 13.8007 0.131601C13.5683 0.0412514 13.3193 -0.00343103 13.0685 0.000205396C12.5723 0.00822945 12.0997 0.20476 11.7545 0.5466C11.4094 0.888441 11.2201 1.34762 11.2281 1.8232V7.18095H3.74269V1.8232C3.74673 1.58304 3.70041 1.34455 3.60648 1.12186C3.51254 0.89917 3.37291 0.696823 3.19586 0.526812C3.01881 0.356802 2.80794 0.222589 2.57576 0.132131C2.34358 0.0416734 2.09294 -0.00318846 1.84233 0.000205396Z"
          fill="#733506"/>
</svg>
