<svg width="5" height="18" viewBox="0 0 5 18" fill="none" xmlns="http://www.w3.org/2000/svg">
<path fill-rule="evenodd" clip-rule="evenodd" d="M2.46 0.000196664C1.79956 0.00822656 1.17039 0.203497 0.709932 0.543395C0.24947 0.883293 -0.0048605 1.34017 0.00250011 1.81422V16.1255C-0.0125992 16.3677 0.040814 16.6096 0.159515 16.8365C0.278217 17.0634 0.459745 17.2707 0.693146 17.4459C0.926548 17.621 1.20698 17.7604 1.51753 17.8557C1.82807 17.9509 2.16229 18 2.5 18C2.83772 18 3.17193 17.9509 3.48247 17.8557C3.79302 17.7604 4.07345 17.621 4.30685 17.4459C4.54026 17.2707 4.72179 17.0634 4.84049 16.8365C4.95919 16.6096 5.0126 16.3677 4.9975 16.1255V1.81422C5.00087 1.5748 4.93745 1.33728 4.81097 1.11572C4.68448 0.89417 4.4975 0.693006 4.26102 0.52412C4.02455 0.355235 3.74338 0.221958 3.43407 0.132273C3.12476 0.0425876 2.79356 -0.00340706 2.46 0.000196664Z" fill="#733506"/>
</svg>
