<svg width="13" height="18" viewBox="0 0 13 18" fill="none" xmlns="http://www.w3.org/2000/svg">
<path fill-rule="evenodd" clip-rule="evenodd" d="M10.7985 0.000234193C10.5139 0.00398609 10.2331 0.0542686 9.97193 0.14821C9.7108 0.24215 9.47449 0.37791 9.27652 0.547733C9.07854 0.717557 8.92277 0.918118 8.81811 1.13796C8.71345 1.35781 8.66194 1.59263 8.66653 1.82901V12.6001C8.66653 13.6279 7.73706 14.4 6.49994 14.4C5.26281 14.4 4.33335 13.6279 4.33335 12.6001C4.33686 12.3594 4.28226 12.1207 4.17277 11.8979C4.06328 11.6751 3.90113 11.4728 3.6959 11.303C3.49067 11.1331 3.24654 10.9992 2.97794 10.9091C2.70933 10.819 2.42171 10.7746 2.13209 10.7785C1.55897 10.7861 1.01282 10.982 0.613242 11.3234C0.213661 11.6649 -0.00679145 12.1239 0.000159524 12.6001C0.000159524 15.561 2.93589 18 6.49994 18C9.88199 18 12.6682 15.795 12.9456 13.0393C12.9825 12.9046 13.0007 12.7669 12.9997 12.6289V1.82901C13.0044 1.58778 12.9507 1.34823 12.8417 1.12459C12.7327 0.900954 12.5708 0.6978 12.3654 0.527201C12.1601 0.356602 11.9155 0.22204 11.6464 0.131514C11.3772 0.0409868 11.0888 -0.00365741 10.7985 0.000234193Z" fill="#733506"/>
</svg>
