<svg width="15" height="18" viewBox="0 0 15 18" fill="none" xmlns="http://www.w3.org/2000/svg">
<path fill-rule="evenodd" clip-rule="evenodd" d="M2.45177 0.000232725C1.79286 0.00874703 1.1654 0.204483 0.70648 0.544682C0.247558 0.884881 -0.00553105 1.34189 0.00249939 1.81588V16.1199C-0.0125808 16.362 0.0406974 16.6039 0.159119 16.8308C0.277541 17.0577 0.45865 17.2649 0.691517 17.4401C0.924383 17.6153 1.20418 17.7547 1.51402 17.8499C1.82385 17.9452 2.15731 17.9943 2.49426 17.9943C2.83121 17.9943 3.16467 17.9452 3.4745 17.8499C3.78434 17.7547 4.06414 17.6153 4.297 17.4401C4.52987 17.2649 4.71098 17.0577 4.8294 16.8308C4.94782 16.6039 5.0011 16.362 4.98602 16.1199V11.4226L5.34342 11.1026L10.3069 17.0529C10.4664 17.267 10.6846 17.4557 10.9484 17.6073C11.2121 17.759 11.516 17.8705 11.8415 17.9352C12.167 17.9999 12.5074 18.0164 12.842 17.9836C13.1766 17.9509 13.4985 17.8696 13.7881 17.7447C14.0777 17.6198 14.3291 17.454 14.527 17.2571C14.7249 17.0603 14.8651 16.8366 14.9392 16.5996C15.0133 16.3627 15.0197 16.1173 14.9581 15.8785C14.8965 15.6397 14.7681 15.4124 14.5807 15.2103L8.65493 8.11491L14.4007 2.93583C14.7062 2.66797 14.8973 2.34222 14.951 1.99793C15.0047 1.65364 14.9186 1.30554 14.7032 0.995669C14.4878 0.685797 14.1523 0.427414 13.7371 0.251727C13.322 0.0760393 12.845 -0.00943567 12.3638 0.00562577C12.0004 0.0167894 11.6447 0.085008 11.3217 0.205498C10.9988 0.325988 10.7164 0.495832 10.4944 0.703121L5.27843 5.40043C5.18144 5.39152 5.0838 5.38672 4.98602 5.38605V1.81588C4.99008 1.57603 4.92722 1.33803 4.80117 1.11596C4.67512 0.893882 4.48844 0.692244 4.25216 0.522967C4.01589 0.35369 3.73482 0.220212 3.42558 0.130426C3.11634 0.04064 2.78521 -0.00363057 2.45177 0.000232725Z" fill="#733506"/>
</svg>
