<svg width="15" height="18" viewBox="0 0 15 18" fill="none" xmlns="http://www.w3.org/2000/svg">
<path fill-rule="evenodd" clip-rule="evenodd" d="M2.46685 0.000179724C2.13766 0.00393208 1.81273 0.0542207 1.51061 0.148173C1.20848 0.242125 0.935092 0.377901 0.706046 0.547745C0.477 0.71759 0.296786 0.918175 0.175697 1.13805C0.0546084 1.35792 -0.00498317 1.59276 0.000325964 1.82918V16.1767C-0.00149326 16.2975 0.013623 16.4181 0.0454456 16.5368C0.0606088 16.5956 0.0798509 16.6539 0.103099 16.7114C0.149493 16.8259 0.211629 16.9369 0.288589 17.0426C0.316183 17.0781 0.345443 17.113 0.376321 17.147C0.39879 17.1733 0.422193 17.1991 0.446506 17.2244C0.44983 17.2281 0.453173 17.2317 0.456533 17.2352C0.49229 17.2716 0.529915 17.3071 0.569332 17.3415C0.616861 17.3839 0.667045 17.4247 0.719729 17.4639C0.72969 17.4699 0.739717 17.4759 0.749809 17.4819C0.778385 17.5022 0.807638 17.522 0.837541 17.5413C0.882059 17.5707 0.928044 17.5989 0.975405 17.6259C1.0415 17.6625 1.1101 17.6968 1.18095 17.7285C1.25242 17.7599 1.32604 17.7888 1.40153 17.8149C1.47586 17.8416 1.55199 17.8656 1.62964 17.8869C1.70694 17.9071 1.78557 17.9245 1.86526 17.9391C1.94621 17.9547 2.0282 17.9673 2.11091 17.9769H2.12094C2.28662 17.9962 2.45457 18.0034 2.62226 17.9985H12.4934C13.1582 17.9985 13.7957 17.8089 14.2658 17.4713C14.7359 17.1337 15 16.6758 15 16.1983C15 15.7209 14.7359 15.263 14.2658 14.9254C13.7957 14.5878 13.1582 14.3981 12.4934 14.3981H5.00857V1.82918C5.01398 1.58822 4.95196 1.34894 4.8262 1.12552C4.70044 0.902103 4.51351 0.69909 4.27647 0.52852C4.03943 0.35795 3.75712 0.223295 3.44627 0.13254C3.13543 0.0417842 2.80237 -0.0032253 2.46685 0.000179724Z" fill="#733506"/>
</svg>
